<svg xmlns="http://www.w3.org/2000/svg" xmlns:xlink="http://www.w3.org/1999/xlink" viewBox="0 0 438.04 218.23"><defs><clipPath id="a" transform="translate(-326.96 -346.33)"><rect x="329.95" y="499.13" width="49.58" height="60.21" style="fill:none"/></clipPath><clipPath id="b" transform="translate(-326.96 -346.33)"><rect x="326.8" y="346.24" width="128.88" height="78.51" style="fill:none"/></clipPath><clipPath id="c" transform="translate(-326.96 -346.33)"><rect x="326.8" y="396.41" width="125.73" height="168.23" style="fill:none"/></clipPath></defs><title>brown university logo</title><path d="M758.14,480.78h-1.89l-31.71-38.49h-.15v18.61a113.13,113.13,0,0,0,.59,13.88c.37,2.55,2.33,3.57,7.16,3.79v1.69H714.61v-1.69c4-.15,5.91-1.24,6.29-3.79a115.79,115.79,0,0,0,.58-13.88V445.06c0-5.26-.07-6.44-1.39-8.11s-3.36-2.26-6.42-2.48v-1.69h10.65l30.76,36.82h.14V452.14a114.72,114.72,0,0,0-.57-13.88c-.37-2.55-2.35-3.57-7.16-3.79v-1.69H765v1.69c-4,.15-5.91,1.24-6.28,3.79a112.81,112.81,0,0,0-.58,13.88v28.64M653.92,434.47l-2.26.29c-3.29.44-3.72,1.09-2.71,4.31l9.87,31.11H659l11.68-36.66h1.76l13.21,36.59h.16c3-9.21,7.22-24.62,8.47-29.87,1-4.24.64-5.12-2.63-5.48l-2.12-.29v-1.69H705v1.69c-4.82.58-5.33.88-7.74,7.52-.65,1.83-6,18.62-12.12,38.71h-2L670,445l-.15.15-11.9,35.57h-2l-12.64-39.22c-2-6.06-3.07-6.57-7.24-7v-1.69h17.9v1.69m-50.09-.37c-8.62,0-15.93,7.08-15.93,20.81,0,14.1,7.38,24,18,24,8.76,0,15.93-6.79,15.93-20.37,0-15.78-7.6-24.47-18-24.47M629,455.87c0,15.2-10.59,25.5-24.54,25.5S580.82,470.83,580.82,457c0-12.28,8.62-25.35,24.9-25.35,12.64,0,23.23,9.79,23.23,24.17M542,457.26h4.24c3,0,5.33-.37,7.31-2,3.14-2.48,4.23-6.06,4.23-9.65,0-7.66-5.55-10.73-11-10.73a13.08,13.08,0,0,0-4.1.36c-.43.14-.65.51-.65,2v20Zm0,12.42c0,8,.58,8.47,6.58,8.9v1.69H529.17v-1.69c6.14-.44,6.72-1,6.72-8.9V443.38c0-8-.58-8.47-6.43-8.91v-1.69H548c4.67,0,8.84.66,11.53,2.49a10.64,10.64,0,0,1,4.83,9.34c0,6.06-3.73,10.38-9.65,12.78,1.32,2.2,4.31,7.24,6.5,10.45a66.58,66.58,0,0,0,6.14,8,9.39,9.39,0,0,0,5.48,3.65l-.15,1.39h-1c-8.39-.23-11-2.78-13.73-6.79-2.26-3.3-5.34-8.7-7.38-12.13a4.67,4.67,0,0,0-4.6-2.62H542v10.3Zm-50.11-14.1V471.5c0,4.9,1,6.57,6.29,6.5,6.13,0,11.32-3.07,11.32-10.82,0-8-5.85-11.61-13.37-11.61h-4.24Zm0-2.13h4.6c7,0,10.52-3.29,10.52-9.27,0-4.38-1.82-9.27-10.45-9.27a11.61,11.61,0,0,0-4,.44c-.43.14-.65.43-.65,1.89Zm7.16-20.67c5.26,0,8.25.88,10.67,2.57s3.79,4.38,3.79,8c0,6.43-6.06,9.57-9.56,10.45V454c6.65.95,12.64,4.9,12.64,12.28,0,5.18-2.56,8.84-6.79,11.24-3.73,2-8.4,2.78-13.95,2.78H479.07v-1.69c6.14-.44,6.72-1,6.72-8.9v-26.3c-.07-8-.51-8.47-6.29-8.91v-1.69h19.58Z" transform="translate(-326.96 -346.33)" style="fill:#1a1919;fill-rule:evenodd"/><path d="M447.42,396.18a19.78,19.78,0,0,0-2.49-.22c-1.1,0-8.36,0-10.34.34-4.06.64-11.91.31-16.21.14a19.23,19.23,0,0,0-8,1.74,20.13,20.13,0,0,1,1.32,5.2c1.37.24,2.68-1.49,6.59-1.42,4.07.07,14.08-.48,19.14-2.45a56.42,56.42,0,0,1,9.53-2.72c.86-.18,2.22-.35.51-.61m-73.54-5.06c-3.5-2.82-6.72-3.42-11.85-5.83a36.46,36.46,0,0,1-3.21-1.91c-.14-.1-.4-.26-.71-.45a11.09,11.09,0,0,1-1.47,3c.79,1,6.53,7.58,13.87,9.62a26.53,26.53,0,0,1,3.38-4.41m-5.6,8.55a9.48,9.48,0,0,0-7.33-2.14,63.51,63.51,0,0,1-14.17-.27c-4.5-.65-7.3,0-9.55,0-6.85,0,.19.62,1,.93,3.22,1.27,9.72,2.88,14.83,2.51,2.5-.17,6.68,1.35,7.39,1.59,1.84.66,5.16,1.73,7,1.69a30.7,30.7,0,0,1,.87-4.29m49-16.91c-.53.29-1.76,1-2.17,1.35-2.81,2.11-8.89,5-10.29,6.51a16.93,16.93,0,0,1,3.51,4.25c.68,0,2.65-1.57,6.54-6.15,1.25-1.46,2.58-2.24,5-3.57a14,14,0,0,1-2.57-2.39M403.09,375c-2.37,2-6,6.88-6.47,10.78a39.23,39.23,0,0,1,4.46,2.19c2.92-2.88,2.33-6.05,3.47-8.51q.57-1.21,1.25-2.37a10.2,10.2,0,0,1-2.71-2.09m6.67,32a20,20,0,0,0-20.2-20.2,20.2,20.2,0,0,0-20.2,20.2,21.07,21.07,0,0,0,.3,2.71c5.81-1.35,13.52-1.13,16.94,1.58a20.29,20.29,0,0,1,19.38,0,20.7,20.7,0,0,1,3.59-1.35,24,24,0,0,0,.2-3Zm-24.63-6.89a2.35,2.35,0,0,1-2.47,2.23,2.35,2.35,0,0,1-2.23-2.47l0-.26c-.2-.31-1.26-.65-2.83.3-.79.49-1.67.15-.3-1a8.11,8.11,0,0,1,4.05-2.15h0a16.11,16.11,0,0,1,6,.79c.52.21,0,2.75-.14,2.72a4.8,4.8,0,0,0-2.12-.31Zm6.74,7c-.41,1.2-4.66,1.58-5.44,0-.31-.62-.74-2.22-.16-1.89.94.55,4.36.16,5,0s.2-.94.55-.84S392.25,406,391.87,407.17Zm10-6.64c-1.07-.88-2.46-1.26-3-.88l0,.18a2.35,2.35,0,1,1-4.68.41v-.1c-.84-.27-2.19.2-2.38.13s-.68-2.44.07-2.75c2-.83,8.56-1.23,10.46,2.44.22.44.08,1-.48.57Zm-10-15.69a29.07,29.07,0,0,0-1.44-11.58,15,15,0,0,1-2.7-1,37.26,37.26,0,0,0-1,6.78c-.13,2-.07,5.07.3,5.74a28.57,28.57,0,0,1,4.9,0m-20.78-9.58,1,1.63c1.15,1.91,2.94,9.1,5.25,11.48a25.43,25.43,0,0,1,4.57-2.34,50.07,50.07,0,0,0-3-4.56c-2.77-3.68-4.76-5.64-5-6a10.22,10.22,0,0,1-2.81-.25" transform="translate(-326.96 -346.33)" style="fill:#fffffe;fill-rule:evenodd"/><path d="M413.36,509.21v20.26s1.09.84,4.13,0c3.93-1.12,5.68.1,5.68.1V509.11a2.12,2.12,0,0,0-2.09-.88c-3,.09-6,1.29-7.72,1m7.34-64.5c-3,.09-6,1.28-7.73,1V466s1.1.83,4.14,0c3.92-1.12,5.67.11,5.67.11V445.59s-.45-.93-2.08-.88m5.54,64.39v20.44s1.75-1.22,5.68-.1c3,.87,4.13,0,4.13,0V509.21c-1.74.3-4.69-.89-7.72-1-1.63-.05-2.09.88-2.09.88m-73,20.44V509.11a2.11,2.11,0,0,0-2.09-.88c-3,.09-6,1.29-7.72,1v20.26s1.09.84,4.13,0c3.93-1.12,5.68.1,5.68.1m5.16-84.83a2.12,2.12,0,0,0-2.09.88V466s1.75-1.23,5.68-.11c3,.86,4.13,0,4.13,0V445.69c-1.74.3-4.7-.89-7.73-1m69.57,0a2.13,2.13,0,0,0-2.09.88V466s1.75-1.23,5.68-.11c3,.86,4.13,0,4.13,0V445.69c-1.74.3-4.7-.89-7.72-1m-66,84.73c3,.87,4.13,0,4.13,0V509.21c-1.74.3-4.7-.89-7.73-1a2.12,2.12,0,0,0-2.09.88v20.44s1.75-1.22,5.68-.1m-10.85-84.73c-3,.09-6,1.28-7.72,1V466s1.1.83,4.13,0c3.93-1.12,5.68.11,5.68.11V445.59s-.46-.93-2.09-.88m31.92-32.59c-4.26-2-10.28-1.34-15.33.46,1.4,1.87,3.73,6.23,4.93,7.7,2.33,2.83,6.3,1.4,6.47.55a18.57,18.57,0,0,0-3.22-3.75c-.75-.43-1.19-1.11-.77-1.71.7-1,2.36,0,3.26,1.09a45.78,45.78,0,0,0,4.25,4.82c2.49,1.69,7.23.81,6.83-.64-1.63-2.15-2.34-6.59-6.43-8.51m29.88,8.22c2.57,2.61,6.08,1.49,6.25.64-.29-.52-1.91-2.91-2.87-3.43-.78-.43-1.28-1.14-.86-1.74.7-1,2.11-.29,3,.8s3.38,4.33,4.25,4.82c2.26,1.25,7.23.8,6.83-.65-1.38-2.18-2.33-6.58-6.42-8.5-4.26-2-9.71-1.48-14.76.32.91,1.81,3.27,6.43,4.59,7.75m-74-9.67c-3.72-.08-6.82,1-7.91,2.88a5.51,5.51,0,0,0,1.77,7.4c3.24,1.95,6.32.68,6.55-.52-.88-1-2.41-3.25-3.26-3.27-1.24,0-1.14-1.64-.24-1.94,2.16-.71,4.26,3.39,7.37,5.61,2.77,2,6.65.53,6.65-.28-1.69-1.53-3.71-9.71-10.91-9.87m17.86-34.73a1.21,1.21,0,0,1,1.18-.11c3.43,1.11,8.35.36,10.65-3.28a1.23,1.23,0,0,1,1.51-.46c2.37,1,7.23,1.41,13.14-4.6a1.23,1.23,0,0,1,1.66,0c5.2,4.17,10.61,4.43,16.1.78.34-.23.77-.52,1.15-.37a1.24,1.24,0,0,1,.74.89c1.75,8.11,10.22,7.39,12.77,7a1.23,1.23,0,0,1,1.42,1c.28,1.9,2.38,5.58,6,7.46,3.11,1.6,6.5,1.48,10.08-.37a1.17,1.17,0,0,1,1.15,0c4.6,2.46,8.73,2.6,11.34.4a5.9,5.9,0,0,0,1.86-6.29c-.82-2.46-3.27-4-6.72-4.21a1.23,1.23,0,0,1-1.15-1,6.52,6.52,0,0,0-3.18-4.66c-2.7-1.65-6.68-1.84-10.63-.52a1.24,1.24,0,0,1-1.62-1,6.44,6.44,0,0,0-2.78-4.74c-2-1.23-5-1.2-8.77.09a1.24,1.24,0,0,1-1.5-.6c-2.4-4.6-5.77-7.58-9.74-8.63a13.7,13.7,0,0,0-10.85,1.88,1.24,1.24,0,0,1-1.42,0,12.3,12.3,0,0,0-11-2.21,11.79,11.79,0,0,0-7.63,7.81,1.24,1.24,0,0,1-1.63.74c-5.44-2.19-9.89-2.13-12.86.16a8.25,8.25,0,0,0-3.22,6,1.21,1.21,0,0,1-.91,1.35l-1.3.31c-3,.69-6.14,1.4-7.08,6.2a1.24,1.24,0,0,1-1.09,1c-5.25.52-8.67,2.47-9.4,5.33a5.32,5.32,0,0,0,2.28,5.56,5.15,5.15,0,0,0,6.17-.36,1.16,1.16,0,0,1,1.17-.15c3.08,1.18,8.08.94,11.11-1.48,2.2-1.76,3.06-4.36,2.56-7.72a1.16,1.16,0,0,1,.43-1.13Zm83.1.35c3.11-.72,6.85,1.55,5.79,5.74-.18.72-1.94.76-1.88,0,.27-3.5-1.46-3.78-3.77-3.76-.87,0-.81-1.86-.15-2Zm-13.33-6.21c3-1.73,9.22-1.42,11.14,4.1.33.94-.92,2.53-1.69,1.11-2.33-4.28-6.09-4.27-9.23-3.07-.7.28-1.34-1.51-.22-2.15Zm-13-6.37c2.81-1,7.59-1.44,8.87,3.26.37,1.31-1.25,1.94-1.6,1-1.3-3.4-3.76-3.26-6.69-2.33-1.35.44-1-1.79-.58-1.95Zm-23-5.28c2-3.29,12.61-6.36,18,3,.58,1-.19,1.6-.8,2-.43.31-.69-.39-1-.85-4.61-7.29-12.95-5.37-15.19-2-.45.69-1.67-1.17-1.08-2.14Zm-17.06.53c1.86-2.95,8.24-7.48,13.89-2.49.64.55-.12,2.6-.83,2.13-5.17-3.56-9.24-.7-11.4,1.87-1,1.22-2.11-.8-1.67-1.51ZM343,379.55c-2.16,0-3.9,0-5.42,1.7s-1.23,2.73-1.53,3-1.56-.33-1.54-1.21c.09-4.15,5.11-5.77,8.08-5.44,1.13.13,1.43,1.89.42,1.89Zm8.8-7c-3.16.35-4.09,1.89-4.65,3.67-.23.67-2,.19-1.73-1.12.84-3.9,5.07-4.85,6.6-4.52C352.52,370.71,352.36,372.53,351.78,372.59Zm2.71-4.2c.65-3.44,4-8.45,11.7-6.5.94.24.39,2.63-.63,2.23-5.61-2.2-8.43,2.06-9.34,5.41C356.1,370,354.22,369.81,354.49,368.38Z" transform="translate(-326.96 -346.33)" style="fill:#fffffe;fill-rule:evenodd"/><path d="M400.17,558.56c12.25-3.55,24.39-8.28,32.61-15.8a46,46,0,0,0,7.35-8.46H427.59V536h-5.77V534.3H407.89V510.76h3v-4.28c3,.73,7.94-.93,10.14-.93a5.94,5.94,0,0,1,3.7,1.07,6,6,0,0,1,3.69-1.07c2.2,0,7.13,1.65,10.15.93v4.28h3V532c4.47-7.74,6.6-17.21,7.32-30.53l-.09-2H400.17v59m-69.82-78.78H379V435.71H330.34Zm41.23-9H357.65v1.75h-5.77v-1.75H337.95V447.25h3V443c3,.73,7.95-.93,10.15-.93a6,6,0,0,1,3.7,1.06,6,6,0,0,1,3.69-1.06c2.2,0,7.12,1.64,10.14.93v4.28h3Zm28.6,9h48.59V435.71H400.17v44.06Zm41.35-9H427.59v1.75h-5.77v-1.75H407.9V447.25h3V443c3,.73,7.95-.93,10.15-.93a6,6,0,0,1,3.7,1.06,6,6,0,0,1,3.7-1.06c2.2,0,7.12,1.64,10.15.93v4.28h3Z" transform="translate(-326.96 -346.33)" style="fill:#fffffe;fill-rule:evenodd"/><g style="isolation:isolate"><g style="clip-path:url(#a)"><path d="M337.95,531.81v-21h3v-4.28c3,.73,7.94-.93,10.14-.93a6,6,0,0,1,3.7,1.07,6,6,0,0,1,3.69-1.07c2.2,0,7.12,1.65,10.14.93v4.28h3V534.3H357.64V536h-5.77V534.3h-12.4a46.64,46.64,0,0,0,7.09,8.38c7.74,7.26,19.89,12.18,32.4,15.85v-59H330.34l.1,1.87c.48,12.18,2.77,22.11,7.5,30.41" transform="translate(-326.96 -346.33)" style="fill:#fffffe;fill-rule:evenodd"/></g></g><g style="isolation:isolate"><g style="clip-path:url(#b)"><path d="M454.16,394.92c-.73-.54-8.48-1.49-9.69-1.49s-7.87.06-10.45.45a72.13,72.13,0,0,1-16.07,0,14,14,0,0,0-5.67.79,14.72,14.72,0,0,0,1.13-1.05c1.54-1.58,3.26-4.58,6.31-6.07q1.11-.55,2.19-1.16c2.56,1.28,6.6,2.15,11.62-.21,7.49,3.74,12,1.21,13.54-.12a8.49,8.49,0,0,0,3-6.45,7.92,7.92,0,0,0-.4-2.51c-1.08-3.26-4-5.29-8.13-5.76a10,10,0,0,0-1-2.44q.6-.77,1.22-1.52c.36-.45,1.59-2.49-1.71-.79l-.89.49a8.47,8.47,0,0,0-1.55-1.23c-3.07-1.87-7.23-2.1-11.5-1a8.49,8.49,0,0,0-3.52-5.3,10.25,10.25,0,0,0-7-1.06c.17-.41.33-.77.47-1.06,1.24-2.6.57-3.25-.73-2.1-1.47,1.31-2.4,2.24-3.11,3-2.64-4.24-6.13-7.11-10.24-8.2a15.8,15.8,0,0,0-10.9,1.24,26.92,26.92,0,0,0-.69-4c-.65-2.11-1.42-.45-1.54.2l-.57,3.5a14.23,14.23,0,0,0-10.94-1.26,14,14,0,0,0-8.73,8.28,24.07,24.07,0,0,0-4-1,24.19,24.19,0,0,0-3.31-3.48c-1-.9-1.85-.43-1.24,1.34.24.69.44,1.29.64,1.87a11.13,11.13,0,0,0-6.29,2.16,10.92,10.92,0,0,0-4.09,7.09l-.38.09c-2.31.53-5.42,1.4-7.37,4.47l-.7-.44c-5.81-3.86-3.13,1.1-.88,3.29-7.73,1.09-9.91,4.81-10.47,7a6.91,6.91,0,0,0-.21,1.71,8,8,0,0,0,3.5,6.51,7.5,7.5,0,0,0,8.5-.14c3.64,1.17,8.78,1,12.47-1.7,2.13,2.29,3.84,3.92,4.78,4.85a23.87,23.87,0,0,0,7.45,4.72,15.68,15.68,0,0,0-7.44-1c-6.18.86-10.28-.26-12.92-.52-4.36-.43-8.84.32-11.07.32s-5.7,1.11-7.33,1.35-1.64,1.43.8,2.08,7,1.06,8.19,1.59A36.88,36.88,0,0,0,352.35,403c3.3-.25,6.62,1.36,7.48,1.61,1.64.5,5.7,1.61,7.36,1.58a34.47,34.47,0,0,0,.17,3.5,17.46,17.46,0,0,0-1.78.68c-1.85-1.12-10-4.41-19.83-.32-2.09-.72-6.5-3.16-12.55-1.17-7.47,2.47-6.26,9.31-3.79,12.44,3.33,4.24,9.5,3.38,11.29,1.25a9.87,9.87,0,0,0,11.08-.08c2,1.15,11.56,3.05,18.86.08,1,.74,5,2.84,10.15.24,3,1.76,7.88,1.9,10.4-.32.91.78,3.66,1.89,9.5,1.82,7-.08,8.64-1.13,9.63-2a11.9,11.9,0,0,0,10.32.68c2.63,1.65,7.89,1.56,10.71-.29,5.16,2.34,14.61,1.28,17-.35,4.23-2.94,2.19-8.92-2.48-11.76-9.16-4.62-17.69-1-20,.13-2.7-1.82-8.34-3-14.21-1.9a20.93,20.93,0,0,0,0-2.38c0-.09,0-.18,0-.28,1.16-.35,2.81-1.6,6.18-1.82,4.58-.31,15.37-.16,20.77-2.93,3.08-1.57,13.8-3.68,15.23-4.51s1.09-1.47.33-2Zm-39.31-6.19c-3.89,4.58-5.85,6.18-6.54,6.15a16.93,16.93,0,0,0-3.51-4.25c1.4-1.56,7.48-4.39,10.29-6.51.41-.31,1.64-1.07,2.17-1.35a14,14,0,0,0,2.57,2.39c-2.41,1.34-3.73,2.11-5,3.57Zm-56.07-9.94a12.06,12.06,0,0,0,9.85-2.74c3.4,5.43,3.49,10.35,6.77,13.73-4.14-4-7.76-3.93-13.68-7.13-1-.55-2.55-1.54-3-1.76h0a11.76,11.76,0,0,0,.11-1.58c0-.16,0-.35,0-.51ZM384,384.85l.09.19s-1.8-2.71-2-3.05c-.62-.94-1.42-1.9-2.32-3q-1.75-2.12-3.61-4.13a17.88,17.88,0,0,0,8-4.67c.31.23.62.4.94.59q-.2,1.19-.42,2.38a49.58,49.58,0,0,0-.77,7.68,39.82,39.82,0,0,0,.14,4Zm-5.18-3.38a50.07,50.07,0,0,1,3,4.56,25.43,25.43,0,0,0-4.57,2.34C375,386,373.2,378.8,372,376.89l-1-1.63a10.22,10.22,0,0,0,2.81.25c.22.32,2.21,2.28,5,6Zm10.71,5.35a20,20,0,0,1,20.2,20.2,24,24,0,0,1-.2,3,20.69,20.69,0,0,0-3.59,1.35,20.29,20.29,0,0,0-19.38,0c-3.42-2.71-11.13-2.93-16.94-1.58a21.07,21.07,0,0,1-.3-2.71,20.2,20.2,0,0,1,20.2-20.2Zm-2.91-7.72a37.26,37.26,0,0,1,1-6.78,15,15,0,0,0,2.7,1,29.07,29.07,0,0,1,1.44,11.58,28.57,28.57,0,0,0-4.9,0c-.37-.67-.42-3.73-.3-5.74Zm17.91.41c-1.14,2.45-.55,5.63-3.47,8.51a39.23,39.23,0,0,0-4.46-2.19c.46-3.9,4.09-8.77,6.47-10.78a10.2,10.2,0,0,0,2.71,2.09q-.68,1.16-1.25,2.37Zm3.09-.78c.09-.16.2-.37.32-.6a16.35,16.35,0,0,0,6.9.66,12.11,12.11,0,0,0,1.08,2.41l0,0c-1.16.55-4.67,3-9.81,5.82a11.09,11.09,0,0,0-2.62,1.93,12.82,12.82,0,0,0,1.69-2.88C406.07,383.75,405.83,381.89,407.65,378.72Zm-12.43,3a23.11,23.11,0,0,0-1,2.94c.43-3-.39-7.45-1.27-11.28a15.36,15.36,0,0,0,8-2.14,11.93,11.93,0,0,0,.75,1.64C400.19,374.2,396.61,378.13,395.22,381.68Zm-41.45,3.1c-3,2.43-8,2.66-11.11,1.48a1.16,1.16,0,0,0-1.17.15,5.15,5.15,0,0,1-6.17.36,5.32,5.32,0,0,1-2.28-5.56c.72-2.87,4.15-4.81,9.4-5.33a1.24,1.24,0,0,0,1.09-1c.94-4.8,4.06-5.52,7.08-6.2l1.3-.31a1.21,1.21,0,0,0,.91-1.35,8.25,8.25,0,0,1,3.22-6c3-2.29,7.41-2.35,12.86-.16a1.23,1.23,0,0,0,1,0,1.18,1.18,0,0,0,.66-.72,11.79,11.79,0,0,1,7.63-7.81,12.3,12.3,0,0,1,11,2.21,1.24,1.24,0,0,0,1.42,0,13.7,13.7,0,0,1,10.85-1.88c4,1.05,7.35,4,9.74,8.63a1.24,1.24,0,0,0,1.5.6c3.73-1.28,6.76-1.31,8.77-.09a6.44,6.44,0,0,1,2.78,4.74,1.24,1.24,0,0,0,1.62,1c4-1.32,7.93-1.13,10.63.52a6.52,6.52,0,0,1,3.18,4.66,1.23,1.23,0,0,0,1.15,1c3.45.21,5.91,1.74,6.72,4.21a5.9,5.9,0,0,1-1.86,6.29c-2.61,2.2-6.75,2.06-11.34-.4a1.17,1.17,0,0,0-1.15,0c-3.58,1.84-7,2-10.08.37-3.64-1.88-5.75-5.56-6-7.46a1.23,1.23,0,0,0-1.42-1c-2.55.41-11,1.13-12.77-7a1.17,1.17,0,0,0-.74-.89c-.38-.15-.81.14-1.15.37-5.49,3.65-10.91,3.39-16.1-.78a1.23,1.23,0,0,0-1.66,0c-5.92,6-10.77,5.56-13.14,4.6a1.23,1.23,0,0,0-1.51.46c-2.29,3.63-7.22,4.38-10.65,3.28a1.21,1.21,0,0,0-1.18.11,1.16,1.16,0,0,0-.43,1.13c.5,3.36-.37,6-2.56,7.72Zm2.86,1.13a11.09,11.09,0,0,0,1.47-3c.32.19.57.35.71.45a36.47,36.47,0,0,0,3.21,1.91c5.13,2.41,8.35,3,11.85,5.83a26.53,26.53,0,0,0-3.38,4.41c-7.34-2-13.07-8.58-13.87-9.62Zm3.81,16.35c-.72-.25-4.9-1.77-7.39-1.59-5.11.37-11.61-1.24-14.83-2.51-.8-.31-7.84-.93-1-.93,2.25,0,5-.63,9.55,0a63.51,63.51,0,0,0,14.17.27,9.48,9.48,0,0,1,7.33,2.14,30.7,30.7,0,0,0-.87,4.29c-1.8,0-5.12-1-7-1.69Zm-17.28,18.56c-3.1-2.22-5.21-6.32-7.37-5.61-.9.29-1,1.91.24,1.94.85,0,2.38,2.27,3.26,3.27-.23,1.2-3.31,2.47-6.55.52a5.51,5.51,0,0,1-1.77-7.4c1.09-1.91,4.19-3,7.91-2.88,7.2.16,9.22,8.34,10.91,9.87,0,.81-3.88,2.26-6.65.28Zm10.45-.11c-2.72-1.21-4.87-7.46-5.67-8.26-.32-.32,4.81-2.18,10-1.73,8.87.76,8.9,6.26,11.08,9C369.84,420.74,361.85,423,353.61,420.71Zm29,.56a45.78,45.78,0,0,1-4.25-4.82c-.9-1.09-2.56-2.08-3.26-1.09-.42.6,0,1.28.77,1.71a18.57,18.57,0,0,1,3.22,3.75c-.16.85-4.14,2.28-6.47-.55-1.2-1.47-3.53-5.83-4.93-7.7,5.06-1.8,11.07-2.47,15.33-.46,4.09,1.92,4.8,6.35,6.43,8.51.4,1.45-4.34,2.33-6.83.64Zm11.14-.11c-2.71-1.21-4.87-7.47-5.67-8.27-.32-.32,4.81-2.17,10-1.72,8.88.75,8.9,6.27,11.08,9C410,421.19,402,423.49,393.79,421.16Zm44.37-10.29c8.87.75,11,6.59,10.1,8.49-.78,1.66-6.21,3.82-14.45,1.5-2.72-1.21-4.87-7.47-5.67-8.27-.32-.32,4.8-2.17,10-1.72Zm-15.07,1.39c4.1,1.92,5,6.33,6.42,8.5.4,1.45-4.57,1.9-6.83.65-.87-.49-3.35-3.72-4.25-4.82s-2.31-1.79-3-.8c-.42.6.08,1.31.86,1.74,1,.52,2.58,2.91,2.87,3.43-.16.85-3.67,2-6.25-.64-1.32-1.32-3.68-5.94-4.59-7.75,5.05-1.8,10.51-2.32,14.76-.32Zm23.81-15.48a56.42,56.42,0,0,0-9.53,2.72c-5.06,2-15.07,2.52-19.14,2.45-3.9-.06-5.22,1.66-6.59,1.42a20.13,20.13,0,0,0-1.32-5.2,19.23,19.23,0,0,1,8-1.74c4.3.16,12.16.49,16.21-.14,2-.3,9.24-.34,10.34-.34a19.78,19.78,0,0,1,2.49.22c1.72.26.35.43-.51.61Z" transform="translate(-326.96 -346.33)" style="fill:#1a1919;fill-rule:evenodd"/></g></g><path d="M391.87,407.17c-.41,1.2-4.66,1.58-5.44,0-.31-.62-.74-2.22-.16-1.89.94.55,4.36.16,5,0s.2-.94.55-.84.42,1.57,0,2.71m-6.74-7a2.35,2.35,0,0,1-2.47,2.23,2.35,2.35,0,0,1-2.23-2.47l0-.26c-.2-.31-1.26-.65-2.83.3-.79.49-1.67.15-.3-1a8.11,8.11,0,0,1,4.05-2.15h0a16.11,16.11,0,0,1,6,.79c.52.21,0,2.75-.14,2.72a4.8,4.8,0,0,0-2.12-.31v.19M445.65,382c-.18.72-1.94.76-1.88,0,.27-3.5-1.46-3.78-3.77-3.76-.87,0-.81-1.86-.15-2,3.11-.72,6.85,1.55,5.79,5.74M436,375.28c-2.33-4.28-6.09-4.27-9.23-3.07-.7.28-1.34-1.51-.22-2.15,3-1.73,9.22-1.42,11.14,4.1.33.94-.92,2.53-1.69,1.11M420.79,368c-1.3-3.4-3.76-3.26-6.69-2.33-1.35.44-1-1.79-.58-1.95,2.81-1,7.59-1.44,8.87,3.26.37,1.31-1.25,1.94-1.6,1m-13-4.58c-.43.31-.69-.39-1-.85-4.61-7.29-12.95-5.37-15.19-2-.45.69-1.67-1.17-1.08-2.14,2-3.29,12.61-6.36,18,3,.58,1-.19,1.6-.8,2m-21.24-4.81c-5.17-3.56-9.24-.7-11.4,1.87-1,1.22-2.11-.8-1.67-1.51,1.86-2.95,8.24-7.48,13.89-2.49.64.55-.12,2.6-.83,2.13m-21,5.53c-5.61-2.2-8.43,2.06-9.34,5.41-.12.46-2,.28-1.74-1.14.65-3.44,4-8.45,11.7-6.5.94.24.39,2.63-.63,2.23m-13.78,8.47c-3.16.35-4.09,1.89-4.65,3.67-.23.67-2,.19-1.73-1.12.84-3.9,5.07-4.85,6.6-4.52.52.1.36,1.92-.22,2m-8.8,7c-2.16,0-3.9,0-5.42,1.7s-1.23,2.73-1.53,3-1.56-.33-1.54-1.21c.09-4.15,5.11-5.77,8.08-5.44,1.13.13,1.43,1.89.42,1.89" transform="translate(-326.96 -346.33)" style="fill:#1a1919;fill-rule:evenodd"/><g style="isolation:isolate"><g style="clip-path:url(#c)"><path d="M400.17,479.78h48.59V435.71H400.17Zm-69.82,0H379V435.71H330.34ZM379,558.52c-12.51-3.66-24.66-8.59-32.4-15.85a46.64,46.64,0,0,1-7.09-8.38h12.4V536h5.77V534.3h13.93V510.76h-3v-4.28c-3,.72-7.94-.93-10.14-.93a6,6,0,0,0-3.69,1.07,6,6,0,0,0-3.7-1.07c-2.2,0-7.13,1.66-10.14.93v4.28h-3v21c-4.73-8.3-7-18.23-7.5-30.41l-.1-1.87H379Zm-35.55-29V509.21c1.73.3,4.69-.89,7.72-1a2.11,2.11,0,0,1,2.09.88v20.44s-1.75-1.22-5.68-.1c-3,.87-4.13,0-4.13,0Zm12.88.07V509.11a2.12,2.12,0,0,1,2.09-.88c3,.09,6,1.29,7.73,1v20.26s-1.1.84-4.13,0c-3.93-1.12-5.68.1-5.68.1Zm41.33,29.78-8.05,2-8.07-2.08V496.82H330.34V482.48H381.5V435.71h16.12v46.77h51.13v14.34H397.63v62.5ZM441.52,532V510.76h-3v-4.28c-3,.72-7.94-.93-10.15-.93a6,6,0,0,0-3.69,1.07,5.94,5.94,0,0,0-3.7-1.07c-2.2,0-7.13,1.66-10.14.93v4.28h-3V534.3h13.93V536h5.77V534.3h12.53a46,46,0,0,1-7.35,8.46c-8.22,7.52-20.36,12.25-32.61,15.8v-59h48.59l.09,2C448.12,514.83,446,524.31,441.52,532Zm-5.47-22.83v20.26s-1.09.84-4.13,0c-3.93-1.12-5.68.1-5.68.1V509.11s.45-.93,2.09-.88c3,.09,6,1.29,7.72,1Zm-12.88-.11v20.44s-1.75-1.22-5.68-.1c-3,.87-4.13,0-4.13,0V509.21c1.73.3,4.69-.89,7.72-1a2.12,2.12,0,0,1,2.09.88Zm-95.8-76.36V498c0,21.55,5.38,36.48,16.9,47s28.56,15.69,45.31,19.65c17.2-4.06,33.75-9.13,45.3-19.65s16.87-25.41,16.87-47V432.74Zm74.49-32.22c-1.07-.88-2.46-1.26-3-.88l0,.18a2.35,2.35,0,1,1-4.68.41v-.1c-.84-.27-2.19.2-2.38.13s-.68-2.44.07-2.75c2-.83,8.56-1.23,10.46,2.44.22.44.08,1-.48.57" transform="translate(-326.96 -346.33)" style="fill:#1a1919;fill-rule:evenodd"/></g></g><path d="M438.55,447.25V443c-3,.71-7.95-.93-10.15-.93a6,6,0,0,0-3.7,1.06A6,6,0,0,0,421,442c-2.2,0-7.13,1.66-10.15.93v4.28h-3v23.53h13.92v1.75h5.77v-1.75h13.92V447.25h-3ZM422.79,466s-1.75-1.23-5.67-.11c-3,.86-4.14,0-4.14,0V445.69c1.74.3,4.7-.89,7.73-1,1.63-.05,2.08.88,2.08.88Zm12.89-.08s-1.1.83-4.13,0c-3.93-1.12-5.68.11-5.68.11V445.59a2.13,2.13,0,0,1,2.09-.88c3,.09,6,1.28,7.72,1V466Zm-67.08-18.7V443c-3,.71-7.94-.93-10.14-.93a6,6,0,0,0-3.69,1.06,6,6,0,0,0-3.7-1.06c-2.2,0-7.13,1.66-10.15.93v4.28h-3v23.53h13.93v1.75h5.77v-1.75h13.92V447.25h-3ZM353.22,466s-1.75-1.23-5.68-.11c-3,.86-4.13,0-4.13,0V445.69c1.74.3,4.7-.89,7.72-1,1.63-.05,2.09.88,2.09.88Zm12.89-.08s-1.1.83-4.13,0c-3.93-1.12-5.68.11-5.68.11V445.59a2.12,2.12,0,0,1,2.09-.88c3,.09,6,1.28,7.73,1Z" transform="translate(-326.96 -346.33)" style="fill:#1a1919;fill-rule:evenodd"/><path d="M433.82,420.87c8.24,2.32,13.67.16,14.45-1.5.88-1.9-1.23-7.74-10.1-8.49-5.21-.45-10.34,1.4-10,1.72.79.8,2.95,7.06,5.67,8.27m-35.67-9.69c-5.21-.45-10.34,1.41-10,1.72.8.8,3,7.06,5.67,8.27,8.24,2.32,16.23,0,15.43-1-2.18-2.74-2.21-8.26-11.08-9M358,410.72c-5.21-.45-10.34,1.41-10,1.73.8.8,2.95,7.06,5.67,8.26,8.24,2.32,16.23,0,15.43-1-2.19-2.75-2.21-8.26-11.08-9M381.5,559.3l8.07,2.08,8.05-2v-62.5h51.13V482.48H397.63V435.71H381.5v46.77H330.34v14.34H381.5V559.3" transform="translate(-326.96 -346.33)" style="fill:#d8232a;fill-rule:evenodd"/></svg>