<svg xmlns="http://www.w3.org/2000/svg" xmlns:xlink="http://www.w3.org/1999/xlink" width="250" height="249.17" viewBox="0 0 250 249.17"><defs><clipPath id="a" transform="translate(-387 -387.36)"><rect x="387" y="387.36" width="249.99" height="249.28" style="fill:none"/></clipPath></defs><title>California Institute of Technology logo - Brandlogos.net</title><path d="M637,511.95c0,68.81-56,124.59-125,124.59S387,580.75,387,511.95s56-124.59,125-124.59S637,443.14,637,511.95Z" transform="translate(-387 -387.36)" style="fill:#fff"/><g style="clip-path:url(#a)"><path d="M626.79,515l-14.65.62a7.25,7.25,0,0,1,2.81-3.94l11-9.44-10.11.43c-1.46.06-2.51.08-3.26,1.5h-.08l-.2-4.62h.08c.87,1.35,1.91,1.31,3.38,1.24l10.42-.45c1.46-.06,2.5-.11,3.23-1.5h.08l.16,3.81h0a1.6,1.6,0,0,0-.63.42l-.51.39-11.65,10.08,9.9-.43c1.46-.06,2.51-.08,3.23-1.5H630l.19,4.59h-.08c-.84-1.33-1.89-1.28-3.35-1.22m2.13,16.2a9,9,0,0,1-10.22,7.87,9.32,9.32,0,0,1-7.59-10.94c.8-5.11,5.15-8.85,10.45-8a9.29,9.29,0,0,1,7.36,11.08m-5.22,19.17-.07,0c0-1.43-1.92-1.88-3-2.27l-10.77-3.74-1.39,3.28a6.42,6.42,0,0,0,0,4.89l0,.08-2.84-2.43,3.53-10.15.08,0c0,1.41,1.88,1.9,3,2.29l9.31,3.23c1.14.39,2.88,1.17,3.79.07l.08,0Zm-8.46,20a9,9,0,0,1-12.31,3.81,9.32,9.32,0,0,1-3.31-12.9c2.54-4.51,7.91-6.5,12.58-3.87a9.3,9.3,0,0,1,3,13M600.48,591a19.38,19.38,0,0,1-3,2.83l-2.28-2,0-.06c1.61,0,3.18-1.3,4.22-2.51,2.65-3.1,2.65-7.2-.55-9.94a7.36,7.36,0,0,0-10.48.87,13.26,13.26,0,0,0-2,3.08l2.86,2.45c.91.79,1.91,1.6,3,1l.06.05-2.6,3-.06,0A3.07,3.07,0,0,0,589,589l-4.57-3.91a3,3,0,0,0-1-.67,33.87,33.87,0,0,1,3.47-5.26c4.35-5.08,9.7-5.7,13.69-2.29,4.27,3.66,4,9.33-.09,14.13m-8.38,8.07a2.25,2.25,0,0,1-2,.7l-7.59-2.55.64,5.81c.08.79.43,2.13,2,1.74l0,.06-3.51,2.94-1.28-11.55L577.78,593c-1-1.2-1.51-1.8-3.16-1.68l0-.06,3.91-3.28,0,.06c-.56,1.32.67,2.51,1.46,3.45l2.49,3,7.81,2.56a6.32,6.32,0,0,0,3.63.47l-1.83,1.53ZM572.35,431.84c1.33.48,2.43-1.12,3.18-2l6.23-7.63c.76-.93,2.09-2.31,1.37-3.54l0-.06,6.48,5.29a2.67,2.67,0,0,0,1,.67l.06.05-1.92,2.35-.06,0a3.72,3.72,0,0,0-1.75-2.74,14.54,14.54,0,0,0-2.18-1.55l-3.08,3.77,2.43,2a2.63,2.63,0,0,0,1,.59l.06,0-1.75,2.15-.06,0c.17-.87-.71-1.53-1.34-2l-1.5-1.22-3,3.67c-.74.91-2.11,2.26-1.41,3.47l0,.06-3.83-3.12Zm-10.29-6c-4.49-2.58-6.43-8-3.76-12.62a9.3,9.3,0,0,1,13-2.92,9,9,0,0,1,3.7,12.35,9.33,9.33,0,0,1-12.93,3.19m35.86,5.59,0,.06a4.14,4.14,0,0,0,.51.88l.42.5,6.34,7.4a2.89,2.89,0,0,0,.93.8l0,.06-2.9,1.39-.05-.06c.48-.85-.1-1.73-.67-2.39l-1.53-1.79L592,446c-1.14,1-1.92,1.61-1.64,3.19l-.06,0L587,445.31l.06,0c1.23.67,2.58-.69,3.47-1.46l8.85-7.58-1.5-1.75a4.51,4.51,0,0,0-2.82-1.68l0-.06Zm10.23,12.83.06,0,4.53,7a2.65,2.65,0,0,0,.77,1l0,.06L611,453.91l0-.06a3.65,3.65,0,0,0-.79-3.16,14.55,14.55,0,0,0-1.6-2.15l-4.09,2.63,1.68,2.61a2.63,2.63,0,0,0,.75.88l0,.07-2.33,1.5,0-.06c.41-.76-.21-1.67-.64-2.35l-1-1.63-5.21,3.36,1.53,3a6.51,6.51,0,0,0,3.91,3.23l0,.07-3.51.87-5.91-9.17.06,0c1.12.87,2.66-.31,3.65-.95l8.28-5.34c1-.65,2.7-1.55,2.4-2.94m12.9,22.23a20.73,20.73,0,0,1,1.33,4.61l-2.75,1.22a9,9,0,0,0-.6-5c-1.46-3.3-4.89-4.52-8.36-3s-5.58,5.34-4,9a11.51,11.51,0,0,0,3.77,4.42l0,.07h-3.31a9.2,9.2,0,0,1-2.32-3.29c-2.5-5.64-.9-10.53,4.22-12.8,4.95-2.19,9.77-.16,11.94,4.74m3.55,10.12.08,0,1.16,4.83-.08,0c-.79-1.15-2.61-.56-3.78-.27l-3.15.76,2.21,9.18,3.15-.76c1.17-.28,3.07-.55,3.24-2l.08,0,1.17,4.86-.08,0c-.8-1.18-2.62-.58-3.76-.3l-9.61,2.31c-1.14.27-3,.57-3.2,2l-.08,0-1.17-4.86.08,0c.8,1.18,2.61.56,3.75.28l4.6-1.11L617,482.33l-4.6,1.11c-1.14.27-3,.57-3.21,2l-.08,0L608,480.59l.08,0c.79,1.15,2.61.55,3.75.28l9.61-2.32c1.15-.27,3-.54,3.21-2m-75.72-72.79-.07,0a3.69,3.69,0,0,0-2.66-1.88,14.47,14.47,0,0,0-2.61-.58L542.16,406l3,.88a2.62,2.62,0,0,0,1.14.18l.08,0-.79,2.66-.08,0c-.19-.85-1.25-1.13-2-1.36l-1.86-.55-1.76,5.94L543,415a6.49,6.49,0,0,0,5.07-.1l.08,0-2.1,3-10.45-3.1,0-.08c1.41-.07,1.81-2,2.15-3.1l2.8-9.45c.34-1.15,1-2.94-.11-3.79l0-.08,8,2.38a2.72,2.72,0,0,0,1.22.22l.08,0-.87,2.93Zm-19.35,87.88c-5.06,4.45-11.79,7.21-17,11.33-.62-1.55-.55-5.27-.32-7.06,2.16-16.13,12.69-27.82,12.37-45a38.37,38.37,0,0,0-4.28-19.38c.52-.4.8.35,1.14.46,5.6,9.07,11.87,17.85,15,27.91,3.54,10.8,2,23.92-6.94,31.77M515,412.18l0-1.73a7.11,7.11,0,0,1-9.85.46c-1.41-1.49-1.38-3.25-1.41-5.13l-.11-7c0-1.18.14-3.09-1.2-3.56v-.08l5-.08v.08c-1.3.52-1.12,2.42-1.1,3.6l.11,7c0,3.48,1.54,5.08,4.23,5a4.62,4.62,0,0,0,3.79-1.89,3.42,3.42,0,0,0,.51-2.39l-.11-7.87c0-1.17.11-3.09-1.2-3.56V395l5-.07,0,.08c-1.33.52-1.14,2.42-1.12,3.62l.15,9.85c0,1.18-.11,3.09,1.23,3.57v.08Zm-17.53-13.41-.08,0c-.5-.84-1.55-.78-2.4-.62l-2.32.42,2.15,11.73c.27,1.47.43,2.47,1.93,3l0,.08-5.09.93,0-.08c1.2-.72.7-2.57.49-3.73l-2.1-11.47-2.26.41a4.53,4.53,0,0,0-2.87,1.59l-.08,0,.34-3.22.08,0a4.07,4.07,0,0,0,1,0l.64-.12,9.59-1.75a2.92,2.92,0,0,0,1.15-.4h.08l-.27,3.21Zm-16.64,18.51,0-.07c1.11-.83.4-2.64.06-3.77L478,404c-.35-1.15-.73-3-2.15-3.11l0-.08,4.75-1.45,0,.08c-1.11.85-.39,2.66,0,3.78l2.88,9.43c.34,1.13.75,3,2.15,3.09l0,.07Zm-9.93,3.89,0-.08c1-1,.12-2.66-.34-3.75L466,406.62l-2.12.9a4.55,4.55,0,0,0-2.46,2.18l-.07,0L461,406.5l.07,0a4.06,4.06,0,0,0,1-.22l.6-.26,9-3.8a2.94,2.94,0,0,0,1-.64l.07,0,.45,3.19-.07,0c-.67-.71-1.68-.42-2.48-.08l-2.16.92,4.66,11c.58,1.37,1,2.32,2.55,2.53l0,.07-4.76,2Zm-2.13,95.13c-1,.35-.9,1.74-.9,2.58v7c0,.84-.13,2.2.9,2.56v.06h-3.9v-.06c1-.34.9-1.71.9-2.56v-7c0-.86.14-2.22-.9-2.58v-.06h3.9Zm-9.2-88.54a13.68,13.68,0,0,1-4.41,1.77l-2.35-2.39a9.09,9.09,0,0,0,6-1.13c1.27-.78,2.72-2.71,1.77-4.27-2.12-3.48-9.42,1.83-12.31-2.9-1.72-2.81.51-5.64,3.23-7.31a13.13,13.13,0,0,1,3.62-1.54l1.54,2.52a6,6,0,0,0-4.36.73c-1.27.78-2.58,2.25-1.63,3.79,1.86,3.06,9.51-1.68,12,2.45,1.46,2.39.32,6.15-3.16,8.27m-1.4,98.84a13.09,13.09,0,0,1-6.31,2.3l1-1.15c3.29-.62,6.28-3.34,6.28-6.48,0-1.91-1.17-4-3.53-4a2.84,2.84,0,0,0-3,2.82,3,3,0,0,0,3.12,3,4.68,4.68,0,0,0,2.18-.59l-1.39,1.55a5,5,0,0,1-1.67.28,4,4,0,0,1-4.31-3.89c0-2.72,2.44-4.53,5.34-4.53a5.07,5.07,0,0,1,5.34,5.11,7.09,7.09,0,0,1-3.08,5.54M448,432.81l-14.23-2.68,6.65,7.63c1,1.11,1.63,1.91,3.2,1.61l0,.06-3.49,3,0-.06c.51-1.52-.18-2.31-1.14-3.41l-6.86-7.87c-1-1.1-1.65-1.89-3.19-1.59l-.05-.06L431.8,427l0,0a1.63,1.63,0,0,0,.72.24l.62.15,15.15,2.82-6.51-7.47c-1-1.1-1.63-1.91-3.19-1.59l0-.06,3.47-3,.05.06c-.51,1.49.18,2.28,1.14,3.38l9.63,11.06a7.21,7.21,0,0,1-4.84.26m-1,167c-3.53,4.1-8.76,4.33-12.82.83a20.83,20.83,0,0,1-3.18-3.6l2-2.28a9,9,0,0,0,2.69,4.28c2.74,2.36,6.36,2,8.83-.88s2.76-7.21-.29-9.84a11.49,11.49,0,0,0-5.3-2.39l-.06,0,3-1.43a9.24,9.24,0,0,1,3.51,2c4.67,4,5.32,9.13,1.67,13.37m-24.72-12.13-.06,0-2.57-3.23,7.11-12.61c.79-1.4,1.64-2.68,1.31-4.31l.06,0,3.34,4.19-.06,0c-1.25-.64-1.34-.3-2.33,1.39l-2,3.4,4.1,5.15,3.73-1.23c1.49-.48,2.2-.81,1.78-2.08l.06,0,3,3.76-.06,0c-1.54-.71-3-.15-4.48.33l-11.25,3.37c-1,.3-2.13.59-1.66,1.82m-9.68-13.2-.07,0-2.43-4.36.07,0c1.08.92,2.68-.18,3.71-.75l10-5.55-1.53-3.22a6.45,6.45,0,0,0-3.64-3.27l0-.06,3.7-.51,5.23,9.39-.07,0c-1.06-.93-2.68.14-3.7.72l-8.61,4.8c-1,.59-2.79,1.38-2.58,2.79m-7.08-13.45-.07,0-2-4.56.07,0c1,1,2.69.09,3.77-.37l9.05-3.89c1.08-.47,2.9-1.07,2.84-2.48l.07,0,2,4.56-.07,0c-.95-1-2.67-.11-3.75.36l-9.05,3.89c-1.11.48-2.93,1.06-2.86,2.48m-4.42-11-.07,0-2.36-8a2.62,2.62,0,0,0-.47-1.14l0-.08,2.91-.85,0,.08a3.74,3.74,0,0,0-.11,3.25,14.85,14.85,0,0,0,.93,2.5l4.66-1.37-.88-3a2.66,2.66,0,0,0-.46-1l0-.08,2.66-.78,0,.07c-.63.62-.27,1.67,0,2.44l.54,1.85,4.54-1.33c1.13-.33,3-.67,3.12-2.06l.08,0,1.39,4.74-.08,0c-.83-1.15-2.64-.45-3.77-.12l-9.46,2.78c-1.15.34-3,.73-3.13,2.15m2-32.72a9.32,9.32,0,0,1,10.37,8.34c.67,5.13-2.44,9.94-7.75,10.64a9.29,9.29,0,0,1-10.19-8.55,9,9,0,0,1,7.57-10.43M394.91,513h-.08l.29-6.21c.16-3.5,2.08-5.32,4.45-5.22s4,2.2,4.4,4.37l4.9-3.54a18.28,18.28,0,0,0,3.78-4c-.5-1.43-1.5-1.67-2.89-2l-10.17-2.31c-1.43-.32-2.45-.56-3.51.6l-.08,0,.84-3.72h0a1.68,1.68,0,0,0,.72-.24l.59-.24,13.89-6.66-9.66-2.19c-1.43-.32-2.44-.58-3.51.6l-.08,0,1-4.48.08,0c.46,1.5,1.48,1.73,2.91,2.05l14.3,3.24a7.25,7.25,0,0,1-3.75,3.06l-13.07,6.23,9.86,2.24c1.43.32,2.44.58,3.54-.59l.08,0-1,4.52-.05,0-.1,2.2a3.43,3.43,0,0,1-1.44,3l-4.09,3L403.29,509c-.22-2.11-1.07-4.58-3.53-4.69a3,3,0,0,0-3.05,3.24,12.84,12.84,0,0,0,.13,1.78l11.7.54c1.2.05,3.1.3,3.63-1h.08l-.23,5h-.08c-.41-1.35-2.35-1.26-3.53-1.31l-9.84-.45c-1.2-.05-3.1-.33-3.66,1m8.69-44.84.07,0c0,1.39,1.86,1.94,3,2.36l9.21,3.52c1.1.42,2.83,1.25,3.76.21l.07,0L417.89,479l-.07,0c0-1.39-1.84-1.94-2.94-2.36l-9.21-3.52c-1.12-.43-2.84-1.28-3.78-.21l-.08,0Zm6.82-14L424.78,456c1.59.2,3.1.5,4.49-.43l.07,0-2.61,4.68-.07,0c.12-1.4-.23-1.36-2.17-1.63l-3.91-.56-3.2,5.75,2.56,3c1,1.19,1.59,1.72,2.61.85l.07,0-2.34,4.2-.07,0c.07-1.69-1-2.79-2-4l-7.4-9.12c-.64-.78-1.36-1.74-2.31-.84l-.07,0ZM433,518.88v7c0,.84-.13,2.2.9,2.56v.06H430v-.06c1-.34.91-1.71.91-2.56v-7c0-.86.14-2.22-.91-2.58v-.06h3.91v.06c-1,.35-.9,1.74-.9,2.58m15.71,6.37c0,2.13-2.38,3.58-5.53,3.58-2.94,0-5.44-1.3-5.44-3.47,0-1.73,1.48-2.69,3.08-3.28-1.42-.52-2.59-1.46-2.59-2.95,0-1.91,2.05-3.17,4.89-3.17,2.1,0,4.81.84,4.81,3.1,0,1.35-1.31,2.23-2.5,2.76,1.72.75,3.28,1.46,3.28,3.44m-23-91.94.06,0c-.49,1.31,1.07,2.47,2,3.24l7.42,6.49c.89.77,2.22,2.15,3.46,1.49l.06,0-3.27,3.74-.06,0c.51-1.3-1.06-2.45-1.94-3.22l-7.42-6.49c-.91-.79-2.23-2.18-3.48-1.51l-.06-.05Zm98-38.09h.08a4.07,4.07,0,0,0,1,.32l.64.1,9.65,1.41a3,3,0,0,0,1.22,0h.08L535,400h-.08c-.2-1-1.22-1.23-2.07-1.36l-2.33-.34-1.72,11.8c-.21,1.47-.38,2.48.87,3.48l0,.08-5.12-.75,0-.08c1.36-.3,1.49-2.21,1.65-3.38l1.68-11.54-2.28-.34a4.55,4.55,0,0,0-3.23.59h-.08ZM512,387.36a125,125,0,0,0-43.16,242.3l.29-16.54,1.15-19.29c1.48-17.24,3.48-34.23,7.6-50.28,1.41-4.41,2.31-9.89,7.37-11.83,6.82-1.43,14.23-.2,21.39-.4,0-3.62,1.09-8.39-.36-11.63l-1.56-1.43-33.25-13.1c-.58-.38-1.28-.8-1.23-1.6V503h41.47a33.56,33.56,0,0,1-2.18-3l-4.25-4.28L491.5,484.18c-5.67-4.75-8.26-11.1-6.95-18.46,2.49-13.69,16.34-22.45,21.17-35.14-.47,2.65-.79,4.6-1.26,6.62-1.87,10.19-7.67,15-9.11,25.45-.06,1.29-.74,6.15.39,6.8.25-5.94,2.63-11.21,5.16-16.3,5.05-8.25,11.24-14.68,12.23-24.74a21.35,21.35,0,0,0-.72-6.76h.37c6.6,10.67,10,23.91,6.51,37.21-2.29,12.77-10,25.29-8.37,39a17.14,17.14,0,0,0,1.31,5.18h43.23a1.57,1.57,0,0,1-.92,2L520,518.23a4.85,4.85,0,0,0-2.42,3.24c.17.67-.46,1.28.12,1.78,1.56-.57,3.74-.79,5,.46.27-.7-.08-1.55,0-2.4a4,4,0,0,1,2.71-3.24c1.63-.42,4-1.18,5.42.35s1.48,3.57,2.56,5.1c-.08-1.74,0-3.77,1.74-4.66,1.75-.71,4.39-1.62,6-.08,3.17,6.25,5.29,14.72,7.5,21.33a5.81,5.81,0,0,1,6.55-3.81c1.29.21,2.8.57,3.25,1.94-.53,9.62,1.45,18.44,2.88,27.4.4,4.81,3.59,10,.63,14.63-2.69,4.05-6.51,7.38-9.57,11.28-.72.95-.59,2.36-.51,3.54l7.24,33.06A125,125,0,0,0,512,387.36m98.94,172.8c-3.19-1.79-7.74-1.38-9.75,2.2s-.66,7.1,2.73,9,7.73,1.55,9.76-2,.7-7.22-2.74-9.16m10.38-37c-3.62-.58-7.74,1.39-8.38,5.45s1.86,6.88,5.7,7.49,7.79-1.23,8.43-5.31-1.86-7-5.75-7.63m-178.52-6c-1.11,0-2.53.43-2.53,1.62,0,1.59,2.53,2.15,3.86,2.54a2.66,2.66,0,0,0,1.69-2.12c0-1.18-1-2-3-2M570.19,411.82c-3.51-2-7.21-.77-9.18,2.66-1.82,3.17-1.45,7.72,2.11,9.77s7.09.72,9-2.65,1.63-7.72-2-9.77M439.79,525.1c0,1.53,1.38,2.5,3.51,2.5,1.46,0,3.3-.6,3.3-2.13,0-1.87-3-2.39-4.56-2.82-1.07.39-2.26,1.33-2.26,2.45M418.53,457.8l-7-1,4.5,5.47ZM405.09,533.4c3.63-.48,7-3.53,6.49-7.6s-3.72-6.08-7.58-5.58-7.12,3.38-6.59,7.48,3.77,6.2,7.68,5.69m17.37,51.11,6.76-2.08-3.21-4-3.56,6.1Z" transform="translate(-387 -387.36)" style="fill:#f37421"/><path d="M534.72,519.13c-1.94,2.18.23,6.57.62,8.59l4.52,21.15a10.18,10.18,0,0,1,.41,2c-1.55.27-3,.75-4.6,1.1-.38-1.12,1.32-1.49,2.07-2.11l.34-.43c-1.61-9.29-3.25-16.36-4.31-21-.39-1.71-1.86-9-3.1-10.29Z" transform="translate(-387 -387.36)" style="fill:#f37421"/><path d="M530.28,556.86c-2.57-2.63-5.67-5.19-9.67-4.34-2.84.17-5.52,1.12-8.43.85a4.23,4.23,0,0,1-1.18-4.19c1.81-2.48,5.06-2.57,7.67-3.6,3.94-1.59,8.19.18,11,3.11l1.47,2.17c.37,2,.47,4.47-.88,6m.46,7.47c-.43,1.36-.83,2.9-1.91,3.84-1.75-5.19-7-6.87-11.75-7.74a4.75,4.75,0,0,0-4,.82c-1.42-1-1.42-3-1.06-4.64a2,2,0,0,1,1.46-1c3.52-.64,7.26-1.28,11-.8a10.82,10.82,0,0,1,4.19,3.28c1.67,1.69,2.81,3.81,2.1,6.24m-2.16,13.58a4.87,4.87,0,0,1-1.76,3.33,13.74,13.74,0,0,1-5.16,2c-1.18-4.38.84-10.14-3.12-13.46-1.7-2-6.27-2.62-4.77-6a3,3,0,0,1,1.43-1.45,16.54,16.54,0,0,1,8.74,2.52c2.88,3.85,6.28,7.93,4.64,13.11m-6.85,27.73c-3.89.16-18.28.08-18.28.08l3.65-62.56a7.23,7.23,0,0,0,3.35-.46,4,4,0,0,0,1.32,3c-5.06,2.88-2.41,7.78-.85,9.1-1.79,4.59.15,6.62,1.55,7.86-.93,3-.43,4.75,4.2,7.32,3.65,2,3.11,8.56,3.19,10.81s1.87,24.82,1.87,24.82m-8.89-64.51c1.63-2.4,4.55-2.8,7-3.56,2.81-.36,6.92-1.36,8.57,1.74.7,2,1.85,4.16,1,6.47-2.6-1.45-5.22-3.22-8.56-2.44a50.27,50.27,0,0,0-7.19,1.72c-1.09-.83-1.21-2.57-.82-3.93m20.45,10.4c-.08-1.66-1.58-2.72-2.25-4.14,1.23-3.08,0-6.53-1.17-9.32a5.84,5.84,0,0,0-2.94-2.71c-1.09-3.73-4.42-11.18-4-14.53l-2.41,1.94c1.71.7,2.77,4.69,3.08,6.25l1.59,6.11-5.14.35c0-1.47.24-3.39-1.44-4.16l-.44-.19-.53-5.88a2.15,2.15,0,0,1,1-2.41l.31-4c-1.56,1.24-2.19,3.69-2.41,4.67-.38,1.61-.16,5,0,7.78-3,.93-10-.93-10-.93v.93c.93.31,3.94.91,5.65,1.22s4.18-.3,5.64,1a3.39,3.39,0,0,1-.34,2.8c-2.56,1-5.46,1.9-7.06,4.6a62.67,62.67,0,0,1-17.82-.5c.29,2.66,3.29,1.9,5.12,2.49l.26.15c.21,4.88,1.22,10.43-.81,14.9-2.82,5.27-9.3,4.34-14.58,4.51l0,1.33c4.38.37,9,.53,13-.84a7.35,7.35,0,0,0,4.52-5.39c.67-4.86-.13-9.56-.38-14.29a27.62,27.62,0,0,1,5.84-.23l.18.26-1,17.7-1.51,25c-4.4.44-9.65.64-13.33-1.56-5.73-3.57-5.83-10.51-5.65-16.67l-2-.11-.61,5.75-1.39,18.21-.42,9c0,.7.19,1.44,1,1.42.32-7.89,1.34-15.48,1.92-23.25l.26-.26a24.4,24.4,0,0,0,3,5.62c4.2,4.76,11.08,3.85,16.88,3.58l.26.26-1,18.25,4.59.06,1,0-.26,30c4.31.19,9.34,0,13.92-.2.74-.28.13-1.22.22-1.84L520,611.79l-.27-5.35,3.36-.13-1.49-20.63.34-.37a42.26,42.26,0,0,0,4.83-1.57c4.2-1.51,3.77-6.51,4-10.3-2.05-3.06,1.6-5.43,1.84-8.38,1-2.35-.14-4.69-1.14-6.67,1.91-1.74,1.59-4.55,1.82-6.87" transform="translate(-387 -387.36)" style="fill:#e96d1f"/><path d="M549.18,548.33c-.16-2-1.31-5.4-.38-8.2l-.7-2.41a11.61,11.61,0,0,0-1.18,5.77c.16,6.82,1.05,10.28.9,16.7l-.46,1.14c-4.75,3.61-11.75,5.22-14,11.46-1.09,7.18.79,14,2.48,20.57l1.41-.24a53.48,53.48,0,0,1-1.85-16.61c.29-8.11,9.41-10.54,14.79-14.36.19-4.65-.64-9.28-1-13.83" transform="translate(-387 -387.36)" style="fill:#f37421"/></g></svg>