<?xml version="1.0" encoding="utf-8"?>
<!-- Generator: Adobe Illustrator 18.1.1, SVG Export Plug-In . SVG Version: 6.00 Build 0)  -->
<!DOCTYPE svg PUBLIC "-//W3C//DTD SVG 1.1//EN" "http://www.w3.org/Graphics/SVG/1.1/DTD/svg11.dtd">
<svg version="1.1" id="Layer_1" xmlns="http://www.w3.org/2000/svg" xmlns:xlink="http://www.w3.org/1999/xlink" x="0px" y="0px"
	 width="595.28px" height="143.67px" viewBox="0 0 595.28 143.67" enable-background="new 0 0 595.28 143.67" xml:space="preserve">
<g>
	<path fill="#98172E" d="M78.79,39.606c0.278-0.37-0.005-0.592-0.197-0.168c-0.15,0.331-0.949-0.029-1.242-0.306
		c-0.383-0.365-0.625-1.312-0.318-1.647c0.313-0.336,0.764-0.183,1.344-0.197c0.38-0.02,0.461-0.375,0.524-0.552
		c-0.182-0.089-0.458-0.247-0.823-0.463c-0.372,0.241-0.944,0.729-1.195,0.937c-0.309,0.261-0.945,1.164-0.597,2.136
		c0.354,1.001,1.179,1.312,1.792,1.361C78.265,40.366,78.603,39.843,78.79,39.606 M75.972,45.731l-0.015-2.076l-0.661-0.972
		l-0.251,0.035l-1.041,0.971c-0.273,0.242-0.032,0.355,0.286,0.089l0.688,0.36l0.016,2.194c0.062,0.267,0.303,0.335,0.636,0.676
		l0.435-0.438l0.448-0.503C76.004,45.973,76.24,45.983,75.972,45.731 M73.123,45.663c-0.366,0.394-0.579,0.212-0.853-0.049
		C72.14,45.46,72.088,44.044,72.184,44c0,0,0.684-0.094,0.849-0.094c0.128,0,0.119-0.395-0.02-0.395
		c-0.202,0-0.812,0.005-0.849-0.093c-0.076-0.198,0.121-1.15,0.158-1.578c0.025-0.307-0.139-0.4-0.217-0.119
		c-0.086,0.282-0.742,1.49-1.132,1.775c-0.328,0.242,0.39,0.583,0.322,0.563c0.025,1.016-0.12,2.057,0.223,2.574
		c0.222,0.316,0.9,0.552,1.021,0.247c0.111-0.311,0.626-0.942,0.742-1.046C73.493,45.647,73.307,45.475,73.123,45.663
		 M74.751,40.997c-0.152,0.301-0.404,0.582-0.858,0.789c0.276,0.242,0.642,0.553,0.879,0.71c0.273-0.311,0.524-0.591,0.838-0.888
		C75.296,41.544,74.938,41.392,74.751,40.997 M72.746,39.34c-0.283-0.316-0.39-0.572-0.451-0.927c-0.059-0.375-0.367-0.346-0.367,0
		c0,0.33,0.076,1.494,0.136,1.765c0.062,0.281,0.343,0.188,0.37-0.024c0.029-0.202,0.165-0.256,0.348-0.271
		c0.399-0.04,1.04,0.208,1.753,0.144c0.843-0.06,1.504-1.366,1.142-2.387c-0.341-0.972-1.42-0.799-2.147-1.03
		c-0.666-0.183-0.944-0.602-0.212-1.08c0.853-0.553,1.918,0.33,2.019,0.517c0.158,0.286,0.289,0.281,0.289-0.089
		c0.02-0.799-0.049-0.345-0.131-1.1c-0.029-0.271-0.222-0.296-0.244-0.03c-0.015,0.261-0.338,0.178-0.579,0.178
		c-0.242-0.005-0.959-0.114-1.575,0.227c-0.396,0.232-1.293,0.932-0.787,1.776c0.291,0.493,2.02,0.893,2.443,1.173
		c0.434,0.286,0.53,1.006,0.116,1.341C74.356,39.932,72.964,39.587,72.746,39.34 M62.984,45.573
		c-0.459-0.576-0.708-1.514,0.676-2.362c0.152,0.375,0.616,1.09,0.828,1.213C64.126,44.79,63.23,45.396,62.984,45.573
		 M64.454,42.269c-0.491,0.331-2.115,1.016-2.364,2.693c-0.218,1.613,1.31,2.574,2.041,2.885c0.183-0.369,0.555-0.971,0.925-1.395
		c0.276-0.326-0.032-0.41-0.278-0.163c-0.338,0.37-1.344,0.02-1.61-0.464c0.483-0.37,1.751-1.425,2.303-1.879
		C65.104,43.606,64.545,42.752,64.454,42.269 M69.889,46.54c-0.254,0.055-0.299,0.104-0.299-0.054c0-0.295-0.115-1.642-0.138-2.5
		c-0.029-0.858-0.448-1.11-0.69-1.233c-0.241,0.282-0.794,0.622-1.122,0.898c-0.246-0.178-0.372-0.587-0.646-1.021
		c-0.318,0.296-0.565,0.568-1.026,0.932c0.212,0.247,0.577,0.558,0.611,0.981c0.025,0.43,0.011,2.412,0.035,2.915
		c0.34,0,0.278,0.034,0.86,0.01c-0.057-0.335-0.012-2.915-0.012-3.285c0.224-0.207,0.253-0.241,0.5-0.424
		c0.183,0.158,0.602,0.247,0.602,0.522c0,0.282,0.081,1.504-0.015,1.958c-0.121,0.547-0.071,0.946,0.232,1.504
		c0.223-0.252,1.065-0.843,1.253-0.992C70.212,46.595,70.12,46.476,69.889,46.54 M70.927,39.636
		c-0.15,0.147-0.545-0.198-0.565-0.222c-0.126-0.143-0.313-2.116-0.227-2.16c0,0,1.252-0.153,1.417-0.153
		c0.124,0.01,0.144-0.39,0.005-0.395c-0.202,0-1.156,0.133-1.19,0.04c-0.05-0.208-0.183-0.912,0.131-1.514
		c0.147-0.261-0.006-0.512-0.102-0.247c-0.11,0.276-0.893,1.489-1.403,1.691c-0.414,0.168-0.362,0.267-0.101,0.331
		c0.212,0.044,0.435,0.295,0.395,0.29c-0.047,1.011-0.144,2.259,0.17,2.782c0.197,0.34,0.75,0.686,0.996,0.469
		c0.288-0.232,0.506-0.621,0.622-0.72C71.296,39.646,71.114,39.463,70.927,39.636 M62.965,34.714
		c0.695,0.409,1.662,0.143,2.539-0.114c0.348-0.094,0.396,0.128,0.56,0.375c0.284,0.38,0.516,0.138,0.309-0.172
		c-0.076-0.099-0.222-0.262-0.231-0.459c0-0.133,0.02-1.519,0.02-1.696c0-0.163-0.328-0.148-0.328,0
		c-0.015,0.247,0.02,0.666-0.202,1.011c-0.606,0.937-1.768,1.326-2.578,0.172c-0.279-0.379-0.346-0.961-0.381-1.375
		c-0.057-0.552,0.363-1.268,0.39-1.332c1.033-1.361,2.474-0.351,2.59,0.203c0.081,0.37,0.162,0.818,0.162,1.055
		c-0.01,0.158,0.328,0.143,0.338-0.02c0-0.173,0.01-2.259,0.01-2.406c0.005-0.134-0.278-0.178-0.283,0
		c-0.015,0.33-0.207,0.36-0.464,0.281c-0.521-0.158-1.687-0.409-2.357-0.02c-0.597,0.35-1.506,1.168-1.491,2.199
		C61.581,34.113,62.223,34.256,62.965,34.714 M67.982,31.144c0.022,0.355-0.034,2.521-0.005,2.92
		c0.27,0.059,0.602,0.035,0.986,0.015c0.029-0.316,0.016-3.028,0.016-3.334c0.14-0.079,0.293-0.163,0.362-0.227
		c0.162,0.123,0.476,0.582,0.727,0.735c0.197-0.148,0.698-0.469,0.915-0.681c0.222-0.222-0.015-0.385-0.217-0.192
		c-0.153-0.173-0.53-0.567-0.732-0.804c-0.217,0.173-0.713,0.473-0.989,0.631c-0.219-0.251-0.485-0.251-0.919-0.587
		c-0.237,0.182-0.77,0.567-1.056,0.917C67.576,30.685,67.953,30.709,67.982,31.144 M66.199,36.895
		c0.144,0.009,0.659,0.636,0.622,0.912c0.026,0.148,0.037,0.43,0.047,0.72c-0.642,0.409-0.844,0.399-1.282-0.094
		c-0.218-0.261-0.197-0.735-0.097-0.917C65.688,37.209,66.035,36.895,66.199,36.895 M66.873,39.675c-0.005,0.124,0,0.231,0,0.34
		c-0.121,0.03-0.264,0.059-0.434,0.148c-0.231-0.198-1.34-0.563-0.616-1.149c0.448,0.267,0.621,0.064,1.05-0.207
		C66.878,39.183,66.873,39.542,66.873,39.675 M65.177,37.486c-0.102,0.232,0.039,1.06,0.146,1.154
		c0.076,0.064,0.131,0.109,0.197,0.158c-0.375,0.35-0.728,0.646-0.718,1.168c0.015,0.498,0.414,0.942,0.93,1.179
		c0.273-0.419,0.703-0.676,1.161-0.784c0.039,0.399,0.131,0.689,0.395,0.892c0.188-0.207,0.939-0.858,1.085-1.006
		c0.163-0.147,0.042-0.331-0.146-0.147c-0.111,0.098-0.38-0.055-0.461-0.183c0-0.217,0-2.515,0.097-2.624
		c-0.339-0.37-0.661-1.144-1.041-1.104C66.247,36.238,65.423,36.909,65.177,37.486 M63.636,40.879
		c0.191-0.385,0.278-0.513,0.621-0.962c-0.671,0.109-1.191-0.01-1.682-0.385c-1.017-0.784-0.703-2.051-0.404-2.48
		c0.55-0.813,1.324,0.35,1.465,0.503c0.177-0.217,0.49-0.522,0.794-0.759c-0.299-0.4-0.548-0.769-0.755-1.011
		c-0.646,0.231-1.596,0.814-2.005,1.42c-0.584,0.892-0.902,2.313,0.111,3.141C62.262,40.745,62.656,41.056,63.636,40.879
		 M72.964,29.556c0.145,0.37,0.529,0.631,0.741,0.76c-0.374,0.37-0.959,1.03-1.203,1.208C72.17,30.454,72.295,30.084,72.964,29.556
		 M73.797,33.861c0.392,0,0.893-0.518,1.142-0.636c0.525-0.256,0.333-0.518-0.274-0.38c-1.318,0.335-1.932-0.72-2.065-1.006
		c0.53-0.542,1.44-1.43,1.989-1.889c-0.362-0.33-0.515-0.893-1.16-0.937c-0.565,0.015-1.885,0.656-2.116,2.328
		C71.095,32.948,72.599,33.816,73.797,33.861 M81.026,37.619l-0.453-0.67l-0.242,0.035l-1.046,0.962
		c-0.283,0.257-0.028,0.37,0.284,0.094l0.54,0.325l0.02,2.263c0.055,0.271,0.293,0.37,0.627,0.71l0.584-0.502l0.466-0.498
		c-0.525-0.104-0.525-0.069-0.799-0.315L81.026,37.619z M77.118,30.187c0.278,0.045,0.891,0.37,1.253,0.71
		c-0.081,0.06-0.304,0.247-0.551,0.439c-0.14,0.025-0.288,0.039-0.438,0.025c-0.451-0.064-0.668-0.404-0.875-0.676
		C76.29,30.395,76.848,30.157,77.118,30.187 M78.072,33.654c-0.525,0.242-1.465-0.438-1.609-0.715
		c0.192-0.167,0.555-0.459,0.959-0.779c0.298,0.133,0.606,0.271,0.935,0.463C78.837,32.895,78.593,33.417,78.072,33.654
		 M76.492,32.362c-0.363,0.306-0.863,0.784-1.327,1.218c0.186,0.202,1.201,0.681,1.773,0.666c0.857-0.02,1.654-0.463,2.146-0.858
		c0.893-0.71,0.579-1.46-0.328-1.993c-0.087-0.049-0.173-0.068-0.26-0.083c0.567-0.449,1.061-0.849,1.188-1.006
		c-0.364-0.251-0.764-0.858-1.646-0.897c-0.883-0.035-1.884,0.764-2.207,1.273C75.396,31.346,75.928,31.928,76.492,32.362
		 M81.261,32.185c0.191-0.005,0.338-0.449-0.723-0.508C80.331,31.656,80.008,32.234,81.261,32.185 M79.266,45.031
		c-0.424,0.01-0.789-0.124-1.252-0.523c-0.086-0.079-0.173-0.602-0.072-0.774c0.202-0.325,0.202-0.424,0.385-0.424
		c0.136,0,0.989,0.518,0.945,0.794C79.301,44.301,79.285,44.666,79.266,45.031 M78.462,46.486c-0.227-0.197-1.055-0.764-0.318-1.381
		c0.39,0.267,0.612,0.227,1.101,0.182c-0.021,0.271-0.04,0.513-0.04,0.617c0,0.124,0.053,0.212,0.081,0.315
		C79.032,46.309,78.709,46.357,78.462,46.486 M81.199,46.353c-0.121,0.187-0.525,0.054-0.642-0.134c0-0.216-0.206-2.524-0.115-2.633
		c-0.333-0.375-0.905-1.208-1.293-1.164c-0.562,0.054-1.399,0.858-1.58,1.12c-0.138,0.197,0.039,1.144,0.146,1.237
		c0.029,0.02,0.045,0.03,0.071,0.054c-0.374,0.385-0.653,0.814-0.653,1.357c0.022,0.512,0.192,1.016,0.713,1.247
		c0.467-0.335,1.055-0.749,1.632-0.858c0.277,0.34,0.711,0.563,0.97,0.764c0.178-0.212,0.752-0.676,0.91-0.823
		C81.508,46.368,81.357,46.15,81.199,46.353 M81.238,32.934c0.193,0.024,0.457-0.439-0.715-0.513
		C80.312,32.411,79.981,32.806,81.238,32.934 M80.043,36.386h0.333l0.404-0.365v-0.577l-0.54-0.552l-0.54,0.483l0.01,0.671
		L80.043,36.386z M84.718,57.005c0.359,0.103,1.208,0.582,1.512,0.784l-1.512,0.759c0,0,0.419-0.453,0.419-0.779
		C85.132,57.326,84.718,57.005,84.718,57.005 M83.729,57.069c-0.748,0.864,0.101,1.568,0.101,1.568
		c-0.309-0.049-0.752-0.153-1.035-0.315c-0.055,0.315,0.374,0.424,0.577,0.562c1.58,0.651,2.621-0.868,4.009-1.139v-0.059
		c-0.93-0.133-1.662-0.784-2.51-1.104c-1.182-0.444-2.43,0.463-2.43,0.606C82.441,57.503,82.779,57.666,83.729,57.069
		 M87.911,40.819c0.752,0.425,2.015,0.346,2.964,0.089c0.357-0.104,0.555-0.124,0.545,0.182c0,0.197,0.273,0.153,0.273,0.01
		c0-0.138,0.01-1.607,0.01-1.77c0-0.183-0.264-0.158-0.264,0c0,0.246,0,0.315-0.241,0.666c-0.651,0.966-2.289,0.927-3.161-0.252
		c-0.299-0.404-0.57-0.941-0.228-1.04c0.348-0.109,1.398,0.108,2.092,0.167c0.419,0.029,1.378,0.123,1.499,0.198
		c0.105,0.078,0.269,0.182,0.269-0.03c0.01-0.203,0.01-0.883,0.01-1.09c0-0.202-0.157-0.103-0.273-0.034
		c-0.121,0.088-1.146,0.251-1.557,0.33c-0.413,0.074-1.681,0.178-2.014,0.064c-0.343-0.113-0.232-0.804,0.076-1.193
		c0.883-1.168,2.67-1.089,3.316-0.113c0.222,0.335,0.222,0.419,0.222,0.671c0,0.158,0.26,0.173,0.26,0
		c0.015-0.168,0.02-1.933,0.02-2.076c0-0.139-0.257-0.192-0.257,0c0,0.128-0.283,0.202-0.567,0.128
		c-0.555-0.173-2.17,0.073-2.892,0.468c-0.642,0.37-1.628,1.213-1.613,2.273C86.417,40.213,87.112,40.361,87.911,40.819
		 M106.631,39.508c0.181,0.049,0.516,0.108,0.839,0.123c0.222,0.02,0.15-0.321-0.01-0.385c-0.173-0.069-0.535-0.138-0.765-0.138
		C106.469,39.108,106.348,39.434,106.631,39.508 M106.616,40.277c0.176,0.054,0.498,0.104,0.834,0.123
		c0.212,0.029,0.141-0.325-0.022-0.39c-0.16-0.055-0.521-0.124-0.742-0.128C106.444,39.882,106.333,40.193,106.616,40.277
		 M104.622,44.839c-0.223-0.247-0.516-0.597-0.967-0.942c-0.271,0.183-1.048,0.898-1.379,1.085c0.477,0.01,1.184,0.167,1.209,0.612
		c0.015,0.355-0.025,2.588,0,2.998c0.293,0.059,0.636,0.03,1.055,0.005c0.021-0.316,0.015-2.89,0.021-3.201
		c0.146-0.079,0.308-0.158,0.395-0.232c0.16,0.123,0.66,0.695,0.949,0.849c0.197-0.153,0.712-0.602,0.939-0.819
		c0.236-0.237-0.021-0.39-0.228-0.197c-0.162-0.193-0.606-0.558-1.001-0.839C105.389,44.346,104.918,44.686,104.622,44.839
		 M99.592,37.619c0.266,0.296,0.54,0.636,0.949,0.636c0.394,0.005,0.809-0.177,0.939-0.345c-0.328-0.262-1.075-1.051-1.228-1.199
		c-0.378,0.208-2.02,1.065-2.16,2.047c-0.203,1.455,0.256,1.75,0.897,2.544c0.36,0.454,0.959,0.479,1.232,0.404
		c0.294-0.207,1.368-1.228,1.489-1.351c0.111-0.128-0.045-0.242-0.183-0.118c-0.131,0.124-0.078,0.177-0.256,0.202
		c-0.183,0.029-0.92,0.153-1.344-0.069c-0.53-0.276-1.229-0.937-1.065-1.735C98.98,38.039,99.399,37.797,99.592,37.619
		 M90.395,44.804c-0.094-0.073-0.121-0.773-0.011-0.951c0.218-0.331,0.36-0.395,0.535-0.395c0.158,0.01,0.774,0.429,0.737,0.71
		c0.032,0.188,0.037,0.572,0.037,0.962C91.232,45.188,90.909,45.238,90.395,44.804 M91.679,46.17
		c-0.234,0.168-0.516,0.316-0.844,0.474c-0.258-0.212-0.636-0.395-0.178-1.267c0.339,0.188,0.512,0.069,1.036,0.015
		C91.688,45.717,91.679,46.018,91.679,46.17 M93.39,45.943c-0.231,0.158-0.389,0.064-0.776-0.35c0.015-0.228-0.027-2.067,0.064-2.17
		c-0.352-0.375-0.676-0.897-1.09-0.858c-0.607,0.054-1.374,1.109-1.566,1.38c-0.152,0.198,0.005,0.952,0.121,1.046
		c0.039,0.04,0.062,0.04,0.096,0.074c-0.288,0.266-0.794,0.966-0.781,1.474c0.01,0.528,0.262,1.031,0.564,1.312
		c0.521-0.36,0.844-0.858,1.707-1.188c0.105,0.399,0.39,0.463,0.728,0.715c0.201-0.222,0.934-1.119,1.095-1.277
		C93.713,45.943,93.622,45.791,93.39,45.943 M104.474,41.534c-0.251-0.118-1.185-0.843-1.398-1.391
		c-0.278-0.739-0.278-1.563,0.511-2.041c0.616,0.227,1.332,0.833,1.398,1.391C105.07,40.213,104.863,41.071,104.474,41.534
		 M104.377,37.16c-1.378,0.488-2.23,1.574-2.271,2.861c-0.024,0.754,0.616,2.308,1.938,2.313c0.409-0.39,0.838-0.809,1.268-1.089
		c0.273-0.489,0.673-1.278,0.641-1.885C105.919,38.62,105.465,37.516,104.377,37.16 M88.597,46.54
		c-0.328,0.153-0.656,0.035-0.686-0.34c-0.029-0.379-0.029-4.063,0-4.591c-0.254,0-0.964-0.015-1.203-0.039
		c0.021,0.498,0.202,4.773,0.147,5.37c-0.036,0.34,0.419,0.695,0.839,0.981c0.202-0.242,0.641-0.883,1.003-1.154
		C88.909,46.589,88.765,46.476,88.597,46.54 M101.51,46.717c-0.086-0.375,0.02-1.78,0.03-2.387c-0.232-0.35-0.609-0.77-0.994-1.055
		c-0.273,0.247-0.646,0.578-1.075,1.036c0.323-0.044,0.954,0.084,0.983,0.355c0.02,0.351,0.072,1.115,0,1.707
		c-0.071,0.597-1.682,0.325-1.7-0.079c-0.035-0.414,0.08-1.603,0.091-2.165c-0.227-0.35-0.365-0.543-0.784-0.854
		c-0.242,0.247-0.666,0.528-1.065,0.967c0.328,0.024,0.602,0.099,0.762,0.409c0.163,0.316,0.027,1.632,0.047,2.14
		c0.024,0.498,0.328,0.602,0.718,1.006c0.387-0.093,1.479-0.547,1.847-0.803c-0.034,0.404,0.481,0.858,0.784,0.952
		c0.202-0.222,0.424-0.346,0.723-0.622C101.581,47.132,101.621,47.102,101.51,46.717 M96.431,46.338
		c-0.197,0.182-0.733,0.049-0.805-0.128c-0.059-0.197-0.125-2.461-0.034-2.5c0,0,0.646-0.015,0.818-0.01
		c0.136,0,0.146-0.409,0.016-0.409c-0.237-0.005-0.757-0.055-0.789-0.148c-0.074-0.212,0.02-0.897,0.152-1.184
		c0.136-0.281-0.126-0.404-0.227-0.128c-0.106,0.296-0.784,1.011-1.475,1.347c-0.39,0.192,0.525,0.557,0.464,0.542
		c-0.015,1.036-0.222,2.728,0.13,3.265c0.223,0.33,0.723,0.547,1.056,0.414c0.323-0.128,0.732-0.77,0.854-0.878
		C96.835,46.343,96.628,46.15,96.431,46.338 M97.55,36.859c-0.656-0.236-1.24-0.666-1.438-1.016
		c-0.178,0.148-0.762,0.785-1.093,0.986c-0.073-0.35-0.609-0.725-1.045-0.803c-0.141,0.152-1.167,0.932-1.63,1.158
		c-0.146,0.07-0.092,0.385,0.111,0.301c0.192-0.079,0.505-0.321,0.872-0.494c0.424,0.168,0.905,0.598,0.944,1.48
		c0.042,0.976-0.468,2.006-1.022,2.475c0.959-0.251,1.084-0.819,1.609-1.5c0.289,0.434,0.829,0.952,1.221,1.174
		c0.278-0.183,1.063-1.065,1.233-1.248c-0.564-0.153-1.657-0.726-1.929-1.336c-0.217-0.449-0.168-0.662,0.049-1.021
		C95.626,37.269,96.95,37.88,97.55,36.859 M93.607,30.73l0.888,0.507l0.042,2.392c0.068,0.286,0.303,0.567,0.655,0.918h0.718
		l0.762-0.997c-0.555-0.094-0.781-0.202-1.171-0.641l0.015-2.466l-0.782-0.784l-0.269,0.03l-1.228,1.075
		C93.111,30.951,93.444,30.951,93.607,30.73 M94.89,29.063h0.354l0.434-0.375v-0.601l-0.581-0.562l-0.575,0.493l0.01,0.691
		L94.89,29.063z M97.804,31.075c-0.005,1.041,0.146,2.609,0.367,3.235c0.144,0.375,0.567,0.981,0.854,0.794
		c0.192-0.119,0.602-0.933,0.732-1.036c0.225-0.183,0.005-0.494-0.186-0.311c-0.206,0.187-0.39-0.099-0.446-0.291
		c-0.068-0.188-0.261-2.48-0.165-2.525c0,0,1.859-0.227,2.04-0.227c0.125,0,0.13-0.404,0-0.404c-0.232,0-1.803,0.03-1.843-0.055
		c-0.111-0.34-0.143-0.75,0.126-1.311c0.136-0.286-0.126-0.404-0.227-0.118c-0.097,0.276-0.886,1.361-1.696,1.711
		C96.941,30.705,97.868,31.089,97.804,31.075 M87.25,28.959c0.367,0.01,0.752-0.104,1.149,0.483
		c0.466,0.666,1.921,3.792,2.269,5.105c0.167-0.276,1.62-4.478,1.701-4.922c0.106-0.439,0.409-0.863,0.839-0.991
		c0.438-0.113,0.399-0.301,0.071-0.335c-0.328-0.04-1.42,0.054-1.808,0.113c-0.395,0.059-0.395,0.251-0.066,0.291
		c0.323,0.04,0.39,0.104,0.56,0.542c0.157,0.439-0.632,2.446-0.821,2.915c-0.234-0.346-1.067-2.18-1.067-2.427
		c0-0.178,0.369-0.35,0.525-0.399c0.308-0.089,0.303-0.301,0.071-0.345c-0.651-0.099-2.944-0.301-3.354-0.345
		C87.031,28.614,86.896,28.959,87.25,28.959 M102.04,32.381c-0.091-0.069-0.102-0.113,0.015-0.295
		c0.222-0.331,0.476-0.617,0.651-0.602c0.152,0,1.132,0.518,1.101,0.794c0.03,0.197,0.04,0.607,0.034,1.021
		C103.354,33.121,102.393,32.672,102.04,32.381 M103.051,35.005c-0.269-0.217-0.959-1.055-0.451-1.987
		c-0.069-0.045-0.146-0.079-0.212-0.124c0.471,0.267,1.021,0.493,1.45,0.631c0,0.375-0.016,0.71-0.016,0.829
		c0,0.163,0.016,0.291,0.025,0.415C103.596,34.783,103.374,34.853,103.051,35.005 M101.476,34.314
		c0.005,0.523,0.474,1.278,0.786,1.559c0.355-0.267,0.87-0.72,1.633-0.868c0.081,0.365,0.256,0.587,0.545,0.793l0.993-1.079
		c0,0-0.443-0.351-0.7-0.667c0-0.227,0-2.401,0.097-2.515c-0.747-0.666-1.295-0.755-1.618-0.706
		c-0.599,0.089-1.221,0.863-1.412,1.12c-0.148,0.207-0.106,0.463,0,0.563c0.115,0.093,0.271,0.192,0.438,0.295
		c-0.029-0.02-0.057-0.034-0.081-0.044C101.875,33.027,101.461,33.797,101.476,34.314 M116.801,72.761
		c-1.877-1.938-4.034-6.874-4.922-6.15c-0.106,0.04,3.57,5.76,5.383,9.153c0.919,1.717,1.671,4.178,1.736,6.031
		c0.288,9.138-1.086,8.438-1.086,8.438c-2.141-7.2-3.146-15.569-6.268-19.426c-1.245-1.549,3.339,6.751,3.535,14.222
		c-0.882,0.232-3.21,1.165-3.772,2.076c0.299-5.034-1.331-9.98-1.847-11.174c-1.011-2.328,0.449,5.415,0.55,7.2
		c0.005,0.073-8.358-10.746-3.309-2.407c1.31,2.155,3.349,3.57,3.353,3.605c0.033,1.504-0.068,2.608-0.352,3.413
		c-0.516,0.414-11.388-14.465-5.378-4.162c0.747,1.277,5.104,5.144,5.069,5.222c-0.278,0.587-0.767,1.44-1.444,2.072
		c-0.111-0.115-2.506-1.88-2.525-1.988c-0.175-1.149-0.188-2.234-1.605-1.421c0,0-5.354-6.232-2.873-1.864
		c1.08,1.909,1.793,2.121,2.079,2.461c0,0-0.826,1.13-1.095,2.323c-0.105,0.479-4.645-5.025-2.863-1.568
		c0.57,1.104,2.642,2.318,2.622,2.393c-0.213,0.725-0.43,1.42-0.659,1.873c-0.28,0.577-4.266,3.753-4.261,3.748
		c0,0,0.782-2.515,2.476-3.748c0.965-0.704,0.969-0.548,1.61-0.951c-0.015-0.37-0.374-0.981-0.838-1.14
		c-0.582-0.207-2.466,0.138-2.466,0.138c0.177-0.941-0.651-2.973-0.642-5.212c-0.705,0.074-1.953,1.169-2.251,1.79
		c-0.217,3.704-1.025,2.595-1.778,5.262c-0.818-1.114,0.058-2.722-0.747-3.768c-1.102-1.44-1.268-2.411-1.435-4.182
		c0.259-0.144,1.388-1.391,0.359-3.999c-0.167-4.104,1.667-5.673-1.612-8.547c0.278-0.089,0.476-2.146,0.476-2.15
		c2.414,1.287,1.934-1.489,2.878-2.031c1.494-0.873,1.223-1.771,0.55-2.89c4.278,1.218-0.19,4.132,1.743,4.202
		c1.403,0.044,2.343-0.315,2.954-1.257c0.646-0.997-0.11-1.607,1.702-3.23c0.177-0.153,0.662-1.233-0.777-1.534
		c-0.313-0.064,0-1.292,0-1.292c-1.151,0.977-1.509,2.343-3.363,1.475c-0.944-0.444-1.561-0.004-1.95,0.183
		c0,0-0.195-0.774,0.587-1.036c2.028-0.68,2.529-1.49,2.419-1.928c-0.274-1.055-0.357,0-0.299-1.11
		c0.025-0.443,0.535-1.04,0.96-1.553c1.372-1.657,2.35-1.035,2.697-0.888c0.796-0.617,0.939-0.577,1.681-0.868
		c1.272-0.504,4.03,0.33,5.571,1.045c0.747,0.335,1.635,0.537,2.51,0.345c-0.01,0.454-0.323,0.695-0.637,0.785
		c-0.481,0.152-1.055,0-1.016,0.355c0.02,0.202,0.676,0.242,1.09,0.355c2.284,0.616,5.237,2.663,3.3,2.234
		c-0.234-0.049,1.398,1.218,2.626,2.864l4.351,4.227c-0.202,0.241-1.726,0.024-6.559-4.508c-0.688,0.612,5.879,5.563,8.588,10.814
		C121.396,75.251,118.019,74.018,116.801,72.761 M105.075,92.118c0.218-0.77,0.218-1.298,0.318-1.979
		c0.039-0.29,0.049-0.256,0.062-0.498c0.005-0.078,2.096,1.736,2.212,1.814c-0.525,0.656-0.972,0.889-1.47,1.357
		C105.838,92.507,105.061,92.192,105.075,92.118 M105.712,93.252c-0.965,0.849-1.596,1.148-1.384,0.73
		c0.232-0.474,0.409-0.868,0.54-1.218C104.908,92.64,105.712,93.252,105.712,93.252 M114.524,91.929
		c-1.198,0.4-1.733,1.728-2.663,2.511c-2.902,2.865-7.25,1.83-10.68,3.369c-3.111,1.128-5.357,4.004-8.62,4.729
		c-0.954,0.311-1.117,0.79-0.505,0.77c0.359-0.005,2.345,2.066,5.525,0.469c1.061-0.533,4.356-2.372,4.912-2.481
		c-1.78,1.707-2.681,3.221-4.276,4.119c-0.974,0.547-4.948,1.967-8.913,1.202c-1.759-0.345-3.11,1.277-2.661,1.243
		c0.939-0.256,1.995-0.128,2.626,0.705c1.151,0.897,2.818,2.026,4.251,0.35c0.481-0.557,2.757-1.74,4.895,0.435
		c-2.273-0.123-2.051,3.975-6.358,3.491c-1.601-0.01-5.124-3.658-6.131-2.534c-1.782,2.008,3.832,3.906,1.398,6.426
		c-2.192,2.273-4.811-1.815-4.811-1.815c1.368,0.578,3.893,0.947,2.781-1.282c-0.444-0.882-1.282-1.677-1.282-3.313
		c-0.192-0.813-5.218,6.47-8.539,3.176c-1.305-1.292-3.95-4.123-6.345-5.203c6.345-0.542,7.309,1.998,7.612,2.407
		c2.029,2.736,3.903-0.045,4.337-0.528c0.661-0.754,1.596-1.79,1.263-1.947c-2.459-1.164-5.271-1.411-7.368-0.448
		c4.496-6.181,7.989-0.396,7.989-0.396c0.493,0.306-0.125-3.664-4.571-3.881c-2.776-0.139-5.22,2.362-7.134,2.358
		c-1.556-0.005-6.277-3.191-7.39-6.021c2.747,2.052,6.253,3.235,8.433,1.933c4.107-2.446,9.279,1.243,9.525,0.799
		c-1.151-0.897-3.762-4.394-10.813-2.401c-2.731,1.573-3.883-1.169-5.565-1.213c2.858-2.534,4.839-1.242,5.84-1.164
		c0.236,0-1.193-1.179-2.197-1.277c-7.787-0.813-12.721-2.953-12.721-2.953c-0.04,0,0.65-1.574,3.999-0.439
		c0,0-3.006-1.84-2.979-4.202c0.096-1.454,0.801-3.018-0.313-4.23c4.52-0.183,1.312,6.124,4.482,7.742
		c0.072,0.029-0.934-1.504,0.481-2.692c0.655,1.854,2.267,2.811,3.402,3.106c0.27-0.144,0.597-0.71,0.597-0.71
		c-1.195-1.978-1.354-4.275-1.03-6.915l0.047-0.024c0.256,0.016,0.69,0.908,0.999,1.563c0.655,1.42,0.641,3.457,1.955,5.144
		c0.726,0.922,1.182,1.85,1.832,2.299c0.283-0.656,0.071-1.785,0.029-2.087c-0.15-1.069-0.821-2.944,1.012-4.601
		c0.853,2.471,2.02,1.751,2.177,2.939c0.217,1.657,0.146,1.39-0.021,2.673c0.085,1.751,1.681,2.243,3.097,3.373
		c3.195,1.736,5.316,2.673,6.706,4.901c0.681-3.757-9.458-4.512-8.151-11.757c-0.136-2.899,0.359-3.141-1.691-4.906
		c4.071,0.118,6.287,6.795,6.505,8.019c0.409,2.234,1.768,2.353,3.635,5.277c0.269,0.093-3.337-7.782,0.967-14.529
		c0,0,1.447,3.502,0.761,5.8c-0.409,1.386-0.028,2.915,0.05,3.782c0.076,0.889-0.175-3.195,2.895-5.307
		c0.192,1.549,1.672,3.936,0.267,6.501c-1.706,3.122-1.827,2.002-1.852,5.838c0.15-0.068,0.595-2.647,1.769-4.112
		c2.473-3.092,0.704-4.754,3.119-7.437c0.191,1.337,0.529,0.809,0.678,2.002c0.323,2.683-2.476,5.612-1.854,5.523
		c0.713-0.104,1.854-0.72,2.236-2.752c0,0,1.03,1.854,0.086,2.471c-1.706,1.124-2.059,2.327-1.792,3.684
		c1.368-1.637,3.237-3.446,2.915-5.774c0.155-1.405,1.676-1.973,1.979-5.237c0.049-0.542,0.589-1.198,1.134-1.49
		c-0.236,1.835,1.188,3.734-0.434,5.978c0.37,0.197,1.743-1.751,3.743-1.041c-4.02,0.72-2.849,5.08-5.923,7.098
		c-0.93,0.602-0.774,1.286-1.051,1.366c2.752-0.158,4.868-3.434,5.235-3.679c2.769-1.87,3.368-2.16,4.476-5.188
		c0.434-1.148,0.115-1.662,1.651-3.216c0.671,1.534-0.303,4.71-0.537,5.391c-0.493,1.465-2.236,2.732-1.866,2.732
		c7.412-3.27,7.315-5.47,9.089-7.807c0.529-0.894,3.165-2.446,4.157-2.595c-0.245,0.488-1.268,1.313-1.314,2.194
		c-0.091,1.643-0.622,2.644-1.45,3.956C112.731,92.754,113.614,91.102,114.524,91.929 M110.616,100.023
		c-0.91,1.321-1.279-1.243-0.496-3.72c1.11-0.442,2.227-1.311,2.979-2.292C112.66,96.166,111.918,98.168,110.616,100.023
		 M58.085,99.381c-0.974-1.85-1.358-3.388-1.879-5.138c0.737,0.498,1.612,0.72,2.409,1.064
		C59.606,97.892,58.643,100.437,58.085,99.381 M55.829,92.606c-0.95-4.315-0.925-6.392-0.703-10.781
		c0.101-1.996,0.757-5.011,0.461-5.068c-0.288-0.05-4.809,11.588-5.898,13.872c-1.905-0.646,1.187-10.722,5.114-15.569
		c0.375-1.549-2.059,1.563-3.509,2.801c-1.334,1.135-3.016,2.614-4.853,2.106c2.357-2.496,7.76-7.156,8.361-8.324
		c0.506-0.996-3.686,3.106-8.114,1.582c2.867-1.533,9.555-4.95,9.564-7.328l-0.062-0.059c-0.074,0-5.146,3.2-8.443,1.662
		c2.454-1.356,10.963-6.761,13.286-8.295c1.102,0.242,1.546-0.158,1.894-0.405c-0.888,0.059-3.832,0.518-2.343-2.12
		c0.572,2.367,4.703,0.188,6.187-0.153c4.136-0.952,4.105,3.467,3.753,5.297c-0.133,0.675,1.268,1.159,1.953,1.065
		c-1.182,2.92-3.205,0.168-3.449,1.277c-0.097,0.454-1.448,0.809-1.443,1.928c0.006,1.529,0.604,0.696,0.662,1.884
		c0.059,1.154-0.491,0.251-0.37,1.499c0.201,1.978,3.469-0.262,4.822,0.271c0.674,0.271,1.122,0.873,1.783,0.755
		c0.192-0.163,0.105-0.907,0.077-1.174c-0.072-0.631-1.233-0.7-1.773-1.558c-0.469-0.745,0.535-2.993,1.08-3.654
		c0.779,3.709,4.258,2.549,4.778,6.45c0.328,1.104-1.198,2.327,0.04,4.128c-0.92,0.887-2.021,5.113-0.102,7.101
		c-0.328,0.897-0.752,2.974,0.954,4.188c-0.574,1.218-0.444,2.722,0.042,4.24c-1.061,0.006-0.854-5.972-7.231-6.158
		c-0.142-0.05-0.178,0.675,0.004,0.996c0.768,1.346,1.793,1.267,1.571,4.428c-0.071,1.08-0.708-0.191-1.046-0.488
		c-0.771-0.681-1.368-0.774-1.706-2.993c-2.592,2.026-2.34,4.493-2.178,5.74c0.006,0.005-0.569-1.559-1.228-3.161
		c-0.029-0.084,2.636-3.295,3.061-4.054c5.385-9.69-3.475,3.131-3.495,3.082c-0.473-1.105-0.892-2.052-1.171-2.356
		c0.066-0.129,1.547-1.775,2.212-3.172c4.167-8.665-2.473,2.89-2.713,2.678c-0.498-0.454-0.912-1.021-1.229-0.814
		c-0.077,1.327-0.395,1.145-0.304,2.506c-0.692,0.928-2.183,2.383-3.223,3.107c0,0-0.257-2.407-0.192-2.49
		c0.525-0.637,2.572-2.836,2.991-3.491c6.822-10.718-3.193,2.578-3.213,2.471c-0.069-0.425-0.622-1.125-1.201-1.722
		c0,0,2.212-3.019,2.757-4.138c4.146-8.531-3.339,3.782-3.425,3.738c-0.176-0.095-0.195-0.095-0.402-0.163
		c-0.207-0.069,0.227-2.461,0.513-3.891c0.568-2.851-0.941-0.558-1.351,3.949c-0.385,0.065-1.319,0.158-1.672,0.479
		c0.227,1.203,0.511,0.275,1.014,1.43c0.606,1.391-0.839,3.66,0.419,5.321c0.485,0.642,0.51,0.532,0.414,0.952
		C56.783,91.954,56.313,91.939,55.829,92.606 M51.637,42.102c3.475,0,3.499,5.296,0,5.296
		C48.022,47.398,48.022,42.102,51.637,42.102 M51.637,31.514c3.475,0,3.475,5.302,0,5.302
		C48.101,36.815,48.178,31.514,51.637,31.514 M55.264,43.493h3.08v3.028h-3.08V43.493z M55.264,32.934h3.08v3.028h-3.08V32.934z
		 M59.495,27.09c0,0,6.473,0.862,9.136-0.168c9.037-3.486,14.603,0.409,14.603,0.409v24.411c0,0-3.221-1.746-7.008-2.002
		c-3.657-0.242-11.054,2.683-16.731,2.293V27.09z M74.927,61.562c-0.647-1.105,0.773-2.155,0.773-2.155
		c-0.047,3.097,3.913,0.971,5.984,1.958c0.494,0.227,0.844,0.666,1.051,1.125C80.507,60.955,76.4,64.077,74.927,61.562
		 M83.487,54.879c2.192-0.31,3.894,2.091,5.994,0.913c0.16,0.946-0.713,1.178-0.713,1.178c1.359,0.317,2.01-0.493,2.273-1
		c0.521,2.165-1.661,2.292-2.345,2.416c-0.005,0,1.107,0.321,1.162,1.041c0.147,1.84,1.324,1.682,1.58,1.539
		c-0.039,0.222-0.409,1.326-1.73,0.325c-0.228,0.222,0.362,0.567,0.473,1.475c0.153,1.154,0.119,2.219,1.445,2.919
		c-0.813,0.651-1.772-1.036-1.859-0.838c-0.094,0.227,1.133,0.849-0.217,4.028c-0.613-0.35-0.271-0.286-0.989-1.133
		c-0.544-0.454-0.756-0.562-0.303,0.192c0.799,1,0.986,3.269,0.713,3.885c-0.656-0.286-0.491-0.813-1.263-1.523
		c-0.072,0.306,0.236,1.814,1.035,2.535c1.384,1.247,1.874,2.756,1.899,3.058c0.11,1.128-0.249,2.623-0.385,4.082
		c-0.661-0.093-1.229-1.972-1.384-1.868c-0.197,0.128,0.082,1.844,1.334,3.008c0.604,1.771,0.357,2.723,0.197,2.786
		c-0.212,0.089-0.885-1.81-1.253-1.48c1.783,4.533,0.535,6.111,0.064,7.502c-0.367-1.426-0.555-2.501-1.013-4.119
		c-0.973,0.76-1.204,1.895-2.396,2.926c0-1.846-1.064-6.309-1.913-7.344c-0.037-0.049-1.531,3.994-2.207,5.795
		c-0.885,2.327-1.021,5.246,0,7.521c-2.196-3.132-2.433-8.946-0.54-9.735c0.166-0.415-0.11-1.785-0.537-1.617
		c-0.121,0.671-0.039,1.243-0.595,1.898c-1.454-0.425-0.794-2.2-0.66-2.791c1.887-2.264,0.705-2.786,0.619-2.728
		c-0.208,0.514-0.383,1.149-0.96,1.386c-1.21-2.076-0.434-5.346,1.869-7.792c0.097-0.906-1.03,0.686-1.767,0.626
		c-0.188-1.755,0.451-4.802,3.696-4.916c-0.622-0.183-0.955-0.291-1.1-0.809c0.979-0.143,4.061-0.385,3.551-2.811
		c-0.289,0.291-0.385,0.725-1.189,1.219c-0.54,0.325-1.124,0.354-1.432-0.123c1.427-0.468,0.959-2.205-0.91-1.697
		c-0.569,0.158-1.403-0.439-1.445-1.104c0.414,0.419,1.258,0.109,1.743-0.207c2.097-1.366,3.379,0.611,3.662,1.035
		c0.087,0,0.944-1.977-2.037-2.505c-0.251-0.695-0.932-1.918-2.954-1.77c-0.665-2.347-2.685-1.189-2.615-0.124
		c-2.146-1.578,0.036-3.57,0.899-3.875c0.602,0.049,0.469,1.953,1.52,1.627c0.258-0.074-0.817-1.308-0.402-1.869
		c0.964-0.548,0.944,0.71,1.418,0.242C81.759,55.427,82.708,54.968,83.487,54.879 M84.375,27.416c0,0,6.803-3.186,11.752-1.361
		c6.061,2.234,13.063,1.248,13.063,1.248v24.825c-4.756,0.321-14.624-2.387-17.134-2.387c-5.177,0-7.682,2.022-7.682,2.022
		S84.385,28.264,84.375,27.416 M110.076,42.24c0,0,0.56,0.986,5.383,0.286c2.621-0.385,3.013,2.712,3.013,2.712h-0.005
		c-0.646-0.512-1.942-0.749-2.823-0.182c-2.927,1.889-5.567,1.909-5.567,1.909V42.24z M110.16,32.485
		c3.025,1.312,4.206,0.128,5.178,0.128c2.984,0,3.134,2.781,3.134,2.781c0.043,0.306,0.067,0.523,0.087,0.661
		c-0.019-0.138-0.05-0.354-0.092-0.661c-0.063-0.468-1.423-0.74-2.382-0.321c-1.339,0.578-4.697,2.501-5.925,2.136V32.485z
		 M124.446,22.178c-46.327-4.468-81.294,0-81.294,0s0,57.665,0,57.679c3.691,39.088,40.303,43.684,40.653,43.62
		c6.539-1.179,37.233-7.353,40.645-43.634L124.446,22.178z"/>
	<path fill="#98172E" d="M524.471,119.566c-16.304,0-22.261-15.898-22.261-28.153c0-18.129,11.171-24.007,19.786-24.007
		c15.811,0,21.856,14.735,21.856,28.396C543.852,112.11,534.413,119.566,524.471,119.566 M523.396,122.131
		c15.987,0,28.731-12.172,28.731-28.895c0-14.573-9.606-28.396-28.731-28.396c-17.053,0-29.472,12.664-29.472,29.224
		C493.925,108.963,505.021,122.131,523.396,122.131 M477.454,107.726c0-4.227,0.078-6.545,3.56-6.954l1.322-0.167
		c0.582-0.499,0.497-1.742-0.079-2.071c-2.732,0.167-5.553,0.246-8.778,0.246c-4.883,0-9.439-0.079-11.836-0.246
		c-0.582,0.246-0.666,1.74,0,2.071l3.64,0.414c5.134,0.576,5.385,1.08,5.385,8.028v3.314c0,2.648-0.414,4.138-0.829,4.719
		c-0.917,1.406-3.975,2.485-9.108,2.485c-16.644,0-24.84-12.506-24.84-28.4c0-12.417,7.042-23.839,23.1-23.839
		c8.442,0,14.656,2.811,16.975,11.751c0.493,0.498,1.991,0.415,2.238-0.246c-0.749-4.966-1.247-9.276-1.247-12.003
		c-0.991,0.163-3.556-0.419-5.134-0.745c-1.405-0.335-5.79-1.243-10.514-1.243c-12.502,0-20.698,3.886-26.241,9.685
		c-5.134,5.465-7.452,12.586-7.452,19.619c0,7.288,2.649,13.828,7.614,18.793c6.377,6.461,15.401,9.193,25.25,9.193
		c4.473,0,10.436-0.996,14.824-2.156c1.568-0.409,3.058-0.743,4.054-0.743c0.335-0.247,0.335-0.745,0.078-0.991
		c-1.479-0.583-1.981-2.57-1.981-5.879V107.726z M392.513,79.823c0.912-2.48,1.741-4.468,1.987-4.883h0.167
		c0.494,0.992,1.238,3.23,1.904,5.218l4.468,13.493c0.745,2.234,0.582,2.564-1.82,2.564h-10.183c-2.318,0-2.401-0.083-1.736-1.986
		L392.513,79.823z M407.332,112.854c0.66,1.987,1.075,3.478,1.075,4.391c0,0.827-1.16,1.325-2.895,1.493l-2.403,0.247
		c-0.581,0.414-0.497,1.735,0.164,2.07c2.401-0.083,5.548-0.251,9.523-0.251c3.724,0,6.623,0.084,10.017,0.251
		c0.413-0.335,0.582-1.656,0-2.07l-2.234-0.247c-3.561-0.419-4.636-1.657-7.037-8.778l-11.343-33.283
		c-1.243-3.64-2.564-7.446-3.64-11.096c-0.167-0.572-0.75-0.739-1.243-0.739c-0.912,1.075-2.317,2.564-4.305,3.146
		c0.247,1.321-0.251,2.89-1.411,5.878l-8.442,22.35c-3.477,9.276-5.795,14.657-7.283,18.464c-1.16,2.979-2.979,3.891-4.967,4.059
		l-2.732,0.247c-0.498,0.414-0.33,1.735,0.163,2.07c2.238-0.083,5.218-0.251,7.949-0.251c3.892,0.084,6.456,0.084,8.611,0.251
		c0.744-0.335,0.744-1.656,0.162-2.07l-2.732-0.247c-1.987-0.168-2.401-0.666-2.401-1.657c0-0.912,0.582-3.146,1.825-6.874
		l2.894-8.689c0.583-1.741,1.08-1.987,3.147-1.987h12.502c2.485,0,2.814,0.246,3.393,2.065L407.332,112.854z M309.06,93.814
		c0,10.682,5.14,18.217,11.757,22.769c6.047,4.059,13.168,5.549,20.62,5.549c5.296,0,11.259-1.243,13.078-1.909
		c0.912-0.33,1.903-0.656,2.895-0.823c1.243-1.573,3.397-7.037,3.976-11.343c-0.331-0.582-1.574-0.745-2.15-0.33
		c-1.904,4.882-6.623,11.84-17.306,11.84c-13.576,0-24.583-9.606-24.583-26.99c0-17.142,10.761-25.17,23.425-25.17
		c12.003,0,15.732,6.46,16.975,12.087c0.576,0.498,1.819,0.414,2.234-0.162c-0.662-5.051-1.076-10.268-1.16-12.172
		c-0.745,0.079-1.326-0.083-2.317-0.33c-3.891-1.079-10.185-1.987-14.651-1.987c-8.61,0-16.314,2.317-22.355,7.032
		C313.203,76.76,309.06,84.627,309.06,93.814 M284.805,108.224c0,8.773-0.165,9.932-5.05,10.514l-2.069,0.247
		c-0.495,0.492-0.328,1.819,0.166,2.07c4.142-0.167,6.953-0.251,10.432-0.251c3.31,0,6.128,0.084,10.263,0.251
		c0.501-0.251,0.666-1.74,0.168-2.07l-2.071-0.247c-4.885-0.582-5.05-1.74-5.05-10.514V78.749c0-8.778,0.165-10.184,5.05-10.598
		l2.071-0.163c0.498-0.335,0.333-1.825-0.168-2.072c-4.135,0.168-6.953,0.247-10.263,0.247c-3.479,0-6.29-0.079-10.432-0.247
		c-0.494,0.247-0.661,1.736-0.166,2.072l2.069,0.163c4.885,0.414,5.05,1.82,5.05,10.598V108.224z M246.558,94.065
		c3.975,0,4.141,0.164,4.141,2.649v11.673c0,8.693,0,9.522-5.051,10.351l-1.57,0.247c-0.501,0.492-0.333,1.819,0.162,2.07
		c3.646-0.167,6.626-0.251,10.019-0.251c3.229,0,6.044,0.084,10.019,0.251c0.496-0.251,0.661-1.74,0.168-2.07l-1.989-0.247
		c-4.805-0.582-4.969-1.657-4.969-10.351V78.58c0-8.688,0.164-9.931,4.969-10.429l1.735-0.163c0.501-0.335,0.335-1.825-0.16-2.072
		c-3.729,0.168-6.544,0.247-9.773,0.247c-3.393,0-6.211-0.079-10.019-0.247c-0.495,0.247-0.663,1.736-0.162,2.072l1.57,0.163
		c4.885,0.498,5.051,1.741,5.051,10.429v9.524c0,2.568-0.166,2.648-4.141,2.648h-23.674c-3.976,0-4.143-0.079-4.143-2.648V78.58
		c0-8.688,0.167-9.931,4.971-10.429l1.57-0.163c0.493-0.335,0.334-1.825-0.167-2.072c-3.561,0.168-6.374,0.247-9.6,0.247
		c-3.561,0-6.379-0.163-10.433-0.247c-0.5,0.247-0.663,1.736-0.168,2.072l2.15,0.163c4.308,0.331,4.89,1.741,4.89,10.429v29.808
		c0,8.693-0.168,9.522-4.804,10.351l-1.408,0.247c-0.495,0.492-0.327,1.819,0.166,2.07c3.227-0.083,6.046-0.251,9.606-0.251
		c3.226,0,6.039,0.084,10.515,0.251c0.493-0.251,0.66-1.74,0.16-2.07l-2.399-0.247c-4.636-0.497-5.05-1.657-5.05-10.351V96.714
		c0-2.485,0.167-2.649,4.143-2.649H246.558z M141.251,93.814c0,10.682,5.132,18.217,11.757,22.769
		c6.044,4.059,13.165,5.549,20.614,5.549c5.296,0,11.261-1.243,13.078-1.909c0.915-0.33,1.909-0.656,2.898-0.823
		c1.243-1.573,3.395-7.037,3.975-11.343c-0.334-0.582-1.571-0.745-2.15-0.33c-1.904,4.882-6.626,11.84-17.303,11.84
		c-13.579,0-24.592-9.606-24.592-26.99c0-17.142,10.766-25.17,23.431-25.17c12.003,0,15.731,6.46,16.975,12.087
		c0.574,0.498,1.821,0.414,2.231-0.162c-0.664-5.051-1.075-10.268-1.157-12.172c-0.746,0.079-1.323-0.083-2.317-0.33
		c-3.894-1.079-10.187-1.987-14.657-1.987c-8.607,0-16.306,2.317-22.35,7.032C145.391,76.76,141.251,84.627,141.251,93.814"/>
	<path fill="#98172E" d="M311.758,44.696l-0.972-0.148c-1.79-0.212-1.874-0.404-1.874-4.113V28.15c0-3.729,0.118-4.004,1.855-4.147
		l0.936-0.079l0.055-0.035c0.172-0.118,0.261-0.36,0.242-0.661c-0.011-0.118-0.056-0.522-0.346-0.661l-0.06-0.03l-0.063,0.005
		c-1.633,0.059-2.846,0.099-4.266,0.099c-1.479,0-2.669-0.035-4.335-0.099l-0.065-0.005l-0.061,0.03
		c-0.288,0.138-0.333,0.542-0.343,0.666c-0.02,0.296,0.069,0.538,0.242,0.656l0.056,0.035l0.928,0.079
		c1.743,0.143,1.861,0.419,1.861,4.147v12.284c0,3.709-0.084,3.901-1.866,4.113l-0.954,0.118l-0.064,0.06
		c-0.197,0.197-0.228,0.522-0.189,0.759c0.041,0.257,0.156,0.449,0.323,0.528l0.062,0.029h0.07c1.753-0.069,2.904-0.104,4.335-0.104
		c1.366,0,2.554,0.035,4.266,0.104h0.063l0.06-0.029c0.29-0.138,0.335-0.542,0.346-0.666
		C312.019,45.051,311.93,44.809,311.758,44.696"/>
	<path fill="#98172E" d="M295.748,22.578l-0.072-0.045l-0.083,0.005c-1.132,0.064-2.032,0.104-3.541,0.104
		c-1.219,0-2.353-0.03-4.057-0.104h-0.054l-0.053,0.015c-0.199,0.079-0.337,0.261-0.387,0.523c-0.057,0.306,0.039,0.621,0.237,0.788
		l0.066,0.06l0.66,0.074c1.186,0.148,1.788,0.325,1.948,0.572c0.414,0.651,0.648,3.201,0.648,6.994v7.382
		c0,0.335,0,0.725-0.022,0.986c-1.195-1.238-2.443-2.638-4.004-4.379l-4.796-5.385c-3.415-3.827-5.368-6.337-5.808-7.461
		l-0.076-0.198l-0.212,0.035c-0.414,0.059-0.974,0.099-1.546,0.099c-0.607,0-2.438,0-3.879-0.104l-0.068-0.005l-0.067,0.035
		c-0.188,0.094-0.313,0.281-0.353,0.523c-0.047,0.286,0.035,0.587,0.213,0.76l0.063,0.069l0.678,0.079
		c0.917,0.118,1.605,0.375,1.973,0.745c0.649,0.705,0.693,1.341,0.693,2.303v10.282c0,1.667,0.005,5.573-0.424,6.683
		c-0.082,0.177-0.375,0.415-1.308,0.542l-1.025,0.109l-0.066,0.069c-0.15,0.147-0.228,0.394-0.207,0.656
		c0.02,0.261,0.138,0.478,0.313,0.606l0.077,0.054l0.091-0.005c1.201-0.069,2.126-0.104,3.575-0.104c1.167,0,2.333,0.03,4.024,0.104
		l0.091,0.005l0.072-0.054c0.159-0.118,0.271-0.3,0.306-0.518c0.037-0.251-0.025-0.513-0.175-0.714l-0.072-0.099l-1.191-0.109
		c-0.828-0.074-1.409-0.267-1.551-0.528c-0.372-0.656-0.587-3.21-0.587-7.008v-7.525c0-0.616,0.013-1.272,0.072-1.741
		c0.549,0.616,1.465,1.691,2.283,2.668c0.565,0.666,1.085,1.283,1.422,1.667l8.005,9.108c2.663,3.023,3.935,4.522,4.399,5.183
		l0.081,0.113h0.136c0.45,0,0.793-0.212,0.904-0.562l0.02-0.054l-0.004-0.06c-0.05-0.399-0.107-1.771-0.107-6.007V31.1
		c-0.004-1.771-0.014-5.444,0.492-6.52c0.044-0.094,0.458-0.385,1.73-0.582l0.571-0.079l0.064-0.069
		c0.168-0.163,0.249-0.434,0.218-0.7C296.056,22.903,295.93,22.696,295.748,22.578"/>
	<path fill="#98172E" d="M264.805,22.578l-0.069-0.045l-0.086,0.005c-1.198,0.064-2.126,0.104-3.608,0.104
		c-1.321,0-2.603-0.035-3.917-0.104l-0.087-0.005l-0.074,0.049c-0.158,0.109-0.269,0.306-0.303,0.538
		c-0.037,0.262,0.029,0.508,0.182,0.686l0.07,0.083l0.969,0.074c0.793,0.065,1.334,0.276,1.517,0.592
		c0.403,0.71,0.626,3.201,0.626,7.008v3.969c0,4.063-1.151,8.912-6.636,8.912c-4.601,0-6.741-2.84-6.741-8.946v-7.452
		c0-3.669,0.121-3.931,1.827-4.083l0.893-0.069l0.061-0.044c0.173-0.113,0.256-0.346,0.236-0.636
		c-0.015-0.242-0.11-0.533-0.337-0.651l-0.059-0.025H249.2c-1.637,0.064-2.793,0.104-4.23,0.104c-1.421,0-2.637-0.04-4.269-0.104
		h-0.066l-0.06,0.025c-0.227,0.113-0.323,0.409-0.338,0.646c-0.022,0.295,0.064,0.528,0.237,0.641l0.054,0.044l0.935,0.069
		c1.709,0.153,1.825,0.414,1.825,4.083v8.142c0,4.172,0.857,6.747,2.781,8.344c1.521,1.297,3.753,1.958,6.626,1.958
		c2.717,0,5.318-1.001,6.783-2.604c1.669-1.791,2.482-4.547,2.482-8.423v-3.9c0-1.747,0-5.844,0.461-6.924
		c0.161-0.35,0.753-0.617,1.505-0.676l0.939-0.074l0.069-0.088c0.157-0.188,0.229-0.469,0.187-0.72
		C265.088,22.864,264.978,22.686,264.805,22.578"/>
	<path fill="#98172E" d="M164.097,21.64c-0.086,0-0.212,0.01-0.323,0.059l-0.086,0.035l-0.047,0.074
		c-0.444,0.774-0.631,0.833-2.458,0.833h-14.26c-1.547,0-2.239-0.079-2.385-0.853l-0.015-0.079l-0.061-0.06
		c-0.097-0.094-0.252-0.143-0.474-0.143c-0.082,0-0.365,0.01-0.516,0.109l-0.091,0.064l-0.02,0.113
		c-0.244,1.371-0.752,3.551-1.305,5.094l-0.035,0.108l0.05,0.099c0.207,0.414,0.914,0.617,1.295,0.335l0.054-0.04l0.032-0.069
		c0.348-0.794,0.676-1.544,1.484-2.293c0.762-0.695,2.483-0.784,4.064-0.784h1.898c0.77,0,0.77,0,0.77,0.833v15.426
		c0,3.738-0.212,3.896-1.894,4.044l-1.243,0.108l-0.116,0.034c-0.206,0.124-0.322,0.385-0.308,0.686
		c0.01,0.232,0.102,0.528,0.328,0.636l0.062,0.029h0.064c2.11-0.063,3.388-0.104,4.788-0.104c1.342,0,2.458,0.035,4.508,0.104h0.066
		l0.062-0.029c0.227-0.108,0.323-0.419,0.338-0.671c0.02-0.301-0.071-0.538-0.241-0.646l-1.229-0.148
		c-1.722-0.148-1.827-0.375-1.827-4.044V25.039c0-0.35,0-0.686,0.055-0.74c0.062-0.054,0.434-0.054,0.683-0.054h2.448
		c1.847,0,3.105,0.261,3.842,0.804c0.33,0.247,0.612,1.119,0.76,2.342l0.01,0.074l0.05,0.06c0.125,0.152,0.359,0.246,0.626,0.246
		c0.323,0,0.602-0.138,0.712-0.365l0.03-0.069l-0.005-0.073c-0.102-0.997,0.141-3.773,0.51-5.154l0.024-0.094l-0.043-0.089
		C164.597,21.661,164.212,21.64,164.097,21.64"/>
	<path fill="#98172E" d="M195.891,44.696l-0.944-0.148c-1.748-0.212-1.832-0.399-1.832-4.044V28.081
		c0-3.669,0.101-3.906,1.827-4.078l0.722-0.074l0.121-0.039c0.173-0.118,0.262-0.354,0.241-0.656
		c-0.004-0.123-0.054-0.527-0.337-0.666l-0.061-0.03l-0.064,0.005c-1.672,0.069-2.809,0.099-4.065,0.099
		c-1.495,0-2.695-0.04-4.155-0.099l-0.071-0.005l-0.061,0.03c-0.282,0.138-0.333,0.542-0.339,0.661
		c-0.02,0.301,0.067,0.543,0.24,0.656l0.775,0.118c1.764,0.172,1.864,0.41,1.864,4.078v3.97c0,0.838,0,0.838-1.459,0.838h-9.863
		c-1.46,0-1.46,0-1.46-0.838v-3.97c0-3.669,0.102-3.906,1.834-4.078l0.652-0.074l0.12-0.044c0.173-0.113,0.257-0.355,0.242-0.651
		c-0.011-0.123-0.06-0.527-0.344-0.666l-0.061-0.03l-0.064,0.005c-1.57,0.069-2.727,0.099-3.99,0.099
		c-0.905,0-1.686-0.025-2.544-0.055c-0.553-0.015-1.137-0.034-1.798-0.049h-0.061l-0.062,0.03c-0.281,0.133-0.333,0.537-0.338,0.661
		c-0.02,0.301,0.066,0.538,0.236,0.656l0.061,0.039l0.964,0.079c1.521,0.113,1.793,0.429,1.793,4.078v12.423
		c0,3.59-0.068,3.743-1.782,4.049l-0.666,0.118l-0.062,0.055c-0.197,0.197-0.227,0.522-0.19,0.759
		c0.04,0.251,0.16,0.449,0.328,0.528l0.055,0.029h0.071c0.469-0.014,0.925-0.029,1.378-0.044c0.814-0.03,1.657-0.06,2.616-0.06
		c1.292,0,2.395,0.03,4.372,0.104h0.066l0.061-0.029c0.228-0.108,0.323-0.419,0.339-0.671c0.014-0.295-0.072-0.538-0.244-0.646
		l-1.12-0.148c-1.651-0.177-1.864-0.341-1.864-4.044v-4.868c0-0.838,0-0.838,1.46-0.838h9.863c1.459,0,1.459,0,1.459,0.838v4.868
		c0,3.664-0.036,3.743-1.878,4.044l-0.742,0.118l-0.062,0.064c-0.198,0.197-0.223,0.522-0.188,0.754
		c0.046,0.257,0.162,0.449,0.328,0.528l0.061,0.029l0.071-0.005c1.649-0.069,2.852-0.099,4.155-0.099
		c1.363,0,2.561,0.04,4.166,0.099l0.064,0.005l0.062-0.029c0.289-0.138,0.333-0.542,0.344-0.666
		C196.152,45.051,196.063,44.809,195.891,44.696"/>
	<path fill="#98172E" d="M364.855,40.396c-0.177,0-0.325,0.044-0.443,0.128l-0.089,0.099c-0.986,1.978-1.879,2.979-2.327,3.225
		c-0.74,0.375-1.786,0.488-4.301,0.488c-2.876,0-3.61-0.34-3.975-0.705c-0.494-0.519-0.587-1.642-0.587-3.408V35.36
		c0-0.666,0-0.666,0.873-0.666h2.002c1.203,0,2.101,0.029,2.589,0.163c0.479,0.118,0.725,0.429,0.878,1.114l0.311,1.342l0.05,0.113
		c0.128,0.153,0.374,0.247,0.65,0.247c0.312,0,0.572-0.119,0.687-0.321l0.033-0.059v-0.069c0-0.335-0.029-0.785-0.059-1.277
		c-0.04-0.631-0.079-1.347-0.079-2.037c0-0.725,0.039-1.46,0.079-2.11c0.029-0.528,0.059-1.001,0.059-1.376V30.36l-0.033-0.064
		c-0.114-0.197-0.375-0.321-0.687-0.321c-0.276,0-0.522,0.094-0.65,0.247l-0.33,1.539c-0.153,0.785-0.352,0.902-0.651,1.001
		c-0.37,0.124-1.405,0.192-2.846,0.192h-2.002c-0.873,0-0.873,0-0.873-0.7v-6.9c0-1.114,0-1.114,0.774-1.114h2.475
		c1.465,0,2.585,0.034,3.29,0.202c1.573,0.395,1.885,1.385,2.362,2.895l0.069,0.208l0.05,0.083c0.113,0.148,0.31,0.222,0.561,0.222
		c0.236,0,0.567-0.079,0.72-0.306l0.055-0.084l-0.044-0.503c-0.183-2.012-0.346-3.718-0.533-4.241l-0.079-0.227l-0.232,0.06
		c-0.385,0.094-2.524,0.094-4.592,0.094h-6.489c-1.327,0-2.466-0.03-4.054-0.104h-0.07l-0.063,0.03
		c-0.28,0.138-0.33,0.542-0.34,0.661c-0.02,0.306,0.068,0.543,0.241,0.656l0.671,0.113c1.761,0.212,1.869,0.438,1.869,4.083v12.418
		c0,3.738-0.217,3.906-1.898,4.049l-1.233,0.114l-0.065,0.064c-0.196,0.197-0.227,0.522-0.196,0.754
		c0.044,0.256,0.167,0.449,0.334,0.533l0.05,0.034l0.074-0.005c1.997-0.069,3.19-0.104,4.681-0.104h3.106
		c3.008,0,6.036,0.035,9.242,0.104l0.167,0.005l0.074-0.153c0.464-0.971,1.327-3.649,1.573-4.857l0.02-0.089l-0.039-0.074
		C365.517,40.539,365.152,40.396,364.855,40.396"/>
	<path fill="#98172E" d="M221.113,40.396c-0.17,0-0.323,0.044-0.444,0.128l-0.086,0.099c-0.988,1.978-1.879,2.979-2.328,3.225
		c-0.742,0.375-1.788,0.488-4.298,0.488c-2.872,0-3.614-0.34-3.98-0.705c-0.488-0.519-0.584-1.642-0.584-3.408V35.36
		c0-0.666,0-0.666,0.872-0.666h2c1.206,0,2.105,0.029,2.592,0.163c0.479,0.124,0.728,0.429,0.877,1.114l0.309,1.342l0.055,0.113
		c0.129,0.153,0.369,0.247,0.648,0.247c0.314,0,0.569-0.119,0.686-0.321l0.029-0.059v-0.069c0-0.335-0.024-0.785-0.054-1.277
		c-0.035-0.631-0.082-1.347-0.082-2.037c0-0.725,0.047-1.46,0.082-2.11c0.029-0.528,0.054-1.001,0.054-1.376V30.36l-0.029-0.064
		c-0.116-0.197-0.372-0.321-0.686-0.321c-0.279,0-0.52,0.094-0.648,0.247l-0.333,1.539c-0.155,0.785-0.348,0.902-0.651,1.001
		c-0.366,0.124-1.402,0.192-2.848,0.192h-2c-0.872,0-0.872,0-0.872-0.7v-6.9c0-1.114,0-1.114,0.767-1.114h2.485
		c1.465,0,2.584,0.034,3.282,0.202c1.575,0.395,1.889,1.385,2.366,2.895l0.067,0.208l0.049,0.083
		c0.118,0.148,0.313,0.222,0.563,0.222c0.237,0,0.569-0.079,0.723-0.306l0.05-0.084l-0.045-0.508
		c-0.178-2.008-0.34-3.713-0.525-4.236l-0.081-0.227l-0.232,0.06c-0.385,0.094-2.525,0.094-4.597,0.094h-6.485
		c-1.326,0-2.463-0.03-4.054-0.104h-0.071l-0.06,0.03c-0.283,0.138-0.335,0.542-0.34,0.661c-0.02,0.306,0.066,0.543,0.239,0.656
		l0.67,0.113c1.764,0.212,1.87,0.438,1.87,4.083v12.418c0,3.738-0.218,3.906-1.9,4.049l-1.232,0.114l-0.066,0.064
		c-0.2,0.197-0.228,0.522-0.19,0.759c0.039,0.251,0.16,0.444,0.328,0.528l0.055,0.034l0.071-0.005c1.99-0.069,3.19-0.104,4.68-0.104
		h3.107c3.011,0,6.028,0.035,9.236,0.104l0.17,0.005l0.077-0.153c0.463-0.967,1.328-3.64,1.57-4.857l0.02-0.089l-0.034-0.074
		C221.773,40.539,221.411,40.396,221.113,40.396"/>
	<path fill="#98172E" d="M341.895,22.572l-0.074-0.039l-0.074,0.005c-1.153,0.069-2.219,0.104-3.333,0.104
		c-1.351,0-2.653-0.04-3.566-0.104l-0.083-0.005l-0.069,0.039c-0.188,0.114-0.325,0.34-0.346,0.612
		c-0.028,0.272,0.06,0.533,0.237,0.68l0.06,0.06l0.699,0.074c1.209,0.138,1.322,0.39,1.322,0.39c0,0.227-0.039,0.577-0.296,1.253
		c-0.592,1.5-2.238,5.454-3.201,7.723c-0.256,0.582-0.576,1.347-0.932,2.19c-0.661,1.548-1.449,3.438-2.13,4.922
		c-1.638-3.749-3.137-7.511-4.656-11.357c-1.015-2.476-1.593-4.276-1.695-4.725c0.049-0.114,0.345-0.257,1.381-0.394l0.592-0.079
		l0.059-0.055c0.178-0.147,0.267-0.399,0.236-0.68c-0.024-0.271-0.146-0.498-0.345-0.612l-0.069-0.039l-0.078,0.005
		c-1.529,0.069-2.742,0.104-4.158,0.104c-1.44,0-2.539-0.035-3.57-0.104l-0.084-0.005l-0.074,0.045
		c-0.201,0.128-0.33,0.359-0.35,0.621c-0.021,0.266,0.068,0.517,0.247,0.665l0.063,0.06l0.706,0.074
		c1.336,0.158,1.794,0.774,2.574,2.667l6.075,14.968c0.721,1.79,1.253,3.329,1.572,4.557l0.03,0.128l0.124,0.049
		c0.197,0.084,0.403,0.123,0.621,0.123c0.197,0,0.385-0.049,0.522-0.148l0.079-0.049l0.029-0.088
		c0.592-1.854,2.248-5.923,3.581-8.976l1.854-4.246c1.603-3.624,2.938-6.357,3.852-7.905c0.438-0.706,0.902-1.021,1.583-1.08
		l1.134-0.074l0.074-0.074c0.188-0.188,0.218-0.513,0.188-0.735C342.176,22.864,342.063,22.671,341.895,22.572"/>
	<path fill="#98172E" d="M514.342,44.893c-7.121,0-9.024-7.211-9.024-11.466c0-7.186,4.306-9.735,7.989-9.735
		c6.52,0,8.837,6.229,8.837,11.565C522.144,42.373,517.942,44.893,514.342,44.893 M513.889,22.089
		c-7.151,0-12.547,5.351-12.547,12.442c0,5.947,4.31,11.959,12.547,11.959c6.973,0,12.24-5.292,12.24-12.304
		C526.129,28.362,522.298,22.089,513.889,22.089"/>
	<path fill="#98172E" d="M549.307,27.341c-0.069-1.247-0.108-2.855-0.108-4.537v-0.331l-0.32,0.069
		c-0.419,0.099-2.544,0.099-4.596,0.099h-6.352c-1.298,0-2.452-0.03-3.985-0.104l-0.064-0.005l-0.07,0.03
		c-0.28,0.143-0.325,0.547-0.335,0.67c-0.02,0.301,0.069,0.538,0.241,0.656l0.666,0.109c1.746,0.212,1.835,0.399,1.835,4.088v12.417
		c0,3.645-0.089,3.837-1.835,4.049l-0.957,0.109l-0.063,0.069c-0.193,0.192-0.227,0.513-0.183,0.744
		c0.039,0.261,0.153,0.454,0.32,0.538l0.06,0.029h0.074c1.607-0.063,2.772-0.099,4.296-0.099c1.396,0,2.589,0.035,4.58,0.099h0.07
		l0.058-0.029c0.229-0.113,0.327-0.419,0.342-0.666c0.015-0.306-0.074-0.538-0.247-0.651l-1.297-0.148
		c-1.756-0.148-1.859-0.375-1.859-4.044v-4.798c0-0.666,0-0.666,0.872-0.666h2.348c1.214,0,2.111,0.025,2.574,0.158
		c0.483,0.153,0.745,0.474,0.928,1.125l0.364,1.43l0.064,0.054c0.341,0.291,1.075,0.276,1.292-0.054l0.045-0.07v-0.078
		c0-0.36-0.025-0.819-0.054-1.332c-0.045-0.626-0.084-1.337-0.084-2.017c0-0.695,0.039-1.44,0.078-2.091
		c0.03-0.533,0.06-1.021,0.06-1.396V30.69l-0.045-0.064c-0.163-0.247-0.517-0.276-0.655-0.276c-0.286,0-0.538,0.099-0.671,0.257
		l-0.359,1.489c-0.193,0.833-0.425,0.917-0.687,1.011c-0.365,0.124-1.431,0.192-2.851,0.192h-2.348c-0.872,0-0.872,0-0.872-0.666
		v-7.274c0-1.119,0-1.119,0.773-1.119h2.102c1.425,0,2.555,0,3.279,0.197c1.479,0.39,1.919,1.381,2.215,3.073l0.019,0.089
		l0.074,0.064c0.133,0.113,0.32,0.173,0.518,0.173c0.266,0,0.592-0.109,0.721-0.355l0.033-0.069L549.307,27.341z"/>
	<path fill="#98172E" d="M483.815,22.578l-0.069-0.045l-0.089,0.005c-2.456,0.143-3.895,0.143-6.489,0l-0.069-0.005l-0.068,0.035
		c-0.188,0.099-0.321,0.291-0.366,0.533c-0.039,0.276,0.045,0.567,0.232,0.75l0.064,0.069l0.71,0.079
		c0.67,0.084,1.085,0.247,1.209,0.34c-0.114,0.488-1.313,2.732-2.047,4.088l-0.158,0.295c-0.828,1.603-1.79,3.334-2.998,5.415
		c-0.912-1.642-1.801-3.447-2.658-5.198c-0.34-0.69-0.676-1.376-1.011-2.047c-0.247-0.497-1.031-2.263-1.041-2.535
		c0-0.069,0.158-0.208,1.223-0.36l0.538-0.084l0.065-0.064c0.183-0.183,0.261-0.523,0.191-0.819
		c-0.059-0.241-0.206-0.41-0.414-0.478l-0.049-0.02l-0.05,0.005c-0.844,0.069-2.08,0.104-3.669,0.104
		c-1.598,0-2.86-0.03-3.979-0.104l-0.084-0.005l-0.069,0.039c-0.167,0.099-0.281,0.282-0.325,0.513
		c-0.039,0.276,0.029,0.563,0.188,0.75l0.063,0.079l1.06,0.188c0.913,0.147,1.372,0.232,2.535,2.476l4.069,7.94
		c0.976,1.878,1.08,2.263,1.08,4.157v1.755c0,3.743-0.089,3.936-1.835,4.123l-1.169,0.109l-0.064,0.069
		c-0.197,0.197-0.227,0.518-0.187,0.754c0.044,0.251,0.158,0.444,0.325,0.528l0.06,0.029h0.068c1.859-0.069,3.067-0.104,4.508-0.104
		c1.401,0,2.638,0.04,4.685,0.104h0.07l0.059-0.029c0.162-0.084,0.285-0.277,0.326-0.533c0.039-0.236,0.009-0.552-0.193-0.749
		l-0.064-0.074l-1.41-0.108c-1.599-0.119-1.825-0.38-1.825-4.118v-1.79c0-2.589,0.068-2.846,1.587-5.459l2.171-3.758
		c0.197-0.341,0.389-0.671,0.567-0.987c1.356-2.372,2.337-4.083,3.802-4.334l1.04-0.188l0.055-0.044
		c0.178-0.158,0.267-0.404,0.247-0.67C484.141,22.938,484.014,22.706,483.815,22.578"/>
	<path fill="#98172E" d="M408.165,32.998l-2.762-1.726c-1.045-0.651-2.806-2.037-2.806-4.015c0-1.336,0.498-3.565,3.841-3.565
		c3.039,0,3.971,1.978,4.434,3.698l0.056,0.104c0.107,0.128,0.295,0.207,0.522,0.207c0.26,0,0.611-0.109,0.76-0.336l0.049-0.069
		v-0.079c0-1.406-0.296-3.383-0.642-4.3l-0.06-0.173h-0.188c-0.236,0-0.699-0.059-1.138-0.197c-0.825-0.222-2.117-0.459-3.28-0.459
		c-4.359,0-7.299,2.491-7.299,6.194c0,3.151,2.406,5.213,3.847,6.159l3.274,2.141c2.382,1.533,2.713,3.122,2.713,4.611
		c0,1.84-1.253,3.694-4.045,3.694c-3.501,0-5.02-2.688-5.681-4.946l-0.039-0.074c-0.099-0.152-0.286-0.242-0.522-0.242
		c-0.227,0-0.564,0.094-0.74,0.34l-0.05,0.074l0.006,0.094c0.064,1.558,0.508,4.108,0.961,4.941l0.029,0.069l0.069,0.035
		c0.676,0.394,2.564,1.312,5.514,1.312c4.557,0,7.614-2.673,7.614-6.648C412.603,37.086,411.154,34.847,408.165,32.998"/>
	<path fill="#98172E" d="M377.9,24.979c0-0.78,0-0.838,1.978-0.838c3.876,0,5.252,2.717,5.252,5.045
		c0,1.913-0.518,3.206-1.623,4.069c-0.98,0.745-2.327,0.843-3.383,0.843c-1.564,0-2.042-0.06-2.185-0.109
		c-0.039-0.138-0.039-0.542-0.039-0.942V24.979z M393.805,45.149l-0.074-0.015c-0.824-0.06-1.657-0.395-2.233-0.907
		c-2.373-1.988-4.262-4.897-6.875-9.109c-0.183-0.296-0.207-0.424-0.203-0.488c1.145-0.473,4.385-2.165,4.385-5.962
		c0-2.895-1.637-4.355-3.008-5.065c-1.727-0.937-3.945-1.065-5.879-1.065c-3.166,0-5.612,0.083-7.723,0.276l-0.094,0.025
		c-0.202,0.103-0.331,0.325-0.35,0.597c-0.031,0.295,0.084,0.581,0.275,0.725l0.055,0.039l1.169,0.144
		c1.129,0.138,1.292,0.38,1.292,3.773v12.383c0,3.649-0.09,3.842-1.835,4.054l-0.967,0.113l-0.068,0.079
		c-0.197,0.227-0.212,0.552-0.168,0.784c0.049,0.231,0.162,0.404,0.32,0.488l0.06,0.029l0.074-0.005
		c1.533-0.063,2.786-0.104,4.295-0.104c1.43,0,2.629,0.04,4.098,0.104l0.07,0.005l0.058-0.029c0.257-0.128,0.316-0.464,0.336-0.597
		c0.034-0.306-0.05-0.572-0.217-0.71l-0.06-0.049l-0.798-0.109c-1.771-0.251-1.84-0.399-1.84-4.054v-4.345
		c0-0.498,0-0.498,1.356-0.498c1.32,0,1.775,0.32,2.233,0.991c0.518,0.765,1.13,1.726,1.721,2.663
		c0.617,0.972,1.204,1.899,1.662,2.55c2.367,3.373,4.158,4.458,7.354,4.458c0.665,0,1.252-0.064,1.598-0.188l0.084-0.039
		c0.162-0.129,0.241-0.335,0.212-0.538C394.091,45.372,393.972,45.218,393.805,45.149"/>
	<path fill="#98172E" d="M428.118,23.998l0.936-0.074l0.056-0.035c0.171-0.118,0.261-0.354,0.241-0.656
		c-0.011-0.123-0.055-0.527-0.336-0.67l-0.064-0.03l-0.069,0.005c-1.633,0.069-2.846,0.104-4.266,0.104
		c-1.479,0-2.669-0.035-4.335-0.104l-0.074-0.005l-0.059,0.03c-0.281,0.143-0.326,0.552-0.335,0.676
		c-0.021,0.296,0.068,0.533,0.241,0.65l0.054,0.035l0.927,0.074c1.766,0.148,1.864,0.385,1.864,4.152V40.43
		c0,3.714-0.084,3.911-1.864,4.123l-0.956,0.109l-0.064,0.069c-0.197,0.197-0.231,0.513-0.186,0.749
		c0.039,0.256,0.152,0.449,0.32,0.533l0.059,0.029h0.074c1.75-0.069,2.909-0.099,4.335-0.099c1.37,0,2.516,0.03,4.266,0.099h0.069
		l0.064-0.029c0.281-0.143,0.325-0.547,0.336-0.666c0.02-0.3-0.07-0.538-0.241-0.651l-0.982-0.143
		c-1.781-0.212-1.864-0.409-1.864-4.123V28.15C426.265,24.383,426.368,24.146,428.118,23.998"/>
	<path fill="#98172E" d="M457.061,21.64c-0.084,0-0.212,0.01-0.32,0.059l-0.089,0.03l-0.049,0.079
		c-0.444,0.774-0.626,0.833-2.461,0.833h-14.257c-1.549,0-2.239-0.079-2.383-0.853l-0.015-0.079l-0.06-0.064
		c-0.099-0.089-0.256-0.139-0.473-0.139c-0.084,0-0.365,0.01-0.519,0.109l-0.093,0.059l-0.021,0.118
		c-0.236,1.381-0.749,3.56-1.302,5.094l-0.034,0.108l0.054,0.099c0.208,0.419,0.907,0.621,1.292,0.335l0.055-0.04l0.03-0.069
		c0.35-0.799,0.681-1.548,1.483-2.288c0.76-0.7,2.485-0.789,4.064-0.789h1.903c0.766,0,0.766,0,0.766,0.833v15.426
		c0,3.738-0.212,3.896-1.894,4.044l-1.243,0.108l-0.114,0.034c-0.206,0.124-0.325,0.385-0.311,0.691
		c0.01,0.231,0.105,0.522,0.331,0.631l0.06,0.029h0.063c2.111-0.063,3.388-0.104,4.788-0.104c1.352,0,2.457,0.035,4.508,0.104h0.069
		l0.059-0.029c0.286-0.143,0.325-0.547,0.336-0.666c0.02-0.3-0.069-0.538-0.237-0.651l-1.232-0.148
		c-1.716-0.148-1.825-0.375-1.825-4.044v-15.47c0-0.345,0-0.681,0.054-0.735c0.065-0.054,0.435-0.054,0.686-0.054h2.445
		c1.85,0,3.107,0.261,3.848,0.804c0.325,0.247,0.606,1.119,0.755,2.342l0.01,0.074l0.044,0.06c0.129,0.152,0.364,0.246,0.627,0.246
		c0.329,0,0.605-0.138,0.714-0.365l0.03-0.069v-0.073c-0.103-0.992,0.139-3.773,0.507-5.154l0.025-0.094l-0.044-0.089
		C457.57,21.67,457.205,21.64,457.061,21.64"/>
</g>
</svg>
