<?xml version="1.0" encoding="utf-8"?>
<!-- Generator: Adobe Illustrator 18.1.1, SVG Export Plug-In . SVG Version: 6.00 Build 0)  -->
<!DOCTYPE svg PUBLIC "-//W3C//DTD SVG 1.1//EN" "http://www.w3.org/Graphics/SVG/1.1/DTD/svg11.dtd">
<svg version="1.1" id="Layer_1" xmlns="http://www.w3.org/2000/svg" xmlns:xlink="http://www.w3.org/1999/xlink" x="0px" y="0px"
	 width="595.28px" height="168px" viewBox="98 117 595.28 168" enable-background="new 98 117 595.28 168" xml:space="preserve">
<g>
	<path fill="#0058A8" d="M182.196,201.538c-4.12-3.615-5.211-8.327-5.211-12.405c0-2.858,0.884-7.82,4.919-11.52
		c3.027-2.777,7.023-4.46,13.287-4.46c2.608,0,4.162,0.167,6.097,0.42c1.6,0.213,2.943,0.59,4.204,0.717
		c0.465,0.041,0.634,0.25,0.634,0.503c0,0.338-0.131,0.843-0.211,2.314c-0.083,1.389-0.042,3.698-0.125,4.539
		c-0.042,0.63-0.126,0.968-0.507,0.968c-0.334,0-0.423-0.338-0.423-0.924c-0.04-1.304-0.588-2.775-1.637-3.872
		c-1.387-1.468-4.666-2.603-8.537-2.603c-3.657,0-6.056,0.924-7.904,2.603c-3.067,2.821-3.87,6.816-3.87,10.893
		c0,10.006,7.614,14.967,13.248,14.967c3.744,0,6.011-0.416,7.693-2.353c0.714-0.796,1.262-2.017,1.429-2.774
		c0.126-0.672,0.209-0.84,0.549-0.84c0.294,0,0.377,0.292,0.377,0.628c0,0.507-0.506,4.161-0.926,5.594
		c-0.209,0.715-0.377,0.924-1.091,1.219c-1.685,0.671-4.876,0.965-7.572,0.965C190.862,206.12,186.023,204.86,182.196,201.538"/>
	<path fill="#0058A8" d="M235.33,192.882c0-7.882-4.541-12.771-10.309-12.771c-4.05,0-8.656,2.251-8.656,11.013
		c0,7.315,4.046,13.125,10.802,13.125C229.627,204.248,235.33,203.052,235.33,192.882 M211.507,192.209
		c0-6.016,3.98-13.786,14.533-13.786c8.759,0,14.212,5.099,14.212,13.156c0,8.056-5.627,14.428-14.563,14.428
		C215.59,206.007,211.507,198.439,211.507,192.209"/>
	<path fill="#0058A8" d="M252.856,195.309c0,4.502,0,6.932,0.74,7.564c0.598,0.529,1.514,0.776,4.257,0.776
		c1.864,0,3.235-0.038,4.119-0.985c0.419-0.457,0.845-1.444,0.912-2.11c0.039-0.318,0.109-0.53,0.389-0.53
		c0.247,0,0.28,0.175,0.28,0.597c0,0.386-0.243,3.028-0.531,4.049c-0.204,0.772-0.383,0.946-2.214,0.946
		c-5.066,0-7.385-0.209-10.238-0.209c-0.808,0-3.026,0.109-4.432,0.109c-0.457,0-0.706-0.109-0.706-0.354
		c0-0.176,0.142-0.281,0.565-0.281c0.528,0,0.952-0.071,1.266-0.143c0.704-0.142,0.881-0.914,1.024-1.935
		c0.174-1.477,0.174-4.257,0.174-7.494v-6.193c0-5.349,0-6.334-0.07-7.456c-0.07-1.195-0.35-1.762-1.514-2.008
		c-0.282-0.068-0.704-0.105-1.16-0.105c-0.386,0-0.598-0.069-0.598-0.315c0-0.25,0.246-0.319,0.774-0.319
		c1.651,0,3.869,0.106,4.819,0.106c0.843,0,3.413-0.106,4.785-0.106c0.491,0,0.739,0.069,0.739,0.319
		c0,0.246-0.212,0.315-0.635,0.315c-0.386,0-0.952,0.037-1.372,0.105c-0.952,0.176-1.233,0.775-1.302,2.008
		c-0.071,1.122-0.071,2.107-0.071,7.456V195.309z"/>
	<path fill="#0058A8" d="M270.333,189.115c0-5.349,0-6.334-0.072-7.456c-0.068-1.195-0.348-1.762-1.51-2.008
		c-0.281-0.068-0.88-0.105-1.375-0.105c-0.385,0-0.597-0.069-0.597-0.315c0-0.246,0.245-0.319,0.775-0.319
		c1.862,0,4.082,0.106,5.134,0.106c0.845,0,3.065-0.106,4.33-0.106c0.528,0,0.772,0.072,0.772,0.319
		c0,0.246-0.209,0.315-0.562,0.315c-0.385,0-0.598,0.037-1.021,0.105c-0.947,0.176-1.232,0.777-1.303,2.008
		c-0.068,1.122-0.068,2.107-0.068,7.456v4.926c0,5.1,1.021,7.248,2.744,8.656c1.586,1.301,3.205,1.441,4.4,1.441
		c1.547,0,3.446-0.49,4.852-1.899c1.935-1.936,2.04-5.103,2.04-8.726v-4.398c0-5.349,0-6.334-0.066-7.456
		c-0.07-1.195-0.356-1.762-1.514-2.008c-0.285-0.068-0.88-0.105-1.269-0.105c-0.386,0-0.597-0.069-0.597-0.315
		c0-0.246,0.246-0.319,0.74-0.319c1.794,0,4.009,0.106,4.048,0.106c0.417,0,2.631-0.106,4.009-0.106
		c0.493,0,0.737,0.072,0.737,0.319c0,0.246-0.211,0.315-0.632,0.315c-0.389,0-0.6,0.037-1.021,0.105
		c-0.951,0.176-1.232,0.777-1.3,2.008c-0.071,1.122-0.071,2.107-0.071,7.456v3.766c0,3.907-0.391,8.057-3.344,10.591
		c-2.496,2.143-5.028,2.535-7.318,2.535c-1.864,0-5.243-0.111-7.811-2.429c-1.795-1.618-3.131-4.226-3.131-9.325V189.115z"/>
	<path fill="#0058A8" d="M303.408,179.055c0.106-0.598,0.317-0.915,0.6-0.915c0.28,0,0.491,0.174,0.949,1.089l9.605,19.846
		l9.569-20.089c0.248-0.567,0.46-0.847,0.774-0.847c0.317,0,0.527,0.35,0.634,1.089l3.203,21.745
		c0.315,2.218,0.669,3.235,1.723,3.556c1.021,0.316,1.725,0.35,2.183,0.35c0.313,0,0.563,0.034,0.563,0.245
		c0,0.281-0.424,0.388-0.917,0.388c-0.878,0-5.732-0.107-7.142-0.213c-0.81-0.069-1.021-0.175-1.021-0.386
		c0-0.178,0.145-0.283,0.387-0.385c0.209-0.075,0.317-0.531,0.177-1.518l-2.114-15.478h-0.139l-7.667,15.973
		c-0.811,1.654-0.989,1.971-1.306,1.971s-0.667-0.705-1.229-1.759c-0.846-1.618-3.624-7.004-4.046-7.988
		c-0.317-0.741-2.429-5.173-3.661-7.809h-0.141l-1.829,14c-0.072,0.635-0.105,1.091-0.105,1.657c0,0.667,0.457,0.983,1.054,1.128
		c0.632,0.141,1.126,0.175,1.477,0.175c0.283,0,0.528,0.068,0.528,0.245c0,0.316-0.317,0.388-0.843,0.388
		c-1.477,0-3.059-0.107-3.691-0.107c-0.671,0-2.36,0.107-3.488,0.107c-0.35,0-0.634-0.072-0.634-0.388
		c0-0.176,0.211-0.245,0.565-0.245c0.283,0,0.526,0,1.052-0.108c0.988-0.212,1.271-1.58,1.447-2.779L303.408,179.055z"/>
	<path fill="#0058A8" d="M349.816,192.53c-0.736-0.53-1.546-0.774-2.92-0.843c-0.632-0.037-0.984-0.037-1.514-0.037
		c-0.139,0-0.209,0.071-0.209,0.246v8.339c0,2.321,0.104,2.922,1.233,3.376c0.949,0.388,1.756,0.422,2.567,0.422
		c1.584,0,4.257-0.847,4.257-4.502C353.23,197.35,352.49,194.394,349.816,192.53 M345.173,189.712c0,0.285,0.104,0.353,0.245,0.39
		c0.319,0.071,0.846,0.104,1.658,0.104c1.158,0,1.933-0.141,2.529-0.669c0.915-0.737,1.446-2.006,1.446-3.726
		c0-2.359-1.373-5.454-4.398-5.454c-0.493,0-0.81,0-1.16,0.071c-0.249,0.068-0.319,0.209-0.319,0.595V189.712z M340.95,189.115
		c0-5.349,0-6.334-0.071-7.456c-0.07-1.195-0.35-1.762-1.511-2.008c-0.282-0.068-0.88-0.105-1.375-0.105
		c-0.383,0-0.595-0.069-0.595-0.315c0-0.246,0.243-0.319,0.773-0.319c1.865,0,4.082,0.106,4.789,0.106
		c1.721,0,3.095-0.106,4.288-0.106c6.368,0,7.494,3.414,7.494,5.277c0,2.89-1.654,4.611-3.589,6.159
		c2.885,0.987,6.403,3.481,6.403,7.596c0,3.77-2.92,7.672-9.394,7.672c-0.843,0-4.048-0.209-5.099-0.209
		c-0.811,0-3.028,0.103-4.437,0.103c-0.456,0-0.7-0.103-0.7-0.348c0-0.176,0.141-0.281,0.561-0.281c0.528,0,0.95-0.073,1.265-0.143
		c0.706-0.141,0.882-0.914,1.021-1.935c0.176-1.476,0.176-4.257,0.176-7.492V189.115z"/>
	<path fill="#0058A8" d="M365.364,189.115c0-5.349,0-6.334-0.07-7.456c-0.07-1.195-0.423-1.797-1.195-1.973
		c-0.387-0.104-0.843-0.141-1.266-0.141c-0.354,0-0.563-0.069-0.563-0.352c0-0.209,0.28-0.282,0.843-0.282
		c1.337,0,3.552,0.106,4.574,0.106c0.88,0,2.957-0.106,4.293-0.106c0.456,0,0.737,0.072,0.737,0.282
		c0,0.283-0.209,0.352-0.561,0.352c-0.352,0-0.634,0.037-1.058,0.105c-0.947,0.176-1.229,0.777-1.301,2.008
		c-0.071,1.122-0.071,2.107-0.071,7.456v6.195c0,3.411,0,6.19,0.143,7.704c0.105,0.95,0.352,1.582,1.408,1.724
		c0.489,0.071,1.264,0.143,1.792,0.143c0.385,0,0.563,0.105,0.563,0.281c0,0.245-0.28,0.348-0.667,0.348
		c-2.321,0-4.539-0.103-5.49-0.103c-0.811,0-3.026,0.103-4.432,0.103c-0.457,0-0.704-0.103-0.704-0.348
		c0-0.176,0.139-0.281,0.561-0.281c0.53,0,0.948-0.073,1.265-0.143c0.704-0.141,0.915-0.738,1.021-1.76
		c0.176-1.477,0.176-4.256,0.176-7.667V189.115z"/>
	<path fill="#0058A8" d="M393.954,194.571c0.174,0,0.211-0.106,0.174-0.213l-3.166-8.693c-0.035-0.139-0.072-0.313-0.174-0.313
		c-0.109,0-0.178,0.174-0.209,0.313l-3.237,8.658c-0.039,0.142,0,0.248,0.139,0.248H393.954z M386.779,196.328
		c-0.178,0-0.249,0.071-0.317,0.283l-1.901,5.029c-0.35,0.883-0.531,1.727-0.531,2.148c0,0.635,0.32,1.093,1.411,1.093h0.528
		c0.419,0,0.525,0.069,0.525,0.281c0,0.28-0.212,0.352-0.597,0.352c-1.126,0-2.64-0.107-3.732-0.107
		c-0.387,0-2.322,0.107-4.15,0.107c-0.46,0-0.669-0.072-0.669-0.352c0-0.212,0.143-0.281,0.424-0.281
		c0.317,0,0.808-0.034,1.088-0.071c1.619-0.214,2.29-1.411,2.992-3.17l8.828-22.094c0.426-1.021,0.635-1.406,0.986-1.406
		c0.322,0,0.531,0.316,0.882,1.125c0.847,1.938,6.475,16.291,8.726,21.64c1.337,3.164,2.359,3.656,3.098,3.836
		c0.527,0.107,1.053,0.141,1.471,0.141c0.287,0,0.461,0.034,0.461,0.281c0,0.28-0.316,0.352-1.621,0.352
		c-1.262,0-3.833,0-6.645-0.072c-0.635-0.035-1.053-0.035-1.053-0.28c0-0.212,0.141-0.281,0.49-0.315
		c0.248-0.072,0.493-0.393,0.316-0.815l-2.814-7.456c-0.07-0.178-0.179-0.248-0.357-0.248H386.779z"/>
	<path fill="#0058A8" d="M424.474,185.939c0-6.392,0-7.572-0.088-8.915c-0.082-1.431-0.415-2.101-1.807-2.397
		c-0.334-0.086-1.051-0.125-1.641-0.125c-0.458,0-0.712-0.086-0.712-0.38c0-0.296,0.294-0.378,0.924-0.378
		c2.229,0,4.882,0.126,6.14,0.126c1.007,0,3.659-0.126,5.173-0.126c0.629,0,0.929,0.082,0.929,0.378c0,0.294-0.258,0.38-0.682,0.38
		c-0.461,0-0.709,0.039-1.218,0.125c-1.135,0.208-1.467,0.924-1.554,2.397c-0.082,1.343-0.082,2.523-0.082,8.915v5.884
		c0,6.1,1.218,8.665,3.279,10.344c1.891,1.561,3.827,1.727,5.259,1.727c1.848,0,4.12-0.588,5.798-2.271
		c2.319-2.311,2.444-6.097,2.444-10.428v-5.256c0-6.392,0-7.572-0.083-8.915c-0.088-1.431-0.423-2.101-1.812-2.397
		c-0.337-0.086-1.052-0.125-1.513-0.125s-0.714-0.086-0.714-0.38c0-0.296,0.294-0.378,0.878-0.378c2.152,0,4.798,0.126,4.841,0.126
		c0.503,0,3.156-0.126,4.792-0.126c0.587,0,0.888,0.082,0.888,0.378c0,0.294-0.255,0.38-0.762,0.38
		c-0.463,0-0.711,0.039-1.218,0.125c-1.137,0.208-1.47,0.924-1.554,2.397c-0.088,1.343-0.088,2.523-0.088,8.915v4.5
		c0,4.666-0.46,9.628-3.992,12.657c-2.985,2.562-6.016,3.024-8.746,3.024c-2.229,0-6.263-0.126-9.338-2.902
		c-2.145-1.932-3.739-5.044-3.739-11.141V185.939z"/>
	<path fill="#0058A8" d="M462.488,200.728c0.073,2.744,0.526,3.657,1.23,3.907c0.603,0.212,1.269,0.246,1.832,0.246
		c0.388,0,0.598,0.069,0.598,0.281c0,0.28-0.313,0.352-0.809,0.352c-2.288,0-3.693-0.107-4.363-0.107
		c-0.319,0-1.968,0.107-3.8,0.107c-0.457,0-0.771-0.036-0.771-0.352c0-0.212,0.212-0.281,0.562-0.281
		c0.455,0,1.089-0.034,1.581-0.179c0.916-0.28,1.057-1.303,1.09-4.363l0.315-20.827c0-0.704,0.109-1.199,0.457-1.199
		c0.389,0,0.705,0.459,1.31,1.091c0.415,0.458,5.765,6.194,10.9,11.292c2.391,2.396,7.138,7.461,7.74,8.024h0.173l-0.35-15.797
		c-0.033-2.148-0.35-2.814-1.195-3.168c-0.53-0.211-1.373-0.211-1.866-0.211c-0.424,0-0.563-0.104-0.563-0.315
		c0-0.287,0.389-0.315,0.917-0.315c1.831,0,3.517,0.104,4.253,0.104c0.394,0,1.728-0.104,3.453-0.104
		c0.457,0,0.808,0.028,0.808,0.315c0,0.211-0.209,0.315-0.633,0.315c-0.352,0-0.634,0-1.056,0.105
		c-0.984,0.282-1.269,1.019-1.303,2.989l-0.388,22.207c0,0.772-0.137,1.088-0.458,1.088c-0.382,0-0.808-0.389-1.197-0.772
		c-2.217-2.114-6.715-6.723-10.375-10.346c-3.835-3.8-7.742-8.195-8.371-8.865h-0.106L462.488,200.728z"/>
	<path fill="#0058A8" d="M494.976,189.115c0-5.349,0-6.334-0.067-7.456c-0.072-1.195-0.427-1.797-1.197-1.973
		c-0.388-0.104-0.848-0.141-1.269-0.141c-0.348,0-0.564-0.069-0.564-0.352c0-0.209,0.287-0.282,0.848-0.282
		c1.335,0,3.551,0.106,4.572,0.106c0.878,0,2.956-0.106,4.296-0.106c0.449,0,0.732,0.072,0.732,0.282
		c0,0.283-0.209,0.352-0.56,0.352c-0.348,0-0.63,0.037-1.058,0.105c-0.95,0.176-1.226,0.777-1.3,2.008
		c-0.071,1.122-0.071,2.107-0.071,7.456v6.195c0,3.411,0,6.19,0.145,7.704c0.102,0.95,0.35,1.582,1.401,1.724
		c0.497,0.071,1.269,0.143,1.798,0.143c0.386,0,0.562,0.105,0.562,0.281c0,0.245-0.28,0.348-0.667,0.348
		c-2.323,0-4.542-0.103-5.492-0.103c-0.809,0-3.025,0.103-4.435,0.103c-0.45,0-0.696-0.103-0.696-0.348
		c0-0.176,0.14-0.281,0.559-0.281c0.524,0,0.954-0.073,1.267-0.143c0.701-0.141,0.914-0.738,1.023-1.76
		c0.172-1.477,0.172-4.256,0.172-7.667V189.115z"/>
	<path fill="#0058A8" d="M510.438,182.362c-0.804-1.934-1.4-2.323-2.674-2.675c-0.524-0.141-1.085-0.141-1.371-0.141
		c-0.313,0-0.424-0.104-0.424-0.315c0-0.283,0.392-0.315,0.919-0.315c1.863,0,3.865,0.104,5.1,0.104
		c0.876,0,2.571-0.104,4.328-0.104c0.421,0,0.808,0.071,0.808,0.315c0,0.246-0.209,0.315-0.526,0.315
		c-0.563,0-1.093,0.037-1.376,0.246c-0.245,0.177-0.348,0.426-0.348,0.741c0,0.456,0.316,1.44,0.807,2.709l6.054,15.971h0.138
		c1.513-3.87,6.087-15.196,6.937-17.521c0.175-0.457,0.312-0.984,0.312-1.297c0-0.28-0.136-0.567-0.459-0.673
		c-0.422-0.139-0.946-0.176-1.404-0.176c-0.319,0-0.599-0.034-0.599-0.28c0-0.28,0.319-0.35,0.984-0.35
		c1.761,0,3.232,0.104,3.691,0.104c0.606,0,2.254-0.104,3.311-0.104c0.459,0,0.738,0.071,0.738,0.315
		c0,0.246-0.207,0.315-0.56,0.315c-0.354,0-1.095,0-1.728,0.424c-0.454,0.317-0.981,0.912-1.932,3.168
		c-1.373,3.306-2.323,5.203-4.224,9.533c-2.252,5.139-3.901,8.969-4.677,10.731c-0.915,2.04-1.126,2.603-1.617,2.603
		c-0.459,0-0.673-0.491-1.342-2.147L510.438,182.362z"/>
	<path fill="#0058A8" d="M540.967,189.115c0-5.349,0-6.334-0.074-7.456c-0.068-1.195-0.352-1.762-1.513-2.008
		c-0.276-0.068-0.878-0.105-1.371-0.105c-0.392,0-0.601-0.069-0.601-0.315c0-0.246,0.247-0.319,0.771-0.319
		c1.866,0,4.087,0.106,5.071,0.106c1.128,0,8.131,0,8.795-0.033c0.669-0.072,1.232-0.145,1.513-0.213
		c0.176-0.035,0.386-0.141,0.562-0.141c0.177,0,0.215,0.141,0.215,0.32c0,0.243-0.182,0.665-0.287,2.285
		c-0.032,0.349-0.105,1.901-0.173,2.321c-0.039,0.178-0.107,0.389-0.35,0.389c-0.248,0-0.319-0.18-0.319-0.493
		c0-0.246-0.035-0.847-0.209-1.269c-0.251-0.632-0.598-1.053-2.358-1.266c-0.6-0.071-4.295-0.141-4.997-0.141
		c-0.178,0-0.246,0.104-0.246,0.354v8.901c0,0.246,0.033,0.385,0.246,0.385c0.772,0,4.823,0,5.625-0.07
		c0.849-0.069,1.376-0.175,1.694-0.525c0.246-0.285,0.388-0.461,0.564-0.461c0.135,0,0.243,0.071,0.243,0.283
		c0,0.209-0.173,0.773-0.279,2.564c-0.072,0.708-0.141,2.114-0.141,2.36c0,0.28,0,0.665-0.32,0.665c-0.243,0-0.315-0.137-0.315-0.31
		c-0.035-0.356-0.035-0.811-0.142-1.269c-0.173-0.704-0.665-1.23-1.968-1.373c-0.666-0.074-4.154-0.106-4.997-0.106
		c-0.178,0-0.21,0.139-0.21,0.352v2.781c0,1.195-0.038,4.432,0,5.45c0.068,2.427,0.631,2.959,4.22,2.959c0.917,0,2.394,0,3.31-0.423
		c0.911-0.419,1.333-1.16,1.584-2.605c0.068-0.387,0.139-0.528,0.387-0.528c0.279,0,0.279,0.28,0.279,0.634
		c0,0.811-0.279,3.202-0.456,3.909c-0.247,0.91-0.565,0.91-1.895,0.91c-5.314,0-7.673-0.209-9.749-0.209
		c-0.808,0-3.029,0.103-4.434,0.103c-0.461,0-0.704-0.103-0.704-0.348c0-0.176,0.141-0.281,0.565-0.281
		c0.526,0,0.95-0.073,1.265-0.143c0.701-0.141,0.877-0.914,1.02-1.935c0.18-1.476,0.18-4.257,0.18-7.492V189.115z"/>
	<path fill="#0058A8" d="M569.282,191.896c0,0.387,0.073,0.53,0.321,0.634c0.737,0.246,1.793,0.352,2.674,0.352
		c1.406,0,1.864-0.143,2.497-0.598c1.055-0.773,2.076-2.392,2.076-5.28c0-4.995-3.308-6.437-5.381-6.437
		c-0.882,0-1.518,0.034-1.866,0.141c-0.248,0.07-0.321,0.211-0.321,0.493V191.896z M565.136,189.115c0-5.349,0-6.334-0.076-7.456
		c-0.065-1.195-0.347-1.762-1.509-2.008c-0.281-0.068-0.882-0.105-1.372-0.105c-0.389,0-0.601-0.069-0.601-0.315
		c0-0.246,0.245-0.319,0.775-0.319c1.866,0,4.081,0.106,4.817,0.106c1.199,0,3.872-0.106,4.968-0.106
		c2.215,0,4.57,0.213,6.476,1.516c0.981,0.667,2.389,2.458,2.389,4.821c0,2.601-1.09,4.992-4.647,7.88
		c3.131,3.939,5.56,7.07,7.637,9.253c1.973,2.042,3.414,2.289,3.941,2.394c0.389,0.072,0.702,0.106,0.985,0.106
		c0.28,0,0.421,0.105,0.421,0.281c0,0.28-0.247,0.348-0.672,0.348h-3.339c-1.967,0-2.849-0.175-3.766-0.663
		c-1.511-0.814-2.846-2.466-4.819-5.175c-1.405-1.938-3.025-4.33-3.483-4.856c-0.179-0.209-0.386-0.246-0.633-0.246l-3.06-0.071
		c-0.176,0-0.286,0.071-0.286,0.283v0.491c0,3.272,0,6.053,0.18,7.528c0.106,1.022,0.314,1.794,1.371,1.935
		c0.528,0.071,1.305,0.143,1.724,0.143c0.281,0,0.425,0.105,0.425,0.281c0,0.245-0.248,0.348-0.704,0.348
		c-2.039,0-4.642-0.103-5.173-0.103c-0.669,0-2.884,0.103-4.29,0.103c-0.46,0-0.703-0.103-0.703-0.348
		c0-0.176,0.141-0.281,0.56-0.281c0.528,0,0.949-0.073,1.268-0.143c0.702-0.141,0.882-0.914,1.019-1.935
		c0.18-1.476,0.18-4.257,0.18-7.492V189.115z"/>
	<path fill="#0058A8" d="M591.908,205.09c-0.561-0.243-0.667-0.421-0.667-1.197c0-1.933,0.136-4.047,0.172-4.608
		c0.038-0.528,0.141-0.915,0.425-0.915c0.319,0,0.352,0.317,0.352,0.598c0,0.459,0.14,1.195,0.317,1.792
		c0.775,2.607,2.85,3.555,5.03,3.555c3.169,0,4.716-2.148,4.716-4.012c0-1.723-0.527-3.376-3.446-5.627l-1.621-1.269
		c-3.867-3.026-5.203-5.488-5.203-8.339c0-3.867,3.237-6.649,8.127-6.649c2.283,0,3.759,0.353,4.676,0.6
		c0.316,0.069,0.493,0.176,0.493,0.423c0,0.457-0.141,1.477-0.141,4.22c0,0.777-0.106,1.056-0.387,1.056
		c-0.247,0-0.35-0.213-0.35-0.634c0-0.319-0.178-1.408-0.917-2.321c-0.528-0.669-1.547-1.725-3.833-1.725
		c-2.607,0-4.189,1.514-4.189,3.624c0,1.618,0.814,2.848,3.733,5.067l0.985,0.74c4.221,3.27,5.768,5.632,5.768,8.969
		c0,2.043-0.776,4.47-3.308,6.125c-1.759,1.123-3.728,1.444-5.595,1.444C595.004,206.007,593.421,205.757,591.908,205.09"/>
	<path fill="#0058A8" d="M615.884,189.115c0-5.349,0-6.334-0.069-7.456c-0.071-1.195-0.423-1.797-1.198-1.973
		c-0.386-0.104-0.843-0.141-1.265-0.141c-0.349,0-0.56-0.069-0.56-0.352c0-0.209,0.276-0.282,0.841-0.282
		c1.334,0,3.554,0.106,4.571,0.106c0.879,0,2.958-0.106,4.297-0.106c0.456,0,0.736,0.072,0.736,0.282
		c0,0.283-0.21,0.352-0.563,0.352c-0.352,0-0.634,0.037-1.052,0.105c-0.95,0.176-1.231,0.777-1.306,2.008
		c-0.067,1.122-0.067,2.107-0.067,7.456v6.195c0,3.411,0,6.19,0.142,7.704c0.105,0.95,0.348,1.582,1.405,1.724
		c0.493,0.071,1.267,0.143,1.793,0.143c0.388,0,0.564,0.105,0.564,0.281c0,0.245-0.28,0.348-0.669,0.348
		c-2.322,0-4.537-0.103-5.49-0.103c-0.808,0-3.028,0.103-4.43,0.103c-0.457,0-0.704-0.103-0.704-0.348
		c0-0.176,0.142-0.281,0.561-0.281c0.533,0,0.949-0.073,1.268-0.143c0.703-0.141,0.917-0.738,1.019-1.76
		c0.176-1.477,0.176-4.256,0.176-7.667V189.115z"/>
	<path fill="#0058A8" d="M639.919,180.882l-5.247,0.141c-2.038,0.072-2.884,0.246-3.411,1.022c-0.353,0.524-0.527,0.952-0.599,1.234
		c-0.071,0.278-0.176,0.419-0.387,0.419c-0.249,0-0.317-0.176-0.317-0.561c0-0.567,0.669-3.766,0.739-4.048
		c0.106-0.456,0.211-0.665,0.422-0.665c0.28,0,0.633,0.348,1.514,0.42c1.018,0.108,2.359,0.175,3.518,0.175h13.933
		c2.252,0,3.095-0.352,3.379-0.352c0.248,0,0.279,0.215,0.279,0.739c0,0.741-0.108,3.165-0.108,4.082
		c-0.026,0.352-0.103,0.563-0.315,0.563c-0.283,0-0.348-0.174-0.387-0.702l-0.029-0.387c-0.076-0.915-1.023-1.901-4.154-1.971
		l-4.436-0.108v14.429c0,3.235,0,6.015,0.176,7.529c0.106,0.984,0.321,1.755,1.371,1.898c0.496,0.073,1.264,0.143,1.798,0.143
		c0.387,0,0.564,0.105,0.564,0.281c0,0.245-0.283,0.348-0.673,0.348c-2.323,0-4.538-0.103-5.525-0.103
		c-0.805,0-3.025,0.103-4.428,0.103c-0.461,0-0.708-0.103-0.708-0.348c0-0.176,0.141-0.281,0.562-0.281
		c0.531,0,0.956-0.071,1.269-0.143c0.706-0.142,0.915-0.914,1.019-1.935c0.18-1.477,0.18-4.257,0.18-7.492V180.882z"/>
	<path fill="#0058A8" d="M669.083,196.4c0-1.901-0.35-2.672-0.809-3.695c-0.245-0.565-4.958-8.3-6.189-10.133
		c-0.878-1.304-1.758-2.179-2.427-2.571c-0.46-0.245-1.056-0.456-1.48-0.456c-0.28,0-0.526-0.069-0.526-0.315
		c0-0.213,0.246-0.319,0.667-0.319c0.635,0,3.27,0.106,4.43,0.106c0.745,0,2.186-0.106,3.769-0.106c0.349,0,0.528,0.106,0.528,0.319
		c0,0.211-0.246,0.246-0.776,0.385c-0.316,0.071-0.491,0.35-0.491,0.634c0,0.282,0.175,0.706,0.421,1.197
		c0.491,1.054,5.418,9.534,5.981,10.518c0.352-0.841,4.788-8.582,5.277-9.675c0.352-0.771,0.493-1.371,0.493-1.825
		c0-0.355-0.141-0.742-0.736-0.881c-0.32-0.071-0.634-0.141-0.634-0.352c0-0.25,0.173-0.319,0.599-0.319
		c1.158,0,2.286,0.106,3.306,0.106c0.77,0,3.093-0.106,3.766-0.106c0.384,0,0.63,0.069,0.63,0.282c0,0.248-0.281,0.352-0.665,0.352
		c-0.355,0-1.021,0.141-1.552,0.42c-0.736,0.354-1.123,0.777-1.898,1.728c-1.158,1.408-6.086,9.673-6.719,11.187
		c-0.531,1.265-0.531,2.359-0.531,3.518v2.886c0,0.56,0,2.038,0.108,3.52c0.071,1.017,0.388,1.788,1.444,1.931
		c0.493,0.073,1.267,0.143,1.76,0.143c0.387,0,0.56,0.105,0.56,0.281c0,0.245-0.281,0.354-0.739,0.354
		c-2.214,0-4.431-0.109-5.38-0.109c-0.876,0-3.099,0.109-4.4,0.109c-0.494,0-0.771-0.074-0.771-0.354
		c0-0.176,0.174-0.281,0.562-0.281c0.494,0,0.915-0.071,1.227-0.143c0.708-0.142,1.023-0.914,1.093-1.931
		c0.104-1.482,0.104-2.961,0.104-3.52V196.4z"/>
	<path fill="#0058A8" d="M181.72,232.753c0-3.512,0-4.162-0.048-4.9c-0.044-0.788-0.276-1.179-0.783-1.293
		c-0.255-0.069-0.558-0.096-0.834-0.096c-0.229,0-0.368-0.042-0.368-0.232c0-0.135,0.183-0.182,0.551-0.182
		c0.882,0,2.337,0.072,3.006,0.072c0.579,0,1.939-0.072,2.818-0.072c0.301,0,0.486,0.047,0.486,0.182
		c0,0.189-0.139,0.232-0.367,0.232c-0.235,0-0.419,0.027-0.694,0.073c-0.625,0.116-0.81,0.508-0.854,1.317
		c-0.048,0.738-0.048,1.389-0.048,4.9v4.067c0,2.239,0,4.066,0.092,5.058c0.07,0.623,0.229,1.041,0.922,1.133
		c0.325,0.046,0.834,0.091,1.179,0.091c0.255,0,0.367,0.071,0.367,0.188c0,0.157-0.183,0.227-0.436,0.227
		c-1.526,0-2.98-0.069-3.605-0.069c-0.53,0-1.985,0.069-2.913,0.069c-0.298,0-0.461-0.069-0.461-0.227
		c0-0.118,0.095-0.188,0.372-0.188c0.346,0,0.621-0.045,0.831-0.091c0.463-0.093,0.606-0.489,0.67-1.155
		c0.116-0.971,0.116-2.798,0.116-5.037V232.753z"/>
	<path fill="#0058A8" d="M194.635,240.374c0.044,1.804,0.347,2.403,0.808,2.568c0.394,0.136,0.832,0.16,1.204,0.16
		c0.253,0,0.392,0.047,0.392,0.188c0,0.185-0.209,0.227-0.533,0.227c-1.501,0-2.424-0.069-2.867-0.069
		c-0.206,0-1.29,0.069-2.494,0.069c-0.303,0-0.509-0.021-0.509-0.227c0-0.141,0.139-0.188,0.368-0.188
		c0.304,0,0.719-0.023,1.043-0.115c0.6-0.183,0.694-0.854,0.715-2.866l0.211-13.679c0-0.461,0.067-0.785,0.298-0.785
		c0.253,0,0.46,0.299,0.854,0.717c0.28,0.3,3.793,4.068,7.164,7.417c1.571,1.573,4.69,4.896,5.084,5.268h0.115l-0.232-10.376
		c-0.021-1.406-0.231-1.846-0.785-2.079c-0.345-0.141-0.898-0.141-1.222-0.141c-0.28,0-0.371-0.066-0.371-0.205
		c0-0.183,0.255-0.209,0.602-0.209c1.202,0,2.309,0.072,2.793,0.072c0.253,0,1.135-0.072,2.267-0.072c0.299,0,0.53,0.026,0.53,0.209
		c0,0.139-0.137,0.205-0.417,0.205c-0.232,0-0.416,0-0.692,0.073c-0.65,0.183-0.832,0.67-0.855,1.963l-0.255,14.579
		c0,0.508-0.09,0.718-0.298,0.718c-0.257,0-0.535-0.253-0.785-0.507c-1.459-1.387-4.416-4.414-6.819-6.793
		c-2.518-2.497-5.081-5.385-5.498-5.825h-0.071L194.635,240.374z"/>
	<path fill="#0058A8" d="M227.581,227.347l-3.441,0.092c-1.343,0.046-1.895,0.162-2.24,0.67c-0.233,0.347-0.35,0.623-0.393,0.807
		c-0.051,0.185-0.116,0.276-0.255,0.276c-0.16,0-0.211-0.114-0.211-0.368c0-0.368,0.44-2.473,0.487-2.657
		c0.069-0.3,0.139-0.438,0.276-0.438c0.186,0,0.419,0.23,0.993,0.276c0.67,0.067,1.548,0.114,2.314,0.114h9.147
		c0.743,0,1.248-0.068,1.597-0.114c0.346-0.071,0.53-0.116,0.623-0.116c0.162,0,0.185,0.137,0.185,0.486
		c0,0.487-0.071,2.082-0.071,2.678c-0.023,0.232-0.069,0.374-0.208,0.374c-0.183,0-0.227-0.114-0.253-0.464l-0.021-0.253
		c-0.049-0.6-0.674-1.246-2.732-1.293l-2.909-0.068v9.473c0,2.12,0,3.947,0.118,4.942c0.067,0.648,0.206,1.157,0.899,1.246
		c0.324,0.049,0.834,0.094,1.177,0.094c0.255,0,0.373,0.072,0.373,0.186c0,0.162-0.188,0.229-0.441,0.229
		c-1.523,0-2.98-0.067-3.628-0.067c-0.53,0-1.987,0.067-2.909,0.067c-0.299,0-0.463-0.067-0.463-0.229
		c0-0.114,0.093-0.186,0.368-0.186c0.347,0,0.623-0.045,0.832-0.094c0.461-0.089,0.602-0.598,0.673-1.27
		c0.112-0.971,0.112-2.798,0.112-4.918V227.347z"/>
	<path fill="#0058A8" d="M253.945,233.398c0.069,0,0.139-0.045,0.139-0.161v-0.483c0-3.512,0-4.162-0.046-4.903
		c-0.046-0.785-0.23-1.149-0.994-1.314c-0.183-0.046-0.577-0.073-0.903-0.073c-0.253,0-0.389-0.042-0.389-0.205
		s0.159-0.207,0.482-0.207c1.25,0,2.704,0.069,3.332,0.069c0.553,0,2.006-0.069,2.909-0.069c0.324,0,0.482,0.045,0.482,0.207
		s-0.139,0.205-0.413,0.205c-0.185,0-0.393,0.027-0.667,0.073c-0.628,0.116-0.813,0.508-0.859,1.314
		c-0.046,0.741-0.046,1.391-0.046,4.903v4.067c0,2.122,0,3.949,0.116,4.944c0.066,0.645,0.208,1.155,0.901,1.247
		c0.324,0.046,0.829,0.092,1.179,0.092c0.253,0,0.367,0.069,0.367,0.187c0,0.157-0.185,0.227-0.459,0.227
		c-1.505,0-2.959-0.069-3.605-0.069c-0.535,0-1.989,0.069-2.886,0.069c-0.326,0-0.489-0.069-0.489-0.227
		c0-0.118,0.094-0.187,0.37-0.187c0.348,0,0.622-0.046,0.832-0.092c0.461-0.093,0.575-0.602,0.668-1.273
		c0.116-0.969,0.116-2.796,0.116-4.918v-2.033c0-0.095-0.071-0.141-0.139-0.141h-8.826c-0.069,0-0.139,0.026-0.139,0.141v2.033
		c0,2.122,0,3.949,0.118,4.944c0.067,0.645,0.206,1.155,0.899,1.247c0.324,0.046,0.832,0.092,1.178,0.092
		c0.255,0,0.371,0.069,0.371,0.187c0,0.157-0.183,0.227-0.464,0.227c-1.503,0-2.957-0.069-3.603-0.069
		c-0.528,0-1.987,0.069-2.91,0.069c-0.302,0-0.461-0.069-0.461-0.227c0-0.118,0.09-0.187,0.366-0.187
		c0.349,0,0.625-0.046,0.832-0.092c0.463-0.093,0.579-0.602,0.673-1.273c0.114-0.969,0.114-2.796,0.114-4.918v-4.067
		c0-3.512,0-4.162-0.048-4.903c-0.045-0.785-0.229-1.149-0.994-1.314c-0.185-0.046-0.577-0.073-0.899-0.073
		c-0.253,0-0.394-0.042-0.394-0.205s0.162-0.207,0.486-0.207c1.248,0,2.707,0.069,3.328,0.069c0.553,0,2.006-0.069,2.909-0.069
		c0.324,0,0.486,0.045,0.486,0.207s-0.138,0.205-0.416,0.205c-0.183,0-0.395,0.027-0.671,0.073c-0.62,0.116-0.808,0.508-0.854,1.314
		c-0.048,0.741-0.048,1.391-0.048,4.903v0.483c0,0.116,0.071,0.161,0.139,0.161H253.945z"/>
	<path fill="#0058A8" d="M265.729,232.753c0-3.512,0-4.162-0.046-4.9c-0.046-0.788-0.232-1.151-0.992-1.317
		c-0.187-0.046-0.577-0.073-0.899-0.073c-0.256,0-0.398-0.042-0.398-0.205s0.165-0.209,0.509-0.209c1.227,0,2.684,0.072,3.327,0.072
		c0.741,0,5.341,0,5.778-0.025c0.441-0.047,0.806-0.092,0.991-0.141c0.119-0.021,0.255-0.089,0.373-0.089
		c0.116,0,0.138,0.089,0.138,0.209c0,0.156-0.115,0.437-0.187,1.501c-0.021,0.23-0.068,1.248-0.112,1.525
		c-0.021,0.118-0.07,0.254-0.232,0.254c-0.164,0-0.208-0.114-0.208-0.326c0-0.161-0.021-0.553-0.141-0.829
		c-0.159-0.419-0.389-0.695-1.546-0.832c-0.392-0.046-2.818-0.092-3.281-0.092c-0.114,0-0.158,0.071-0.158,0.229v5.847
		c0,0.162,0.019,0.254,0.158,0.254c0.511,0,3.166,0,3.698-0.047c0.553-0.045,0.901-0.114,1.109-0.346
		c0.16-0.183,0.253-0.3,0.368-0.3c0.091,0,0.162,0.048,0.162,0.183c0,0.14-0.115,0.509-0.185,1.69
		c-0.048,0.461-0.092,1.383-0.092,1.545c0,0.186,0,0.438-0.208,0.438c-0.162,0-0.206-0.092-0.206-0.206
		c-0.025-0.233-0.025-0.531-0.093-0.832c-0.116-0.463-0.44-0.81-1.296-0.898c-0.438-0.047-2.724-0.071-3.279-0.071
		c-0.118,0-0.137,0.092-0.137,0.231v1.826c0,0.783-0.026,2.91,0,3.58c0.044,1.594,0.413,1.938,2.768,1.938c0.6,0,1.574,0,2.17-0.276
		c0.606-0.276,0.882-0.763,1.042-1.708c0.048-0.254,0.093-0.348,0.257-0.348c0.183,0,0.183,0.186,0.183,0.417
		c0,0.533-0.183,2.1-0.301,2.564c-0.162,0.6-0.37,0.6-1.248,0.6c-3.488,0-5.036-0.139-6.4-0.139c-0.53,0-1.987,0.069-2.911,0.069
		c-0.303,0-0.461-0.069-0.461-0.227c0-0.118,0.092-0.188,0.37-0.188c0.344,0,0.621-0.045,0.831-0.091
		c0.463-0.093,0.579-0.602,0.668-1.273c0.116-0.969,0.116-2.792,0.116-4.918V232.753z"/>
	<path fill="#0058A8" d="M289.965,241.324c-2.262-1.989-2.864-4.575-2.864-6.817c0-1.569,0.486-4.296,2.705-6.331
		c1.661-1.524,3.857-2.448,7.299-2.448c1.434,0,2.288,0.092,3.353,0.227c0.876,0.12,1.614,0.326,2.307,0.396
		c0.253,0.022,0.348,0.14,0.348,0.279c0,0.183-0.068,0.462-0.117,1.267c-0.044,0.764-0.021,2.035-0.069,2.498
		c-0.025,0.349-0.071,0.533-0.278,0.533c-0.181,0-0.227-0.183-0.227-0.51c-0.026-0.72-0.326-1.524-0.903-2.126
		c-0.764-0.808-2.564-1.432-4.691-1.432c-2.008,0-3.327,0.508-4.345,1.432c-1.686,1.545-2.125,3.744-2.125,5.985
		c0,5.497,4.182,8.224,7.278,8.224c2.056,0,3.302-0.23,4.228-1.294c0.394-0.437,0.695-1.108,0.785-1.525
		c0.072-0.368,0.116-0.462,0.303-0.462c0.162,0,0.206,0.162,0.206,0.348c0,0.275-0.276,2.289-0.509,3.075
		c-0.115,0.39-0.206,0.507-0.6,0.667c-0.926,0.372-2.677,0.534-4.158,0.534C294.728,243.843,292.068,243.149,289.965,241.324"/>
	<path fill="#0058A8" d="M309.283,232.753c0-3.512,0-4.162-0.048-4.9c-0.043-0.788-0.276-1.179-0.783-1.293
		c-0.257-0.069-0.556-0.096-0.834-0.096c-0.229,0-0.37-0.042-0.37-0.232c0-0.135,0.184-0.182,0.556-0.182
		c0.878,0,2.332,0.072,3.005,0.072c0.572,0,1.939-0.072,2.818-0.072c0.297,0,0.483,0.047,0.483,0.182
		c0,0.189-0.136,0.232-0.366,0.232s-0.419,0.027-0.696,0.073c-0.623,0.116-0.809,0.508-0.854,1.317
		c-0.049,0.738-0.049,1.389-0.049,4.9v4.067c0,2.239,0,4.066,0.094,5.058c0.074,0.623,0.232,1.041,0.924,1.133
		c0.326,0.046,0.834,0.091,1.179,0.091c0.255,0,0.369,0.071,0.369,0.188c0,0.157-0.185,0.227-0.435,0.227
		c-1.528,0-2.985-0.069-3.608-0.069c-0.531,0-1.985,0.069-2.911,0.069c-0.297,0-0.464-0.069-0.464-0.227
		c0-0.118,0.097-0.188,0.371-0.188c0.349,0,0.623-0.045,0.834-0.091c0.461-0.093,0.598-0.489,0.669-1.155
		c0.116-0.971,0.116-2.798,0.116-5.037V232.753z"/>
	<path fill="#0058A8" d="M323.978,227.347l-3.443,0.092c-1.341,0.046-1.895,0.162-2.239,0.67c-0.232,0.347-0.352,0.623-0.396,0.807
		c-0.048,0.185-0.116,0.276-0.254,0.276c-0.162,0-0.207-0.114-0.207-0.368c0-0.368,0.437-2.473,0.484-2.657
		c0.071-0.3,0.141-0.438,0.276-0.438c0.189,0,0.417,0.23,0.995,0.276c0.671,0.067,1.547,0.114,2.309,0.114h9.149
		c0.742,0,1.251-0.068,1.596-0.114c0.347-0.071,0.53-0.116,0.627-0.116c0.16,0,0.181,0.137,0.181,0.486
		c0,0.487-0.066,2.082-0.066,2.678c-0.021,0.232-0.071,0.374-0.212,0.374c-0.183,0-0.229-0.114-0.255-0.464l-0.019-0.253
		c-0.046-0.6-0.67-1.246-2.726-1.293l-2.913-0.068v9.473c0,2.12,0,3.947,0.114,4.942c0.071,0.648,0.212,1.157,0.903,1.246
		c0.326,0.049,0.832,0.094,1.179,0.094c0.252,0,0.37,0.072,0.37,0.186c0,0.162-0.185,0.229-0.44,0.229
		c-1.524,0-2.979-0.067-3.627-0.067c-0.531,0-1.987,0.067-2.911,0.067c-0.299,0-0.46-0.067-0.46-0.229
		c0-0.114,0.09-0.186,0.37-0.186c0.343,0,0.62-0.045,0.829-0.094c0.461-0.089,0.6-0.598,0.669-1.27
		c0.118-0.971,0.118-2.798,0.118-4.918V227.347z"/>
	<path fill="#0058A8" d="M341.188,237.533c0-1.244-0.229-1.753-0.531-2.423c-0.162-0.368-3.258-5.456-4.067-6.654
		c-0.576-0.857-1.151-1.434-1.594-1.692c-0.299-0.16-0.694-0.301-0.968-0.301c-0.186,0-0.347-0.042-0.347-0.205
		c0-0.14,0.16-0.209,0.44-0.209c0.413,0,2.145,0.069,2.909,0.069c0.484,0,1.433-0.069,2.471-0.069c0.234,0,0.349,0.069,0.349,0.209
		c0,0.14-0.16,0.162-0.51,0.254c-0.208,0.047-0.322,0.23-0.322,0.416c0,0.185,0.115,0.461,0.278,0.787
		c0.324,0.695,3.557,6.258,3.928,6.906c0.231-0.549,3.142-5.635,3.464-6.35c0.23-0.51,0.32-0.903,0.32-1.206
		c0-0.228-0.089-0.482-0.48-0.574c-0.208-0.049-0.417-0.093-0.417-0.233c0-0.162,0.114-0.209,0.392-0.209
		c0.761,0,1.503,0.069,2.174,0.069c0.509,0,2.029-0.069,2.471-0.069c0.253,0,0.419,0.047,0.419,0.182
		c0,0.167-0.187,0.232-0.444,0.232c-0.23,0-0.667,0.096-1.019,0.28c-0.481,0.232-0.736,0.511-1.245,1.132
		c-0.762,0.925-3.997,6.355-4.413,7.348c-0.347,0.834-0.347,1.547-0.347,2.309v1.894c0,0.373,0,1.343,0.07,2.311
		c0.048,0.671,0.253,1.18,0.945,1.273c0.324,0.046,0.832,0.091,1.158,0.091c0.253,0,0.368,0.071,0.368,0.186
		c0,0.16-0.183,0.229-0.483,0.229c-1.457,0-2.915-0.069-3.537-0.069c-0.58,0-2.034,0.069-2.887,0.069
		c-0.325,0-0.51-0.042-0.51-0.229c0-0.115,0.115-0.186,0.368-0.186c0.327,0,0.6-0.045,0.811-0.091
		c0.461-0.093,0.671-0.602,0.713-1.273c0.072-0.969,0.072-1.939,0.072-2.311V237.533z"/>
	<path fill="#0058A8" d="M376.495,235.224c0-5.175-2.982-8.387-6.771-8.387c-2.659,0-5.685,1.479-5.685,7.232
		c0,4.808,2.659,8.617,7.096,8.617C372.749,242.686,376.495,241.899,376.495,235.224 M360.851,234.787
		c0-3.952,2.61-9.059,9.543-9.059c5.752,0,9.335,3.35,9.335,8.642c0,5.291-3.7,9.473-9.568,9.473
		C363.532,243.843,360.851,238.877,360.851,234.787"/>
	<path fill="#0058A8" d="M388.65,236.82c0,2.217,0,3.947,0.12,4.918c0.063,0.671,0.206,1.18,0.898,1.27
		c0.324,0.049,0.834,0.094,1.156,0.094c0.297,0,0.394,0.072,0.394,0.186c0,0.162-0.16,0.229-0.51,0.229
		c-1.454,0-2.908-0.067-3.511-0.067c-0.604,0-2.058,0.067-2.932,0.067c-0.326,0-0.489-0.044-0.489-0.229
		c0-0.114,0.097-0.186,0.35-0.186c0.345,0,0.621-0.045,0.827-0.094c0.464-0.089,0.579-0.598,0.674-1.27
		c0.112-0.971,0.112-2.701,0.112-4.918v-4.067c0-3.515,0-4.162-0.044-4.9c-0.047-0.788-0.232-1.155-0.994-1.317
		c-0.185-0.045-0.576-0.073-0.9-0.073c-0.234,0-0.394-0.042-0.394-0.182c0-0.185,0.185-0.23,0.531-0.23
		c1.2,0,2.654,0.068,3.33,0.068c0.875,0,5.569,0,6.095-0.022c0.441-0.025,0.718-0.025,0.952-0.092
		c0.134-0.046,0.252-0.138,0.367-0.138c0.092,0,0.16,0.092,0.16,0.205c0,0.163-0.113,0.441-0.183,1.042
		c-0.023,0.234-0.07,1.595-0.12,1.873c-0.023,0.185-0.065,0.326-0.225,0.326c-0.164,0-0.208-0.12-0.234-0.375
		c0-0.183,0-0.55-0.139-0.877c-0.16-0.322-0.648-0.67-1.524-0.691l-3.559-0.071c-0.139,0-0.209,0.071-0.209,0.326v5.776
		c0,0.139,0.025,0.207,0.16,0.207l2.96-0.023c0.394,0,0.713,0,1.039-0.024c0.443-0.021,0.764-0.114,0.996-0.414
		c0.116-0.14,0.164-0.232,0.303-0.232c0.09,0,0.137,0.067,0.137,0.206c0,0.141-0.118,0.72-0.185,1.433
		c-0.049,0.461-0.092,1.525-0.092,1.687c0,0.208,0,0.439-0.234,0.439c-0.139,0-0.187-0.161-0.187-0.322s-0.047-0.441-0.137-0.718
		c-0.116-0.322-0.46-0.738-1.178-0.83c-0.576-0.073-3.027-0.073-3.423-0.073c-0.113,0-0.16,0.048-0.16,0.212V236.82z"/>
	<path fill="#0058A8" d="M410.694,240.374c0.047,1.804,0.347,2.403,0.809,2.568c0.392,0.136,0.828,0.16,1.202,0.16
		c0.256,0,0.39,0.047,0.39,0.188c0,0.185-0.207,0.227-0.528,0.227c-1.504,0-2.429-0.069-2.868-0.069
		c-0.206,0-1.296,0.069-2.493,0.069c-0.303,0-0.51-0.021-0.51-0.227c0-0.141,0.14-0.188,0.369-0.188
		c0.301,0,0.719-0.023,1.037-0.115c0.601-0.183,0.694-0.854,0.722-2.866l0.207-13.679c0-0.461,0.068-0.785,0.301-0.785
		c0.249,0,0.461,0.299,0.855,0.717c0.274,0.3,3.786,4.068,7.162,7.417c1.571,1.573,4.687,4.896,5.082,5.268h0.115l-0.228-10.376
		c-0.023-1.406-0.23-1.846-0.787-2.079c-0.35-0.141-0.902-0.141-1.225-0.141c-0.279,0-0.37-0.066-0.37-0.205
		c0-0.183,0.254-0.209,0.603-0.209c1.198,0,2.309,0.072,2.795,0.072c0.254,0,1.13-0.072,2.263-0.072
		c0.301,0,0.528,0.026,0.528,0.209c0,0.139-0.135,0.205-0.414,0.205c-0.228,0-0.414,0-0.695,0.073
		c-0.644,0.183-0.827,0.67-0.848,1.963l-0.261,14.579c0,0.508-0.092,0.718-0.297,0.718c-0.255,0-0.531-0.253-0.783-0.507
		c-1.457-1.387-4.415-4.414-6.821-6.793c-2.518-2.497-5.082-5.385-5.495-5.825h-0.071L410.694,240.374z"/>
	<path fill="#0058A8" d="M432.462,232.753c0-3.512,0-4.162-0.048-4.9c-0.046-0.788-0.232-1.151-0.993-1.317
		c-0.188-0.046-0.582-0.073-0.903-0.073c-0.254,0-0.388-0.042-0.388-0.205s0.156-0.209,0.507-0.209c1.222,0,2.68,0.072,3.323,0.072
		c0.742,0,5.341,0,5.779-0.025c0.436-0.047,0.809-0.092,0.992-0.141c0.116-0.021,0.258-0.089,0.372-0.089
		c0.117,0,0.141,0.089,0.141,0.209c0,0.156-0.119,0.437-0.186,1.501c-0.024,0.23-0.069,1.248-0.119,1.525
		c-0.023,0.118-0.069,0.254-0.23,0.254c-0.161,0-0.207-0.114-0.207-0.326c0-0.161-0.021-0.553-0.139-0.829
		c-0.166-0.419-0.393-0.695-1.551-0.832c-0.387-0.046-2.812-0.092-3.277-0.092c-0.119,0-0.167,0.071-0.167,0.229v5.847
		c0,0.162,0.026,0.254,0.167,0.254c0.507,0,3.163,0,3.698-0.047c0.551-0.045,0.899-0.114,1.108-0.346
		c0.161-0.183,0.253-0.3,0.368-0.3c0.091,0,0.161,0.048,0.161,0.183c0,0.14-0.116,0.509-0.185,1.69
		c-0.046,0.461-0.092,1.383-0.092,1.545c0,0.186,0,0.438-0.207,0.438c-0.166,0-0.212-0.092-0.212-0.206
		c-0.019-0.233-0.019-0.531-0.088-0.832c-0.116-0.463-0.44-0.81-1.296-0.898c-0.436-0.047-2.728-0.071-3.283-0.071
		c-0.114,0-0.14,0.092-0.14,0.231v1.826c0,0.783-0.018,2.91,0,3.58c0.048,1.594,0.418,1.938,2.778,1.938
		c0.599,0,1.571,0,2.169-0.276c0.6-0.276,0.879-0.763,1.038-1.708c0.047-0.254,0.095-0.348,0.254-0.348
		c0.186,0,0.186,0.186,0.186,0.417c0,0.533-0.186,2.1-0.299,2.564c-0.162,0.6-0.37,0.6-1.249,0.6c-3.488,0-5.039-0.139-6.398-0.139
		c-0.531,0-1.989,0.069-2.913,0.069c-0.298,0-0.46-0.069-0.46-0.227c0-0.118,0.093-0.188,0.365-0.188
		c0.347,0,0.624-0.045,0.836-0.091c0.46-0.093,0.574-0.602,0.668-1.273c0.12-0.969,0.12-2.792,0.12-4.918V232.753z"/>
	<path fill="#0058A8" d="M446.184,228.316c-0.276-0.854-0.529-1.411-0.857-1.641c-0.252-0.162-0.716-0.212-0.918-0.212
		c-0.236,0-0.375-0.021-0.375-0.205c0-0.162,0.187-0.208,0.508-0.208c1.2,0,2.475,0.068,2.683,0.068
		c0.208,0,1.225-0.068,2.561-0.068c0.326,0,0.488,0.068,0.488,0.208c0,0.183-0.187,0.205-0.416,0.205c-0.185,0-0.413,0-0.577,0.096
		c-0.207,0.093-0.253,0.254-0.253,0.506c0,0.303,0.225,1.089,0.503,2.127c0.397,1.526,2.547,8.525,2.964,9.823h0.067l4.484-12.041
		c0.255-0.645,0.393-0.831,0.574-0.831c0.258,0,0.372,0.348,0.673,1.084l4.809,11.622h0.068c0.414-1.547,2.262-7.648,3.071-10.348
		c0.166-0.534,0.229-1.017,0.229-1.345c0-0.367-0.205-0.694-1.109-0.694c-0.233,0-0.388-0.065-0.388-0.205
		c0-0.162,0.183-0.208,0.528-0.208c1.222,0,2.194,0.068,2.401,0.068c0.166,0,1.158-0.068,1.919-0.068
		c0.258,0,0.419,0.046,0.419,0.185c0,0.163-0.116,0.228-0.327,0.228c-0.233,0-0.553,0.028-0.808,0.12
		c-0.555,0.207-0.808,1.132-1.294,2.447c-1.064,2.912-3.488,10.261-4.619,13.727c-0.255,0.808-0.372,1.086-0.67,1.086
		c-0.235,0-0.37-0.279-0.718-1.132l-4.805-11.575h-0.043c-0.439,1.178-3.51,9.358-4.504,11.485
		c-0.443,0.944-0.559,1.223-0.835,1.223c-0.232,0-0.348-0.256-0.531-0.856L446.184,228.316z"/>
	<path fill="#0058A8" d="M485.186,237.533c0-1.244-0.235-1.753-0.534-2.423c-0.162-0.368-3.258-5.456-4.066-6.654
		c-0.58-0.857-1.158-1.434-1.594-1.692c-0.303-0.16-0.694-0.301-0.972-0.301c-0.182,0-0.349-0.042-0.349-0.205
		c0-0.14,0.167-0.209,0.444-0.209c0.413,0,2.148,0.069,2.91,0.069c0.483,0,1.432-0.069,2.469-0.069c0.234,0,0.347,0.069,0.347,0.209
		c0,0.14-0.159,0.162-0.506,0.254c-0.21,0.047-0.323,0.23-0.323,0.416c0,0.185,0.113,0.461,0.274,0.787
		c0.326,0.695,3.563,6.258,3.93,6.906c0.23-0.549,3.142-5.635,3.466-6.35c0.23-0.51,0.326-0.903,0.326-1.206
		c0-0.228-0.095-0.482-0.487-0.574c-0.21-0.049-0.416-0.093-0.416-0.233c0-0.162,0.118-0.209,0.392-0.209
		c0.764,0,1.5,0.069,2.173,0.069c0.508,0,2.03-0.069,2.474-0.069c0.25,0,0.414,0.047,0.414,0.182c0,0.167-0.182,0.232-0.439,0.232
		c-0.234,0-0.674,0.096-1.018,0.28c-0.482,0.232-0.737,0.511-1.249,1.132c-0.756,0.925-3.996,6.355-4.409,7.348
		c-0.352,0.834-0.352,1.547-0.352,2.309v1.894c0,0.373,0,1.343,0.071,2.311c0.049,0.671,0.255,1.18,0.946,1.273
		c0.326,0.046,0.832,0.091,1.157,0.091c0.256,0,0.372,0.071,0.372,0.186c0,0.16-0.185,0.229-0.482,0.229
		c-1.461,0-2.914-0.069-3.538-0.069c-0.583,0-2.035,0.069-2.889,0.069c-0.322,0-0.51-0.042-0.51-0.229
		c0-0.115,0.118-0.186,0.372-0.186c0.322,0,0.6-0.045,0.809-0.091c0.466-0.093,0.669-0.602,0.717-1.273
		c0.071-0.969,0.071-1.939,0.071-2.311V237.533z"/>
	<path fill="#0058A8" d="M511.922,235.224c0-5.175-2.982-8.387-6.772-8.387c-2.658,0-5.681,1.479-5.681,7.232
		c0,4.808,2.654,8.617,7.091,8.617C508.177,242.686,511.922,241.899,511.922,235.224 M496.28,234.787
		c0-3.952,2.611-9.059,9.544-9.059c5.752,0,9.331,3.35,9.331,8.642c0,5.291-3.693,9.473-9.564,9.473
		C498.957,243.843,496.28,238.877,496.28,234.787"/>
	<path fill="#0058A8" d="M523.898,234.573c0,0.261,0.041,0.349,0.207,0.421c0.481,0.16,1.176,0.229,1.757,0.229
		c0.923,0,1.222-0.089,1.639-0.389c0.69-0.51,1.364-1.573,1.364-3.467c0-3.282-2.175-4.232-3.539-4.232
		c-0.58,0-0.994,0.021-1.22,0.092c-0.166,0.049-0.207,0.141-0.207,0.327V234.573z M521.168,232.753c0-3.512,0-4.162-0.045-4.9
		c-0.049-0.788-0.234-1.151-0.996-1.317c-0.183-0.046-0.576-0.073-0.899-0.073c-0.254,0-0.39-0.042-0.39-0.205
		s0.157-0.209,0.503-0.209c1.226,0,2.684,0.072,3.167,0.072c0.788,0,2.541-0.072,3.257-0.072c1.457,0,3.003,0.14,4.25,0.995
		c0.649,0.441,1.572,1.618,1.572,3.167c0,1.707-0.716,3.283-3.046,5.174c2.055,2.589,3.648,4.647,5.006,6.075
		c1.302,1.343,2.248,1.505,2.593,1.572c0.254,0.046,0.462,0.069,0.648,0.069c0.186,0,0.275,0.071,0.275,0.188
		c0,0.185-0.16,0.227-0.44,0.227h-2.194c-1.294,0-1.868-0.113-2.469-0.439c-0.998-0.529-1.873-1.618-3.167-3.397
		c-0.921-1.273-1.989-2.839-2.29-3.185c-0.113-0.143-0.252-0.165-0.414-0.165l-2.006-0.044c-0.12,0-0.185,0.044-0.185,0.182v0.327
		c0,2.148,0,3.972,0.114,4.94c0.071,0.671,0.203,1.18,0.897,1.273c0.349,0.046,0.856,0.091,1.133,0.091
		c0.183,0,0.276,0.071,0.276,0.188c0,0.157-0.157,0.227-0.457,0.227c-1.345,0-3.053-0.069-3.399-0.069
		c-0.437,0-1.895,0.069-2.817,0.069c-0.305,0-0.461-0.069-0.461-0.227c0-0.118,0.089-0.188,0.367-0.188
		c0.342,0,0.623-0.045,0.83-0.091c0.464-0.093,0.577-0.602,0.67-1.273c0.116-0.969,0.116-2.792,0.116-4.918V232.753z"/>
	<path fill="#0058A8" d="M542.609,233.769h0.121c0.778-0.855,4.15-4.301,4.826-5.086c0.648-0.758,1.152-1.336,1.152-1.731
		c0-0.25-0.093-0.416-0.322-0.461c-0.207-0.049-0.302-0.093-0.302-0.233c0-0.162,0.12-0.208,0.369-0.208
		c0.488,0,1.757,0.068,2.383,0.068c0.716,0,1.986-0.068,2.701-0.068c0.234,0,0.394,0.046,0.394,0.208s-0.116,0.205-0.349,0.205
		c-0.321,0-0.896,0.096-1.339,0.259c-0.715,0.279-1.499,0.763-2.491,1.734c-0.718,0.693-4.207,4.159-4.992,4.99
		c0.833,1.086,5.363,5.96,6.261,6.816c1.017,0.969,2.055,2.009,3.304,2.495c0.693,0.273,1.158,0.346,1.434,0.346
		c0.161,0,0.299,0.047,0.299,0.186c0,0.162-0.117,0.229-0.554,0.229h-2.012c-0.693,0-1.108,0-1.593-0.044
		c-1.249-0.115-1.871-0.628-2.865-1.503c-1.017-0.898-5.573-6.239-6.055-6.909l-0.248-0.348h-0.121v2.106
		c0,2.12,0,3.947,0.067,4.942c0.054,0.648,0.255,1.157,0.832,1.246c0.322,0.049,0.832,0.094,1.138,0.094
		c0.182,0,0.294,0.072,0.294,0.186c0,0.162-0.181,0.229-0.436,0.229c-1.292,0-2.751-0.067-3.326-0.067
		c-0.535,0-1.987,0.067-2.911,0.067c-0.303,0-0.463-0.067-0.463-0.229c0-0.114,0.089-0.186,0.372-0.186
		c0.347,0,0.623-0.045,0.829-0.094c0.464-0.089,0.577-0.598,0.667-1.27c0.119-0.971,0.119-2.798,0.119-4.918v-4.067
		c0-3.515,0-4.162-0.048-4.9c-0.042-0.788-0.228-1.151-0.989-1.317c-0.187-0.045-0.577-0.073-0.901-0.073
		c-0.256,0-0.395-0.042-0.395-0.205s0.16-0.208,0.507-0.208c1.227,0,2.68,0.068,3.237,0.068c0.553,0,2.012-0.068,2.795-0.068
		c0.326,0,0.487,0.046,0.487,0.208s-0.141,0.205-0.328,0.205c-0.225,0-0.368,0.028-0.645,0.073c-0.62,0.116-0.807,0.508-0.856,1.317
		c-0.043,0.738-0.043,1.385-0.043,4.9V233.769z"/>
	<path fill="#0058A8" d="M148.055,195.834c-1.519,0.427-2.475-0.206-2.47-1.429c0.003-0.97,0.16-1.914,0.775-2.378
		c0,0,2.93-0.018,3.227-0.276c0.297-0.262,0.534-2.022,0.483-2.376c-0.06-0.354-3.196,0.287-3.364-0.051
		c-0.163-0.343,0.814-2.341,0.637-2.681c-0.174-0.34-2.545,0.014-2.545,0.014c-0.304,0.15-0.583,2.544-0.88,2.79
		c-0.301,0.245-2.541-0.09-2.821,0.162c-0.282,0.246-0.759,2.183-0.586,2.429c0.176,0.243,2.66-0.134,2.862,0.13
		c0.245,0.784-0.51,2.109-1.431,2.916c-0.667,0.588-1.404,0.933-2.322,0.928c-1.399-0.009-3.077-1.929-3.61-4.958
		c-0.372-2.112,0.517-6.303,1.403-8.272c1.908-4.224,0.755-3.964,1.28-4.292c2.152-1.337,5.801-2.446,8.568-3.272
		c2.637-0.778,5.211-1.31,7.665-0.375c4.025,1.537,3.099,6.658,1.565,9.789C154.409,188.89,150.894,195.043,148.055,195.834
		 M131.115,191.053c-0.53,3.029-2.212,4.949-3.612,4.958c-0.915,0.005-1.652-0.34-2.32-0.928c-0.922-0.808-1.675-2.133-1.433-2.916
		c0.206-0.264,2.684,0.113,2.862-0.13c0.176-0.246-0.302-2.183-0.584-2.429c-0.28-0.252-2.52,0.083-2.818-0.162
		c-0.303-0.246-0.581-2.64-0.887-2.79c0,0-2.369-0.354-2.54-0.014c-0.174,0.34,0.795,2.337,0.63,2.681
		c-0.164,0.338-3.302-0.303-3.358,0.051c-0.055,0.354,0.18,2.114,0.484,2.376c0.298,0.259,3.23,0.276,3.23,0.276
		c0.607,0.464,0.767,1.408,0.771,2.378c0.005,1.223-0.951,1.857-2.471,1.429c-2.834-0.791-6.35-6.943-8.438-11.201
		c-1.531-3.131-2.455-8.253,1.569-9.789c2.452-0.935,5.029-0.403,7.667,0.375c2.767,0.825,6.414,1.934,8.562,3.272
		c0.528,0.327-0.628,0.067,1.281,4.292C130.597,184.751,131.486,188.941,131.115,191.053 M160.569,177.708
		c-0.579-3.347-3.283-5.68-6.59-5.947c-5.919-0.473-11.02,2.691-16.757,3.702c-0.463,0.081-1.079-0.896-1.633-1.452
		c2.661-2.006,2.299-5.939-0.782-7.637c-0.213-0.241-0.135-2.508-0.016-2.608c0.253-0.207,2.22,0.169,2.5-0.074
		c0.276-0.243,0.22-2.601,0.041-2.828c-0.176-0.223-2.392,0.018-2.517-0.132c-0.123-0.155,0.062-2.274-0.146-2.446
		c-0.154-0.116-0.764-0.131-1.105-0.127c-0.345-0.003-0.958,0.011-1.106,0.127c-0.209,0.172-0.023,2.292-0.149,2.446
		c-0.123,0.15-2.337-0.091-2.518,0.132c-0.176,0.227-0.231,2.586,0.049,2.828c0.276,0.243,2.241-0.133,2.491,0.074
		c0.123,0.101,0.2,2.367-0.011,2.608c-3.082,1.698-3.443,5.631-0.783,7.637c-0.557,0.556-1.174,1.533-1.634,1.452
		c-5.736-1.011-10.84-4.175-16.754-3.702c-3.311,0.267-6.016,2.6-6.592,5.947c-1.035,6.03,3.293,10.66,5.398,15.779
		c0.662,1.614,1.248,3.784,1.142,5.651c0,0,17.173,0,20.232,0.003c0,0,0.081,0,0.235,0c0.151,0,0.234,0,0.234,0
		c3.055-0.003,20.23-0.003,20.23-0.003c-0.105-1.867,0.481-4.037,1.142-5.651C157.271,188.369,161.608,183.738,160.569,177.708"/>
	<polygon fill="#0058A8" points="133.795,201.941 133.329,201.941 112.64,201.941 112.64,205.496 133.329,205.496 133.795,205.496 
		154.488,205.496 154.488,201.941 	"/>
</g>
</svg>
