<svg xmlns="http://www.w3.org/2000/svg" viewBox="0 0 136.56 169.06"><title>Duke University logo</title><path d="M494,427.47v7.09h-4.16V430.7H478.31v5.39h-3.69v-2.92H449.68v15.52l.57.15c2.6.77,4.55,1.74,4.66,11.57v70.48c0,4.33,0,9,1.91,13.9-1.44.28-2.35,1-2.37,2.06,0,0,0,0,0,0V547a9.51,9.51,0,0,1-1.1,4.68,9.83,9.83,0,0,0-2-.22c-2.11,0-3.65.78-3.78,2.08h0c-.3,2-1.29,6.82-2.9,9a4,4,0,0,0-1,2.33,3.25,3.25,0,0,0,1.49,2.4,18.45,18.45,0,0,0,10.5,3.32,16.74,16.74,0,0,0,2.07-.18c-.56,1-1,1.82-1,1.83a5,5,0,0,0-.56,2.22,8.54,8.54,0,0,0,.52,2.64c2.49,6.28,18.86,19.42,52.87,19.45l2.4,0,2.39,0c34,0,50.38-13.16,52.87-19.42a8.67,8.67,0,0,0,.53-2.66,5,5,0,0,0-.53-2.16s-.48-.82-1-1.89a16.5,16.5,0,0,0,2.08.18,18.6,18.6,0,0,0,10.52-3.32,3.24,3.24,0,0,0,1.47-2.4,4,4,0,0,0-1-2.34c-1.61-2.18-2.6-7-2.9-9h-.05c-.13-1.29-1.67-2.06-3.77-2.07a10,10,0,0,0-2,.21,9.38,9.38,0,0,1-1.11-4.72s0,0,0,0,0,0,0-.07c0-1-.94-1.77-2.39-2.05,1.9-4.95,1.93-9.58,1.91-13.91V460.4c.11-9.83,2.07-10.81,4.66-11.57l.58-.15V433.16H549.4v2.93h-3.71V430.7H534.16v3.86H530v-7.09H515.54v2.92h-7.07v-2.92H494Zm1.53,1.54h11.4v2.92h10.15V429h11.39v7.08h7.22v-3.85h8.47v5.38h6.78v-2.92h21.84v12.82c-3,.93-5.35,3.61-5.24,12.89v70.48c0,8.63.09,17.33-14.17,28.31-13,10-34.94,18.54-41.42,20.19-6.53-1.68-28.42-10.25-41.36-20.19-14.27-11-14.12-19.68-14.17-28.31V460.4c.11-9.28-2.24-12-5.23-12.89V434.69h21.86v2.92h6.76v-5.38h8.48v3.85h7.22V429Zm-37.46,15.31v35.86H509V444.32H458.07Zm56.93,0v35.86h50.94V444.32H515Zm.76.76h49.4v34.33h-49.4Zm-56.93,0h49.4V479.4h-49.4Zm1.47,1.47v31.39h46.47V446.55Zm56.93,0v31.39h46.48V446.55Zm-7.14,24.85v10h-9.7v3.84h9.54v26.21h4.31v-26.2h9.54v-3.84h-9.69v-10h-4Zm.75.76h2.47v10H523v2.32h-9.54v26.2H510.7v-26.2h-9.55v-2.32h9.7v-10Zm-2.22,7.23v0Zm-50.55,7.39V530c0,.52,0,1,0,1.55,0,12.12,3.54,16.85,9.2,22.72,7.82,8.08,30.68,20.68,41.32,22l.43,0V564.82h6v11.42l.43,0c10.65-1.28,33.51-13.88,41.32-22,5.67-5.88,9.22-10.6,9.2-22.71,0-.52,0-1,0-1.58V486.79H515v25.55h-6V486.79H458.07Zm.76.77h49.41v25.54h7.53V487.57h49.41V530c0,.54,0,1.06,0,1.57,0,12-3.37,16.3-9,22.18-7.47,7.79-29.94,20.19-40.43,21.67V564.05h-7.53v11.32c-10.47-1.48-33-13.88-40.43-21.67-5.63-5.88-9-10.2-9-22.19,0-.5,0-1,0-1.54V487.57Zm1.79,1.46,16.92,28.85V497h13.23V540.5l16,27.24v-3.92H505.7V513.18h1.07V489H460.62Zm56.62,0v24.16h1.07v50.63h-1.07v3.92l16-27.24V497h13.22v20.84L563.4,489H517.24Zm-56.93,3.06V529c-.3,13.24,2.79,18.16,8.93,24,6.29,6,26.07,18,37.59,21v-2.48s-15.43-26.27-15.58-26.61-.46-.14-.46.3v1.3H477.54V521.41L460.3,492.09Zm103.41,0-17.24,29.33v25.12H533.25v-1.3c0-.44-.25-.75-.47-.3s-15.58,26.61-15.58,26.61V574c11.51-3,31.3-15,37.58-21s9.23-10.78,8.93-24V492.09ZM479,498.48v46.63h10.31V498.48H479Zm55.71,0v46.63H545V498.48H534.71Zm.76.76h8.78v45.1h-8.78Zm-55.71,0h8.78v45.1h-8.78Zm35.63,13.09v0Zm-8.45,2.08v48.16h10.31V514.42H506.94Zm9.53.76v46.63h-8.76V515.19Zm-27.54,29.16v0Zm-31.8,1.17a27.12,27.12,0,0,0,1.91,3.71,3.9,3.9,0,0,0-1.69-.63c-1.51-.4-2.12-1.16-2.13-1.7v0h0c0-.5.56-1.11,1.92-1.33Zm109.75,0c1.35.22,1.93.82,1.92,1.32h0s0,0,0,.06c0,.53-.64,1.29-2.18,1.7a3.72,3.72,0,0,0-1.64.63,27.16,27.16,0,0,0,1.92-3.71ZM455.1,548.22a4.61,4.61,0,0,0,2.11,1.11c1.38.18,2.07,1,2,1.45v0h0l0,.11c-.11.46-.78,1.08-2.83,1.09a14.58,14.58,0,0,1-2.24-.22,9.77,9.77,0,0,0,1-3.57Zm113.8,0a9.79,9.79,0,0,0,1,3.56,14.91,14.91,0,0,1-2.25.22c-2.08,0-2.74-.65-2.83-1.11l0-.08h0v0c0-.5.67-1.27,2-1.44a4.76,4.76,0,0,0,2.14-1.12ZM564,550.68s0,.07,0,.1a1.53,1.53,0,0,0,.07.23h0s1.17,4,1.64,5.31c-.39,0-.75,0-1.14,0a44.68,44.68,0,0,1-5.15-.29,37.31,37.31,0,0,0,4.63-5.4Zm-104,0a37.34,37.34,0,0,0,4.62,5.38,44.66,44.66,0,0,1-5.13.3c-.39,0-.75,0-1.14,0C458.8,555.1,460,551,460,551h0a1.51,1.51,0,0,0,.07-.24s0-.05,0-.08Zm-8.59,1.52a8.94,8.94,0,0,1,1.82.2,15.86,15.86,0,0,0,3.15.36,5.71,5.71,0,0,0,2.42-.45c-.42,1.46-1,3.43-1.24,4a25,25,0,0,1-4.09-.42c-3.84-.42-5.15-1.66-5.09-2.28s1-1.39,3-1.39Zm121.2,0c2,0,3,.84,3,1.39s-1.25,1.87-5,2.28a25.5,25.5,0,0,1-4.13.42c-.24-.57-.82-2.53-1.24-4a5.71,5.71,0,0,0,2.41.45,16.35,16.35,0,0,0,3.16-.35,9.05,9.05,0,0,1,1.82-.2Zm-124.48,2.55c.78.88,2.46,1.55,5.21,1.88a30.91,30.91,0,0,0,6.16.5,42.2,42.2,0,0,0,5.85-.38q1.61,1.5,3.56,3a8.91,8.91,0,0,0-3.56-.86c-2.23,0-4,1.13-4.33,2.9l-.07,0a30.27,30.27,0,0,1-2.75,7.76,15.72,15.72,0,0,1-2.49.22,17.81,17.81,0,0,1-10-3.14c-.69-.58-1.23-1.1-1.21-1.82a3.3,3.3,0,0,1,.81-1.88c1.52-2.1,2.39-5.86,2.83-8.2Zm127.76,0c.43,2.34,1.31,6.1,2.83,8.2a3.34,3.34,0,0,1,.81,1.89c0,.72-.52,1.24-1.21,1.81a17.94,17.94,0,0,1-10,3.14,15.24,15.24,0,0,1-2.5-.22,30.47,30.47,0,0,1-2.73-7.76l-.08,0c-.35-1.77-2.1-2.9-4.32-2.9a8.93,8.93,0,0,0-3.57.86h0q1.95-1.53,3.55-3a42.64,42.64,0,0,0,5.88.38,31.05,31.05,0,0,0,6.19-.5c2.72-.33,4.39-1,5.17-1.88Zm-110.53,4.93a8.23,8.23,0,0,1,3.32.81l-2.82,7.42c-3-2-4.15-4-4.14-5.43,0-1.63,1.39-2.78,3.64-2.8Zm93.32,0c2.25,0,3.64,1.17,3.64,2.8,0,1.43-1.16,3.42-4.16,5.45l-2.78-7.45a8.24,8.24,0,0,1,3.31-.8Zm-4.21.6,3,8.11c-17.54,11.61-38.74,12.43-44.16,12.42-.55,0-.64,0-.85,0,6.84-1.78,28.57-10.26,41.84-20.41l.14-.11Zm-84.9,0,.12.1c13.24,10.12,34.89,18.6,41.78,20.41h-.79c-5.42,0-26.64-.81-44.18-12.45l3.07-8.07Zm47.3,1.49v0ZM562.79,564a36.66,36.66,0,0,0,3.79,8.66,4.27,4.27,0,0,1,.45,1.81,7.78,7.78,0,0,1-.49,2.4c-2.18,5.7-18.35,18.94-52.15,18.92l-2.39,0-2.4,0c-33.79,0-50-13.22-52.14-18.93a7.67,7.67,0,0,1-.48-2.39,4.3,4.3,0,0,1,.46-1.86,35.85,35.85,0,0,0,3.77-8.6c.57,1.56,2,3.25,4.64,4.91,17.81,11.91,39.29,12.7,44.81,12.7.86,0,1.33,0,1.34,0s.44,0,1.31,0c5.52,0,27-.79,44.84-12.71,2.59-1.66,4.06-3.36,4.62-4.92Zm-97.5,6.93a1.69,1.69,0,0,0-1.64,1.75c0,.79.18.57.43.15a1.36,1.36,0,0,1,1.78-.19,1.38,1.38,0,0,0,1.84-.7c.24-.47.28-.52-.32-.19s-.65.08-1.18-.4a1.49,1.49,0,0,0-.92-.41Zm95.34,1.85a.28.28,0,0,0-.18.24,4.18,4.18,0,0,1-1.68,2.67l-.07,0s-.12.13,0,.28a7.51,7.51,0,0,1,1.25,3.3c-.07.15.09.27.34.19a3.6,3.6,0,0,1,2.32.22s.38.37.46-.31a4.62,4.62,0,0,1,1.46-2.24.38.38,0,0,0-.12-.64,7.43,7.43,0,0,1-1.26-2.86c.05-.16.07-.43-.3-.35a3.16,3.16,0,0,1-2-.51.25.25,0,0,0-.27,0Zm-90.9.58c-.19,0-.49.13-.71.15a6.81,6.81,0,0,1-2.07-.09c-.37-.08-.39-.05-.55.43a30.18,30.18,0,0,1-2.23,4.42c-.18.15-.28.12-.28.19s.08.12.22.2a2.24,2.24,0,0,0,2.47-1.39c.11-.26.24-.16.26,0-.08.85,1,1.25,1.65,1s.35-.36.15-.36c-.36-.12-.4-.22-.41-.41.09-1.07-.47-1-1-1s-.36-.19-.3-.37a6.47,6.47,0,0,0,1-2c.17-.87.55-.42.51.05.37,2.09,1.62,2,2.55,1.11.55-.66.12-.39-.09-.3a1,1,0,0,1-1.08-1.45C470,573.35,469.92,573.31,469.73,573.34Zm-4.61,0c-.6.08-.84.47-1.12.81,0,0-.11.27-.51.18a1.24,1.24,0,0,0-1.42,1c-.12.72,0,.58.26.49.55-.24.64.12.59.4a4.48,4.48,0,0,1-1.06,1.71c-.16.08-.23.24.06.33s1.35.23,1.64-.26c.45-.88,1.74-3.69,2.47-4.29.21-.17.13-.3-.18-.36a2.34,2.34,0,0,0-.74,0Zm89.37.66a1,1,0,0,0-1.05.94c0,.2-.31.42,0,.53a1.9,1.9,0,0,0,1.1.07c.38-.11.31-.41.51-.8.09-.19.23-.29.23-.38s-.12-.23-.23-.27a1.72,1.72,0,0,0-.54-.08Zm1.11,2.38a.34.34,0,0,0-.19.23,6.21,6.21,0,0,1-.52,1.24c-.12.17.19.25.19.25.19-.05.42-.15.61.08s1.44,2.67,1.44,2.67c.08.17-.25.68.18.67a3.93,3.93,0,0,1,1.38.16c.21.1.42-.19.42-.32a9.77,9.77,0,0,1,.24-1c0-.16-.13-.29-.26-.23a.37.37,0,0,1-.43,0c-.09-.13-1.64-2.84-1.64-2.84.07-.16,0-.43-.15-.48a4.67,4.67,0,0,1-1-.39A.24.24,0,0,0,555.59,576.42Zm-84.28,1.26a.25.25,0,0,0-.25.07,12.28,12.28,0,0,1-1.23.52c-.24.12-.22.31,0,.28s.62.13.34.64l-1.08,2.59c-.2.56-.26.54-.69.53-.2,0-.4.09-.17.3a2.16,2.16,0,0,1,.55,1,.22.22,0,0,0,.31.21c.13,0,1.1-.19,1.29-.23s.37-.12.16-.28a.69.69,0,0,1-.27-.46s1.09-2.68,1.37-3.32.55-.11.59.26c.06.54,1.33.62,1.76.26s.26-.37,0-.39-.32-.13-.37-.5-.84-.77-1.5-.32c-.24.22-.37.18-.38-.07a3.3,3.3,0,0,0-.32-.91.26.26,0,0,0-.13-.24Zm80.25.63c-.2,0-.4.25-.5.74a4.17,4.17,0,0,1-1.49,1.82c-.27.05-.17.46.22.6s1.14,2.8,1,3,0,.54.34.48a8.33,8.33,0,0,1,.93,0c.28,0,.47-.1.18.26s-.86.91-.4,1.51,2.14,0,2.43-.51c.56-1-.48.32-.91-.44-.14-.24.14-.35.45-.4a3.2,3.2,0,0,0,2.29-1.18c.86-1,.13-2-.39-1.95s-.5,0-.69-.33a5.66,5.66,0,0,1-1.17-2.77c0-.15,0-.22-.31-.19a4,4,0,0,1-1.84-.53.28.28,0,0,0-.19-.11Zm-5.44.16a1,1,0,0,0-1.21.73c-.07.18-.39.34-.1.51a1.79,1.79,0,0,0,1,.26c.41,0,.39-.33.66-.68.13-.17.28-.24.3-.33a.37.37,0,0,0-.18-.31,1.78,1.78,0,0,0-.52-.19Zm-83.33.24a3.25,3.25,0,0,0-2.11.82c-.4.4-.25.39.13.33,2.15-.32,3.18.14,3.84,1.78,0,.17,0,.17.32.17a3.62,3.62,0,0,0,2.37-.43c.34-.32-.09-.17-.09-.17-1.63,0-1.95-1.25-2.37-1.64a3.26,3.26,0,0,0-2.09-.85Zm80.22.07a.69.69,0,0,0-.4,0,1.27,1.27,0,0,0-.33.27c-.19.21-.17.27-.49.12l-.42-.26c-.23-.16-.63-.42-.35.53.11.31,2.56,7.63,2.56,7.63,0,.16-.22.66.07.72a5.58,5.58,0,0,1,1.52.72c.19.12.46-.11.48-.24s.26-.9.26-.9c.06-.16-.06-.3-.2-.27a.37.37,0,0,1-.42-.13c-.06-.14-2.11-6.54-2.19-6.68a2.09,2.09,0,0,1,.11-1.33c.05-.13-.05-.2-.2-.22Zm-59.38,0a1.09,1.09,0,0,0-1.37.82c0,.34-.09.47.27.29.15-.08.47-.08.38.43a8.47,8.47,0,0,0,.06,2.43.33.33,0,0,1-.21.35,5.55,5.55,0,0,1-1.75.09c-.11,0-.32,0-.21.37a8.47,8.47,0,0,1-.48,2.43.61.61,0,0,1-.31.38c-.18.07-.12.4,0,.42.83.31,1.36.8,1.34,1.6,0,.28.1.34.23.28a4.63,4.63,0,0,1,2.61-.51.26.26,0,0,0,.35-.2l.89-3.73c0-.12,0-.21,0-.22a2.2,2.2,0,0,1-1-1.27,9.77,9.77,0,0,1-.18-3.11.91.91,0,0,0-.08-.45,1,1,0,0,0-.57-.4Zm28.53.62-.18.74Zm-36.21.5a1,1,0,0,0-.52.15c-.42.26-.9.34-.61.53s.32.06.32.41c-.31,1.14-1,3.06-1,3.06a.59.59,0,0,1-.46.37c-.17.06-.09.21.11.41a4.61,4.61,0,0,1,.7.91c.12.2.13.47.41.2a2,2,0,0,1,1.43-.35c.52.08.74.7.9,1.12s0,.4.28.21a5.86,5.86,0,0,1,1.53-.61c.22,0,.13-.23,0-.25s-.87-.1-.74-.81.72-2.72,1-2.79a1,1,0,0,1,.4,0c.29,0,.1-.2.05-.27a7.51,7.51,0,0,1-.61-1.26c0-.22-.24-.12-.24-.12-.39.18-1,.13-1.19.26s-.22.17-.23.23,0,0,0,0,.33.26.24.68a10.41,10.41,0,0,1-.88,2.6c-.51,1-1.31.52-1.11-.25s.37-1.33.58-2a15.41,15.41,0,0,0,.55-1.68.84.84,0,0,0-.9-.75Zm75.81.13a2.63,2.63,0,0,1,.77.18,4.69,4.69,0,0,1,1.19,2.69c0,.06-1.27,1.47-1.62.29a16.15,16.15,0,0,0-.84-2.07c-.13-.27-.55-.75-.34-.9a1.27,1.27,0,0,1,.83-.19Zm-5.38.55a.34.34,0,0,0-.23.19,6.61,6.61,0,0,1-.74,1.13c-.16.15.11.27.11.27.2,0,.45-.07.6.2s1.11,3.3,1.11,3.3c.06.17-.38.61,0,.68a3.75,3.75,0,0,1,1.33.43c.19.13.45-.11.48-.24a7.67,7.67,0,0,1,.41-.89c0-.17-.07-.32-.21-.27a.39.39,0,0,1-.42-.13c-.07-.14-1.27-3.49-1.27-3.49s.09-.42-.05-.51a3.88,3.88,0,0,1-.93-.57.24.24,0,0,0-.24-.1Zm-12.57.53c-.11,0-.26,0-.44.22a25.68,25.68,0,0,1-3.12,2.38c-.32.09-.55.4-.55.92l.92,5.71c.12.71,0,1.83-1,1-1.16-.93-2.35-.37-2.41.7a1.1,1.1,0,0,0,.14.46s.32.44.47.61.44.44.69.4.29-.11.1-.2a.67.67,0,0,1,.49-1.2c1.69.16,3.13.31,3.23-.92,0-.25-.62-3.68-.62-3.68,0-.39.5-.52.87-.3a2,2,0,0,1,.89.87,9.23,9.23,0,0,1,1.22,2.62c.24.69,1.24.46,1.5.18a3.28,3.28,0,0,0,.74-.9c.18-.81.18-.78-.37-.34-.38.28-.59.19-.81-.11a7.28,7.28,0,0,0-1.92-3.22c-.58-.27-.07-.46.12-.64.65-.6.08-3.54,0-4.09,0-.27-.11-.44-.22-.49Zm-45.77.33a1.17,1.17,0,0,0-.5.27c-.15.13-.52.1-.35.39a1.84,1.84,0,0,0,.76.76c.36.18.51-.09.9-.25.2-.07.37-.06.43-.12a.38.38,0,0,0,0-.36,1.22,1.22,0,0,0-1.27-.69ZM493,582c-.11,0-.24.11-.33.34s-1.3,2.51-2.61,2.5c-.3,0-.45.36-.12.4a4.79,4.79,0,0,1,1.2.3c.07,0,.06.26.06.26l-.81,3.57c0,.17-.65.36-.3.61a3.85,3.85,0,0,1,1,1c.11.2.46.1.54,0a8.09,8.09,0,0,1,.76-.61.2.2,0,0,0-.06-.35c-.15,0-.36-.14-.35-.3s.58-3.55.6-3.64,0-.14.15-.13.68.16.75.21.24,0,.18.53c0,.34.3.29.32,0a11.53,11.53,0,0,1,.3-1.16c.18-.49,0-.71-.26-.76,0,0-.75,0-.91-.19s-.13-.31-.09-.58c0,0,.14-1.23.17-1.67,0-.22-.07-.33-.18-.34Zm37.14.28s-.14.1-.34.37c-.41.56-.56.35-1.24.12a1.55,1.55,0,0,0-1.79,2.26c.36.7.39.45.46,0a1.34,1.34,0,0,1,1.54-.9c.85.08,1.32-.69,1.4-1.39C530.13,582.49,530.14,582.35,530.1,582.33Zm9.68.93c-.13-.05-.3.11-.36.23a6.31,6.31,0,0,1-2.53,1.79c-.18.08-.06.28.1.38A16.91,16.91,0,0,1,538,589c0,.31-.19.69.16.72s1.57.41,1.7.68.57.3.59-.09a3.24,3.24,0,0,1,.92-1.44c.21-.11.36-.75-.19-.39a1.1,1.1,0,0,1-1.34-.13,7.1,7.1,0,0,1-.46-1.18c.67-.47,1.61-1.46,1.84-1.62s0-.42-.11-.5a11,11,0,0,1-1.27-1.6.23.23,0,0,0-.11-.14Zm-42.2.19a1,1,0,0,0-1,.32c-.14.12-.5.12-.33.41a1.84,1.84,0,0,0,.83.7c.38.15.5-.12.89-.31.19-.09.36-.08.42-.15a.34.34,0,0,0,0-.36,1.42,1.42,0,0,0-.82-.61Zm-9.36.35a.33.33,0,0,0-.29.06,6.76,6.76,0,0,1-1.21.56c-.22,0,0,.31,0,.31.17.09.42.16.41.48s-.72,2.95-.72,2.95c0,.18-.63.33-.31.6a3.74,3.74,0,0,1,.92,1c.1.21.45.13.54,0s.82-.56.82-.56.09-.3,0-.34-.31-.17-.29-.32.66-3.21.66-3.21c.16-.07.29-.31.21-.45a4.68,4.68,0,0,1-.51-1,.23.23,0,0,0-.14-.21Zm30.76.34c-.11,0-.21.16-.23.41s-.65,2.76-1.92,3.06c-.3.07-.35.47,0,.42a4.81,4.81,0,0,1,1.08,0c.08,0,.11.23.11.23l.35,4.09c0,.17-.54.51-.15.66a3.57,3.57,0,0,1,1.21.72c.15.17.46,0,.52-.13s.6-.78.6-.78c.07-.16,0-.32-.14-.32s-.38-.05-.42-.2-.39-4-.4-4.06,0-.14.11-.16a6.31,6.31,0,0,1,.79,0s.23-.06.31.46c0,.34.35.2.32-.05a7.31,7.31,0,0,1,0-1.2c.05-.52-.16-.7-.45-.68,0,0-.74.15-.92,0s-.21-.26-.24-.55c0,0-.17-1.21-.25-1.65,0-.22-.15-.3-.25-.28Zm10.45.2a.38.38,0,0,0-.3.05c-1.37.48-1.12,1.63-1,2.34,0,0,.07.29-.3.43a1.31,1.31,0,0,0-.6,1.43c.17.71.36.46.49.24.33-.51.6-.28.72,0a3.35,3.35,0,0,1,.14,1.78c-.1.16-.05.34.23.23s1.24-.59,1.18-1.16c-.14-1-.74-4.18-.49-5.1C529.5,584.44,529.48,584.37,529.42,584.34Zm-26.65,1.43a.28.28,0,0,0-.27.12,4.11,4.11,0,0,1-2.75,1.57h-.06s-.17.06-.11.25a7.63,7.63,0,0,1-.45,3.51c-.12.08-.05.27.23.32,0,0,1.52.43,1.94,1.28,0,0,.15.51.55-.06a4.52,4.52,0,0,1,2.34-1.29.37.37,0,0,0,.2-.61,7.39,7.39,0,0,1,.23-3.1c.12-.13.27-.36-.1-.46a3,3,0,0,1-1.51-1.39.26.26,0,0,0-.23-.14Zm-5.59,0a.32.32,0,0,0-.28.07,6.89,6.89,0,0,1-1.17.67c-.21.06,0,.3,0,.3.17.08.43.13.44.44s-.45,3.1-.45,3.1c0,.17-.61.38-.27.63a3.88,3.88,0,0,1,1,1c.11.2.46.11.53,0a8.66,8.66,0,0,1,.77-.61c.11-.13.08-.31-.06-.34s-.31-.14-.31-.3.38-3.34.38-3.34c.16-.1.27-.34.18-.48a4.46,4.46,0,0,1-.57-.93.24.24,0,0,0-.17-.19Zm17,1.11a.51.51,0,0,0-.27.14,6.23,6.23,0,0,1-2.93,1c-.19,0-.13.25,0,.4a17,17,0,0,1,.11,3.46c-.13.29-.36.6-.05.73s1.41.82,1.46,1.12.47.45.59.07a3.32,3.32,0,0,1,1.29-1.13c.22,0,.55-.62-.07-.42a1.11,1.11,0,0,1-1.26-.49,7.5,7.5,0,0,1-.12-1.26c.77-.27,2-.95,2.23-1s.08-.42,0-.53a11.8,11.8,0,0,1-.79-1.88c0-.16-.1-.2-.2-.19Zm-1.1,1.29a.16.16,0,0,1,.17.18,2.76,2.76,0,0,0,.33,1.07c.15.19.2.43-.21.52-.23.06-.62.3-.61-.2s.1-1.15.12-1.35a.23.23,0,0,1,.2-.22Z" transform="translate(-443.72 -427.47)" style="fill:#001a57"/><path d="M531.78,449.23a3.58,3.58,0,0,0-3.19,2.21c-.38.75-.91,1.71.72.48a5.49,5.49,0,0,1,3.51-.13,4.73,4.73,0,0,0,4.57-.93c.81-.77.7-.88,0-.61-2,.16-2.43,0-3.07-.42a4.62,4.62,0,0,0-2.5-.59Zm-56.47.76a3.59,3.59,0,0,0-3.2,2.21c-.39.75-.92,1.69.72.48a5.58,5.58,0,0,1,3.52-.14,4.68,4.68,0,0,0,4.57-.92c.81-.77.7-.88,0-.61-2,.16-2.43,0-3.07-.43A4.62,4.62,0,0,0,475.31,450Zm16.23.18a22,22,0,0,0-6,1.64,18.36,18.36,0,0,0-2.6,1.39c-1.46.93-2.2,1.55-2.15,3.38v11a.44.44,0,0,0,.56.47s3-1.18,3-1.53v-13c.13-1,1.74-1.59,3.08-1.53.27,0,2.69,5.77,4.27,8.66a10.63,10.63,0,0,1,.76,1.78A8.17,8.17,0,0,1,493,467a11.74,11.74,0,0,1-1.16,3.39,7.62,7.62,0,0,1-1.31,1.59c-.61.6-1.27,1.37-2,.76a9.88,9.88,0,0,0-4.73-2.56,10.18,10.18,0,0,0-9.76,3c0,.05-.21.61.51.22a10.24,10.24,0,0,1,7.92-.2,18.67,18.67,0,0,1,4.45,2.67.57.57,0,0,0,.57,0c4.3-2.81,8.34-5.84,9.19-11.07a10.77,10.77,0,0,0-1.85-8.23,15.55,15.55,0,0,1-2.74-5.89c-.06-.25-.42-.59-.57-.55Zm58.43,1a.56.56,0,0,0-.33.08c-.28.16-2.38,1.62-2.58,1.77s-.12.42.1.57.69.5.69.5a.39.39,0,0,1,.31.43V470.1a.81.81,0,0,1-.31.81c-1.81,1.4-2.6,2-3.28,1.37a9.87,9.87,0,0,0-4.73-2.56l-.24-.05V453c0-.73-.21-.92-.69-.73-2.85,1.31-3.1,1.62-3.06,3.47v13.89a9.44,9.44,0,0,0-5.79,3.14c0,.05-.21.61.52.21a10.23,10.23,0,0,1,7.92-.2,19,19,0,0,1,4.45,2.67.59.59,0,0,0,.56,0,35.19,35.19,0,0,0,4.41-3.16c.72-.65.92.12.92.12a8.6,8.6,0,0,0,2.36,3,1.08,1.08,0,0,0,1.06.08c.66-.46,1.46-1.35,2-1.62s.11-.8.07-.81c-1.23-.58-2.19-3-2.26-5.12l0-12.58a.78.78,0,0,1,.4-.81.53.53,0,0,0,0-.81c-.16-.16-2-2.23-2.2-2.43a.51.51,0,0,0-.32-.15Zm-17.52,3.5a.49.49,0,0,0-.36.15,9.77,9.77,0,0,0-3.23,2.27,1.5,1.5,0,0,0-.32,1v3.73s.08.73-.72.5a2.59,2.59,0,0,0-2.55,1c-.35.43,0,.8.58.31,1.34-.31,2.69.23,2.69,1.27v5.5c0,.28.16.43.54.23a9.2,9.2,0,0,0,3.23-2.26,1.47,1.47,0,0,0,.31-1.12s0-12.17,0-12.17c0-.3-.07-.43-.18-.45Zm-55.4.38a.49.49,0,0,0-.36.15,9.91,9.91,0,0,0-3.24,2.27,1.52,1.52,0,0,0-.3,1v3.73s.07.74-.73.51a2.55,2.55,0,0,0-2.54,1c-.35.42,0,.82.57.32,1.34-.31,2.7.23,2.7,1.27v5.51h0c0,.27.15.42.54.22a9.34,9.34,0,0,0,3.24-2.27,1.46,1.46,0,0,0,.3-1.11s0-12.16,0-12.16c0-.31-.08-.44-.18-.46Zm83.59,119.24s-.12,0-.13.06a1.41,1.41,0,0,1-.26.55c-.07,0-.07.12,0,.19a13.19,13.19,0,0,1,1.07,2.63c0,.17.13.24.25.22a7.37,7.37,0,0,1,1.39.17c.05,0,.39-.12.14-.43a29.21,29.21,0,0,1-1.39-3c0-.07,0-.09-.15-.06a1.55,1.55,0,0,1-.92-.33Zm-28.15,8.37a.6.6,0,0,0-.41.1c-.09.07-.94.63-.94,1.37a7.21,7.21,0,0,0,.36,2.58c.08.33.86-.2.9-.22a1.33,1.33,0,0,0,.58-1,5.65,5.65,0,0,0-.49-2.81Zm-49.32.76c-.8-.06-.8.63-.92,1.11a5.5,5.5,0,0,0-.28,2.17c.14.52.19.93.74,1,.28,0,.68-.46.71-.62a21.73,21.73,0,0,0,.58-2.95c.06-.75-.61-.71-.84-.73Zm55.76,1.37a.22.22,0,0,0-.13.26c0,.19.16,1,.26,1.32s.44.15.64,0c.36-.21.25-.42.05-.57a2.86,2.86,0,0,1-.6-.95.16.16,0,0,0-.21-.11Zm-37,2.31a1.13,1.13,0,0,1-.49.37c-.07,0-.11.06-.08.16a13.59,13.59,0,0,1-.29,2.84c-.05.18,0,.27.1.32a6.78,6.78,0,0,1,1.16.8s.39.07.33-.33a28.07,28.07,0,0,1,.19-3.3c0-.08,0-.09-.12-.12a1.54,1.54,0,0,1-.64-.72s-.1-.1-.16,0Z" transform="translate(-443.72 -427.47)" style="fill:#fff"/></svg>