<svg xmlns="http://www.w3.org/2000/svg" viewBox="0 0 274.25 85.36"><title>University of Glasgow logo</title><path d="M482.32,470.3v1c-3.55.1-4.73,1.48-4.73,4.83v14.1c0,6.51-4.14,13.51-15.48,13.51-10,0-15.08-5.72-15.08-13.21V475.23c0-3.35-1-3.84-4.54-3.94v-1H455.9v1h-.49c-2.86,0-4.14.79-4.14,3.84v14.59c0,7.1,4.14,11.34,11.93,11.34,5.92,0,11.93-2.46,11.93-11.34V477.5c0-5-.79-5.92-5.13-6.11v-1h12.32Z" transform="translate(-374.69 -469.51)" style="fill:#133759"/><path d="M488.24,498.3c0,2.86.69,3.55,3.55,3.55v1H481.24v-1c2.27,0,3.55-1.28,3.55-3.25v-11c0-2-.2-2.27-1.58-2.56l-1.77-.39v-.89l6-2.17h.89v4c3.55-2.17,6.41-4.14,9-4.14,3.55,0,5.62,2.66,5.62,7.89,0,7-.39,8.28-.39,10.35-.1,1.38.79,2.07,3,2.07h1.18v1H495.44v-1a4.36,4.36,0,0,0,3-1c1-1,1.08-4.83,1.08-11.73,0-4.14-2.07-5.52-4.14-5.52-1.68,0-4.24,1.48-7,3.35V498.3h-.1Z" transform="translate(-374.69 -469.51)" style="fill:#133759"/><path d="M515.84,498.89c0,1.87,1,3,3.75,3v1H508v-1c3.15,0,4.34-1.08,4.34-3.84V487.45c0-2.07-.3-2.27-1.58-2.56l-2.46-.49v-.69l6.8-2.37h.79v17.55h0Zm-2.17-29.38a2.12,2.12,0,0,1,2.27,2h0a2.18,2.18,0,0,1-2.27,2,2.12,2.12,0,0,1-2.27-2h0a2.12,2.12,0,0,1,2.26-2h0" transform="translate(-374.69 -469.51)" style="fill:#133759"/><path d="M530.24,503.33,522.65,486c-.79-1.87-1.48-2.46-2.27-2.66l-1.58-.3v-1h10.65v1c-3.15.1-4.24.49-3,3L532,499l5.32-12.13c1-2.17.49-3.65-3.35-3.94v-1h9.07v1c-2,.39-3.15,1.48-4.14,3.84l-7.2,16.46h-1.48Z" transform="translate(-374.69 -469.51)" style="fill:#133759"/><path d="M546.31,489.62a17.75,17.75,0,0,0-.2,2.17c0,5.42,3.84,9.07,8,9.07,2.66,0,4.63-1.08,6.7-3.45l.59.59c-2.17,2.76-5.52,5.42-9.27,5.42-5.13,0-9.07-4.63-9.07-10.75,0-5.52,3.75-11.24,10.15-11.24,7.1,0,6.9,5.13,8.68,6.8v1.18H546.31Zm10.94-1.38c-.59-3.45-2.66-5.62-5.23-5.62-1.77,0-4.34.79-5.52,5.62h10.75Z" transform="translate(-374.69 -469.51)" style="fill:#133759"/><path d="M571.15,499.09c0,2.17.79,2.86,3.45,2.86h2v1H564.15v-1c2.66-.1,3.55-1.18,3.55-3.94V485.88l-3.55-1.28v-.89l6-2.07h1.08v5.52h.1c2.66-4.34,3.25-5.32,4.93-5.32a4,4,0,0,1,1.77.49c.49.2,1.48.39,2.76.79l-1.28,3.15a8.87,8.87,0,0,1-2.76-.89,4.08,4.08,0,0,0-1.87-.49,2.52,2.52,0,0,0-2.07,1.38,22.6,22.6,0,0,0-1.68,2.66Z" transform="translate(-374.69 -469.51)" style="fill:#133759"/><path d="M583.67,497.61c.59,3.15,2.66,4.93,4.93,4.93a3.63,3.63,0,0,0,3.75-3.45c0-1.08-.3-1.77-1.68-3.15-3.75-3.75-7.89-4-7.89-8.38,0-3.45,2.76-5.82,6.7-5.82a10.09,10.09,0,0,1,4.14.89l.1,4.73h-.89c-.39-2.66-2.07-4.34-4.14-4.34a3,3,0,0,0-3.15,2.75q0,.1,0,.2c0,4.63,9.76,5.42,9.76,11.73,0,3.45-2.86,6-6.51,6a6.7,6.7,0,0,1-2.27-.39,4.35,4.35,0,0,0-1.38-.3,1.19,1.19,0,0,0-.89.59h-.79l-.59-5.82h.79Z" transform="translate(-374.69 -469.51)" style="fill:#133759"/><path d="M605.66,498.89c0,1.87,1,3,3.75,3v1H597.77v-1c3.15,0,4.34-1.08,4.34-3.84V487.45c0-2.07-.3-2.27-1.58-2.56l-2.46-.49v-.69l6.8-2.37h.79Zm-2.17-29.38a2.12,2.12,0,0,1,2.27,2h0a2.18,2.18,0,0,1-2.27,2,2.12,2.12,0,0,1-2.27-2h0a2.26,2.26,0,0,1,2.27-2" transform="translate(-374.69 -469.51)" style="fill:#133759"/><path d="M623.11,482.13l-.79,2.27H616.7v12.23c0,3.25,2.37,4.44,3.45,4.44s2.17-.89,3.15-2.66l.89.79c-1.28,2.76-3.25,4.34-5.72,4.34-3.06,0-5.32-2.56-5.32-6.11v-13h-2.37v-.89c2.07-1,3.84-3.35,5-6.61h.89v5.23Z" transform="translate(-374.69 -469.51)" style="fill:#133759"/><path d="M642.73,487.95c1.58-3.94.59-4.73-2.46-4.83v-1h8.68v1c-2.17.3-3.35,1.77-4.34,4.14l-8.87,22.18c-1.58,3.84-2.76,5.62-4.63,5.62a2,2,0,0,1-2.16-1.76s0-.07,0-.11c0-2.17,3.06-1.58,4.34-3a10.71,10.71,0,0,0,1.77-3l1.58-3.94-8.08-17.25c-1-2.17-2-3.06-4.14-3.06v-1h10.55v1c-3.15,0-3.55,1-2.46,3.15L638.39,499Z" transform="translate(-374.69 -469.51)" style="fill:#133759"/><path d="M456.4,520.58c1.48,0,4.73,2.07,4.73,7.69,0,10-9.86,14.3-12.32,14.3s-4.63-3.94-4.63-8.28c0-8.48,9.07-13.7,12.23-13.7m-2.66,2c-3.25,0-6.21,6.31-6.21,11.53,0,4.44,1.87,6.51,3.65,6.51,4.14,0,6.61-6.8,6.61-11.63.1-3.65-1.68-6.41-4-6.41" transform="translate(-374.69 -469.51)" style="fill:#133759"/><path d="M463.1,522.95l.2-1c1.28-.2,2.56-.39,3.84-.69.79-4.34,2.37-8.77,5.32-11.73a9,9,0,0,1,6.21-2.86c2.07,0,3.75,1.18,3.75,2.46a1.45,1.45,0,0,1-1.42,1.48h-.06c-1.68,0-3.15-2.17-4.63-2.17-2.07,0-3.75,2.27-4.44,5.72l-1.38,6.9H475l-.49,1.77H470.2l-2.66,15.28c-2.07,11.73-8,15.87-12.92,15.87-2.17,0-4-1.08-4-2.37a1.74,1.74,0,0,1,1.77-1.58c2,0,3,2.27,4.93,2.27a4.53,4.53,0,0,0,3.15-1.48c2.66-2.66,3.65-11.53,3.84-12.82l2.66-15.18H463.1Z" transform="translate(-374.69 -469.51)" style="fill:#133759"/><path d="M513.08,539.51a35.34,35.34,0,0,1-14,3.25c-11.44,0-16.76-8.87-16.76-16.46,0-7.89,5.52-17.65,18.24-17.65,5.62,0,9.37,1.77,10.45,1.77a1.57,1.57,0,0,0,1.18-.39h.69v8.48H511.8c-1.38-6.51-5.82-8.58-10.75-8.58-9.17,0-13.9,7.69-13.9,16.07,0,10.75,7.49,15.48,13.61,15.48a17.27,17.27,0,0,0,8-2V532.9c0-3-1.08-3.94-4.14-3.94h-2v-1h14.1v1c-2.66.2-3.65,1.08-3.65,3.25v7.3h0Z" transform="translate(-374.69 -469.51)" style="fill:#133759"/><path d="M524.62,537.83c0,2.17,1,3.15,3.06,3.15h.89v1H516.83v-1c3.35,0,4.34-1,4.34-3.55V512.2c0-1.48-.2-2-1.58-2.07l-2.37-.3v-.89l6.7-2.17h.79v31.06h-.1Z" transform="translate(-374.69 -469.51)" style="fill:#133759"/><path d="M531.13,527.48a2.5,2.5,0,0,1-.2-.69c0-1.87,4.34-6.11,7.79-6.11a7,7,0,0,1,5.52,2.76c.79,1.08.79,1.77.79,4.54v7c0,4.14,0,5.13,1.38,5.13a3.66,3.66,0,0,0,2.56-1.18l.3.79c-2.86,2.27-4.34,2.86-5.23,2.86-2.17,0-2.37-2.37-2.37-3.15-3.65,3-4.63,3.15-6.11,3.15-3.06,0-4.83-1.77-4.83-4.34,0-3.15,2.86-4.34,6.21-5.13a18.28,18.28,0,0,0,4.63-2V527c0-1.48,0-2.27-.89-3.35a3.79,3.79,0,0,0-3-1.48c-1.68,0-3.25,1.48-3.25,2.56a2.61,2.61,0,0,0,.3,1Zm10.35,4.73a22,22,0,0,1-3.06,1.48c-3.15,1.28-4.44,1.87-4.44,3.94a3,3,0,0,0,3,3.06h.1c.79,0,1.48-.3,4.44-2.27Z" transform="translate(-374.69 -469.51)" style="fill:#133759"/><path d="M551.73,536.65c.59,3.15,2.66,4.93,5,4.93a3.63,3.63,0,0,0,3.75-3.45c0-1.08-.3-1.77-1.68-3.15-3.75-3.75-7.89-4-7.89-8.38,0-3.45,2.76-5.92,6.7-5.92a10.09,10.09,0,0,1,4.14.89l.1,4.73H561c-.39-2.66-2.07-4.34-4.14-4.34a3,3,0,0,0-3.15,2.75q0,.1,0,.2c0,4.63,9.76,5.42,9.76,11.83a6.56,6.56,0,0,1-8.77,5.62,4.35,4.35,0,0,0-1.38-.3,1.19,1.19,0,0,0-.89.59h-.79l-.59-5.82h.69v-.2Z" transform="translate(-374.69 -469.51)" style="fill:#133759"/><path d="M588.51,525.51c-.79-.1-3.25-.3-5.23-.59a6.9,6.9,0,0,1,.89,3.35c0,3.84-3.35,7.59-9.17,7.59a6.28,6.28,0,0,1-2.37-.39c-.89.89-3.15,1.48-3.15,2.66S571.75,540,577,540c5.92,0,8,.3,9.56,1.87a4.93,4.93,0,0,1,1.58,3.65c0,3.45-4.63,8.68-14.3,8.68-5.42,0-8.08-2.37-8.08-4.93,0-3.06,3.15-3.55,5.62-6.41-2.86-.3-4.93-2.07-4.93-3.75,0-2.37,3.55-2.46,5.32-3.84-3.15-1.28-5-3.55-5-6.51,0-4.54,4-8,9.17-8a8.07,8.07,0,0,1,5.82,2.07c2.37,0,4.54-.3,6.9-.49v3.15h-.1Zm-11.93,27.21c4.44,0,8.68-3,8.68-6.21,0-2-1.58-3-3.55-3.06-1.38-.2-8-.2-9.46-.39-1.48,1.68-3.45,2.46-3.45,4.54.1,2.37,3.55,5.13,7.79,5.13m-1.48-31.06c-2,0-5.13,1.08-5.13,6,0,3.06,1.58,7.2,5.52,7.2,3.06,0,5-2.56,5-6.11.1-4.54-2.17-7.1-5.42-7.1" transform="translate(-374.69 -469.51)" style="fill:#133759"/><path d="M600.83,520.68a11,11,0,0,1,.1,22h0c-6.51,0-11.44-4.73-11.44-10.84a11.07,11.07,0,0,1,11-11.14h.34m.79,20.61c3.06,0,6.61-3.15,6.61-8.38,0-6-3.65-11-8.08-11-3.45,0-6.61,3.55-6.61,8.08-.1,6.31,3.55,11.34,8.08,11.34" transform="translate(-374.69 -469.51)" style="fill:#133759"/><path d="M636.42,542.47l-6.21-14.79-6.31,14.79h-1.48l-7.79-17.55c-.69-1.58-1.48-2.37-3.84-2.66v-1h10.15v1c-3.06.2-3.25,1.08-2.17,3.55l5.62,12.62,5.13-12.32c-1.18-2.66-2.07-3.65-3.84-3.84l-1.28-.2v-1h10.84v1c-2.56.1-3.35.79-2.27,3.45l5.13,12.42,5-12.23c1.18-2.76.3-3.65-3.06-3.65v-1h8.77v1c-2,.2-3.25,1.18-4.34,3.75l-6.7,16.46h-1.38Z" transform="translate(-374.69 -469.51)" style="fill:#133759"/><path d="M375.06,470.3h54.82s.1,25.93,0,44.76c0,13.9-17.15,29.18-27.41,29.68-11.34-.89-27.41-16.86-27.41-29.58V470.3Z" transform="translate(-374.69 -469.51)" style="fill:#133759"/><path d="M375.06,470.3h54.82s.1,25.93,0,44.76c0,13.9-17.15,29.18-27.41,29.68-11.34-.89-27.41-16.86-27.41-29.58V470.3Z" transform="translate(-374.69 -469.51)" style="fill:none;stroke:#fff;stroke-width:0.7400000095367432px"/><rect x="27.38" y="19.72" width="1.77" height="48.21" style="fill:#addef8"/><path d="M413.61,505.79h8.58c2.56,0,2.76.39,3,.89-.1-.89-.69-5.13-1-8.28a9.7,9.7,0,0,0-1.48-4.44,2.76,2.76,0,0,0-1.28-1c.1-.2.79-1.87,1.28-3.35a1.39,1.39,0,0,0-.59-1.77,3,3,0,0,0-1.58-.3H414.4c-1.58,0-2.27,1-1.87,2.17.39.89,1,2.46,1.28,3.15-2,.69-2.56,3.25-2.86,5.62-.49,3.84-1.08,9-1.18,9.37s-.2.89.69.89c1.48.1,3.35.1,6.31,0a2.1,2.1,0,0,0,1.18.3,1.59,1.59,0,0,0,1.08-.3c1.18,0,2.66-.1,4.24-.2-1.38,0-2.76-.1-3.94-.1a2.7,2.7,0,0,0,.39-1.48c-.2,2-2.76,1.77-2.17-.3a2.38,2.38,0,0,0-1.48.39,1.6,1.6,0,0,0,.2,1.28c-1.68-.1-3.06-.1-4.14-.2-.49,0-.79-.39-.49-.79,1.08-1.28,1.18-1.58,2-1.58m.79-16.86h5.72c.49,0,1.38-.2.89,1-.39,1-1,2.37-1.28,3h-4.34c-.3-.69-.69-1.58-1.18-2.76-.3-.69-.39-1.18.2-1.18" transform="translate(-374.69 -469.51)" style="fill:#ffd028"/><path d="M402.47,537.24a.91.91,0,0,1-.82,1h-.06a1,1,0,0,1-.89-1v-4.83a.91.91,0,0,1,.82-1h.06a1,1,0,0,1,.89,1v4.83" transform="translate(-374.69 -469.51)" style="fill:#fff"/><path d="M390.74,480.36a3.35,3.35,0,0,1,1-.1,2.23,2.23,0,0,0-1-.49c-.49-1.87-3.25-1.38-3.55.3-.1.59-2.27.89-4.73,4.24a14.84,14.84,0,0,1-3.25,3.15c-.49.3.69.2,1.28-.39.49.49,1.48-1,3.06-1.28.39-.1,5.42-1,4.14-3.84,1.77,2.27-1.18,3.94-3.06,4a5.77,5.77,0,0,0,1.28.2c.3.1-.1.39.1.59a9.08,9.08,0,0,1,1.58,1.28s.59-.2.3-.49a3.84,3.84,0,0,1-1.28-1.08.45.45,0,0,1,.3-.69,3.56,3.56,0,0,0,3-4q0-.1,0-.19c-.2-.3.2-.89.89-1.18" transform="translate(-374.69 -469.51)" style="fill:#e3a222"/><path d="M390.34,479.86a.27.27,0,0,1-.23.3H390a.32.32,0,0,1-.3-.3.27.27,0,0,1,.23-.3H390a.32.32,0,0,1,.3.3" transform="translate(-374.69 -469.51)" style="fill:#133759"/><rect x="28.57" y="61.72" width="0.89" height="6.8" style="fill:#fff"/><path d="M405,539.11a1.48,1.48,0,0,0,.39-1.08,1.56,1.56,0,0,0-1.54-1.58h-2.8a1.56,1.56,0,0,0-1.58,1.54s0,0,0,0a2.07,2.07,0,0,0,.39,1.08l-1.08,1.08a11.54,11.54,0,0,0,7.3,0,11.24,11.24,0,0,0-1.08-1.08" transform="translate(-374.69 -469.51)" style="fill:#ffd028"/><path d="M402.47,483.41h0c-1.18-1.08-5-1.58-7.49-.89a8.33,8.33,0,0,1,.49,1.68,9.86,9.86,0,0,1,7,.59h0a9.86,9.86,0,0,1,7-.59,8.33,8.33,0,0,1,.49-1.68c-2.46-.59-6.31-.1-7.49.89" transform="translate(-374.69 -469.51)" style="fill:#addef8"/><rect x="28.86" y="19.72" width="0.49" height="37.37" style="fill:#fff"/><rect x="26.1" y="19.72" width="1.77" height="34.7" style="fill:#fff"/><path d="M404.24,502.54a3.21,3.21,0,0,0,0-1.68h-2.86a9.25,9.25,0,0,1,2.86,1.68" transform="translate(-374.69 -469.51)" style="fill:#133759"/><path d="M398.13,533.4c1,.1,6.21.39,6.21.39l.89,2.17c-.1.1-4.63,0-7.1-2.56" transform="translate(-374.69 -469.51)" style="fill:#133759"/><path d="M419.42,517.62c-1.58-1.08-3.65-.2-5.72-2.07,0,5.52,4,6.7,1.77,8.18a9.29,9.29,0,0,1-6,1.48c.2-.3.49-.79.69-1.08a25.63,25.63,0,0,0-5.62,0c-3.15-.89-6.61-2.07-10.75-2.17a4.16,4.16,0,0,1,1.48,3.55c-.59-2.46-3.25-3.75-4.54-4.24l-1.08-.3a2.25,2.25,0,0,1-1.28.89.5.5,0,0,0-.67.24l0,.05v.2c-.39.49-1.58.3-2.46-.1-1.08-.39-1,.39-.79.69.3.59.69,1,.79,1.28,1.38,2.86,2.46,4.73,5.52,6.51a19.12,19.12,0,0,0,10.35,3.45,16.86,16.86,0,0,0,8.48.69,4.06,4.06,0,0,1-1.77-1.58c5-1.48,9.37-4.73,11.14-9.66a.2.2,0,0,1,.1-.2c.3-1.08-.69-2.56-2.27-1.08,1.28-3.15,3.45-1.77,3,.1,1.68-2.27,4-4.73,7.1-5.72-2.86-1.28-5.62-.1-7.39.89" transform="translate(-374.69 -469.51)" style="fill:#addef8"/><path d="M404.24,512.79a3.21,3.21,0,0,0,0-1.68h-2.76a6.67,6.67,0,0,1,2.76,1.68" transform="translate(-374.69 -469.51)" style="fill:#133759"/><path d="M405.42,509.44a1.59,1.59,0,0,1-1.59,1.58H401a1.65,1.65,0,0,1-1.68-1.58,1.59,1.59,0,0,1,1.59-1.58h2.84a1.59,1.59,0,0,1,1.67,1.5s0,.05,0,.08" transform="translate(-374.69 -469.51)" style="fill:#ffd028"/><path d="M403.75,510.52h-3.06a6,6,0,0,0,3.75-1.68,1,1,0,0,1-.69,1.68" transform="translate(-374.69 -469.51)" style="fill:#e3a222"/><path d="M404.34,523.14a3.21,3.21,0,0,0,0-1.68h-2.76a7.63,7.63,0,0,1,2.76,1.68" transform="translate(-374.69 -469.51)" style="fill:#133759"/><path d="M405.42,519.79a1.59,1.59,0,0,1-1.59,1.58H401a1.65,1.65,0,0,1-1.68-1.58,1.59,1.59,0,0,1,1.59-1.58h2.84a1.59,1.59,0,0,1,1.67,1.5s0,.05,0,.08" transform="translate(-374.69 -469.51)" style="fill:#ffd028"/><path d="M403.75,520.88h-3.06a6,6,0,0,0,3.75-1.68,1,1,0,0,1-.69,1.68" transform="translate(-374.69 -469.51)" style="fill:#e3a222"/><rect x="25.31" y="22.29" width="4.93" height="4.83" style="fill:#ffd028"/><path d="M404.93,496.62a1.05,1.05,0,0,0-.79,1.18h-3.25a1.16,1.16,0,0,0-.79-1.18h4.83" transform="translate(-374.69 -469.51)" style="fill:#e3a222"/><rect x="28.17" y="22.29" width="1.28" height="4.93" style="fill:#e3a222"/><path d="M387,518.61a2.18,2.18,0,0,0-1.18,1.28,2.73,2.73,0,0,0,0,1.77,1.53,1.53,0,0,0,.79.79,1.65,1.65,0,0,0,1.18-.1,2.18,2.18,0,0,0,1.18-1.28,1.9,1.9,0,0,0-.79-2.56,1.65,1.65,0,0,0-1.18.1m-.1,3.25a.81.81,0,0,1-.49-.49,1.46,1.46,0,0,1,0-1.28,2.16,2.16,0,0,1,.89-1,.84.84,0,0,1,.69,0,1,1,0,0,1,.59,1,1.68,1.68,0,0,1-.1.69,2.16,2.16,0,0,1-.89,1,.87.87,0,0,1-.69.1" transform="translate(-374.69 -469.51)" style="fill:#ffd028"/><path d="M387.78,521.66a5.86,5.86,0,0,0-1.77-.3,1.18,1.18,0,0,1-1.08-.49.38.38,0,0,1,.39-.2,12.15,12.15,0,0,1,3.06.2,3.23,3.23,0,0,1-.59.79" transform="translate(-374.69 -469.51)" style="fill:#addef8"/><path d="M389.85,482.52a3.23,3.23,0,0,1-2.46,3.35c.2-.59,1-3.15,2.46-3.35" transform="translate(-374.69 -469.51)" style="fill:#e63421"/><path d="M405.52,499.19a1.59,1.59,0,0,1-1.59,1.58h-2.84a1.65,1.65,0,0,1-1.68-1.58,1.59,1.59,0,0,1,1.59-1.58h2.84a1.65,1.65,0,0,1,1.68,1.58" transform="translate(-374.69 -469.51)" style="fill:#ffd028"/><path d="M403.85,500.27h-3.06a6,6,0,0,0,3.75-1.68,1,1,0,0,1-.69,1.68" transform="translate(-374.69 -469.51)" style="fill:#e3a222"/><path d="M392.9,522.65a6.37,6.37,0,0,1,2.37,3,3,3,0,0,0-.2-2.56c1.58-.49,4.44.3,6.9,1.28,3.75,1.48,6.51,2,9.27,1.48s4.34-1.08,5.23-2.46c.49-.79,1.87-.59,1.48.49s-2.17,4.34-5.42,5.23a31.16,31.16,0,0,1-16.86.39c-2.17-.59-7.2-1.87-9.27-4.54a6.9,6.9,0,0,1-.59-1.68c0-.2.1-.3.59-.2,1.38.3,1.68-.3,2.27-.89a5.26,5.26,0,0,1,4.24.49" transform="translate(-374.69 -469.51)" style="fill:#fff"/><path d="M417.45,523.54c-2.46,4.73-7.2,5.42-12.23,5.52a22,22,0,0,1-5.82-.59,9.86,9.86,0,0,0,3.94-.3c-.39-1.87-3.55-3.25-5.82-3.35a3.31,3.31,0,0,0-1.58-1.48,6.43,6.43,0,0,1,1,2.07c1.87.39,4,.89,5.13,2.27-.39.49-3.65.2-5.52-.2a4.06,4.06,0,0,1-2.07-1.58c-.89,1-2.27.59-3.65-.1a1.25,1.25,0,0,0-1.08-1.18,1,1,0,0,1,.2.69c-1.58-.89-3.15-2.07-3.84-2-1.08.1,2.37,6.11,5.23,6.8,8.58,4.93,23.07,2.76,26.42-5.62.69-1.28.2-2.07-.3-1" transform="translate(-374.69 -469.51)" style="fill:#0098d6"/><path d="M390.24,525.21a1.15,1.15,0,0,1-.89,1.08.89.89,0,0,1-1.08-.89,1.05,1.05,0,0,1,.89-1.08,1.15,1.15,0,0,1,1.08.89" transform="translate(-374.69 -469.51)" style="fill:#fff"/><path d="M389.75,525.31a.49.49,0,1,1-.49-.49.53.53,0,0,1,.49.49" transform="translate(-374.69 -469.51)" style="fill:#133759"/><path d="M414.4,516.74c-.59,2.07,2,4.83,2,4.83a30.82,30.82,0,0,0-2-4.83" transform="translate(-374.69 -469.51)" style="fill:#fff"/><path d="M416.17,517.13c-.89,1.18.79,3.94.79,3.94a14.47,14.47,0,0,0-.79-3.94" transform="translate(-374.69 -469.51)" style="fill:#fff"/><path d="M418.93,520.28a7.31,7.31,0,0,1,3.55-3.55c-3.06.39-3.75,2.37-3.55,3.55" transform="translate(-374.69 -469.51)" style="fill:#fff"/><path d="M402.47,475c-1.28-2.46-3.06-.59-6.31-1.58-.59,2.66-1.08,7.3-1.28,8.08,2.17.69,4.14-1.38,6.7.3a15.61,15.61,0,0,1,.79-6.21,1.74,1.74,0,0,1,.1-.59" transform="translate(-374.69 -469.51)" style="fill:#fff"/><path d="M402.47,475a4.74,4.74,0,0,0-.89-1.08c-.39,4-.49,4.93-1.77,7.3a3.71,3.71,0,0,1,1.77.69,13.39,13.39,0,0,1,.89-6V475" transform="translate(-374.69 -469.51)" style="fill:#addef8"/><path d="M408.78,473.45c-3.15,1-5-.89-6.31,1.58v7.59c3.06-2.86,5.13-.3,7.59-1-.2-.89-.69-5.62-1.28-8.18" transform="translate(-374.69 -469.51)" style="fill:#fff"/><rect x="26.89" y="17.65" width="1.77" height="2.07" style="fill:#ffd028"/><polygon points="27.78 15.68 28.66 17.16 26.89 17.16 27.78 15.68" style="fill:#ffd028"/><path d="M387.48,491.3h0" transform="translate(-374.69 -469.51)" style="fill:#008b3b"/><path d="M394.68,501.36s2.46-1.18,2.66-2.46a5.58,5.58,0,0,0-2.66-.79s2.17-1.68,2.07-2.86a6.9,6.9,0,0,0-3.06-.2,4.66,4.66,0,0,0,1.08-3.15,6.58,6.58,0,0,0-2.86.49s.59-2.07,0-3.15c-1.08-.3-2.56,1.58-2.56,1.58a8.32,8.32,0,0,0-1.77-3.55,7.89,7.89,0,0,0-1.77,3.55s-1.48-1.87-2.56-1.58c-.59,1.08,0,3.15,0,3.15a7,7,0,0,0-2.86-.49,5.24,5.24,0,0,0,1.08,3.15,6.9,6.9,0,0,0-3.06.2c-.1,1.18,2.07,2.86,2.07,2.86a5.58,5.58,0,0,0-2.66.79c.2,1.28,2.66,2.46,2.66,2.46a4.93,4.93,0,0,0-2.37,1.28,5.29,5.29,0,0,0,2.86,1.68A5.66,5.66,0,0,0,379.4,506c1.38,1.08,4.34,1.28,7.3.39,0,.59,0,5.13-.69,7.2h3c-.69-2.07-.69-6.61-.69-7.2,3,.89,5.82.79,7.3-.39a5.66,5.66,0,0,0-1.58-1.68,5.29,5.29,0,0,0,2.86-1.68,4.25,4.25,0,0,0-2.17-1.28" transform="translate(-374.69 -469.51)" style="fill:#86bc25"/><path d="M392,501.45a5.41,5.41,0,0,0,2.46-1.87,4.38,4.38,0,0,0-2.46-.69,5.55,5.55,0,0,0,2-2.46,5.3,5.3,0,0,0-2.66,0,8.73,8.73,0,0,0,1.28-2.86,7.5,7.5,0,0,0-2.56.79,4.93,4.93,0,0,0,.39-3,2.69,2.69,0,0,0-1.48,1.28,2.39,2.39,0,0,0-1.18-1.48,4,4,0,0,0-.69,2.66,3.8,3.8,0,0,1,1.08-.79,5.19,5.19,0,0,1-.3,3,4.59,4.59,0,0,1,1.77-.59,4.7,4.7,0,0,1-1.28,3.15,5.52,5.52,0,0,1,1.87-.59,4.93,4.93,0,0,1-1.87,3.06,3.27,3.27,0,0,1,2.17,0,4.44,4.44,0,0,1-2.27,2.17,3.53,3.53,0,0,1,1.87.39,3.64,3.64,0,0,1-2.37,1.48,9.24,9.24,0,0,0,5.32.59,3,3,0,0,0-1.58-1.58,6.16,6.16,0,0,0,2.66-1.18,4.11,4.11,0,0,0-2.17-1.48" transform="translate(-374.69 -469.51)" style="fill:#008e3c"/><path d="M382.16,541.09c.39,1.38-.69,4,.1,5.62-.69,0-4.93.79-5.52.2s-2.27-1.68-.59-2.66c1.58-.79,5.82-2.46,6-3.15" transform="translate(-374.69 -469.51)" style="fill:#addef8"/><path d="M422.88,541c.49,4.44-.3,4.93-.2,6.21.39.1,3.84.79,5,.2s2.07-2.17,1.48-2.86a13.11,13.11,0,0,0-4.44-2.56,4.5,4.5,0,0,1-1.87-1" transform="translate(-374.69 -469.51)" style="fill:#addef8"/><path d="M428.2,543.16c-1.87-1-4.54-1.58-6.11-3.75-.59,2.17.79,3.35.79,6.51,1.28-2.46.2-3.06.49-4.14,1.08,1.38,2.66,1.58,3.75,2.07,1.38.69,2.27,2.37-.69,2.37H378.61c-3,0-2.17-1.58-.69-2.37,1.08-.59,2.66-.79,3.75-2.17.2,1.18-.89,1.77.39,4.14-.1-3.15,1.38-4.34.79-6.41-1.58,2.07-4.34,2.66-6.21,3.75-1.58.79-1.58,1.38-1.58,4v5.62c0,1.08,1.28,1.68,2.76,1.68h49.29c1.48,0,2.76-.59,2.76-1.68V547.2c0-2.76-.1-3.25-1.68-4" transform="translate(-374.69 -469.51)" style="fill:#133759"/><path d="M428.2,543.16c-1.87-1-4.54-1.58-6.11-3.75-.59,2.17.79,3.35.79,6.51,1.28-2.46.2-3.06.49-4.14,1.08,1.38,2.66,1.58,3.75,2.07,1.38.69,2.27,2.37-.69,2.37H378.61c-3,0-2.17-1.58-.69-2.37,1.08-.59,2.66-.79,3.75-2.17.2,1.18-.89,1.77.39,4.14-.1-3.15,1.38-4.34.79-6.41-1.58,2.07-4.34,2.66-6.21,3.75-1.58.79-1.58,1.38-1.58,4v5.62c0,1.08,1.28,1.68,2.76,1.68h49.29c1.48,0,2.76-.59,2.76-1.68V547.2c0-2.76-.1-3.25-1.68-4" transform="translate(-374.69 -469.51)" style="fill:none;stroke:#fff;stroke-width:0.7400000095367432px"/><path d="M377.82,548.48h1.08l.69,2.07a1.19,1.19,0,0,1,.1.49,1.73,1.73,0,0,0,.1-.49l.69-2.07h1.08l-1.48,3.65h-.79l-1.48-3.65" transform="translate(-374.69 -469.51)" style="fill:#fff"/><rect x="7.47" y="78.98" width="0.99" height="3.65" style="fill:#fff"/><path d="M385.12,548.48h1.28l1.28,3.65h-1l-.2-.69H385l-.2.69h-1l1.28-3.65m1.08,2.27-.39-1.18a2,2,0,0,1-.1-.49,1.32,1.32,0,0,0-.1.49l-.39,1.18Z" transform="translate(-374.69 -469.51)" style="fill:#fff"/><path d="M389.55,548.48h1.08l.69,2.07a1.19,1.19,0,0,1,.1.49,1.73,1.73,0,0,0,.1-.49l.69-2.07h1.08l-1.58,3.65h-.79l-1.38-3.65" transform="translate(-374.69 -469.51)" style="fill:#fff"/><polygon points="19.2 78.98 21.47 78.98 21.47 79.76 20.19 79.76 20.19 80.45 21.37 80.45 21.37 81.24 20.19 81.24 20.19 81.83 21.47 81.83 21.47 82.62 19.2 82.62 19.2 78.98" style="fill:#fff"/><path d="M397,548.48h1.18a1.54,1.54,0,0,1,1.18.3,1,1,0,0,1,.39.89,1.06,1.06,0,0,1-.79,1.08l1,1.48h-1.18l-.89-1.48v1.48H397v-3.75m1.18,1.77c.39,0,.59-.1.59-.49s-.2-.49-.59-.49H398v1Z" transform="translate(-374.69 -469.51)" style="fill:#fff"/><rect x="25.9" y="78.98" width="0.99" height="3.65" style="fill:#fff"/><polygon points="28.57 79.86 27.68 79.86 27.68 78.98 30.34 78.98 30.34 79.86 29.55 79.86 29.55 82.62 28.57 82.62 28.57 79.86" style="fill:#fff"/><path d="M406.61,548.48h1.28l1.28,3.65h-1l-.2-.69h-1.38l-.2.69h-1l1.18-3.65m1.08,2.27-.39-1.18a2,2,0,0,1-.1-.49,1.32,1.32,0,0,0-.1.49l-.39,1.18Z" transform="translate(-374.69 -469.51)" style="fill:#fff"/><path d="M410.75,551.44a.45.45,0,0,0,.49-.39c0-.3-.2-.39-.59-.49a1,1,0,0,1-1-1,1.16,1.16,0,0,1,1.14-1.19h.14a2,2,0,0,1,1.08.3l-.3.69a1.06,1.06,0,0,0-.69-.3c-.3,0-.39.1-.39.3s.3.3.59.39a1,1,0,0,1,1,1.08,1.22,1.22,0,0,1-1.15,1.29h-.23a2.08,2.08,0,0,1-1.28-.49l.49-.69a.63.63,0,0,0,.69.49" transform="translate(-374.69 -469.51)" style="fill:#fff"/><path d="M414.3,548.48h1.08l.69,2.07a1.19,1.19,0,0,1,.1.49,1.73,1.73,0,0,0,.1-.49l.69-2.07H418l-1.58,3.65h-.79l-1.38-3.65" transform="translate(-374.69 -469.51)" style="fill:#fff"/><rect x="44.05" y="78.98" width="0.99" height="3.65" style="fill:#fff"/><polygon points="46.61 79.86 45.82 79.86 45.82 78.98 48.38 78.98 48.38 79.86 47.59 79.86 47.59 82.62 46.61 82.62 46.61 79.86" style="fill:#fff"/><path d="M424.65,548.48h1.28l1.28,3.65h-1l-.2-.69h-1.38l-.2.69h-1l1.18-3.65m1.18,2.27-.39-1.18a2,2,0,0,1-.1-.49,1.32,1.32,0,0,0-.1.49l-.39,1.18Z" transform="translate(-374.69 -469.51)" style="fill:#fff"/><path d="M404.44,537c.2.3.39,1.68-.79,1.77a11.15,11.15,0,0,1-3,0s2.66-.39,3.75-1.77" transform="translate(-374.69 -469.51)" style="fill:#e3a222"/><path d="M413.51,495.64c.1-1.68.89-2.07,2-2h3.75a3,3,0,0,0-3,2.37c-.2,1.48-.2,6.7-.2,8.87a20.8,20.8,0,0,0-2.86.1c.1-2.27.2-7.69.3-9.37" transform="translate(-374.69 -469.51)" style="fill:#e3a222"/><rect x="27.78" y="17.65" width="0.49" height="2.07" style="fill:#e3a222"/><polygon points="28.37 17.16 27.78 15.68 27.78 17.16 28.37 17.16" style="fill:#e3a222"/></svg>