<svg xmlns="http://www.w3.org/2000/svg" viewBox="0 0 127.47 195.24"><title>University of Glasgow crest vector</title><path d="M448.63,414.75H575.26s.23,59.9,0,103.4c0,32.11-39.63,67.41-63.32,68.55-26.19-2-63.32-38.95-63.32-68.33V414.75Z" transform="translate(-448.26 -414.38)" style="fill:#133759"/><path d="M448.63,414.75H575.26s.23,59.9,0,103.4c0,32.11-39.63,67.41-63.32,68.55-26.19-2-63.32-38.95-63.32-68.33V414.75Z" transform="translate(-448.26 -414.38)" style="fill:none;stroke:#fff;stroke-width:0.7400000095367432px"/><rect x="62.77" y="44.1" width="4.1" height="111.37" style="fill:#addef8"/><path d="M537.69,496.74H557.5c5.92,0,6.38.91,6.83,2-.23-2-1.59-11.84-2.28-19.13a22.41,22.41,0,0,0-3.42-10.25,6.38,6.38,0,0,0-3-2.28c.23-.46,1.82-4.33,3-7.74a3.21,3.21,0,0,0-1.37-4.1,6.83,6.83,0,0,0-3.64-.68H539.51c-3.64,0-5.24,2.28-4.33,5,.91,2,2.28,5.69,3,7.29-4.56,1.59-5.92,7.52-6.6,13-1.14,8.88-2.51,20.73-2.73,21.64s-.46,2,1.59,2c3.42.23,7.74.23,14.58,0a4.85,4.85,0,0,0,2.73.68,3.67,3.67,0,0,0,2.51-.68c2.73,0,6.15-.23,9.79-.46-3.19,0-6.38-.23-9.11-.23a6.24,6.24,0,0,0,.91-3.42c-.46,4.56-6.38,4.1-5-.68a5.49,5.49,0,0,0-3.42.91,3.69,3.69,0,0,0,.46,3c-3.87-.23-7.06-.23-9.57-.46-1.14,0-1.82-.91-1.14-1.82,2.51-3,2.73-3.64,4.56-3.64m1.82-38.95h13.21c1.14,0,3.19-.46,2,2.28-.91,2.28-2.28,5.47-3,6.83h-10c-.68-1.59-1.59-3.64-2.73-6.38-.68-1.59-.91-2.73.46-2.73" transform="translate(-448.26 -414.38)" style="fill:#ffd028"/><path d="M511.95,569.39a2.1,2.1,0,0,1-1.9,2.27h-.14a2.28,2.28,0,0,1-2-2.28V558.23a2.1,2.1,0,0,1,1.9-2.27h.14a2.28,2.28,0,0,1,2,2.28v11.16" transform="translate(-448.26 -414.38)" style="fill:#fff"/><path d="M484.85,438a7.74,7.74,0,0,1,2.28-.23,5.15,5.15,0,0,0-2.28-1.14c-1.14-4.33-7.52-3.19-8.2.68-.23,1.37-5.24,2-10.93,9.79a34.28,34.28,0,0,1-7.52,7.29c-1.14.68,1.59.46,3-.91,1.14,1.14,3.42-2.28,7.06-3,.91-.23,12.53-2.28,9.57-8.88,4.1,5.24-2.73,9.11-7.06,9.34a13.32,13.32,0,0,0,3,.46c.68.23-.23.91.23,1.37a21,21,0,0,1,3.64,3s1.37-.46.68-1.14a8.86,8.86,0,0,1-3-2.51,1,1,0,0,1,.68-1.59,8.22,8.22,0,0,0,6.91-9.35q0-.22-.08-.44c-.46-.68.46-2,2-2.73" transform="translate(-448.26 -414.38)" style="fill:#e3a222"/><path d="M483.94,436.84a.61.61,0,0,1-.54.68h-.15a.73.73,0,0,1-.68-.68.61.61,0,0,1,.54-.68h.15a.73.73,0,0,1,.68.68" transform="translate(-448.26 -414.38)" style="fill:#133759"/><rect x="65.51" y="141.12" width="2.05" height="15.71" style="fill:#fff"/><path d="M517.87,573.72a3.42,3.42,0,0,0,.91-2.51,3.6,3.6,0,0,0-3.55-3.64h-6.47a3.6,3.6,0,0,0-3.64,3.55s0,.06,0,.09a4.78,4.78,0,0,0,.91,2.51l-2.51,2.51a26.67,26.67,0,0,0,16.85,0,26,26,0,0,0-2.51-2.51" transform="translate(-448.26 -414.38)" style="fill:#ffd028"/><path d="M511.95,445h0c-2.73-2.51-11.62-3.64-17.31-2a19.25,19.25,0,0,1,1.14,3.87,22.78,22.78,0,0,1,16.17,1.37h0a22.78,22.78,0,0,1,16.17-1.37,19.24,19.24,0,0,1,1.14-3.87c-5.69-1.37-14.58-.23-17.31,2" transform="translate(-448.26 -414.38)" style="fill:#addef8"/><rect x="66.19" y="44.1" width="1.14" height="86.32" style="fill:#fff"/><rect x="59.81" y="44.1" width="4.1" height="80.17" style="fill:#fff"/><path d="M516,489.22a7.42,7.42,0,0,0,0-3.87h-6.6a21.36,21.36,0,0,1,6.6,3.87" transform="translate(-448.26 -414.38)" style="fill:#133759"/><path d="M501.93,560.51c2.28.23,14.35.91,14.35.91l2,5c-.23.23-10.7,0-16.4-5.92" transform="translate(-448.26 -414.38)" style="fill:#133759"/><path d="M551.12,524.07c-3.64-2.51-8.43-.46-13.21-4.78,0,12.75,9.34,15.49,4.1,18.9a21.45,21.45,0,0,1-13.89,3.42c.46-.68,1.14-1.82,1.59-2.51a59.22,59.22,0,0,0-13,0c-7.29-2-15.26-4.78-24.83-5a9.61,9.61,0,0,1,3.42,8.2c-1.37-5.69-7.52-8.65-10.48-9.79l-2.51-.68a5.19,5.19,0,0,1-3,2,1.16,1.16,0,0,0-1.54.56l0,.12V535c-.91,1.14-3.64.68-5.69-.23-2.51-.91-2.28.91-1.82,1.59.68,1.37,1.59,2.28,1.82,3,3.19,6.6,5.69,10.93,12.75,15a44.16,44.16,0,0,0,23.91,8,39,39,0,0,0,19.59,1.59,9.38,9.38,0,0,1-4.1-3.64c11.62-3.42,21.64-10.93,25.74-22.32a.46.46,0,0,1,.23-.46c.68-2.51-1.59-5.92-5.24-2.51,3-7.29,8-4.1,6.83.23,3.87-5.24,9.34-10.93,16.4-13.21-6.6-3-13-.23-17.08,2" transform="translate(-448.26 -414.38)" style="fill:#addef8"/><path d="M516,512.91a7.42,7.42,0,0,0,0-3.87h-6.38a15.42,15.42,0,0,1,6.38,3.87" transform="translate(-448.26 -414.38)" style="fill:#133759"/><path d="M518.78,505.17a3.67,3.67,0,0,1-3.68,3.65h-6.57a3.8,3.8,0,0,1-3.87-3.64,3.67,3.67,0,0,1,3.68-3.65h6.57a3.67,3.67,0,0,1,3.87,3.46q0,.09,0,.19" transform="translate(-448.26 -414.38)" style="fill:#ffd028"/><path d="M514.91,507.67h-7.06a13.92,13.92,0,0,0,8.65-3.87,2.28,2.28,0,0,1-1.59,3.87" transform="translate(-448.26 -414.38)" style="fill:#e3a222"/><path d="M516.28,536.83a7.42,7.42,0,0,0,0-3.87H509.9a17.63,17.63,0,0,1,6.38,3.87" transform="translate(-448.26 -414.38)" style="fill:#133759"/><path d="M518.78,529.08a3.67,3.67,0,0,1-3.68,3.65h-6.57a3.8,3.8,0,0,1-3.87-3.64,3.67,3.67,0,0,1,3.68-3.65h6.57a3.67,3.67,0,0,1,3.87,3.46q0,.09,0,.19" transform="translate(-448.26 -414.38)" style="fill:#ffd028"/><path d="M514.91,531.59h-7.06a13.92,13.92,0,0,0,8.65-3.87,2.28,2.28,0,0,1-1.59,3.87" transform="translate(-448.26 -414.38)" style="fill:#e3a222"/><rect x="57.99" y="50.02" width="11.39" height="11.16" style="fill:#ffd028"/><path d="M517.64,475.56a2.44,2.44,0,0,0-1.82,2.73h-7.52a2.69,2.69,0,0,0-1.82-2.73h11.16" transform="translate(-448.26 -414.38)" style="fill:#e3a222"/><rect x="64.6" y="50.02" width="2.96" height="11.39" style="fill:#e3a222"/><path d="M476.19,526.35a5,5,0,0,0-2.73,3,6.31,6.31,0,0,0,0,4.1,3.53,3.53,0,0,0,1.82,1.82A3.8,3.8,0,0,0,478,535a5,5,0,0,0,2.73-3,4.4,4.4,0,0,0-1.82-5.92,3.8,3.8,0,0,0-2.73.23m-.23,7.52a1.87,1.87,0,0,1-1.14-1.14,3.37,3.37,0,0,1,0-3,5,5,0,0,1,2-2.28,1.94,1.94,0,0,1,1.59,0,2.28,2.28,0,0,1,1.37,2.28,3.87,3.87,0,0,1-.23,1.59,5,5,0,0,1-2,2.28,2,2,0,0,1-1.59.23" transform="translate(-448.26 -414.38)" style="fill:#ffd028"/><path d="M478,533.41a13.53,13.53,0,0,0-4.1-.68,2.73,2.73,0,0,1-2.51-1.14.89.89,0,0,1,.91-.46,28.06,28.06,0,0,1,7.06.46,7.47,7.47,0,0,1-1.37,1.82" transform="translate(-448.26 -414.38)" style="fill:#addef8"/><path d="M482.8,443a7.47,7.47,0,0,1-5.69,7.74c.46-1.37,2.28-7.29,5.69-7.74" transform="translate(-448.26 -414.38)" style="fill:#e63421"/><path d="M519,481.48a3.67,3.67,0,0,1-3.68,3.65h-6.57a3.8,3.8,0,0,1-3.87-3.64,3.67,3.67,0,0,1,3.68-3.65h6.57a3.8,3.8,0,0,1,3.87,3.64" transform="translate(-448.26 -414.38)" style="fill:#ffd028"/><path d="M515.14,484h-7.06a13.92,13.92,0,0,0,8.65-3.87,2.28,2.28,0,0,1-1.59,3.87" transform="translate(-448.26 -414.38)" style="fill:#e3a222"/><path d="M489.86,535.69a14.71,14.71,0,0,1,5.47,6.83,6.83,6.83,0,0,0-.46-5.92c3.64-1.14,10.25.68,15.94,3,8.65,3.42,15,4.56,21.41,3.42s10-2.51,12.07-5.69c1.14-1.82,4.33-1.37,3.42,1.14s-5,10-12.53,12.07a72,72,0,0,1-38.95.91c-5-1.37-16.63-4.33-21.41-10.48a15.94,15.94,0,0,1-1.37-3.87c0-.46.23-.68,1.37-.46,3.19.68,3.87-.68,5.24-2a12.16,12.16,0,0,1,9.79,1.14" transform="translate(-448.26 -414.38)" style="fill:#fff"/><path d="M546.57,537.74c-5.69,10.93-16.63,12.53-28.24,12.75a50.77,50.77,0,0,1-13.44-1.37,22.78,22.78,0,0,0,9.11-.68c-.91-4.33-8.2-7.52-13.44-7.74a7.65,7.65,0,0,0-3.64-3.42,14.85,14.85,0,0,1,2.28,4.78c4.33.91,9.34,2,11.84,5.24-.91,1.14-8.43.46-12.75-.46a9.38,9.38,0,0,1-4.78-3.64c-2,2.28-5.24,1.37-8.43-.23a2.89,2.89,0,0,0-2.51-2.73,2.28,2.28,0,0,1,.46,1.59c-3.64-2-7.29-4.78-8.88-4.56-2.51.23,5.47,14.12,12.07,15.71,19.81,11.39,53.29,6.38,61-13,1.59-3,.46-4.78-.68-2.28" transform="translate(-448.26 -414.38)" style="fill:#0098d6"/><path d="M483.71,541.61a2.66,2.66,0,0,1-2,2.51,2,2,0,0,1-2.51-2,2.44,2.44,0,0,1,2-2.51,2.66,2.66,0,0,1,2.51,2" transform="translate(-448.26 -414.38)" style="fill:#fff"/><path d="M482.57,541.84a1.14,1.14,0,1,1-1.14-1.14,1.23,1.23,0,0,1,1.14,1.14" transform="translate(-448.26 -414.38)" style="fill:#133759"/><path d="M539.51,522c-1.37,4.78,4.56,11.16,4.56,11.16A71.2,71.2,0,0,0,539.51,522" transform="translate(-448.26 -414.38)" style="fill:#fff"/><path d="M543.61,522.93c-2,2.73,1.82,9.11,1.82,9.11a33.43,33.43,0,0,0-1.82-9.11" transform="translate(-448.26 -414.38)" style="fill:#fff"/><path d="M550,530.22a16.88,16.88,0,0,1,8.2-8.2c-7.06.91-8.65,5.47-8.2,8.2" transform="translate(-448.26 -414.38)" style="fill:#fff"/><path d="M511.95,425.68c-3-5.69-7.06-1.37-14.58-3.64-1.37,6.15-2.51,16.85-3,18.68,5,1.59,9.57-3.19,15.49.68A36.05,36.05,0,0,1,511.72,427a4,4,0,0,1,.23-1.37" transform="translate(-448.26 -414.38)" style="fill:#fff"/><path d="M511.95,425.68a11,11,0,0,0-2-2.51c-.91,9.34-1.14,11.39-4.1,16.85a8.56,8.56,0,0,1,4.1,1.59,30.93,30.93,0,0,1,2-13.89v-2" transform="translate(-448.26 -414.38)" style="fill:#addef8"/><path d="M526.53,422c-7.29,2.28-11.62-2-14.58,3.64v17.54c7.06-6.6,11.84-.68,17.54-2.28-.46-2-1.59-13-3-18.9" transform="translate(-448.26 -414.38)" style="fill:#fff"/><rect x="61.64" y="39.32" width="4.1" height="4.78" style="fill:#ffd028"/><polygon points="63.69 34.76 65.73 38.18 61.63 38.18 63.69 34.76" style="fill:#ffd028"/><path d="M477.33,463.26h0" transform="translate(-448.26 -414.38)" style="fill:#008b3b"/><path d="M494,486.49s5.69-2.73,6.15-5.69A12.89,12.89,0,0,0,494,479s5-3.87,4.78-6.6a15.94,15.94,0,0,0-7.06-.46,10.77,10.77,0,0,0,2.51-7.29,15.19,15.19,0,0,0-6.6,1.14s1.37-4.78,0-7.29c-2.51-.68-5.92,3.64-5.92,3.64a19.22,19.22,0,0,0-4.1-8.2,18.22,18.22,0,0,0-4.1,8.2s-3.42-4.33-5.92-3.64c-1.37,2.51,0,7.29,0,7.29a16.08,16.08,0,0,0-6.6-1.14,12.12,12.12,0,0,0,2.51,7.29,15.94,15.94,0,0,0-7.06.46c-.23,2.73,4.78,6.6,4.78,6.6A12.89,12.89,0,0,0,455,480.8c.46,3,6.15,5.69,6.15,5.69a11.39,11.39,0,0,0-5.47,3,12.23,12.23,0,0,0,6.6,3.87,13.07,13.07,0,0,0-3.64,3.87c3.19,2.51,10,3,16.85.91,0,1.37,0,11.84-1.59,16.63h6.83c-1.59-4.78-1.59-15.26-1.59-16.63,6.83,2,13.44,1.82,16.85-.91a13.07,13.07,0,0,0-3.64-3.87,12.23,12.23,0,0,0,6.6-3.87,9.82,9.82,0,0,0-5-3" transform="translate(-448.26 -414.38)" style="fill:#86bc25"/><path d="M487.81,486.72a12.5,12.5,0,0,0,5.69-4.33,10.11,10.11,0,0,0-5.69-1.59,12.82,12.82,0,0,0,4.56-5.69,12.25,12.25,0,0,0-6.15,0,20.16,20.16,0,0,0,3-6.6,17.33,17.33,0,0,0-5.92,1.82,11.39,11.39,0,0,0,.91-6.83,6.22,6.22,0,0,0-3.42,3A5.51,5.51,0,0,0,478,463a9.27,9.27,0,0,0-1.59,6.15,8.77,8.77,0,0,1,2.51-1.82,12,12,0,0,1-.68,6.83,10.61,10.61,0,0,1,4.1-1.37,10.86,10.86,0,0,1-3,7.29,12.75,12.75,0,0,1,4.33-1.37,11.39,11.39,0,0,1-4.33,7.06,7.56,7.56,0,0,1,5,0,10.25,10.25,0,0,1-5.24,5,8.15,8.15,0,0,1,4.33.91,8.4,8.4,0,0,1-5.47,3.42,21.34,21.34,0,0,0,12.3,1.37,7,7,0,0,0-3.64-3.64,14.23,14.23,0,0,0,6.15-2.73,9.5,9.5,0,0,0-5-3.42" transform="translate(-448.26 -414.38)" style="fill:#008e3c"/><path d="M465,578.28c.91,3.19-1.59,9.34.23,13-1.59,0-11.39,1.82-12.75.46s-5.24-3.87-1.37-6.15c3.64-1.82,13.44-5.69,13.89-7.29" transform="translate(-448.26 -414.38)" style="fill:#addef8"/><path d="M559.09,578c1.14,10.25-.68,11.39-.46,14.35.91.23,8.88,1.82,11.62.46s4.78-5,3.42-6.6a30.29,30.29,0,0,0-10.25-5.92,10.39,10.39,0,0,1-4.33-2.28" transform="translate(-448.26 -414.38)" style="fill:#addef8"/><path d="M571.39,583.06c-4.33-2.28-10.48-3.64-14.12-8.65-1.37,5,1.82,7.74,1.82,15,3-5.69.46-7.06,1.14-9.57,2.51,3.19,6.15,3.64,8.65,4.78,3.19,1.59,5.24,5.47-1.59,5.47H456.83c-6.83,0-5-3.64-1.59-5.47,2.51-1.37,6.15-1.82,8.65-5,.46,2.73-2,4.1.91,9.57-.23-7.29,3.19-10,1.82-14.8-3.64,4.78-10,6.15-14.35,8.65-3.64,1.82-3.64,3.19-3.64,9.34v13c0,2.51,3,3.87,6.38,3.87H568.89c3.42,0,6.38-1.37,6.38-3.87v-13c0-6.38-.23-7.52-3.87-9.34" transform="translate(-448.26 -414.38)" style="fill:#133759"/><path d="M571.39,583.06c-4.33-2.28-10.48-3.64-14.12-8.65-1.37,5,1.82,7.74,1.82,15,3-5.69.46-7.06,1.14-9.57,2.51,3.19,6.15,3.64,8.65,4.78,3.19,1.59,5.24,5.47-1.59,5.47H456.83c-6.83,0-5-3.64-1.59-5.47,2.51-1.37,6.15-1.82,8.65-5,.46,2.73-2,4.1.91,9.57-.23-7.29,3.19-10,1.82-14.8-3.64,4.78-10,6.15-14.35,8.65-3.64,1.82-3.64,3.19-3.64,9.34v13c0,2.51,3,3.87,6.38,3.87H568.89c3.42,0,6.38-1.37,6.38-3.87v-13c0-6.38-.23-7.52-3.87-9.34" transform="translate(-448.26 -414.38)" style="fill:none;stroke:#fff;stroke-width:0.7400000095367432px"/><path d="M455,595.36h2.51l1.59,4.78a2.76,2.76,0,0,1,.23,1.14,4,4,0,0,0,.23-1.14l1.59-4.78h2.51l-3.42,8.43h-1.82L455,595.36" transform="translate(-448.26 -414.38)" style="fill:#fff"/><rect x="16.77" y="180.98" width="2.28" height="8.43" style="fill:#fff"/><path d="M471.86,595.36h3l3,8.43h-2.28l-.46-1.59h-3.42l-.46,1.59H468.9l3-8.43m2.51,5.24-.91-2.73a4.56,4.56,0,0,1-.23-1.14,3.05,3.05,0,0,0-.23,1.14l-.91,2.73Z" transform="translate(-448.26 -414.38)" style="fill:#fff"/><path d="M482.11,595.36h2.51l1.59,4.78a2.76,2.76,0,0,1,.23,1.14,4,4,0,0,0,.23-1.14l1.59-4.78h2.51l-3.64,8.43H485.3l-3.19-8.43" transform="translate(-448.26 -414.38)" style="fill:#fff"/><polygon points="43.87 180.98 49.11 180.98 49.11 182.8 46.15 182.8 46.15 184.39 48.88 184.39 48.88 186.22 46.15 186.22 46.15 187.58 49.11 187.58 49.11 189.41 43.87 189.41 43.87 180.98" style="fill:#fff"/><path d="M499.42,595.36h2.73a3.55,3.55,0,0,1,2.73.68,2.28,2.28,0,0,1,.91,2A2.46,2.46,0,0,1,504,600.6l2.28,3.42h-2.73l-2-3.42V604h-2v-8.65m2.73,4.1c.91,0,1.37-.23,1.37-1.14s-.46-1.14-1.37-1.14h-.46v2.28Z" transform="translate(-448.26 -414.38)" style="fill:#fff"/><rect x="59.36" y="180.98" width="2.28" height="8.43" style="fill:#fff"/><polygon points="65.51 183.03 63.46 183.03 63.46 180.98 69.61 180.98 69.61 183.03 67.78 183.03 67.78 189.41 65.51 189.41 65.51 183.03" style="fill:#fff"/><path d="M521.52,595.36h3l3,8.43h-2.28l-.46-1.59h-3.19l-.46,1.59h-2.28l2.73-8.43M524,600.6l-.91-2.73a4.55,4.55,0,0,1-.23-1.14,3.05,3.05,0,0,0-.23,1.14l-.91,2.73Z" transform="translate(-448.26 -414.38)" style="fill:#fff"/><path d="M531.08,602.19a1,1,0,0,0,1.14-.91c0-.68-.46-.91-1.37-1.14a2.28,2.28,0,0,1-2.28-2.28,2.69,2.69,0,0,1,2.63-2.75h.33a4.55,4.55,0,0,1,2.51.68l-.68,1.59a2.46,2.46,0,0,0-1.59-.68c-.68,0-.91.23-.91.68s.68.68,1.37.91a2.28,2.28,0,0,1,2.28,2.51,2.82,2.82,0,0,1-3.19,3,4.81,4.81,0,0,1-3-1.14l1.14-1.59a1.46,1.46,0,0,0,1.59,1.14" transform="translate(-448.26 -414.38)" style="fill:#fff"/><path d="M539.28,595.36h2.51l1.59,4.78a2.76,2.76,0,0,1,.23,1.14,4,4,0,0,0,.23-1.14l1.59-4.78h2.51l-3.64,8.43h-1.82l-3.19-8.43" transform="translate(-448.26 -414.38)" style="fill:#fff"/><rect x="101.26" y="180.98" width="2.28" height="8.43" style="fill:#fff"/><polygon points="107.19 183.03 105.36 183.03 105.36 180.98 111.29 180.98 111.29 183.03 109.46 183.03 109.46 189.41 107.19 189.41 107.19 183.03" style="fill:#fff"/><path d="M563.19,595.36h3l3,8.43h-2.28l-.46-1.59h-3.19l-.46,1.59h-2.28l2.73-8.43m2.73,5.24-.91-2.73a4.55,4.55,0,0,1-.23-1.14,3.05,3.05,0,0,0-.23,1.14l-.91,2.73Z" transform="translate(-448.26 -414.38)" style="fill:#fff"/><path d="M516.5,568.94c.46.68.91,3.87-1.82,4.1a25.76,25.76,0,0,1-6.83,0s6.15-.91,8.65-4.1" transform="translate(-448.26 -414.38)" style="fill:#e3a222"/><path d="M537.46,473.28c.23-3.87,2-4.78,4.56-4.56h8.65a6.83,6.83,0,0,0-6.83,5.47c-.46,3.42-.46,15.49-.46,20.5a48.05,48.05,0,0,0-6.6.23c.23-5.24.46-17.76.68-21.64" transform="translate(-448.26 -414.38)" style="fill:#e3a222"/><rect x="63.69" y="39.32" width="1.14" height="4.78" style="fill:#e3a222"/><polygon points="65.05 38.18 63.69 34.76 63.69 38.18 65.05 38.18" style="fill:#e3a222"/></svg>