<?xml version="1.0" encoding="utf-8"?>
<!-- Generator: Adobe Illustrator 21.1.0, SVG Export Plug-In . SVG Version: 6.00 Build 0)  -->
<svg version="1.1" xmlns="http://www.w3.org/2000/svg" xmlns:xlink="http://www.w3.org/1999/xlink" x="0px" y="0px"
	 viewBox="0 0 566.9 144.7" style="enable-background:new 0 0 566.9 144.7;" xml:space="preserve">
<style type="text/css">
	.st0{fill:#1F2B7D;}
	.st1{fill:none;}
	.st2{fill:#FFFFFF;}
	.st3{fill:url(#SVGID_1_);}
	.st4{fill:url(#SVGID_2_);}
	.st5{fill:url(#SVGID_3_);}
	.st6{fill:url(#SVGID_4_);}
	.st7{fill:#A17205;}
	.st8{fill:url(#SVGID_5_);}
	.st9{fill:url(#SVGID_6_);}
	.st10{display:none;}
	.st11{display:inline;}
</style>
<g id="Layer_1">
	<g>
		<g>
			<g>
				<g>
					<path class="st0" d="M94.1,2.9c0,0-17.8-2.9-46.3-2.9h0C19.4,0,1.6,2.9,1.6,2.9S-8,73.7,19.9,116.1
						c9.5,14.4,27.9,28.5,27.9,28.6h0l0,0l0,0l0,0l0,0h0c0.1,0,18.5-14.2,27.9-28.6C103.8,73.7,94.1,2.9,94.1,2.9z"/>
				</g>
			</g>
			<g>
				<path d="M7.8,19.3C7.9,19.7,8,19.9,8,19.9c0.6-0.9,1.8-1,2.6-0.9C10,18.8,8.7,18.7,7.8,19.3z"/>
				<g>
					<g>
						<path class="st1" d="M10.7,24.4c0.1,0.1,0.2,0.2,0.3,0.2C10.9,24.6,10.8,24.5,10.7,24.4C10.7,24.4,10.7,24.4,10.7,24.4z"/>
					</g>
					<path d="M10.8,22.1C10.8,22.1,10.8,22.1,10.8,22.1c0.1,0,0.1,0,0.2,0.1c0,0,0,0,0,0c0,0,0.1,0,0.1,0c0,0,0-0.1,0-0.1
						c-0.4-0.1-0.9-0.3-1-0.3c-0.1,0-0.1,0-0.2,0C10.2,21.9,10.5,22,10.8,22.1C10.8,22.1,10.8,22.1,10.8,22.1z M9.7,25.5
						C9.7,25.5,9.6,25.5,9.7,25.5c-0.1,0-0.1,0-0.1,0c0,0,0,0,0,0c0,0,0,0,0,0c0,0,0,0,0,0c0,0,0,0,0,0c0,0,0,0,0,0l0,0
						c0,0.1,0,0.1,0,0.1c0.1-0.1,0.3-0.1,0.4-0.2C9.8,25.5,9.7,25.5,9.7,25.5C9.7,25.5,9.7,25.5,9.7,25.5z M21.3,40.7
						c0.2,0.2,0.4,0.3,0.5,0.4c0,0,0,0,0.1,0.1c0.1,0.1,0.2,0.2,0.2,0.3c0.1,0.1,0.1,0.1,0.2,0.2c0,0,0,0,0.1,0.1
						c0.3,0.3,0.5,0.7,0.5,1.1v-1.2c-0.3-0.3-0.5-0.5-0.7-0.7L21.3,40.7z M31.3,30.9l1.1,4.4c-0.1,0-0.2,0-0.3,0c0,0,0,0,0,0
						c-0.1,0-0.2,0-0.3,0c0,0-0.1,0-0.1,0c-0.1,0-0.1,0-0.2,0c-0.1,0-0.1,0-0.2,0c0,0-0.1,0-0.1,0c-0.1,0-0.2,0-0.3,0c0,0,0,0-0.1,0
						c-0.3,0-0.6,0-0.9,0c0.2,0,0.4,0,0.6,0.1c0.9,0.1,1.7,0,2.5-0.1l-0.6-2.2L31.3,30.9z M17.9,17.5c-0.1,0-0.7-0.2-1-0.2
						c-0.3-0.1-0.7-0.3-1.2-0.3c-0.4,0-2.2,0.9-2.2,0.9c0.1,0,1.2-0.4,1.5-0.4c0.2,0,0.2,0,0.4,0c0,0.2,0.2,0.3,0.5,0.3
						c0.3,0,0.5-0.2,0.6-0.3c0.4,0.1,0.9,0.1,1.2,0.1C17.8,17.6,17.9,17.5,17.9,17.5z M20,25.4c0,0,0.1,0,0.1,0.1c0,0,0,0,0.1,0
						c0,0,0.1,0,0.1,0.1c0.1,0,0.1,0.1,0.2,0.1c0,0,0.1,0,0.1,0c0,0,0.1,0.1,0.1,0.1c0,0,0.1,0,0.1,0c0.1,0,0.2,0.1,0.2,0.1
						c0,0,0,0,0,0c0,0,0,0,0,0c0,0,0,0,0.1,0h0c0.3,0.2,1.1,0.6,2.1,0.6c-0.9-0.2-1.6-0.6-1.6-0.6c-1-0.6-1.6-0.8-1.9-0.7
						C19.9,25.4,19.9,25.4,20,25.4L20,25.4z M11.2,24.8C11.2,24.8,11.2,24.8,11.2,24.8c-0.1-0.1-0.1-0.1-0.2-0.2
						c-0.2,0.4-0.4,0.6-0.6,0.7c0,0-0.1,0-0.1,0c0,0,0,0-0.1,0c0,0,0,0,0,0c0,0-0.1,0-0.1,0c0,0,0,0,0,0c0,0-0.1,0-0.1,0
						c0.2,0,0.5,0,0.8-0.1C10.9,25.3,11.1,25.1,11.2,24.8C11.2,24.9,11.2,24.8,11.2,24.8C11.2,24.8,11.2,24.8,11.2,24.8z M12.2,22.5
						c0.3-0.6,0.5-1.3,0.5-2.3c0,0,0,0,0,0l0-1c0,0,0-0.1,0-0.1h0l0-0.1c0,0-0.2-0.5-0.6-0.3c0,0,0.2,0.1,0.2,0.5c0,0.4,0,1,0,1
						c-0.1,0.8-0.3,1.6-0.5,2.3c0.1,0.1,0.3,0.3,0.4,0.4c0.1,0.1,0.3,0.4,0.2,0.8c-0.2,0.4-0.4,1-0.6,1.1c0,0-0.1,0.1-0.1,0.2
						c0.1,0.2,0.2,0.4,0.2,0.4c0.1,0,0.1-0.4,0.3-0.6c0.1-0.2,0.4-0.7,0.6-1.1c0.1-0.4-0.1-0.7-0.2-0.8
						C12.4,22.7,12.3,22.6,12.2,22.5z M36.6,29l2.4,2.4c-0.1,0.1-0.2,0.2-0.3,0.3c0,0-0.1,0.1-0.1,0.1c-0.1,0.1-0.1,0.1-0.2,0.2
						c0,0-0.1,0.1-0.1,0.1c-0.1,0.1-0.1,0.1-0.2,0.2c0,0-0.1,0.1-0.1,0.1c-0.1,0.1-0.1,0.1-0.2,0.2c0,0-0.1,0.1-0.1,0.1
						c-0.1,0-0.1,0.1-0.2,0.1c-0.1,0-0.1,0.1-0.2,0.1c0,0-0.1,0.1-0.1,0.1c-0.1,0-0.1,0.1-0.2,0.1c0,0-0.1,0.1-0.1,0.1
						c-0.1,0-0.1,0.1-0.2,0.1c0,0-0.1,0.1-0.1,0.1c-0.1,0-0.1,0.1-0.2,0.1c0,0-0.1,0-0.1,0.1c-0.1,0.1-0.2,0.1-0.2,0.2c0,0,0,0,0,0
						c-0.6,0.4-1.3,0.7-2,1c0,0,0,0,0,0l0.1,0.2c2.2-0.6,4-2,5.5-3.7l-1.7-1.7L36.6,29z M44.7,18.2c-0.1,0.4-0.2,0.9-0.3,1.6
						c0,0,0,0,0,0.1c0,0.1,0,0.2-0.1,0.3c0,0.1,0,0.1,0,0.2c0,0.1,0,0.1,0,0.2c0,0.1,0,0.2-0.1,0.2c0,0,0,0.1,0,0.1
						c0,0.1-0.1,0.2-0.1,0.4c0,0,0,0.1,0,0.1c0,0.1-0.1,0.2-0.1,0.4c0,0,0,0,0,0c0,0.1-0.1,0.3-0.1,0.4c0,0,0,0,0,0.1
						c-0.1,0.3-0.2,0.6-0.3,0.9c0,0,0,0,0,0c-0.2,0.5-0.4,1-0.6,1.5l0.6,0.1c1.5-3.8,2-7.1,2-7.1C45.2,17.9,44.9,18.1,44.7,18.2z
						 M39.4,24.3l3.1,1.4c-0.1,0.2-0.2,0.4-0.3,0.6c-0.6,1.4-1.4,2.9-2.4,4.2c0,0,0,0,0,0l0.5,0.3c1.2-1.5,2.1-3.3,2.9-5l-3-1.3
						L39.4,24.3z M25.2,40.5c-0.1,0-0.2,0-0.3,0c0,0,0,0,0,0c-0.1,0-0.2,0-0.2,0c-0.1,0-0.1,0-0.2,0c-1.4,3-0.4,6.8-0.4,6.8
						c0.1,0,0.1,0,0.2,0c2,0.5,3.8,1.4,4.1,1.6c0.2,0,0.4,0,0.6,0c0,0-2-1.2-4.3-1.6C24.7,47.5,23.6,43.5,25.2,40.5z M20.4,48.8
						c-0.1,0-0.2,0-0.3,0c0,0,0,0,0,0c-0.1,0-0.2,0-0.3,0.1c0,0,0,0,0,0c-0.1,0-0.2,0.1-0.3,0.1c0,0,0,0,0,0c-0.1,0-0.2,0.1-0.3,0.1
						c0,0,0,0,0,0c-0.1,0-0.2,0.1-0.3,0.1c0,0,0,0,0,0c-0.1,0-0.2,0.1-0.3,0.1c0,0,0,0,0,0c-0.2,0.1-0.4,0.2-0.5,0.3
						c-0.1,0.2-0.1,0.3-0.1,0.5c0,0,1.7-1.2,3.2-1.3c2.4-0.2,3.8,0,6.7,0.2C24.4,48.7,22.9,48.5,20.4,48.8z"/>
					<path class="st2" d="M16.4,17.5c-0.1,0.1-0.3,0.3-0.6,0.3c-0.3,0-0.5-0.1-0.5-0.3c-0.1,0-0.1,0-0.4,0c-0.2,0-1.4,0.4-1.5,0.4
						c0,0,1.8-0.9,2.2-0.9c0.5,0,0.9,0.2,1.2,0.3c0.3,0.1,1,0.2,1,0.2c0.1,0-0.1,0.1-0.3,0.1C17.3,17.7,16.8,17.7,16.4,17.5z
						 M22.8,42.8c0-0.3-0.2-0.7-0.5-1.1c0,0,0,0-0.1-0.1c-0.1-0.1-0.1-0.2-0.2-0.2c-0.1-0.1-0.2-0.2-0.2-0.3c0,0,0,0-0.1-0.1
						c-0.1-0.1-0.3-0.3-0.5-0.4l1.5,0.4V42.8z M44.8,17.7c-4.9,3.6-14.9,3.5-16.5,3.9c-1.6,0.4-1.1,1.5-1.1,1.5
						C25,28.8,21.1,26,21.1,26c-3-1.9-2.5,0.1-1.3,2.4c-4.7-0.6-0.8-7.1,0.8-8.4c1.8-1.3,3.7-5.1,3.7-5.1c-0.6,0.6-2.3,1.8-6.9,0.9
						c-2-0.4-3.5,0.9-3.5,0.9c-8.9-0.8-6.6,3.1-6.6,3.1C8.3,18.3,11,19,11,19c0,0.5,0.3,0.8,0.6,1c-0.1,0.6-0.2,1.4-0.5,2.2
						c-0.3-0.1-1.1-0.4-1.4-0.4c-0.7,0.1-0.6,1.1-1.4,1.4c0.1,0.2,0.4,0.4,0.8,0.5c-0.3,0.4-0.3,1-0.3,1.1c0,0.3,0.2,0.4,0.2,0.5
						c0,0.2,0,0.4,0,0.4c0.2-0.1,0.4-0.2,0.6-0.2c0.1,0,0.6,0,0.8-0.1c0.2-0.1,0.4-0.3,0.6-0.7c0.1,0,0.1,0.1,0.1,0.1
						c0.1,0.1,0.3,0.5,0.3,0.6c0.1,0,0.1-0.4,0.3-0.6c0.1-0.2,0.4-0.7,0.6-1.1c0.1-0.4-0.1-0.7-0.2-0.8c-0.1-0.1-0.3-0.3-0.4-0.4
						c0.2-0.7,0.4-1.4,0.5-2.3l0,0c0,0,0-0.7,0-1c0-0.4-0.2-0.5-0.2-0.5c0.3-0.3,0.6,0.3,0.6,0.3l0,1.2c0.5,0,0.8-0.2,0.8-0.2
						s2.9-0.3,3.3,0.4c0.4,0.7,0.3,2.6-2.3,7.2c-2.8,5,0.2,9.9,4.3,12c1.4,1,4.3,3.6,3.9,7c0,0-5.3,1.1-5.5,3.4c0,0,1.7-1.2,3.2-1.3
						c2.7-0.2,4.2-0.1,8.1,0.3c0,0-2.1-1.2-4.4-1.7c0,0-1-3.8,0.4-6.8c0.1,0,0.1,0,0.2,0c1.7-0.4,4.8,1.3,4.8,1.3l-0.7-1.8
						c3.2,0.5,4.8,4.3,4.8,4.3c-0.1-3.2-2.2-6.4-4.7-9.1c0.4,0.1,0.7,0.1,1,0.1c0.9,0.1,1.7,0,2.5-0.1l-1.1-4.4l2.2,4.1
						c2.2-0.6,4-2,5.5-3.7L36.6,29l3,1.6c1.2-1.5,2.1-3.3,2.9-5l-3.1-1.4l3.4,0.5C44.3,21,44.8,17.7,44.8,17.7z"/>
					<path d="M20.6,20c-1.7,1.3-5.6,7.8-0.8,8.4c-3.7-1.2-0.1-7.1,1.5-8.3c1.8-1.3,3.7-5.1,3.7-5.1c-0.2,0.2-0.6,0.4-1,0.6
						C23.3,16.8,21.9,19.1,20.6,20z M29.4,35.4c-0.2,0-0.4,0-0.6-0.1c0.1,0.1,0.2,0.3,0.4,0.4c0,0,0,0,0.1,0.1
						c0.1,0.1,0.2,0.3,0.3,0.4c0,0,0,0,0.1,0.1c0.1,0.1,0.2,0.3,0.3,0.4c0,0,0,0,0,0c0.1,0.1,0.2,0.3,0.3,0.4c0,0,0,0,0,0
						c0.1,0.1,0.2,0.3,0.3,0.4c0,0,0,0,0,0.1c0.1,0.1,0.2,0.3,0.3,0.4c0,0,0,0,0,0.1c0.1,0.1,0.2,0.3,0.3,0.4c0,0,0,0,0,0
						c0.1,0.1,0.2,0.3,0.3,0.4c0,0,0,0,0,0c0.1,0.1,0.2,0.3,0.3,0.4c0,0,0,0.1,0,0.1c0.1,0.1,0.2,0.3,0.2,0.4c0,0,0,0.1,0,0.1
						c0.1,0.1,0.1,0.3,0.2,0.4c0,0,0,0,0,0.1c0.1,0.1,0.1,0.3,0.2,0.4c0,0,0,0.1,0,0.1c0.1,0.1,0.1,0.3,0.2,0.4c0,0,0,0.1,0.1,0.1
						c0,0.1,0.1,0.3,0.1,0.4c0,0.1,0,0.1,0,0.2c0,0.1,0.1,0.2,0.1,0.3c0,0.1,0,0.1,0.1,0.2c0,0.1,0,0.2,0.1,0.3c0,0,0,0.1,0,0.1
						c0.5,0.8,0.8,1.4,0.8,1.4C34.1,41.4,31.8,38,29.4,35.4z M28.7,40.1l0.6,1.6c0.4,0.2,0.7,0.4,0.7,0.4l-0.7-1.8
						C29.2,40.2,28.9,40.1,28.7,40.1z"/>
				</g>
				<g>
					<path class="st1" d="M22.1,40.9c0.2,0.2,0.4,0.4,0.7,0.7v-0.5L22.1,40.9z"/>
				</g>
			</g>
			<g>
				<path d="M52.5,19.3c0.1,0.3,0.2,0.6,0.2,0.6c0.6-0.9,1.8-1,2.6-0.9C54.7,18.8,53.4,18.7,52.5,19.3z"/>
				<g>
					<g>
						<path class="st1" d="M55.4,24.4c0.1,0.1,0.2,0.2,0.3,0.2C55.6,24.6,55.5,24.5,55.4,24.4C55.4,24.4,55.4,24.4,55.4,24.4z"/>
					</g>
					<path d="M55.5,22.1C55.5,22.1,55.5,22.1,55.5,22.1c0.1,0,0.1,0,0.2,0.1c0,0,0,0,0,0c0,0,0.1,0,0.1,0c0,0,0-0.1,0-0.1
						c-0.4-0.1-0.9-0.3-1-0.3c-0.1,0-0.1,0-0.2,0C54.9,21.9,55.2,22,55.5,22.1C55.5,22.1,55.5,22.1,55.5,22.1z M54.4,25.5
						C54.4,25.5,54.3,25.5,54.4,25.5c-0.1,0-0.1,0-0.1,0c0,0,0,0,0,0c0,0,0,0,0,0c0,0,0,0,0,0c0,0,0,0,0,0c0,0,0,0,0,0c0,0,0,0,0,0
						c0,0.1,0,0.1,0,0.1c0.1-0.1,0.3-0.1,0.4-0.2C54.5,25.5,54.4,25.5,54.4,25.5C54.4,25.5,54.4,25.5,54.4,25.5z M66,40.7
						c0.2,0.2,0.4,0.3,0.5,0.4c0,0,0,0,0.1,0.1c0.1,0.1,0.2,0.2,0.2,0.3c0.1,0.1,0.1,0.1,0.2,0.2c0,0,0,0,0.1,0.1
						c0.3,0.3,0.5,0.7,0.5,1.1v-1.2c-0.3-0.3-0.5-0.5-0.7-0.7L66,40.7z M76,30.9l1.1,4.4c-0.1,0-0.2,0-0.3,0c0,0,0,0,0,0
						c-0.1,0-0.2,0-0.3,0c0,0-0.1,0-0.1,0c-0.1,0-0.1,0-0.2,0c-0.1,0-0.1,0-0.2,0c0,0-0.1,0-0.1,0c-0.1,0-0.2,0-0.3,0c0,0,0,0-0.1,0
						c-0.3,0-0.6,0-0.9,0c0.2,0,0.4,0,0.6,0.1c0.9,0.1,1.7,0,2.5-0.1l-0.6-2.2L76,30.9z M62.6,17.5c-0.1,0-0.7-0.2-1-0.2
						c-0.3-0.1-0.7-0.3-1.2-0.3c-0.4,0-2.2,0.9-2.2,0.9c0.1,0,1.2-0.4,1.5-0.4c0.2,0,0.2,0,0.4,0c0,0.2,0.2,0.3,0.5,0.3
						c0.3,0,0.5-0.2,0.6-0.3c0.4,0.1,0.9,0.1,1.2,0.1C62.5,17.6,62.6,17.5,62.6,17.5z M64.7,25.4c0,0,0.1,0,0.1,0.1c0,0,0,0,0.1,0
						c0,0,0.1,0,0.1,0.1c0.1,0,0.1,0.1,0.2,0.1c0,0,0.1,0,0.1,0c0,0,0.1,0.1,0.1,0.1c0,0,0.1,0,0.1,0c0.1,0,0.2,0.1,0.2,0.1
						c0,0,0,0,0,0h0c0,0,0,0,0.1,0c0,0,0,0,0,0c0.3,0.2,1.1,0.6,2.1,0.6c-0.9-0.2-1.6-0.6-1.6-0.6c-1-0.6-1.6-0.8-1.9-0.7
						C64.6,25.4,64.6,25.4,64.7,25.4L64.7,25.4z M55.9,24.8C55.9,24.8,55.9,24.8,55.9,24.8c-0.1-0.1-0.1-0.1-0.2-0.2
						c-0.2,0.4-0.4,0.6-0.6,0.7c0,0-0.1,0-0.1,0c0,0,0,0-0.1,0c0,0,0,0,0,0c0,0-0.1,0-0.1,0c0,0,0,0,0,0c0,0-0.1,0-0.1,0
						c0.2,0,0.5,0,0.8-0.1C55.6,25.3,55.8,25.1,55.9,24.8C55.9,24.9,55.9,24.8,55.9,24.8C55.9,24.8,55.9,24.8,55.9,24.8z M56.9,22.5
						c0.3-0.6,0.5-1.3,0.5-2.3c0,0,0,0,0,0l0-1c0,0,0-0.1,0-0.1h0l0-0.1c0,0-0.2-0.5-0.6-0.3c0,0,0.2,0.1,0.2,0.5c0,0.4,0,1,0,1
						c-0.1,0.8-0.3,1.6-0.5,2.3c0.1,0.1,0.3,0.3,0.4,0.4c0.1,0.1,0.3,0.4,0.2,0.8c-0.2,0.4-0.4,1-0.6,1.1c0,0-0.1,0.1-0.1,0.2
						c0.1,0.2,0.2,0.4,0.2,0.4c0.1,0,0.1-0.4,0.3-0.6c0.1-0.2,0.4-0.7,0.6-1.1c0.1-0.4-0.1-0.7-0.2-0.8C57.1,22.7,57,22.6,56.9,22.5
						z M81.3,29l2.4,2.4c-0.1,0.1-0.2,0.2-0.3,0.3c0,0-0.1,0.1-0.1,0.1c-0.1,0.1-0.1,0.1-0.2,0.2c0,0-0.1,0.1-0.1,0.1
						c-0.1,0.1-0.1,0.1-0.2,0.2c0,0-0.1,0.1-0.1,0.1c-0.1,0.1-0.1,0.1-0.2,0.2c0,0-0.1,0.1-0.1,0.1c-0.1,0-0.1,0.1-0.2,0.1
						c-0.1,0-0.1,0.1-0.2,0.1c0,0-0.1,0.1-0.1,0.1c-0.1,0-0.1,0.1-0.2,0.1c0,0-0.1,0.1-0.1,0.1c-0.1,0-0.1,0.1-0.2,0.1
						c0,0-0.1,0.1-0.1,0.1c-0.1,0-0.1,0.1-0.2,0.1c0,0-0.1,0-0.1,0.1c-0.1,0.1-0.2,0.1-0.2,0.2c0,0,0,0,0,0c-0.6,0.4-1.3,0.7-2,1
						c0,0,0,0,0,0l0.1,0.2c2.2-0.6,4-2,5.5-3.7l-1.7-1.7L81.3,29z M89.4,18.2c-0.1,0.4-0.2,0.9-0.3,1.6c0,0,0,0,0,0.1
						c0,0.1,0,0.2-0.1,0.3c0,0.1,0,0.1,0,0.2c0,0.1,0,0.1,0,0.2c0,0.1,0,0.2-0.1,0.2c0,0,0,0.1,0,0.1c0,0.1-0.1,0.2-0.1,0.4
						c0,0,0,0.1,0,0.1c0,0.1-0.1,0.2-0.1,0.4c0,0,0,0,0,0c0,0.1-0.1,0.3-0.1,0.4c0,0,0,0,0,0.1c-0.1,0.3-0.2,0.6-0.3,0.9
						c0,0,0,0,0,0c-0.2,0.5-0.4,1-0.6,1.5l0.6,0.1c1.5-3.8,2-7.1,2-7.1C89.9,17.9,89.6,18.1,89.4,18.2z M84.1,24.3l3.1,1.4
						c-0.1,0.2-0.2,0.4-0.3,0.6c-0.6,1.4-1.4,2.9-2.4,4.2c0,0,0,0,0,0l0.5,0.3c1.2-1.5,2.1-3.3,2.9-5l-3-1.3L84.1,24.3z M69.9,40.5
						c-0.1,0-0.2,0-0.3,0c0,0,0,0,0,0c-0.1,0-0.2,0-0.2,0c-0.1,0-0.1,0-0.2,0c-1.4,3-0.4,6.8-0.4,6.8c0.1,0,0.1,0,0.2,0
						c2,0.5,3.8,1.4,4.1,1.6c0.2,0,0.4,0,0.6,0c0,0-2-1.2-4.3-1.6C69.4,47.5,68.3,43.5,69.9,40.5z M65.1,48.8c-0.1,0-0.2,0-0.3,0
						c0,0,0,0,0,0c-0.1,0-0.2,0-0.3,0.1c0,0,0,0,0,0c-0.1,0-0.2,0.1-0.3,0.1c0,0,0,0,0,0c-0.1,0-0.2,0.1-0.3,0.1c0,0,0,0,0,0
						c-0.1,0-0.2,0.1-0.3,0.1c0,0,0,0,0,0c-0.1,0-0.2,0.1-0.3,0.1c0,0,0,0,0,0c-0.2,0.1-0.4,0.2-0.5,0.3c-0.1,0.2-0.1,0.3-0.1,0.5
						c0,0,1.7-1.2,3.2-1.3c2.4-0.2,3.8,0,6.7,0.2C69.1,48.7,67.6,48.5,65.1,48.8z"/>
					<path class="st2" d="M61.1,17.5c-0.1,0.1-0.3,0.3-0.6,0.3c-0.3,0-0.5-0.1-0.5-0.3c-0.1,0-0.1,0-0.4,0c-0.2,0-1.4,0.4-1.5,0.4
						c0,0,1.8-0.9,2.2-0.9c0.5,0,0.9,0.2,1.2,0.3c0.3,0.1,1,0.2,1,0.2c0.1,0-0.1,0.1-0.3,0.1C62,17.7,61.5,17.7,61.1,17.5z
						 M67.5,42.8c0-0.3-0.2-0.7-0.5-1.1c0,0,0,0-0.1-0.1c-0.1-0.1-0.1-0.2-0.2-0.2c-0.1-0.1-0.2-0.2-0.2-0.3c0,0,0,0-0.1-0.1
						c-0.1-0.1-0.3-0.3-0.5-0.4l1.5,0.4V42.8z M89.5,17.7c-4.9,3.6-14.9,3.5-16.5,3.9c-1.6,0.4-1.1,1.5-1.1,1.5
						c-2.2,5.8-6.2,2.9-6.2,2.9c-3-1.9-2.5,0.1-1.3,2.4c-4.7-0.6-0.8-7.1,0.8-8.4C67.1,18.7,69,15,69,15c-0.6,0.6-2.3,1.8-6.9,0.9
						c-2-0.4-3.5,0.9-3.5,0.9c-8.9-0.8-6.6,3.1-6.6,3.1c0.9-1.5,3.6-0.8,3.6-0.8c0,0.5,0.3,0.8,0.6,1c-0.1,0.6-0.2,1.4-0.5,2.2
						c-0.3-0.1-1.1-0.4-1.4-0.4c-0.7,0.1-0.6,1.1-1.4,1.4c0.1,0.2,0.4,0.4,0.8,0.5c-0.3,0.4-0.3,1-0.3,1.1c0,0.3,0.2,0.4,0.2,0.5
						c0,0.2,0,0.4,0,0.4c0.2-0.1,0.4-0.2,0.6-0.2c0.1,0,0.6,0,0.8-0.1c0.2-0.1,0.4-0.3,0.6-0.7c0.1,0,0.1,0.1,0.1,0.1
						c0.1,0.1,0.3,0.5,0.3,0.6c0.1,0,0.1-0.4,0.3-0.6c0.1-0.2,0.4-0.7,0.6-1.1c0.1-0.4-0.1-0.7-0.2-0.8c-0.1-0.1-0.3-0.3-0.4-0.4
						c0.2-0.7,0.4-1.4,0.5-2.3l0,0c0,0,0-0.7,0-1c0-0.4-0.2-0.5-0.2-0.5c0.3-0.3,0.6,0.3,0.6,0.3l0,1.2c0.5,0,0.8-0.2,0.8-0.2
						s2.9-0.3,3.3,0.4c0.4,0.7,0.3,2.6-2.3,7.2c-2.8,5,0.2,9.9,4.3,12c1.4,1,4.3,3.6,3.9,7c0,0-5.3,1.1-5.5,3.4c0,0,1.7-1.2,3.2-1.3
						c2.7-0.2,4.2-0.1,8.1,0.3c0,0-2.1-1.2-4.4-1.7c0,0-1-3.8,0.4-6.8c0.1,0,0.1,0,0.2,0c1.7-0.4,4.8,1.3,4.8,1.3l-0.7-1.8
						c3.2,0.5,4.8,4.3,4.8,4.3c-0.1-3.2-2.2-6.4-4.7-9.1c0.4,0.1,0.7,0.1,1,0.1c0.9,0.1,1.7,0,2.5-0.1L76,30.9l2.2,4.1
						c2.2-0.6,4-2,5.5-3.7L81.3,29l3,1.6c1.2-1.5,2.1-3.3,2.9-5l-3.1-1.4l3.4,0.5C89,21,89.5,17.7,89.5,17.7z"/>
					<path d="M65.3,20c-1.7,1.3-5.6,7.8-0.8,8.4c-3.7-1.2-0.1-7.1,1.5-8.3c1.8-1.3,3.7-5.1,3.7-5.1c-0.2,0.2-0.6,0.4-1,0.6
						C68,16.8,66.6,19.1,65.3,20z M74.1,35.4c-0.2,0-0.4,0-0.6-0.1c0.1,0.1,0.2,0.3,0.4,0.4c0,0,0,0,0.1,0.1
						c0.1,0.1,0.2,0.3,0.3,0.4c0,0,0,0,0.1,0.1c0.1,0.1,0.2,0.3,0.3,0.4c0,0,0,0,0,0c0.1,0.1,0.2,0.3,0.3,0.4c0,0,0,0,0,0
						c0.1,0.1,0.2,0.3,0.3,0.4c0,0,0,0,0,0.1c0.1,0.1,0.2,0.3,0.3,0.4c0,0,0,0,0,0.1c0.1,0.1,0.2,0.3,0.3,0.4c0,0,0,0,0,0
						c0.1,0.1,0.2,0.3,0.3,0.4c0,0,0,0,0,0c0.1,0.1,0.2,0.3,0.3,0.4c0,0,0,0.1,0,0.1c0.1,0.1,0.2,0.3,0.2,0.4c0,0,0,0.1,0,0.1
						c0.1,0.1,0.1,0.3,0.2,0.4c0,0,0,0,0,0.1c0.1,0.1,0.1,0.3,0.2,0.4c0,0,0,0.1,0,0.1c0.1,0.1,0.1,0.3,0.2,0.4c0,0,0,0.1,0.1,0.1
						c0,0.1,0.1,0.3,0.1,0.4c0,0.1,0,0.1,0,0.2c0,0.1,0.1,0.2,0.1,0.3c0,0.1,0,0.1,0.1,0.2c0,0.1,0,0.2,0.1,0.3c0,0,0,0.1,0,0.1
						c0.5,0.8,0.8,1.4,0.8,1.4C78.8,41.4,76.5,38,74.1,35.4z M73.4,40.1l0.6,1.6c0.4,0.2,0.7,0.4,0.7,0.4l-0.7-1.8
						C73.9,40.2,73.6,40.1,73.4,40.1z"/>
				</g>
				<g>
					<path class="st1" d="M66.8,40.9c0.2,0.2,0.4,0.4,0.7,0.7v-0.5L66.8,40.9z"/>
				</g>
			</g>
			<g>
				<path d="M26.6,92c0.1,0.4,0.3,0.7,0.3,0.7c0.7-1.1,2.2-1.3,3.3-1.2C29.4,91.4,27.7,91.2,26.6,92z"/>
				<g>
					<g>
						<path class="st1" d="M30.2,98.5c0.1,0.1,0.2,0.2,0.4,0.2C30.5,98.7,30.3,98.6,30.2,98.5C30.2,98.5,30.2,98.5,30.2,98.5z"/>
					</g>
					<path d="M30.3,95.5C30.4,95.5,30.4,95.5,30.3,95.5c0.1,0,0.2,0.1,0.2,0.1c0,0,0,0,0,0c0,0,0.1,0,0.1,0c0-0.1,0-0.1,0-0.1
						c-0.5-0.1-1.1-0.4-1.3-0.3c-0.1,0-0.1,0-0.2,0.1C29.5,95.3,30,95.4,30.3,95.5C30.3,95.5,30.3,95.5,30.3,95.5z M29,99.8
						C28.9,99.8,28.9,99.8,29,99.8c-0.1,0-0.1,0-0.2,0c0,0,0,0,0,0c0,0,0,0,0,0c0,0,0,0,0,0c0,0,0,0,0,0c0,0,0,0-0.1,0c0,0,0,0,0,0
						c0,0.1,0,0.1,0,0.2c0.2-0.1,0.3-0.2,0.5-0.2C29,99.8,29,99.8,29,99.8C29,99.8,29,99.8,29,99.8z M43.5,118.9
						c0.2,0.2,0.4,0.4,0.6,0.6c0,0,0,0,0.1,0.1c0.1,0.1,0.2,0.2,0.3,0.3c0.1,0.1,0.2,0.2,0.2,0.3c0,0,0,0.1,0.1,0.1
						c0.3,0.4,0.6,0.9,0.6,1.3V120c-0.3-0.4-0.7-0.7-0.9-0.9L43.5,118.9z M56,106.6l1.4,5.5c-0.1,0-0.2,0-0.4,0.1c0,0,0,0,0,0
						c-0.1,0-0.2,0-0.3,0c0,0-0.1,0-0.1,0c-0.1,0-0.2,0-0.3,0c-0.1,0-0.1,0-0.2,0c-0.1,0-0.1,0-0.2,0c-0.1,0-0.2,0-0.3,0
						c0,0,0,0-0.1,0c-0.4,0-0.8,0-1.2,0c0.2,0,0.5,0.1,0.7,0.1c1.1,0.1,2.2,0,3.2-0.1l-0.7-2.7L56,106.6z M39.2,89.8
						c-0.1,0-0.9-0.2-1.3-0.3c-0.4-0.1-0.9-0.3-1.5-0.3c-0.5,0-2.7,1.2-2.7,1.2c0.1,0,1.5-0.5,1.8-0.5c0.3,0,0.3,0,0.4,0
						c0,0.3,0.3,0.4,0.7,0.4c0.4,0,0.7-0.3,0.7-0.4c0.5,0.2,1.2,0.2,1.5,0.1C39.1,89.9,39.3,89.8,39.2,89.8z M41.9,99.7
						c0.1,0,0.1,0,0.2,0.1c0,0,0,0,0.1,0c0,0,0.1,0,0.1,0.1c0.1,0,0.1,0.1,0.2,0.1c0,0,0.1,0,0.1,0.1c0.1,0,0.1,0.1,0.2,0.1
						c0,0,0.1,0,0.1,0.1c0.1,0.1,0.2,0.1,0.3,0.2c0,0,0,0,0.1,0c0,0,0,0,0,0c0,0,0,0,0.1,0c0,0,0,0,0,0c0.3,0.2,1.4,0.8,2.7,0.8
						c-1.2-0.2-2-0.8-2-0.8c-1.3-0.8-2-1-2.4-0.9C41.7,99.6,41.8,99.7,41.9,99.7C41.9,99.7,41.9,99.7,41.9,99.7z M30.8,98.9
						C30.8,98.9,30.8,98.9,30.8,98.9c-0.1-0.1-0.2-0.2-0.2-0.2c-0.2,0.5-0.5,0.8-0.7,0.9c0,0-0.1,0-0.1,0.1c0,0-0.1,0-0.1,0
						c0,0,0,0,0,0c0,0-0.1,0-0.1,0c0,0,0,0,0,0c0,0-0.1,0-0.1,0c0.2,0,0.7,0,1-0.2C30.5,99.5,30.7,99.3,30.8,98.9
						C30.9,99,30.9,99,30.8,98.9C30.9,99,30.8,98.9,30.8,98.9z M32.1,96c0.3-0.7,0.6-1.7,0.6-2.9c0,0,0,0,0,0l0-1.2c0,0,0-0.1,0-0.1
						h0l0-0.1c0,0-0.3-0.7-0.7-0.3c0,0,0.2,0.1,0.3,0.6c0,0.5,0,1.3,0,1.3c-0.1,1-0.3,2-0.6,2.8c0.1,0.2,0.4,0.4,0.5,0.5
						c0.1,0.1,0.4,0.5,0.2,1c-0.2,0.5-0.5,1.2-0.7,1.4c0,0.1-0.1,0.1-0.1,0.2c0.1,0.2,0.2,0.4,0.3,0.5c0.1,0,0.1-0.5,0.3-0.7
						c0.2-0.2,0.5-0.9,0.7-1.4c0.2-0.5-0.1-0.9-0.2-1C32.4,96.3,32.2,96.2,32.1,96z M62.8,104.3l3,3c-0.1,0.1-0.2,0.3-0.3,0.4
						c0,0-0.1,0.1-0.1,0.1c-0.1,0.1-0.2,0.2-0.3,0.3c0,0-0.1,0.1-0.1,0.1c-0.1,0.1-0.1,0.1-0.2,0.2c-0.1,0-0.1,0.1-0.2,0.1
						c-0.1,0.1-0.1,0.1-0.2,0.2c-0.1,0.1-0.1,0.1-0.2,0.2c-0.1,0.1-0.1,0.1-0.2,0.2c-0.1,0.1-0.1,0.1-0.2,0.2
						c-0.1,0.1-0.1,0.1-0.2,0.1c-0.1,0.1-0.1,0.1-0.2,0.2c-0.1,0-0.1,0.1-0.2,0.1c-0.1,0.1-0.2,0.1-0.2,0.2c0,0-0.1,0.1-0.1,0.1
						c-0.1,0.1-0.2,0.1-0.3,0.2c0,0-0.1,0-0.1,0.1c-0.1,0.1-0.2,0.1-0.3,0.2c0,0,0,0-0.1,0c-0.8,0.5-1.7,0.9-2.6,1.2c0,0,0,0,0,0
						l0.2,0.3c2.8-0.8,5.1-2.5,6.9-4.6l-2.2-2.2L62.8,104.3z M72.9,90.7c-0.1,0.5-0.2,1.1-0.4,2c0,0,0,0.1,0,0.1
						c0,0.1-0.1,0.3-0.1,0.4c0,0.1,0,0.2-0.1,0.2c0,0.1,0,0.1,0,0.2c0,0.1-0.1,0.2-0.1,0.3c0,0,0,0.1,0,0.1c0,0.1-0.1,0.3-0.1,0.5
						c0,0,0,0.1,0,0.1c0,0.2-0.1,0.3-0.1,0.5c0,0,0,0,0,0.1c-0.1,0.2-0.1,0.4-0.2,0.5c0,0,0,0.1,0,0.1c-0.1,0.4-0.2,0.8-0.4,1.2
						c0,0,0,0,0,0c-0.2,0.6-0.4,1.3-0.7,1.9l0.8,0.1c1.9-4.7,2.5-8.9,2.5-8.9C73.5,90.3,73.2,90.5,72.9,90.7z M66.2,98.3l3.9,1.7
						c-0.1,0.3-0.2,0.5-0.3,0.8c-0.8,1.8-1.8,3.6-3,5.2c0,0,0,0,0,0l0.6,0.3c1.5-1.9,2.7-4.1,3.6-6.3l-3.7-1.7L66.2,98.3z
						 M48.4,118.7c-0.1,0-0.2,0-0.3,0c0,0,0,0-0.1,0c-0.1,0-0.2,0-0.3,0c-0.1,0-0.1,0-0.2,0c-1.8,3.7-0.5,8.5-0.5,8.5
						c0.1,0,0.2,0,0.3,0.1c2.5,0.6,4.8,1.8,5.2,2c0.2,0,0.5,0,0.7,0c0,0-2.5-1.5-5.4-2.1C47.8,127.4,46.4,122.4,48.4,118.7z
						 M42.4,129c-0.1,0-0.3,0-0.4,0.1c0,0,0,0,0,0c-0.1,0-0.2,0-0.4,0.1c0,0,0,0,0,0c-0.1,0-0.2,0.1-0.4,0.1c0,0,0,0,0,0
						c-0.1,0-0.2,0.1-0.4,0.1c0,0,0,0,0,0c-0.1,0-0.2,0.1-0.3,0.1c0,0,0,0,0,0c-0.1,0-0.2,0.1-0.3,0.2c0,0,0,0,0,0
						c-0.2,0.1-0.5,0.2-0.7,0.3c-0.1,0.2-0.1,0.4-0.2,0.7c0,0,2.2-1.5,4-1.6c3-0.3,4.8,0,8.4,0.2C47.4,128.9,45.6,128.7,42.4,129z"
						/>
					<path class="st2" d="M37.4,89.8c-0.1,0.1-0.3,0.4-0.7,0.4c-0.4,0-0.7-0.1-0.7-0.4c-0.2,0-0.1,0-0.4,0c-0.3,0.1-1.7,0.6-1.8,0.5
						c0,0,2.2-1.2,2.7-1.2c0.6,0,1.1,0.2,1.5,0.3c0.4,0.1,1.2,0.3,1.3,0.3c0.1,0-0.1,0.1-0.3,0.2C38.5,90,37.8,90,37.4,89.8z
						 M45.4,121.6c0-0.4-0.3-0.9-0.6-1.3c0,0,0-0.1-0.1-0.1c-0.1-0.1-0.2-0.2-0.2-0.3c-0.1-0.1-0.2-0.2-0.3-0.3c0,0,0-0.1-0.1-0.1
						c-0.2-0.2-0.4-0.4-0.6-0.6l1.9,0.5V121.6z M73,90c-6.1,4.6-18.7,4.3-20.7,4.9c-2,0.5-1.4,1.9-1.4,1.9c-2.8,7.2-7.7,3.7-7.7,3.7
						c-3.8-2.3-3.1,0.1-1.6,3.1c-5.9-0.7-1-8.9,1.1-10.5c2.2-1.7,4.7-6.4,4.7-6.4c-0.7,0.8-2.8,2.3-8.6,1.1
						c-2.6-0.5-4.4,1.1-4.4,1.1c-11.2-1-8.3,3.9-8.3,3.9c1.2-1.9,4.5-1,4.5-1c0,0.7,0.4,1,0.8,1.2c-0.1,0.8-0.3,1.8-0.6,2.7
						c-0.4-0.1-1.4-0.5-1.7-0.4c-0.9,0.1-0.8,1.4-1.7,1.8c0.1,0.2,0.5,0.5,1,0.6c-0.4,0.5-0.4,1.3-0.4,1.4c0,0.4,0.3,0.5,0.3,0.6
						c0,0.2,0,0.5,0,0.5c0.3-0.1,0.5-0.3,0.7-0.3c0.2,0,0.7,0,1-0.2c0.2-0.1,0.5-0.4,0.7-0.9c0.1,0,0.1,0.1,0.2,0.1
						c0.2,0.2,0.4,0.7,0.4,0.7c0.1,0,0.1-0.5,0.3-0.7c0.2-0.2,0.5-0.9,0.7-1.4c0.2-0.5-0.1-0.9-0.2-1c-0.1-0.1-0.4-0.3-0.5-0.5
						c0.3-0.8,0.5-1.8,0.6-2.8l0,0c0,0,0.1-0.8,0-1.3c0-0.5-0.3-0.6-0.3-0.6c0.4-0.3,0.7,0.3,0.7,0.3l0,1.5c0.6-0.1,1-0.2,1-0.2
						s3.6-0.4,4.1,0.5c0.6,0.9,0.3,3.2-2.9,9c-3.5,6.3,0.2,12.4,5.4,15.1c1.7,1.3,5.3,4.5,4.9,8.8c0,0-6.6,1.3-6.9,4.3
						c0,0,2.2-1.5,4-1.6c3.4-0.3,5.2-0.1,10.1,0.4c0,0-2.7-1.5-5.5-2.1c0,0-1.3-4.8,0.5-8.5c0.1,0,0.1,0,0.2,0c2.2-0.5,6,1.7,6,1.7
						l-0.9-2.3c4,0.6,6,5.4,6,5.4c-0.1-4-2.8-8-5.9-11.4c0.4,0.1,0.9,0.1,1.3,0.2c1.1,0.1,2.2,0,3.2-0.1l-1.4-5.5l2.8,5.2
						c2.8-0.8,5.1-2.5,6.9-4.6l-3-3l3.7,2c1.5-1.9,2.7-4.1,3.6-6.3l-3.9-1.7l4.3,0.7C72.4,94.2,73,90,73,90z"/>
					<path d="M42.7,92.9c-2.1,1.6-7,9.8-1.1,10.5c-4.7-1.5-0.1-8.9,1.9-10.4c2.2-1.7,4.7-6.4,4.7-6.4c-0.2,0.2-0.8,0.5-1.3,0.8
						C46,88.9,44.3,91.7,42.7,92.9z M53.7,112.2c-0.2,0-0.5-0.1-0.7-0.1c0.2,0.2,0.3,0.3,0.5,0.5c0,0,0,0.1,0.1,0.1
						c0.1,0.2,0.3,0.3,0.4,0.5c0,0,0,0.1,0.1,0.1c0.1,0.2,0.3,0.3,0.4,0.5c0,0,0,0,0,0.1c0.1,0.2,0.3,0.4,0.4,0.5c0,0,0,0,0,0
						c0.1,0.2,0.3,0.4,0.4,0.6c0,0,0,0,0.1,0.1c0.1,0.2,0.3,0.4,0.4,0.5c0,0,0,0.1,0.1,0.1c0.1,0.2,0.3,0.4,0.4,0.6c0,0,0,0,0,0
						c0.1,0.2,0.2,0.4,0.4,0.6c0,0,0,0,0,0c0.1,0.2,0.2,0.4,0.3,0.6c0,0,0,0.1,0.1,0.1c0.1,0.2,0.2,0.4,0.3,0.5c0,0,0,0.1,0.1,0.1
						c0.1,0.2,0.2,0.4,0.3,0.5c0,0,0,0.1,0,0.1c0.1,0.2,0.1,0.3,0.2,0.5c0,0,0,0.1,0.1,0.1c0.1,0.2,0.1,0.3,0.2,0.5
						c0,0.1,0,0.1,0.1,0.2c0.1,0.2,0.1,0.3,0.2,0.5c0,0.1,0,0.1,0.1,0.2c0,0.1,0.1,0.3,0.1,0.4c0,0.1,0,0.2,0.1,0.3
						c0,0.1,0.1,0.2,0.1,0.4c0,0.1,0,0.1,0,0.2c0.7,1,1,1.8,1,1.8C59.5,119.8,56.7,115.5,53.7,112.2z M52.8,118.2l0.8,2
						c0.6,0.3,0.9,0.5,0.9,0.5l-0.8-2.3C53.4,118.3,53.1,118.2,52.8,118.2z"/>
				</g>
				<g>
					<path class="st1" d="M44.6,119.2c0.2,0.2,0.5,0.5,0.8,0.8v-0.6L44.6,119.2z"/>
				</g>
			</g>
			<linearGradient id="SVGID_1_" gradientUnits="userSpaceOnUse" x1="21.0025" y1="76.4181" x2="46.5147" y2="76.4181">
				<stop  offset="0" style="stop-color:#FFFFFF"/>
				<stop  offset="0.1336" style="stop-color:#E7E7F1"/>
				<stop  offset="0.3889" style="stop-color:#BCBBD8"/>
				<stop  offset="0.7365" style="stop-color:#8484B5"/>
				<stop  offset="0.9382" style="stop-color:#6768A3"/>
			</linearGradient>
			<path class="st3" d="M34.8,73.2c-0.1,0-0.2,0-0.4-0.1c-0.2,0-0.4,0-0.5-0.1c-5.1-0.5-9.7,1.2-12.1,2.3L21,77.2
				c0,0,14.5-9.5,25.5,2.7C46.5,79.9,42.5,74.4,34.8,73.2z"/>
			<linearGradient id="SVGID_2_" gradientUnits="userSpaceOnUse" x1="58.898" y1="75.2316" x2="72.5831" y2="75.2316">
				<stop  offset="9.550560e-02" style="stop-color:#6768A3"/>
				<stop  offset="0.3182" style="stop-color:#8080B3"/>
				<stop  offset="0.8067" style="stop-color:#CFCEE3"/>
				<stop  offset="1" style="stop-color:#FFFFFF"/>
			</linearGradient>
			<path class="st4" d="M72,75.6c-2.5-1.1-7.5-2.9-13.1-2.1c7.5-0.4,13.7,3.7,13.7,3.7L72,75.6z"/>
			<linearGradient id="SVGID_3_" gradientUnits="userSpaceOnUse" x1="20.0528" y1="74.4084" x2="37.5509" y2="74.4084">
				<stop  offset="0" style="stop-color:#FFFFFF"/>
				<stop  offset="0.1554" style="stop-color:#E7E7F1"/>
				<stop  offset="0.4522" style="stop-color:#BCBCD8"/>
				<stop  offset="0.8566" style="stop-color:#8484B5"/>
				<stop  offset="0.9382" style="stop-color:#7A7AAF"/>
			</linearGradient>
			<path class="st5" d="M20.8,74.4l-0.8,1.8c0,0,8.6-5,17.5-2.5C30.5,71.4,23.5,73.4,20.8,74.4z"/>
			<linearGradient id="SVGID_4_" gradientUnits="userSpaceOnUse" x1="53.7091" y1="74.609" x2="73.564" y2="74.609">
				<stop  offset="9.550560e-02" style="stop-color:#7A7AAF"/>
				<stop  offset="0.3588" style="stop-color:#9594C0"/>
				<stop  offset="0.9369" style="stop-color:#EEEEF5"/>
				<stop  offset="1" style="stop-color:#FFFFFF"/>
			</linearGradient>
			<path class="st6" d="M53.7,74.8c9.9-4.1,19.9,1.6,19.9,1.6l-0.7-1.6C70.2,73.7,62,71,53.7,74.8z"/>
			<g>
				<g>
					<g>
						<path class="st7" d="M46.5,79.8c-9.2-10.1-20.8-5.2-24.4-3.2l-0.4,0.9l0.7,0.4c0,0,12.2-8.7,22.7,2.1c1.6,1.6,1.8,1.2,3,0
							c11.9-11.3,22.3-2.2,22.6-2.3c0.4-0.1,1-0.4,1-0.4l-0.3-0.8c-3.6-2-15.2-7.1-24.6,2.9L46.5,79.8z M46.5,79.8 M46.8,79.4"/>
					</g>
				</g>
			</g>
			<linearGradient id="SVGID_5_" gradientUnits="userSpaceOnUse" x1="19.647" y1="66.9719" x2="47.1671" y2="66.9719">
				<stop  offset="0.732" style="stop-color:#FFFFFF"/>
				<stop  offset="1" style="stop-color:#8E8EBC"/>
			</linearGradient>
			<path class="st8" d="M19.6,75.2c0,0,15.4-7.7,26.9,4.8l0.6-22.6c0,0-10.9-8-20.5,0.4L19.6,75.2z"/>
			<linearGradient id="SVGID_6_" gradientUnits="userSpaceOnUse" x1="42.9496" y1="66.876" x2="55.0967" y2="66.876">
				<stop  offset="9.550560e-02" style="stop-color:#7A7AAF"/>
				<stop  offset="0.3588" style="stop-color:#9594C0"/>
				<stop  offset="0.9369" style="stop-color:#EEEEF5"/>
				<stop  offset="1" style="stop-color:#FFFFFF"/>
			</linearGradient>
			<path class="st9" d="M73.9,75.2c0,0-15.5-7.8-27.3,4.8l0.6-22.6c0,0,11.8-8.4,20.1,0.4L73.9,75.2z"/>
			<g>
				<g>
					<path d="M29.4,62.6l0.3-0.1c0.4-0.1,0.6-0.3,0.8-1l0.3,0c-0.1,0.4-0.2,0.8-0.2,1.2c-0.1,0.4-0.1,0.7-0.2,1.1l-0.3,0
						c0-0.5,0-0.9-0.5-0.8l-0.3,0l-0.5,1.5c-0.2,0.6,0,0.6,0.8,0.5l-0.1,0.3c-0.5,0.1-1.1,0.2-1.7,0.3c-0.5,0.1-0.8,0.2-1.6,0.3
						l0.1-0.3c0.8-0.2,0.9-0.4,1.1-1.1l0.9-2.7c0.2-0.8,0.2-1.1-0.5-1l0.1-0.3c0.5,0,1.3-0.1,2-0.3c0.8-0.2,1.6-0.4,2.5-0.6
						l-0.1,1.4l-0.4,0.1c0-1-0.3-0.8-1.3-0.6c-0.6,0.1-0.7,0.2-0.9,0.8L29.4,62.6z"/>
					<path d="M33.7,61.1c0.1-0.7,0.2-0.9-0.5-0.9l0.1-0.4c0.4-0.1,0.7-0.1,1.2-0.1c0.5-0.1,0.8-0.1,1.3-0.2l0,0.4
						c-0.7,0.1-0.8,0.3-0.9,1l-0.7,2.7c-0.2,0.9-0.2,1.1,0.5,1.1L34.6,65c-0.4,0-0.9,0-1.4,0c-0.4,0-1,0.1-1.5,0.1l0.1-0.3
						c0.7-0.1,0.9-0.4,1.1-1.2L33.7,61.1z"/>
					<path d="M36.9,63.7c-0.1,0.2-0.2,0.3-0.3,0.7c-0.2,0.4,0.3,0.5,0.5,0.6l-0.1,0.3c-0.3,0-0.6-0.1-0.9-0.1c-0.3,0-0.6,0-0.8,0
						l0.1-0.3c0.6,0,0.9-0.7,1.2-1.3c0.8-1.7,1.8-3.9,1.8-3.9l0.6,0.1c0,0,0.7,3.6,0.8,4.4c0.1,0.7,0.1,0.8,0.2,1.1
						c0,0.2,0.3,0.4,0.5,0.5l-0.1,0.3c-0.4-0.1-0.7-0.2-1.2-0.3c-0.4-0.1-0.8-0.2-1.3-0.2l0.1-0.4c0.3,0,0.7,0,0.7-0.4
						c0-0.1-0.1-0.6-0.1-0.7l-0.1-0.4c0,0-0.4-0.1-0.8-0.1c-0.4-0.1-0.8-0.1-0.8-0.1L36.9,63.7z M37.9,63c0.4,0,0.7,0.1,0.7,0.1
						L38.2,61l-0.9,1.9C37.3,62.9,37.5,62.9,37.9,63z"/>
					<path d="M44.5,63.4l-0.3-0.1c0-0.8,0-1.5-0.4-1.7c-0.4-0.2-0.5,0-0.6,0.7l-0.3,3c-0.1,0.8,0,1.1,0.6,1.5l0,0.4
						c-0.5-0.2-0.9-0.4-1.2-0.6c-0.4-0.2-0.8-0.3-1.3-0.5l0.1-0.3c0.7,0.2,0.7,0,0.8-0.8l0.3-3c0.1-0.6,0.2-1-0.3-1.1
						c-0.6-0.2-0.6,0.4-0.8,1.1l-0.3-0.1l0.2-1.7c0,0,1.1,0.2,2,0.6c1,0.4,1.7,0.9,1.7,0.9L44.5,63.4z"/>
					<path d="M51.4,67.1c0.6-0.4,0.6-0.7,0.6-1.4l-0.2-3c0-0.8,0-1.2-0.7-0.9l0-0.4c0.5-0.2,0.7-0.3,1.1-0.5
						c0.5-0.2,0.9-0.3,1.4-0.4l0,0.4c-0.7,0.2-0.6,0.6-0.6,1.4l0.1,2.5c0,0.9,0.1,1.4,1,1.2c1.1-0.3,1.5-0.8,1.6-1.9l0.3,0l0,1.9
						c-1.4,0.3-3,0.9-3.4,1c-0.4,0.2-0.9,0.4-1.3,0.6L51.4,67.1z"/>
					<path d="M55.6,60.3c0.6-0.1,1-0.1,1.4-0.1c0.4,0,0.8,0,1.4,0l0,0.3c-0.7,0-0.7,0.5-0.6,1.2l0.2,1.4c0.1,1.2,0.5,1.9,1.6,1.8
						c1.1,0,1.1-0.6,1-1.7L60.3,62c0-0.3-0.1-0.7-0.3-1c-0.1-0.3-0.3-0.4-0.6-0.4l0-0.3c0.3,0,0.6,0.1,0.9,0.1c0.3,0,0.4,0,0.8,0.1
						l0,0.3c-0.2,0-0.4,0.1-0.5,0.4c-0.1,0.3,0,0.7,0,1l0.1,0.8c0.2,1.7,0.4,2.5-1.6,2.6c-1.2,0.1-2.5-0.4-2.7-2.3l-0.2-1.5
						c-0.1-0.8-0.1-1.1-0.8-1.1L55.6,60.3z"/>
					<path d="M66.2,65.7c0.3,0.4,0.5,0.7,0.9,0.7l0.1,0.3c-0.5-0.1-0.8-0.1-1.3-0.2c-0.4-0.1-0.8-0.1-1.3-0.2l0-0.3
						c0.1,0,0.4,0,0.4,0c0.1,0,0.1-0.1,0.1-0.2c0-0.2-0.3-0.6-0.4-0.7L64,64l-0.4,0.6c-0.1,0.2-0.3,0.6-0.3,0.8
						c0,0.3,0.3,0.4,0.5,0.5l0,0.3c-0.4-0.1-0.6-0.1-1-0.2c-0.3,0-0.6-0.1-0.8-0.1l0-0.3c0.4,0.1,0.6-0.3,0.8-0.6l0.9-1.3l-1-1.5
						c-0.1-0.2-0.2-0.4-0.4-0.6c-0.2-0.3-0.3-0.3-0.5-0.4l0-0.3c0.3,0.1,0.7,0.2,1.1,0.3c0.4,0.1,0.8,0.1,1.1,0.2l0,0.4
						c-0.2,0-0.5-0.1-0.4,0.2c0,0.2,0.1,0.3,0.2,0.5l0.5,0.7l0.3-0.5c0.1-0.2,0.2-0.3,0.3-0.4c0.1-0.2-0.2-0.4-0.5-0.4l0-0.3
						c0.3,0,0.5,0.1,0.8,0.1c0.3,0,0.4,0,0.7,0l0.1,0.3c-0.4,0-0.5,0.2-0.8,0.6l-0.7,1L66.2,65.7z"/>
				</g>
			</g>
		</g>
		<g>
			<path class="st0" d="M163.6,114.1c-1,0-3.7,8.1-22,8.1c-6.6,0-6-1.9-6-6.6V77.3c0-6.9,5.8-4.9,5.8-6.7c0-0.9-0.5-1.1-1.5-1.1
				c-1.2,0-3.1,0.3-7.6,0.3c-3.9,0-6.3-0.3-8-0.3c-1,0-1.6,0.2-1.6,1c0,1.6,6.6,1,6.6,5.1v40.1c0,3.7-0.2,5.9-2.2,6.9
				c-2.5,1.3-3.3,1.1-3.5,2.1c0,0.6,0.5,0.8,1.2,0.8c3.2,0,6.5-0.2,9.6-0.3c6-0.2,12,0.3,18,0.3c3.5,0,5.2,0.2,7.8-2.7
				c1.9-2.1,4-4.8,4-7.7C164.2,114.9,164.1,114.1,163.6,114.1z"/>
			<path class="st0" d="M179.5,118.7V76.2c0-5.9,5.7-4.1,5.7-6c0-0.6-0.2-0.8-1.5-0.8c-2.5,0-4.9,0.3-7.4,0.3
				c-2.9,0-5.8-0.3-8.7-0.3c-0.6,0-0.8,0.2-0.8,0.9c0,1.7,6.3,0.2,6.4,5.9v40.5c0,7.8-6.2,5.2-6.2,7.5c0,0.8,0.2,1.2,1.7,1.2
				c1.1,0,2.8-0.3,7.6-0.3c3.4,0,6.8,0.3,8.6,0.3c1.3,0,1.6-0.2,1.6-0.8C186.5,122.3,179.5,124.1,179.5,118.7z"/>
			<path class="st0" d="M242.7,69.4c-1.1,0-2.3,0.3-6.1,0.3c-1.7,0-3.5-0.3-5.2-0.3c-0.8,0-1.2,0.2-1.2,1c0,1.8,5.1,0.3,5.1,4
				c0.3,1.7-0.6,4.2-1.1,5.4l-13.8,33.9c-0.4,0.9-0.6,2.2-1.4,2.2c-0.9,0-1.4-1.8-3.2-6L202,77.3c-0.3-0.7-0.7-2-0.7-3.1
				c0-2.8,3.3-2.9,3.2-4c0-0.5-0.6-0.8-1.1-0.8c-1.1,0-4.1,0.3-6.2,0.3c-2.4,0-4.8-0.3-7.3-0.3c-0.7,0-1.1,0.4-1.1,1.1
				c0,1.7,4.1,0.2,6.1,5l19.5,46.2c0.7,1.7,1.7,5,2.9,5c1.2,0,1.7-2.6,2.6-4.6l19.7-46.6c2.2-5.3,4.4-3.3,4.4-5.1
				C244.1,69.8,243.6,69.4,242.7,69.4z"/>
			<path class="st0" d="M288.6,114.1c-1,0-3.7,8.1-22,8.1c-6.6,0-6-1.9-6-6.6v-14.6c0-1.2-0.2-2.5,1.4-2.5h11.7c6.6,0,4,7,6.4,7
				c0.6,0,0.9-0.3,0.9-1c0-2.1-0.2-4.2-0.2-6.2c0-2.5,0.2-5.2,0.2-8c0-0.6-0.2-1.5-0.9-1.5c-1.9,0,0.2,6.3-8,6.3h-8.5
				c-3.2,0-3,0-3-2.7V77.7c0-5.3-0.2-5,7.4-5c3.2,0,11.4-0.5,13.4,2.2c1.3,1.8,0,5.6,1.9,5.6c0.5,0,1.6-0.6,1.6-9.4
				c0-0.9-0.2-1.7-0.8-1.7c-2.5,0-9.7,0.3-11.3,0.3c-3.3,0-7.4-0.3-22.4-0.3c-2.3,0-2.8,0.3-2.8,0.9c0,0.9,1.7,1.1,2.4,1.3
				c4.3,0.6,4.3,4.4,4.3,8v36.1c0,3.7-0.2,5.9-2.2,6.9c-2.5,1.3-3.3,1.1-3.5,2.1c0,0.6,0.5,0.8,1.2,0.8c3.2,0,6.5-0.2,9.6-0.3
				c6-0.2,12,0.3,18,0.3c3.5,0,5.2,0.2,7.8-2.7c1.9-2.1,4-4.8,4-7.7C289.2,114.9,289.1,114.1,288.6,114.1z"/>
			<path class="st0" d="M420.2,68.7c-16.2,0-29,11.9-29,28.4c0,16.7,10.5,28.9,27.7,28.9c17.6,0,29.9-11.5,29.9-29.3
				C448.7,80.4,436.3,68.7,420.2,68.7z M422.2,123.6c-15.7,0-25.2-14.2-25.2-28.8c0-12.5,7.6-23.5,20.9-23.5
				c15.4,0,25.1,14,25.1,28.4C443,114.4,433.7,123.6,422.2,123.6z"/>
			<path class="st0" d="M483.7,68.7c-16.2,0-29,11.9-29,28.4c0,16.7,10.5,28.9,27.7,28.9c17.6,0,29.9-11.5,29.9-29.3
				C512.2,80.4,499.8,68.7,483.7,68.7z M485.7,123.6c-15.7,0-25.2-14.2-25.2-28.8c0-12.5,7.6-23.5,20.9-23.5
				c15.4,0,25.2,14,25.2,28.4C506.5,114.4,497.2,123.6,485.7,123.6z"/>
			<path class="st0" d="M556,114.1c-1,0-3.7,8.1-22,8.1c-6.6,0-6-1.9-6-6.6V77.3c0-6.9,5.8-4.9,5.8-6.7c0-0.9-0.5-1.1-1.5-1.1
				c-1.2,0-3.1,0.3-7.6,0.3c-3.9,0-6.3-0.3-8-0.3c-1,0-1.6,0.2-1.6,1c0,1.6,6.6,1,6.6,5.1v40.1c0,3.7-0.2,5.9-2.2,6.9
				c-2.5,1.3-3.3,1.1-3.5,2.1c0,0.6,0.5,0.8,1.2,0.8c3.2,0,6.5-0.2,9.7-0.3c6-0.2,12,0.3,18,0.3c3.5,0,5.2,0.2,7.7-2.7
				c1.9-2.1,4-4.8,4-7.7C556.6,114.9,556.6,114.1,556,114.1z"/>
			<rect x="104.9" y="56.7" class="st7" width="462.1" height="1.2"/>
			<rect x="203.7" y="17.5" class="st7" width="3.4" height="27.7"/>
			<polygon class="st7" points="280.6,42.2 265.9,42.2 265.9,32.6 280.3,32.6 280.3,29.5 265.9,29.5 265.9,20.6 280.6,20.6 
				280.6,17.5 262.5,17.5 262.5,45.2 280.6,45.2 			"/>
			<polygon class="st7" points="237,45.2 248.1,17.5 244.2,17.5 234.8,41.5 225.5,17.5 221.5,17.5 232.7,45.2 			"/>
			<polygon class="st7" points="167,23.1 183.1,45.2 186.4,45.2 186.4,17.5 183,17.5 183,39.2 167,17.5 163.5,17.5 163.5,45.2 
				167,45.2 			"/>
			<path class="st7" d="M134.9,45.7c7.5,0,11.3-4.4,11.3-11.3V17.5h-3.5v16.9c0,5.1-2.7,8.3-7.9,8.3c-5.1,0-7.8-3.2-7.8-8.3V17.5
				h-3.5v17C123.6,41.3,127.4,45.7,134.9,45.7z"/>
			<polygon class="st7" points="528,32.6 542.4,32.6 542.4,29.5 528,29.5 528,20.6 542.7,20.6 542.7,17.5 524.6,17.5 524.6,45.2 
				528,45.2 			"/>
			<polygon class="st7" points="434.7,45.2 438.1,45.2 438.1,33.5 449,17.5 445,17.5 436.4,30.4 427.8,17.5 423.7,17.5 434.7,33.5 
							"/>
			<polygon class="st7" points="397.1,45.2 400.6,45.2 400.6,20.6 409.4,20.6 409.4,17.5 388.3,17.5 388.3,20.6 397.1,20.6 			"/>
			<path class="st7" d="M301.3,34.2h5.6l7,11h4.1l-7.5-11.3c3.8-0.3,7.2-3.1,7.2-8.1c0-5.1-3.7-8.4-8.7-8.4h-11.1v27.7h3.4V34.2z
				 M301.3,20.6h7.3c3.3,0,5.6,2.1,5.6,5.3c0,3.1-2.3,5.3-5.6,5.3h-7.3V20.6z"/>
			<path class="st7" d="M494.6,45.7c8.2,0,13.8-6.2,13.8-14.3c0-8.2-5.6-14.3-13.8-14.3c-8.2,0-13.8,6.2-13.8,14.3
				C480.9,39.6,486.4,45.7,494.6,45.7z M494.6,20.1c6.2,0,10.2,4.8,10.2,11.3c0,6.4-4,11.3-10.2,11.3c-6.2,0-10.2-4.8-10.2-11.3
				C484.4,24.9,488.4,20.1,494.6,20.1z"/>
			<rect x="368.7" y="17.5" class="st7" width="3.4" height="27.7"/>
			<path class="st7" d="M343,42.7c-3.9,0-6.9-1.9-8.7-4l-2.1,2.7c2.3,2.6,5.9,4.4,10.6,4.4c7.5,0,10.2-4.2,10.2-8.1
				c0-10.3-16.4-6.8-16.4-13c0-2.6,2.4-4.4,5.7-4.4c3,0,5.9,1,8,3.3l2.1-2.5c-2.3-2.5-5.6-3.9-9.8-3.9c-5.5,0-9.6,3.2-9.6,7.7
				c0,9.9,16.4,5.9,16.4,13C349.5,40,347.9,42.7,343,42.7z"/>
			<path class="st0" d="M359.4,74.6c0-2.4,1.7-2.4,4.3-2.4c9.1,0,16.5,5.1,16.5,14.6c0,7.1-4.7,11-12.8,11c-2.8,0-4.5-0.5-5.1-0.5
				c-0.4,0-0.8,0.2-0.8,0.7c0,1.4,4.6,1.8,5.4,1.8c16.8,0,19.2-12,19.2-15.2c0-11.8-11.1-15.3-21.2-15.3c-3.8,0-5.1,0.3-9,0.3
				c-4.6,0-7.4-0.3-8.1-0.3c-0.6,0-1,0.6-1,1.2c0,2.8,6.5-2,6.5,7.5V116c0,8.8-6.2,6.3-6.2,8.5c0,0.7,0.8,0.9,1.3,0.9
				c2.3,0,4.9-0.3,8.6-0.3c4.7,0,5.9,0.3,8.5,0.3c2,0,2.3-0.4,2.3-0.9c0-2.7-8.3,1.4-8.3-10V74.6z"/>
			<path class="st0" d="M321.4,96.8c5.5-2.2,10-7.5,10-13.7c0-15.3-17.5-13.7-18.7-13.7c-4.1,0-8.6,0.3-13.2,0.3
				c-4,0-3.6-0.3-5.1-0.3c-0.9,0-1.6,0.5-1.6,0.9c0,2.7,6.8-0.6,6.8,7v40.3c0,6-5.8,4.9-5.8,6.9c0,0.5,0.3,0.9,0.8,0.9
				c3,0,6-0.3,9-0.3c6.6,0,8.4,0.3,9.1,0.3c0.6,0,1.3,0.2,1.3-0.6c0-2.7-8.2-0.2-8.2-7v-16.7c0-0.8-0.5-2.2,2.1-2.2
				c8.9,0,7.7-0.2,10.5,4.2l8.8,13.8c3,4.5,6.1,8.5,11.9,8.5c0.7,0,5.1,0,5.1-0.9c0-1.9-3.9,1-9.6-7.7L321.4,96.8z M305.8,75
				c0-3.1,1.7-2.9,4.5-2.9c7.7,0,15.1,3.2,15.1,12.9c0,9.8-7.6,11.2-11,11.2c-3.7,0-8.6,0.4-8.6-1.1V75z"/>
		</g>
	</g>
</g>
<g id="Layer_2" class="st10">
	<g class="st11">
		<g>
			<path d="M39.2,89.8c-0.1,0-0.9-0.2-1.3-0.3c-0.4-0.1-0.9-0.3-1.5-0.3c-0.5,0-2.7,1.2-2.7,1.2c0.1,0,1.5-0.5,1.8-0.5
				c0.3,0,0.3,0,0.4,0c0,0.3,0.3,0.4,0.7,0.4c0.4,0,0.7-0.3,0.7-0.4c0.5,0.2,1.2,0.2,1.5,0.1C39.1,89.9,39.3,89.8,39.2,89.8z"/>
			<path d="M22.8,41.1l-1.5-0.4c0.2,0.2,0.4,0.3,0.5,0.4c0,0,0,0,0.1,0.1c0.1,0.1,0.2,0.2,0.2,0.3c0.1,0.1,0.1,0.1,0.2,0.2
				c0,0,0,0,0.1,0.1c0.3,0.3,0.5,0.7,0.5,1.1V41.1z"/>
			<path d="M17.9,17.5c-0.1,0-0.7-0.2-1-0.2c-0.3-0.1-0.7-0.3-1.2-0.3c-0.4,0-2.2,0.9-2.2,0.9c0.1,0,1.2-0.4,1.5-0.4
				c0.2,0,0.2,0,0.4,0c0,0.2,0.2,0.3,0.5,0.3c0.3,0,0.5-0.2,0.6-0.3c0.4,0.1,0.9,0.1,1.2,0.1C17.8,17.6,17.9,17.5,17.9,17.5z"/>
			<path d="M44.1,119.5C44.2,119.5,44.2,119.5,44.1,119.5c0.2,0.2,0.3,0.3,0.4,0.4c0.1,0.1,0.2,0.2,0.2,0.3c0,0,0,0.1,0.1,0.1
				c0.3,0.4,0.6,0.9,0.6,1.3v-2.2l-1.9-0.5C43.8,119.1,44,119.3,44.1,119.5z"/>
			<polygon points="47.9,0 47.9,0 47.9,0 			"/>
			<path d="M62.6,17.5c-0.1,0-0.7-0.2-1-0.2c-0.3-0.1-0.7-0.3-1.2-0.3c-0.4,0-2.2,0.9-2.2,0.9c0.1,0,1.2-0.4,1.5-0.4
				c0.2,0,0.2,0,0.4,0c0,0.2,0.2,0.3,0.5,0.3c0.3,0,0.5-0.2,0.6-0.3c0.4,0.1,0.9,0.1,1.2,0.1C62.5,17.6,62.6,17.5,62.6,17.5z"/>
			<path d="M94.1,2.9c0,0-17.8-2.9-46.3-2.9S1.6,2.9,1.6,2.9S-8,73.7,19.9,116.1c9.5,14.4,27.9,28.5,27.9,28.6h0l0,0l0,0l0,0l0,0h0
				c0.1,0,18.5-14.2,27.9-28.6C103.8,73.7,94.1,2.9,94.1,2.9z M18.8,39.6c-4.1-2.1-7-7-4.3-12c2.5-4.6,2.7-6.5,2.3-7.2
				c-0.4-0.7-3.3-0.4-3.3-0.4s-0.4,0.1-0.8,0.2l0-1.2c0,0-0.2-0.5-0.6-0.3c0,0,0.2,0.1,0.2,0.5c0,0.4,0,1,0,1
				c-0.1,0.8-0.3,1.6-0.5,2.3c0.1,0.1,0.3,0.3,0.4,0.4c0.1,0.1,0.3,0.4,0.2,0.8c-0.2,0.4-0.4,1-0.6,1.1c-0.2,0.2-0.2,0.6-0.3,0.6
				c0,0-0.2-0.4-0.3-0.6c0,0-0.1-0.1-0.1-0.1c-0.2,0.4-0.4,0.6-0.6,0.7c-0.2,0.1-0.7,0.2-0.8,0.1c-0.2,0-0.4,0.1-0.6,0.2
				c0-0.1,0-0.3,0-0.4c0-0.1-0.2-0.2-0.2-0.5c0-0.1,0-0.7,0.3-1.1c-0.4-0.1-0.7-0.3-0.8-0.5c0.8-0.3,0.7-1.3,1.4-1.4
				c0.2,0,1,0.3,1.4,0.4c0.3-0.8,0.4-1.5,0.5-2.2c-0.3-0.2-0.6-0.4-0.6-1c0,0-2.6-0.7-3.6,0.8c0,0-2.3-3.9,6.6-3.1
				c0,0,1.4-1.3,3.5-0.9c4.6,1,6.3-0.2,6.9-0.9c0,0-2,3.7-3.7,5.1c-1.7,1.3-5.6,7.8-0.8,8.4c-1.2-2.3-1.7-4.3,1.3-2.4
				c0,0,4,2.8,6.2-2.9c0,0-0.5-1.1,1.1-1.5c1.6-0.4,11.6-0.2,16.5-3.9c0,0-0.5,3.3-2,7.1l-3.4-0.5l3.1,1.4c-0.7,1.7-1.7,3.5-2.9,5
				l-3-1.6l2.4,2.4c-1.5,1.7-3.3,3-5.5,3.7l-2.2-4.1l1.1,4.4c-0.8,0.1-1.6,0.2-2.5,0.1c-0.3,0-0.7-0.1-1-0.1
				c2.5,2.7,4.6,5.9,4.7,9.1c0,0-1.6-3.8-4.8-4.3l0.7,1.8c0,0-3-1.7-4.8-1.3c-0.1,0-0.1,0-0.2,0c-1.4,3-0.4,6.8-0.4,6.8
				c2.3,0.5,4.4,1.7,4.4,1.7c-3.9-0.4-5.3-0.6-8.1-0.3c-1.4,0.1-3.2,1.3-3.2,1.3c0.2-2.4,5.5-3.4,5.5-3.4
				C23,43.2,20.2,40.6,18.8,39.6z M70.5,98.9l-4.3-0.7l3.9,1.7c-0.9,2.1-2.1,4.3-3.6,6.3l-3.7-2l3,3c-1.8,2.1-4.1,3.8-6.9,4.6
				l-2.8-5.2l1.4,5.5c-1,0.2-2.1,0.2-3.2,0.1c-0.4,0-0.9-0.1-1.3-0.2c3.1,3.4,5.7,7.4,5.9,11.4c0,0-2-4.8-6-5.4l0.9,2.3
				c0,0-3.8-2.1-6-1.7c-0.1,0-0.1,0-0.2,0c-1.8,3.7-0.5,8.5-0.5,8.5c2.9,0.6,5.5,2.1,5.5,2.1c-4.9-0.5-6.7-0.7-10.1-0.4
				c-1.8,0.2-4,1.6-4,1.6c0.2-3,6.9-4.3,6.9-4.3c0.5-4.3-3.1-7.5-4.9-8.8c-5.2-2.7-8.8-8.8-5.4-15.1c3.2-5.8,3.4-8.1,2.9-9
				c-0.5-0.9-4.1-0.5-4.1-0.5s-0.5,0.1-1,0.2l0-1.5c0,0-0.3-0.7-0.7-0.3c0,0,0.2,0.1,0.3,0.6c0,0.5,0,1.3,0,1.3
				c-0.1,1-0.3,2-0.6,2.8c0.1,0.2,0.4,0.4,0.5,0.5c0.1,0.1,0.4,0.5,0.2,1c-0.2,0.5-0.5,1.2-0.7,1.4c-0.2,0.2-0.2,0.7-0.3,0.7
				c0,0-0.2-0.5-0.4-0.7c0,0-0.1-0.1-0.2-0.1c-0.2,0.5-0.5,0.8-0.7,0.9c-0.3,0.2-0.8,0.2-1,0.2c-0.2,0-0.5,0.2-0.7,0.3
				c0-0.1,0-0.3,0-0.5c0-0.2-0.3-0.3-0.3-0.6c0-0.1,0-0.9,0.4-1.4c-0.5-0.1-0.9-0.4-1-0.6c1-0.4,0.9-1.6,1.7-1.8
				c0.3,0,1.3,0.4,1.7,0.4c0.4-1,0.5-1.9,0.6-2.7c-0.4-0.2-0.7-0.6-0.8-1.2c0,0-3.3-0.9-4.5,1c0,0-2.9-4.9,8.3-3.9
				c0,0,1.8-1.6,4.4-1.1c5.8,1.2,7.9-0.3,8.6-1.1c0,0-2.5,4.7-4.7,6.4c-2.1,1.6-7,9.8-1.1,10.5c-1.5-2.9-2.2-5.4,1.6-3.1
				c0,0,5,3.6,7.7-3.7c0,0-0.6-1.4,1.4-1.9c2-0.5,14.6-0.3,20.7-4.9C73,90,72.4,94.2,70.5,98.9z M73.6,76.4L72,75.6l0.6,1.6
				c0,0-0.4-0.3-1.1-0.7l0.3,0.8c0,0-0.6,0.3-1,0.4C70.4,77.8,60,68.7,48.1,80c-1.3,1.2-1.4,1.6-3,0C34.6,69.3,22.4,78,22.4,78
				l-0.7-0.4l0.4-0.9C21.4,77,21,77.2,21,77.2l0.8-1.9c-1.1,0.5-1.7,0.9-1.7,0.9l0.6-1.4c-0.7,0.3-1,0.5-1,0.5l7-17.4
				c9.6-8.5,20.5-0.4,20.5-0.4S59,49,67.2,57.7l6.6,17.5l-1-0.4L73.6,76.4z M87.5,24.8l-3.4-0.5l3.1,1.4c-0.7,1.7-1.7,3.5-2.9,5
				l-3-1.6l2.4,2.4c-1.5,1.7-3.3,3-5.5,3.7L76,30.9l1.1,4.4c-0.8,0.1-1.6,0.2-2.5,0.1c-0.3,0-0.7-0.1-1-0.1c2.5,2.7,4.6,5.9,4.7,9.1
				c0,0-1.6-3.8-4.8-4.3l0.7,1.8c0,0-3-1.7-4.8-1.3c-0.1,0-0.1,0-0.2,0c-1.4,3-0.4,6.8-0.4,6.8c2.3,0.5,4.4,1.7,4.4,1.7
				c-3.9-0.4-5.3-0.6-8.1-0.3c-1.4,0.1-3.2,1.3-3.2,1.3c0.2-2.4,5.5-3.4,5.5-3.4c0.4-3.4-2.5-6-3.9-7c-4.1-2.1-7-7-4.3-12
				c2.5-4.6,2.7-6.5,2.3-7.2C61,19.7,58.2,20,58.2,20s-0.4,0.1-0.8,0.2l0-1.2c0,0-0.2-0.5-0.6-0.3c0,0,0.2,0.1,0.2,0.5
				c0,0.4,0,1,0,1c-0.1,0.8-0.3,1.6-0.5,2.3c0.1,0.1,0.3,0.3,0.4,0.4c0.1,0.1,0.3,0.4,0.2,0.8c-0.2,0.4-0.4,1-0.6,1.1
				c-0.2,0.2-0.2,0.6-0.3,0.6c0,0-0.2-0.4-0.3-0.6c0,0-0.1-0.1-0.1-0.1c-0.2,0.4-0.4,0.6-0.6,0.7c-0.2,0.1-0.7,0.2-0.8,0.1
				c-0.2,0-0.4,0.1-0.6,0.2c0-0.1,0-0.3,0-0.4c0-0.1-0.2-0.2-0.2-0.5c0-0.1,0-0.7,0.3-1.1c-0.4-0.1-0.7-0.3-0.8-0.5
				c0.8-0.3,0.7-1.3,1.4-1.4c0.2,0,1,0.3,1.4,0.4c0.3-0.8,0.4-1.5,0.5-2.2c-0.3-0.2-0.6-0.4-0.6-1c0,0-2.6-0.7-3.6,0.8
				c0,0-2.3-3.9,6.6-3.1c0,0,1.4-1.3,3.5-0.9c4.6,1,6.3-0.2,6.9-0.9c0,0-2,3.7-3.7,5.1c-1.7,1.3-5.6,7.8-0.8,8.4
				c-1.2-2.3-1.7-4.3,1.3-2.4c0,0,3.9,2.8,6.2-2.9c0,0-0.5-1.1,1.1-1.5c1.6-0.4,11.6-0.2,16.5-3.9C89.5,17.7,89,21,87.5,24.8z"/>
			<path d="M66.5,41.1C66.5,41.2,66.5,41.2,66.5,41.1c0.1,0.1,0.2,0.2,0.3,0.3c0.1,0.1,0.1,0.1,0.2,0.2c0,0,0,0,0.1,0.1
				c0.3,0.3,0.5,0.7,0.5,1.1v-1.7L66,40.7C66.2,40.9,66.3,41,66.5,41.1z"/>
		</g>
		<g>
			<g>
				<path d="M29.4,62.6l0.3-0.1c0.4-0.1,0.6-0.3,0.8-1l0.3,0c-0.1,0.4-0.2,0.8-0.2,1.2c-0.1,0.4-0.1,0.7-0.2,1.1l-0.3,0
					c0-0.5,0-0.9-0.5-0.8l-0.3,0l-0.5,1.5c-0.2,0.6,0,0.6,0.8,0.5l-0.1,0.3c-0.5,0.1-1.1,0.2-1.7,0.3c-0.5,0.1-0.8,0.2-1.6,0.3
					l0.1-0.3c0.8-0.2,0.9-0.4,1.1-1.1l0.9-2.7c0.2-0.8,0.2-1.1-0.5-1l0.1-0.3c0.5,0,1.3-0.1,2-0.3c0.8-0.2,1.6-0.4,2.5-0.6l-0.1,1.4
					l-0.4,0.1c0-1-0.3-0.8-1.3-0.6c-0.6,0.1-0.7,0.2-0.9,0.8L29.4,62.6z"/>
				<path d="M33.7,61.1c0.1-0.7,0.2-0.9-0.5-0.9l0.1-0.4c0.4-0.1,0.7-0.1,1.2-0.1c0.5-0.1,0.8-0.1,1.3-0.2l0,0.4
					c-0.7,0.1-0.8,0.3-0.9,1l-0.7,2.7c-0.2,0.9-0.2,1.1,0.5,1.1L34.6,65c-0.4,0-0.9,0-1.4,0c-0.4,0-1,0.1-1.5,0.1l0.1-0.3
					c0.7-0.1,0.9-0.4,1.1-1.2L33.7,61.1z"/>
				<path d="M36.9,63.7c-0.1,0.2-0.2,0.3-0.3,0.7c-0.2,0.4,0.3,0.5,0.5,0.6l-0.1,0.3c-0.3,0-0.6-0.1-0.9-0.1c-0.3,0-0.6,0-0.8,0
					l0.1-0.3c0.6,0,0.9-0.7,1.2-1.3c0.8-1.7,1.8-3.9,1.8-3.9l0.6,0.1c0,0,0.7,3.6,0.8,4.4c0.1,0.7,0.1,0.8,0.2,1.1
					c0,0.2,0.3,0.4,0.5,0.5l-0.1,0.3c-0.4-0.1-0.7-0.2-1.2-0.3c-0.4-0.1-0.8-0.2-1.3-0.2l0.1-0.4c0.3,0,0.7,0,0.7-0.4
					c0-0.1-0.1-0.6-0.1-0.7l-0.1-0.4c0,0-0.4-0.1-0.8-0.1c-0.4-0.1-0.8-0.1-0.8-0.1L36.9,63.7z M37.9,63c0.4,0,0.7,0.1,0.7,0.1
					L38.2,61l-0.9,1.9C37.3,62.9,37.5,62.9,37.9,63z"/>
				<path d="M44.5,63.4l-0.3-0.1c0-0.8,0-1.5-0.4-1.7c-0.4-0.2-0.5,0-0.6,0.7l-0.3,3c-0.1,0.8,0,1.1,0.6,1.5l0,0.4
					c-0.5-0.2-0.9-0.4-1.2-0.6c-0.4-0.2-0.8-0.3-1.3-0.5l0.1-0.3c0.7,0.2,0.7,0,0.8-0.8l0.3-3c0.1-0.6,0.2-1-0.3-1.1
					c-0.6-0.2-0.6,0.4-0.8,1.1l-0.3-0.1l0.2-1.7c0,0,1.1,0.2,2,0.6c1,0.4,1.7,0.9,1.7,0.9L44.5,63.4z"/>
				<path d="M51.4,67.1c0.6-0.4,0.6-0.7,0.6-1.4l-0.2-3c0-0.8,0-1.2-0.7-0.9l0-0.4c0.5-0.2,0.7-0.3,1.1-0.5c0.5-0.2,0.9-0.3,1.4-0.4
					l0,0.4c-0.7,0.2-0.6,0.6-0.6,1.4l0.1,2.5c0,0.9,0.1,1.4,1,1.2c1.1-0.3,1.5-0.8,1.6-1.9l0.3,0l0,1.9c-1.4,0.3-3,0.9-3.4,1
					c-0.4,0.2-0.9,0.4-1.3,0.6L51.4,67.1z"/>
				<path d="M55.6,60.3c0.6-0.1,1-0.1,1.4-0.1c0.4,0,0.8,0,1.4,0l0,0.3c-0.7,0-0.7,0.5-0.6,1.2l0.2,1.4c0.1,1.2,0.5,1.9,1.6,1.8
					c1.1,0,1.1-0.6,1-1.7L60.3,62c0-0.3-0.1-0.7-0.3-1c-0.1-0.3-0.3-0.4-0.6-0.4l0-0.3c0.3,0,0.6,0.1,0.9,0.1c0.3,0,0.4,0,0.8,0.1
					l0,0.3c-0.2,0-0.4,0.1-0.5,0.4c-0.1,0.3,0,0.7,0,1l0.1,0.8c0.2,1.7,0.4,2.5-1.6,2.6c-1.2,0.1-2.5-0.4-2.7-2.3l-0.2-1.5
					c-0.1-0.8-0.1-1.1-0.8-1.1L55.6,60.3z"/>
				<path d="M66.2,65.7c0.3,0.4,0.5,0.7,0.9,0.7l0.1,0.3c-0.5-0.1-0.8-0.1-1.3-0.2c-0.4-0.1-0.8-0.1-1.3-0.2l0-0.3
					c0.1,0,0.4,0,0.4,0c0.1,0,0.1-0.1,0.1-0.2c0-0.2-0.3-0.6-0.4-0.7L64,64l-0.4,0.6c-0.1,0.2-0.3,0.6-0.3,0.8
					c0,0.3,0.3,0.4,0.5,0.5l0,0.3c-0.4-0.1-0.6-0.1-1-0.2c-0.3,0-0.6-0.1-0.8-0.1l0-0.3c0.4,0.1,0.6-0.3,0.8-0.6l0.9-1.3l-1-1.5
					c-0.1-0.2-0.2-0.4-0.4-0.6c-0.2-0.3-0.3-0.3-0.5-0.4l0-0.3c0.3,0.1,0.7,0.2,1.1,0.3c0.4,0.1,0.8,0.1,1.1,0.2l0,0.4
					c-0.2,0-0.5-0.1-0.4,0.2c0,0.2,0.1,0.3,0.2,0.5l0.5,0.7l0.3-0.5c0.1-0.2,0.2-0.3,0.3-0.4c0.1-0.2-0.2-0.4-0.5-0.4l0-0.3
					c0.3,0,0.5,0.1,0.8,0.1c0.3,0,0.4,0,0.7,0l0.1,0.3c-0.4,0-0.5,0.2-0.8,0.6l-0.7,1L66.2,65.7z"/>
			</g>
		</g>
		<g>
			<path d="M163.6,114.1c-1,0-3.7,8.1-22,8.1c-6.6,0-6-1.9-6-6.6V77.3c0-6.9,5.8-4.9,5.8-6.7c0-0.9-0.5-1.1-1.5-1.1
				c-1.2,0-3.1,0.3-7.6,0.3c-3.9,0-6.3-0.3-8-0.3c-1,0-1.6,0.2-1.6,1c0,1.6,6.6,1,6.6,5.1v40.1c0,3.7-0.2,5.9-2.2,6.9
				c-2.5,1.3-3.3,1.1-3.5,2.1c0,0.6,0.5,0.8,1.2,0.8c3.2,0,6.5-0.2,9.6-0.3c6-0.2,12,0.3,18,0.3c3.5,0,5.2,0.2,7.8-2.7
				c1.9-2.1,4-4.8,4-7.7C164.2,114.9,164.1,114.1,163.6,114.1z"/>
			<path d="M179.5,118.7V76.2c0-5.9,5.7-4.1,5.7-6c0-0.6-0.2-0.8-1.5-0.8c-2.5,0-4.9,0.3-7.4,0.3c-2.9,0-5.8-0.3-8.7-0.3
				c-0.6,0-0.8,0.2-0.8,0.9c0,1.7,6.3,0.2,6.4,5.9v40.5c0,7.8-6.2,5.2-6.2,7.5c0,0.8,0.2,1.2,1.7,1.2c1.1,0,2.8-0.3,7.6-0.3
				c3.4,0,6.8,0.3,8.6,0.3c1.3,0,1.6-0.2,1.6-0.8C186.5,122.3,179.5,124.1,179.5,118.7z"/>
			<path d="M242.7,69.4c-1.1,0-2.3,0.3-6.1,0.3c-1.7,0-3.5-0.3-5.2-0.3c-0.8,0-1.2,0.2-1.2,1c0,1.8,5.1,0.3,5.1,4
				c0.3,1.7-0.6,4.2-1.1,5.4l-13.8,33.9c-0.4,0.9-0.6,2.2-1.4,2.2c-0.9,0-1.4-1.8-3.2-6L202,77.4c-0.3-0.7-0.7-2-0.7-3.1
				c0-2.8,3.3-2.9,3.2-4c0-0.5-0.6-0.8-1.1-0.8c-1.1,0-4.1,0.3-6.2,0.3c-2.4,0-4.8-0.3-7.3-0.3c-0.7,0-1.1,0.4-1.1,1.1
				c0,1.7,4.1,0.2,6.1,5l19.5,46.2c0.7,1.7,1.7,5,2.9,5c1.2,0,1.7-2.6,2.6-4.6l19.7-46.6c2.2-5.3,4.4-3.3,4.4-5.1
				C244.1,69.8,243.6,69.4,242.7,69.4z"/>
			<path d="M288.6,114.1c-1,0-3.7,8.1-22,8.1c-6.6,0-6-1.9-6-6.6v-14.6c0-1.2-0.2-2.5,1.4-2.5h11.7c6.6,0,4,7,6.4,7
				c0.6,0,0.9-0.3,0.9-1c0-2.1-0.2-4.2-0.2-6.2c0-2.5,0.2-5.2,0.2-8c0-0.6-0.2-1.5-0.9-1.5c-1.9,0,0.2,6.3-8,6.3h-8.5
				c-3.2,0-3,0-3-2.7V77.8c0-5.3-0.2-5,7.4-5c3.2,0,11.4-0.5,13.4,2.2c1.3,1.8,0,5.6,1.9,5.6c0.5,0,1.6-0.6,1.6-9.4
				c0-0.9-0.2-1.7-0.8-1.7c-2.5,0-9.7,0.3-11.3,0.3c-3.3,0-7.4-0.3-22.4-0.3c-2.3,0-2.8,0.3-2.8,0.9c0,0.9,1.7,1.1,2.4,1.3
				c4.3,0.6,4.3,4.4,4.3,8v36.1c0,3.7-0.2,5.9-2.2,6.9c-2.5,1.3-3.3,1.1-3.5,2.1c0,0.6,0.5,0.8,1.2,0.8c3.2,0,6.5-0.2,9.6-0.3
				c6-0.2,12,0.3,18,0.3c3.5,0,5.2,0.2,7.8-2.7c1.9-2.1,4-4.8,4-7.7C289.2,114.9,289.1,114.1,288.6,114.1z"/>
			<path d="M420.2,68.7c-16.2,0-29,11.9-29,28.4c0,16.7,10.5,28.9,27.7,28.9c17.6,0,29.9-11.5,29.9-29.3
				C448.7,80.4,436.3,68.7,420.2,68.7z M422.2,123.6c-15.7,0-25.2-14.2-25.2-28.8c0-12.5,7.6-23.5,20.9-23.5
				c15.4,0,25.1,14,25.1,28.4C443,114.4,433.7,123.6,422.2,123.6z"/>
			<path d="M483.7,68.7c-16.2,0-29,11.9-29,28.4c0,16.7,10.5,28.9,27.7,28.9c17.6,0,29.9-11.5,29.9-29.3
				C512.2,80.4,499.8,68.7,483.7,68.7z M485.7,123.6c-15.7,0-25.2-14.2-25.2-28.8c0-12.5,7.6-23.5,20.9-23.5
				c15.4,0,25.2,14,25.2,28.4C506.5,114.4,497.2,123.6,485.7,123.6z"/>
			<path d="M556,114.1c-1,0-3.7,8.1-22,8.1c-6.6,0-6-1.9-6-6.6V77.3c0-6.9,5.8-4.9,5.8-6.7c0-0.9-0.5-1.1-1.5-1.1
				c-1.2,0-3.1,0.3-7.6,0.3c-3.9,0-6.3-0.3-8-0.3c-1,0-1.6,0.2-1.6,1c0,1.6,6.6,1,6.6,5.1v40.1c0,3.7-0.2,5.9-2.2,6.9
				c-2.5,1.3-3.3,1.1-3.5,2.1c0,0.6,0.5,0.8,1.2,0.8c3.2,0,6.5-0.2,9.7-0.3c6-0.2,12,0.3,18,0.3c3.5,0,5.2,0.2,7.7-2.7
				c1.9-2.1,4-4.8,4-7.7C556.6,114.9,556.6,114.1,556,114.1z"/>
			<rect x="104.9" y="56.7" width="462.1" height="1.2"/>
			<rect x="203.7" y="17.5" width="3.4" height="27.7"/>
			<polygon points="280.6,42.2 265.9,42.2 265.9,32.6 280.3,32.6 280.3,29.5 265.9,29.5 265.9,20.6 280.6,20.6 280.6,17.5 
				262.5,17.5 262.5,45.3 280.6,45.3 			"/>
			<polygon points="237,45.3 248.1,17.5 244.2,17.5 234.8,41.5 225.5,17.5 221.5,17.5 232.7,45.3 			"/>
			<polygon points="167,23.1 183.1,45.3 186.4,45.3 186.4,17.5 183,17.5 183,39.2 167,17.5 163.5,17.5 163.5,45.3 167,45.3 			"/>
			<path d="M134.9,45.8c7.5,0,11.3-4.4,11.3-11.3V17.5h-3.5v16.9c0,5.1-2.7,8.3-7.9,8.3c-5.1,0-7.8-3.2-7.8-8.3V17.5h-3.5v17
				C123.6,41.3,127.4,45.8,134.9,45.8z"/>
			<polygon points="528,32.6 542.4,32.6 542.4,29.5 528,29.5 528,20.6 542.7,20.6 542.7,17.5 524.6,17.5 524.6,45.3 528,45.3 			"/>
			<polygon points="434.7,45.3 438.1,45.3 438.1,33.5 449,17.5 445,17.5 436.4,30.4 427.8,17.5 423.7,17.5 434.7,33.5 			"/>
			<polygon points="397.1,45.3 400.6,45.3 400.6,20.6 409.4,20.6 409.4,17.5 388.3,17.5 388.3,20.6 397.1,20.6 			"/>
			<path d="M301.3,34.2h5.6l7,11h4.1L310.5,34c3.8-0.3,7.2-3.1,7.2-8.1c0-5.1-3.7-8.4-8.7-8.4h-11.1v27.7h3.4V34.2z M301.3,20.6h7.3
				c3.3,0,5.6,2.1,5.6,5.3c0,3.1-2.3,5.3-5.6,5.3h-7.3V20.6z"/>
			<path d="M494.6,45.8c8.2,0,13.8-6.2,13.8-14.3c0-8.2-5.6-14.3-13.8-14.3c-8.2,0-13.8,6.2-13.8,14.3
				C480.9,39.6,486.4,45.8,494.6,45.8z M494.6,20.2c6.2,0,10.2,4.8,10.2,11.3c0,6.4-4,11.3-10.2,11.3c-6.2,0-10.2-4.8-10.2-11.3
				C484.4,24.9,488.4,20.2,494.6,20.2z"/>
			<rect x="368.7" y="17.5" width="3.4" height="27.7"/>
			<path d="M343,42.7c-3.9,0-6.9-1.9-8.7-4l-2.1,2.7c2.3,2.6,5.9,4.4,10.6,4.4c7.5,0,10.2-4.2,10.2-8.1c0-10.3-16.4-6.8-16.4-13
				c0-2.6,2.4-4.4,5.7-4.4c3,0,5.9,1,8,3.3l2.1-2.5c-2.3-2.5-5.6-3.9-9.8-3.9c-5.5,0-9.6,3.2-9.6,7.7c0,9.9,16.4,5.9,16.4,13
				C349.5,40,347.9,42.7,343,42.7z"/>
			<path d="M359.4,74.6c0-2.4,1.7-2.4,4.3-2.4c9.1,0,16.5,5.1,16.5,14.6c0,7.1-4.7,11-12.8,11c-2.8,0-4.5-0.5-5.1-0.5
				c-0.4,0-0.8,0.2-0.8,0.7c0,1.4,4.6,1.8,5.4,1.8c16.8,0,19.2-12,19.2-15.2c0-11.8-11.1-15.3-21.2-15.3c-3.8,0-5.1,0.3-9,0.3
				c-4.6,0-7.4-0.3-8.1-0.3c-0.6,0-1,0.6-1,1.2c0,2.8,6.5-2,6.5,7.5V116c0,8.8-6.2,6.3-6.2,8.5c0,0.7,0.8,0.9,1.3,0.9
				c2.3,0,4.9-0.3,8.6-0.3c4.7,0,5.9,0.3,8.5,0.3c2,0,2.3-0.4,2.3-0.9c0-2.7-8.3,1.4-8.3-10V74.6z"/>
			<path d="M321.4,96.8c5.5-2.2,10-7.5,10-13.7c0-15.3-17.5-13.7-18.7-13.7c-4.1,0-8.6,0.3-13.2,0.3c-4,0-3.6-0.3-5.1-0.3
				c-0.9,0-1.6,0.5-1.6,0.9c0,2.7,6.8-0.6,6.8,7v40.3c0,6-5.8,4.9-5.8,6.9c0,0.5,0.3,0.9,0.8,0.9c3,0,6-0.3,9-0.3
				c6.6,0,8.4,0.3,9.1,0.3c0.6,0,1.3,0.2,1.3-0.6c0-2.7-8.2-0.2-8.2-7v-16.7c0-0.8-0.5-2.2,2.1-2.2c8.9,0,7.7-0.2,10.5,4.2l8.8,13.8
				c3,4.5,6.1,8.5,11.9,8.5c0.7,0,5.1,0,5.1-0.9c0-1.9-3.9,1-9.6-7.7L321.4,96.8z M305.8,75c0-3.1,1.7-2.9,4.5-2.9
				c7.7,0,15.1,3.2,15.1,12.9c0,9.8-7.6,11.2-11,11.2c-3.7,0-8.6,0.4-8.6-1.1V75z"/>
		</g>
	</g>
</g>
</svg>
