<svg xmlns="http://www.w3.org/2000/svg" viewBox="0 0 389.52 224.2"><defs><style>.a{fill:#231f20;}.a,.b,.c,.d{fill-rule:evenodd;}.b{fill:#e13a3e;}.c{fill:#7b7ebc;}.d{fill:#ffd659;}</style></defs><title>Students Union University of Nottingham logo - Brandlogos.net</title><path class="a" d="M398.66,613.64a6.5,6.5,0,0,0,1.48,4.65,7.21,7.21,0,0,0,8.89,0,6.51,6.51,0,0,0,1.48-4.65v-9.5h-1.84v9.5a4.93,4.93,0,0,1-1,3.4,5,5,0,0,1-6.2,0,4.93,4.93,0,0,1-1-3.4v-9.5h-1.84v9.5Z" transform="translate(-317.24 -399.9)"/><path class="a" d="M415.61,619.43v-4.95a7.54,7.54,0,0,1,.13-1.67,2.37,2.37,0,0,1,.43-.86,2.58,2.58,0,0,1,1-.75,3.17,3.17,0,0,1,1.33-.27,2.38,2.38,0,0,1,1.88.7,3.25,3.25,0,0,1,.61,2.16v5.64h1.67v-6.52a3.27,3.27,0,0,0-.95-2.49,3.67,3.67,0,0,0-2.64-.9,4.3,4.3,0,0,0-2,.45,4,4,0,0,0-1.48,1.36v-1.45H414v9.55Z" transform="translate(-317.24 -399.9)"/><path class="a" d="M425.95,606.13a1.23,1.23,0,0,0,1.71,0,1.14,1.14,0,0,0,.34-.84,1.19,1.19,0,0,0-.35-.86,1.16,1.16,0,0,0-.84-.35,1.2,1.2,0,0,0-1.21,1.2,1.15,1.15,0,0,0,.35.86Zm1.68,13.29v-9.55H426v9.55Z" transform="translate(-317.24 -399.9)"/><polygon class="a" points="117 220.13 112.27 209.98 114.11 209.98 116.99 216.65 119.88 209.98 121.72 209.98 117 220.13 117 220.13"/><path class="a" d="M449.24,614.92h-7.57v.15a3.43,3.43,0,0,0,.88,2.45,3,3,0,0,0,2.28.94,3,3,0,0,0,1.73-.51,4.53,4.53,0,0,0,1.37-1.55l1.25.82a4.77,4.77,0,0,1-4.43,2.61,4.61,4.61,0,0,1-3.54-1.44,5.3,5.3,0,0,1-1.35-3.78,5.13,5.13,0,0,1,1.34-3.66,4.49,4.49,0,0,1,3.44-1.43,4.31,4.31,0,0,1,3.36,1.37,5.31,5.31,0,0,1,1.24,3.72v.32Zm-1.77-1.34a2.76,2.76,0,0,0-.84-1.95,3,3,0,0,0-2.07-.68,2.83,2.83,0,0,0-2,.71,2.87,2.87,0,0,0-.91,1.92Z" transform="translate(-317.24 -399.9)"/><path class="a" d="M451.73,619.43v-9.55h1.47v2a5,5,0,0,1,1.4-1.78,3,3,0,0,1,1.8-.53,3.4,3.4,0,0,1,.56,0,3.67,3.67,0,0,1,.55.15l-.55,1.48a4,4,0,0,0-.53-.14,2.61,2.61,0,0,0-.48,0A2.21,2.21,0,0,0,454,612a5,5,0,0,0-.64,2.81v4.65Z" transform="translate(-317.24 -399.9)"/><path class="a" d="M458.21,617.8l1.4-.94a2.93,2.93,0,0,0,1,1.15,2.7,2.7,0,0,0,1.44.38,2.06,2.06,0,0,0,1.3-.39,1.29,1.29,0,0,0,.5-1.05,1.12,1.12,0,0,0-.34-.84,3.08,3.08,0,0,0-1.17-.62l-.27-.1q-3.49-1.19-3.49-3a2.58,2.58,0,0,1,.95-2.07,3.61,3.61,0,0,1,2.45-.81,4.35,4.35,0,0,1,2.13.49,2.83,2.83,0,0,1,1.28,1.4l-1.33.82a2.24,2.24,0,0,0-.87-1,2.46,2.46,0,0,0-1.33-.35,1.71,1.71,0,0,0-1.18.4,1.31,1.31,0,0,0-.46,1q0,.87,1.91,1.47l.56.18a5.2,5.2,0,0,1,2.18,1.15,2.35,2.35,0,0,1,.62,1.7,2.8,2.8,0,0,1-1,2.21,3.75,3.75,0,0,1-2.54.84,4.74,4.74,0,0,1-2.28-.5,3.67,3.67,0,0,1-1.5-1.52Z" transform="translate(-317.24 -399.9)"/><path class="a" d="M467.62,605.27a1.19,1.19,0,0,1,1.21-1.2,1.14,1.14,0,0,1,.84.35,1.2,1.2,0,0,1,.35.86,1.14,1.14,0,0,1-.35.84,1.17,1.17,0,0,1-.85.34,1.19,1.19,0,0,1-.86-.34,1.16,1.16,0,0,1-.35-.86Zm.4,14.16v-9.55h1.64v9.55Z" transform="translate(-317.24 -399.9)"/><polygon class="a" points="156.13 211.32 154.37 211.32 154.37 209.98 156.13 209.98 156.13 206.11 157.81 206.11 157.81 209.98 159.57 209.98 159.57 211.32 157.81 211.32 157.81 219.53 156.13 219.53 156.13 211.32 156.13 211.32"/><polygon class="a" points="162.87 224.2 169.28 209.98 167.49 209.98 164.54 216.84 161.76 209.98 159.87 209.98 163.62 218.6 161.03 224.2 162.87 224.2 162.87 224.2"/><path class="a" d="M493.6,614.66a5.11,5.11,0,0,1,.39-2,5,5,0,0,1,1.13-1.67,5.18,5.18,0,0,1,1.69-1.11,5.33,5.33,0,0,1,2-.38,5,5,0,0,1,2,.39,5.37,5.37,0,0,1,1.7,1.12,4.9,4.9,0,0,1,1.13,1.66,5.11,5.11,0,0,1,.38,2,5,5,0,0,1-.38,2,4.84,4.84,0,0,1-1.13,1.64,5.39,5.39,0,0,1-1.71,1.15,5,5,0,0,1-2,.4,5.14,5.14,0,0,1-2-.39,5.2,5.2,0,0,1-2.82-2.8,5,5,0,0,1-.39-2Zm1.74,0a3.57,3.57,0,0,0,1,2.57,3.37,3.37,0,0,0,4.89,0,3.81,3.81,0,0,0,0-5.14,3.26,3.26,0,0,0-2.44-1.05,3.3,3.3,0,0,0-2.46,1.05,3.57,3.57,0,0,0-1,2.57Z" transform="translate(-317.24 -399.9)"/><path class="a" d="M507,619.43v-8.21h-1.84v-1.34H507v-2.77a6,6,0,0,1,.6-3.23,2.46,2.46,0,0,1,2.16-.85,4.77,4.77,0,0,1,.74.06,4.13,4.13,0,0,1,.67.17V605a2.5,2.5,0,0,0-.63-.26,2.61,2.61,0,0,0-.65-.09,1.05,1.05,0,0,0-1,.46,5.62,5.62,0,0,0-.27,2.26v2.56h2.54v1.34h-2.5v8.21Z" transform="translate(-317.24 -399.9)"/><polygon class="a" points="201.97 219.53 201.97 203.61 213.15 215.85 213.15 204.25 214.88 204.25 214.88 220.13 203.7 208.04 203.7 219.53 201.97 219.53 201.97 219.53"/><path class="a" d="M534.86,614.66a5.14,5.14,0,0,1,.38-2,5.07,5.07,0,0,1,1.13-1.67,5.13,5.13,0,0,1,1.69-1.11,5.33,5.33,0,0,1,2-.38,5.05,5.05,0,0,1,2,.39,5.32,5.32,0,0,1,1.7,1.12,5,5,0,0,1,1.13,1.66,5.18,5.18,0,0,1,.39,2,5.08,5.08,0,0,1-.39,2,4.91,4.91,0,0,1-1.13,1.64,5.38,5.38,0,0,1-1.71,1.15,5,5,0,0,1-2,.4,5.17,5.17,0,0,1-2-.39,5.24,5.24,0,0,1-2.82-2.8,5,5,0,0,1-.38-2Zm1.74,0a3.57,3.57,0,0,0,1,2.57,3.28,3.28,0,0,0,2.46,1,3.25,3.25,0,0,0,2.44-1,3.79,3.79,0,0,0,0-5.14,3.26,3.26,0,0,0-2.44-1.05,3.3,3.3,0,0,0-2.46,1.05,3.57,3.57,0,0,0-1,2.57Z" transform="translate(-317.24 -399.9)"/><polygon class="a" points="230.83 219.53 232.5 219.53 232.5 211.32 234.27 211.32 234.27 209.98 232.5 209.98 232.5 206.11 230.83 206.11 230.83 209.98 229.06 209.98 229.06 211.32 230.83 211.32 230.83 219.53 230.83 219.53"/><polygon class="a" points="236.36 211.32 234.59 211.32 234.59 209.98 236.36 209.98 236.36 206.11 238.03 206.11 238.03 209.98 239.8 209.98 239.8 211.32 238.03 211.32 238.03 219.53 236.36 219.53 236.36 211.32 236.36 211.32"/><path class="a" d="M558.57,605.27a1.2,1.2,0,0,1,1.21-1.2,1.15,1.15,0,0,1,.84.35,1.19,1.19,0,0,1,.35.86,1.15,1.15,0,0,1-.34.84,1.24,1.24,0,0,1-1.71,0,1.16,1.16,0,0,1-.35-.86Zm.4,14.16v-9.55h1.64v9.55Z" transform="translate(-317.24 -399.9)"/><path class="a" d="M565.69,619.43v-4.95a7.67,7.67,0,0,1,.13-1.67,2.39,2.39,0,0,1,.43-.86,2.56,2.56,0,0,1,1-.75,3.16,3.16,0,0,1,1.33-.27,2.37,2.37,0,0,1,1.88.7,3.26,3.26,0,0,1,.61,2.16v5.64h1.67v-6.52a3.26,3.26,0,0,0-.95-2.49,3.67,3.67,0,0,0-2.64-.9,4.3,4.3,0,0,0-2,.45,4,4,0,0,0-1.48,1.36v-1.45h-1.61v9.55Z" transform="translate(-317.24 -399.9)"/><path class="a" d="M583.26,609.88v1.75a3.68,3.68,0,0,0-1.42-1.58,4,4,0,0,0-2.09-.54,4.18,4.18,0,0,0-3.27,1.37,6.19,6.19,0,0,0,0,7.44,4.25,4.25,0,0,0,3.32,1.41,3.81,3.81,0,0,0,2-.55,4.05,4.05,0,0,0,1.46-1.58v1.61a6.84,6.84,0,0,1-.1,1.35,2.56,2.56,0,0,1-.31.83,2.32,2.32,0,0,1-1.06.95,4,4,0,0,1-1.68.32,3.31,3.31,0,0,1-2.1-.59,2,2,0,0,1-.74-1.66v-.13h-1.83a3.56,3.56,0,0,0,1.27,2.82,5.25,5.25,0,0,0,3.39,1,6.49,6.49,0,0,0,2.22-.35,4.27,4.27,0,0,0,1.64-1.08,3.21,3.21,0,0,0,.69-1.18,8.36,8.36,0,0,0,.21-2.22v-9.38Zm-.79,7.35a2.93,2.93,0,0,1-2.29.92,3,3,0,0,1-2.36-.95,3.91,3.91,0,0,1-.83-2.67,3.65,3.65,0,0,1,.83-2.55,3.27,3.27,0,0,1,4.61.07,4.32,4.32,0,0,1,.05,5.16Z" transform="translate(-317.24 -399.9)"/><path class="a" d="M588.2,619.43V603.24h1.61v8.08a4,4,0,0,1,1.48-1.36,4.3,4.3,0,0,1,2-.45,3.66,3.66,0,0,1,2.63.9,3.26,3.26,0,0,1,.95,2.49v6.52H595.2v-5.64a3.26,3.26,0,0,0-.61-2.16,2.37,2.37,0,0,0-1.88-.7,3.18,3.18,0,0,0-1.33.27,2.54,2.54,0,0,0-1,.75,2.33,2.33,0,0,0-.43.86,7.4,7.4,0,0,0-.13,1.67v4.95Z" transform="translate(-317.24 -399.9)"/><path class="a" d="M609,609.88v9.55h-1.6v-1.75a4.21,4.21,0,0,1-1.47,1.6,3.73,3.73,0,0,1-2,.55,4.23,4.23,0,0,1-3.31-1.41,6.29,6.29,0,0,1,0-7.51,4.11,4.11,0,0,1,3.27-1.4,3.84,3.84,0,0,1,2.08.55,3.89,3.89,0,0,1,1.43,1.61v-1.79Zm-1.6,4.85a3.78,3.78,0,0,0-.88-2.6,3.27,3.27,0,0,0-4.6-.07,3.62,3.62,0,0,0-.83,2.53,3.9,3.9,0,0,0,.83,2.67,3,3,0,0,0,2.35.94,2.93,2.93,0,0,0,2.3-.92,3.64,3.64,0,0,0,.83-2.55Z" transform="translate(-317.24 -399.9)"/><path class="a" d="M625.57,619.43v-5.64a3.37,3.37,0,0,0-.58-2.16,2.22,2.22,0,0,0-1.8-.7,2.73,2.73,0,0,0-1.22.27,2.56,2.56,0,0,0-.94.75,2.4,2.4,0,0,0-.41.88,7.53,7.53,0,0,0-.12,1.65v4.95h-1.57v-5.64a3.35,3.35,0,0,0-.58-2.16,2.22,2.22,0,0,0-1.8-.7,2.82,2.82,0,0,0-1.23.27,2.59,2.59,0,0,0-1,.75,2.38,2.38,0,0,0-.39.85,7.77,7.77,0,0,0-.12,1.69v4.95h-1.57v-9.55h1.59v1.45A4,4,0,0,1,615.3,610a3.92,3.92,0,0,1,1.9-.45,3.71,3.71,0,0,1,2,.5,3,3,0,0,1,1.22,1.44,4.27,4.27,0,0,1,1.46-1.45,3.86,3.86,0,0,1,2-.48,3.12,3.12,0,0,1,3.4,3.4v6.52Z" transform="translate(-317.24 -399.9)"/><path class="b" d="M592.54,505.29c.94,0,1.89,0,2.85,0a60.44,60.44,0,0,1,27.15,7.25,32.69,32.69,0,0,1,7.39,5.18c.88.87,4.87,6.33,2.64,7.53a1,1,0,0,0-1.33,0,11.52,11.52,0,0,0,1.14,3.35c-1.1-.38-2.29-.37-3.29-1a4,4,0,0,0,.37.94c-.23-.14-.55-.19-.77-.32-.19.17-.43.29-.66.5,0,.21.07.46.1.67-.78-.15-.45.15-1,.32.23.24.34.64.56.87-.39-.17-.89-.14-1.29-.3-.39.42-1.1.31-1.72.1,0,.16,0,.32,0,.49-.49.06-.82.36-1.38.19a1.4,1.4,0,0,1,.48,1.52c.05-.2-1.56,0-1.71.15-.43.33-.48,1.11-.62,1.59a17.22,17.22,0,0,0-.62,4.15c2.62.35,5-.44,7.45-1.15-.92.69-1.59,1.9-2.56,2.49a11.72,11.72,0,0,1-5.17,1.08,6,6,0,0,0,1.87-.29c-1.1.76-2.87,1-4.13,1.45.2,0,.44,0,.66,0-2,.59-4.25.78-5.92,2a28.84,28.84,0,0,1-5.71,3.2,11.8,11.8,0,0,1-6.57,1.39,32.38,32.38,0,0,1-7.58-.92,24.3,24.3,0,0,0-6.71-.92,5.55,5.55,0,0,0,1.47-.33c-1-.57-2.32.18-3.42-.08a6,6,0,0,0,1.82-.65,14.71,14.71,0,0,0-7-.57c.14-.08.51-.44.75-.57a24.82,24.82,0,0,0-4.42,0c.27-.08.71-.34,1-.42a21.33,21.33,0,0,1-7.2-.14c.35-.08.71-.19,1.06-.27a18,18,0,0,1-4,.27c.4-.12.8-.27,1.2-.39a8.11,8.11,0,0,1-2.59.06c.32-.1.63-.26,1-.36-1.41.16-3,.71-4.41.48.08-.11.22-.13.28-.22a18.92,18.92,0,0,1-3.85.57c.92-.22,1.67-.75,2.57-1-2,.53-4.64,1.88-6.7,1.33a8.26,8.26,0,0,1,2.34-1.19c-.34.14-.76.24-1.07.36a11.16,11.16,0,0,0,1.14-.82,1.68,1.68,0,0,0-.34-.09c2.19-1.29,5-2,7.06-3.53-.21-.28-.29-.67-.6-.94,0-.08.28-.12.28-.1a2.88,2.88,0,0,1-.22-.68c.17,0,.23.16.4.18.4-1.23-.14-1.92-.56-3-.36-.93-.47-2.13-1.26-2.74.37-1-.33-2.85-1-3.69.41-.51.09-2.66.11-3.53,0-1.22.07-2.32.21-3.55a10.11,10.11,0,0,1,1-3.11c.16-.38.12-1.26.25-1.53.67-1.32,3.51-4.45,5.1-4.38a2.71,2.71,0,0,1,.53-.44c.06.07-.17.14-.11.2a58.85,58.85,0,0,1,25.29-6.55Z" transform="translate(-317.24 -399.9)"/><path class="c" d="M405.45,403.15c.31,0,.62.69,1,.75a10,10,0,0,0,1.89,2.57c.53.69,1.13,1.3,1.66,2,1.86,2.34,3.72,4.5,4.14,7.57.11.8-.09,1.6,0,2.39a10.76,10.76,0,0,1-.44,4.8c-1.1,3.35-1.11,6.81-1.35,10.35-.17,2.39-.06,4.75-.16,7.13-.12,2.76-.45,5.51-.31,8.27a38.6,38.6,0,0,0,1.87,10.42,68.36,68.36,0,0,0,3.73,8.66c.71,1.44,1.49,2.85,2.31,4.24,1.66,2.79,3.48,5.47,5.37,8.12A82.53,82.53,0,0,0,437,493.76a77.16,77.16,0,0,0,13.76,10,51.79,51.79,0,0,0,6.65,3.37c2.54,1,5.11.83,7.76.85,2.93,0,5.83-.06,8.76-.31,3.8-.31,8.05-.37,11.66-1.74,3.23-1.22,5.78-3.66,8.54-5.64a86.05,86.05,0,0,0,8.54-7.17,38.76,38.76,0,0,0,5.89-6.42c1.65-2.44,2.92-5.11,4.36-7.68,1.71-3.09,3.24-6.27,4.79-9.43.75-1.52,1.53-3,2.14-4.63.49-1.3,0-2.3,0-3.62a4,4,0,0,1,1.43-3.25c.9-.79,1.8-.62,2.76-1.18.58-.35,1.08-1,1.77-1.14.88-.22,1.49.34,2.3.52a5.79,5.79,0,0,0,2.36,0c1.63-.3,3.15-1.05,4.8-1.23,0-.1-.07-.11-.09-.21.76-.27,1.07.4,1.5.85.37-.42.76-1.15,1.3-1.21-.06.54-.57.84-.75,1.34a2.16,2.16,0,0,0-.07,1.28c.05.79-.14,2.38-.72,2.89.1.17,0,.17.07.39.08,0,.1-.1.17-.08a18.26,18.26,0,0,1-1,2.91c.54.12.85-.7,1.1-1.13s.66-1.1,1-1.66c.73-1.36,1.31-2.77,2-4.14,1.2-2.36,2.72-4.55,4-6.92.62-1.18,1.58-2.58,1.31-4,0,0,0-.09,0-.13a5.57,5.57,0,0,1,0-1.22c.34-.09.46-.2.5-.54,0,0,.17.13.24.2.61-.24,1.24-.42,1.85-.67a8.74,8.74,0,0,1,1.65-.82c1-.15.75.61.8,1.47a10.2,10.2,0,0,0,.18,1.69c0-.22.49-1.1.59-1.34.28.84-.58,1.8-.3,2.66a.68.68,0,0,0,.38-.22,5,5,0,0,0,.27-1.51s0,0,.08,0,.08,0,.12,0c.23,0,.19,2.8.24,3.1a6.27,6.27,0,0,1,.07,1.65c.43.23.38,3.11.47,3.74.06,0,0-.11.12-.08-.19.71.12,1.42,0,2.16s-.4,1.55-.56,2.32c-.28,1.35-.68,2.73-.85,4.12a39.62,39.62,0,0,1-2.62,9.19,63.71,63.71,0,0,1-3.65,8.37c-1.43,2.59-3.32,4.9-4.64,7.55a4.07,4.07,0,0,1-.2.64c-.22.4-.7.72-1,1.1s-.71,1-1.06,1.51a47.17,47.17,0,0,1-5,6.33c-.69.73-1.32,1.48-2,2.17-3.34,3.31-6.49,6.76-10,10a9.74,9.74,0,0,1-3.75,3.42,4.64,4.64,0,0,1-2.4,2,1.27,1.27,0,0,1,.23-.25,20.18,20.18,0,0,1-2.63,2c.08.05.25,0,.3.05-1.54.86-3.43,2.6-5.09,2.94.55-.54,1.29-.87,1.87-1.38a2.15,2.15,0,0,1-2,.55,3.89,3.89,0,0,0,.48.36c-.24.23-.38.27-.54.54a9.53,9.53,0,0,1-.93.23c.11-.19.28-.32.41-.51-.22.17-.58.27-.82.47.1.1.32.1.36.24a2.2,2.2,0,0,1-.6,0,4.92,4.92,0,0,1-1.23.32,12.2,12.2,0,0,1,2.6-1.56,14.49,14.49,0,0,0-4.75,2.52,3.55,3.55,0,0,0,1.83-.52,1.08,1.08,0,0,1-.33,0,11.58,11.58,0,0,1,3.33-.85.28.28,0,0,1-.15.18,3.38,3.38,0,0,1,1.61-.26c-1,1.2-3.25,1.1-4.66,1.56a48.1,48.1,0,0,0-5.59,2.07c.31-.09.63-.11.9-.17-1.77.32-4.28,1.6-6,2.26-1,.37-1.85.94-2.82,1.41a8.75,8.75,0,0,1-2.21,1.14.39.39,0,0,1,.25-.41c-1.35.55-2.49,1.44-3.8,2a26.82,26.82,0,0,0-3.47,2.09c-2.43,1.46-4.71,3.2-7.1,4.62a26.28,26.28,0,0,0-3.49,2.36,13.71,13.71,0,0,1-2.88,2.21l-2.21,1c-1.66.77-3.35,1.86-4.87,2.38a2.61,2.61,0,0,1-1.07.52c.13-.09.24-.22.38-.32a38.08,38.08,0,0,1-11.68,2.36c-6.93.15-13-3.73-18.16-8a5,5,0,0,1-1.23-1.36c-.33-.53-.6-1.1-1-1.6,1.64,0,3.71,1,5.34,1.4a47.2,47.2,0,0,0,5.42,1.21,27.63,27.63,0,0,0,14.73-1.36c1.89-.76,4.67-2.17,5.76-3.68a11.44,11.44,0,0,0-4.76-.84c-2.33-.11-4.69-.32-6.85-.62.47.18,1,.3,1.43.48-4.29,2.35-13.34-5.56-16.82-7.62a87,87,0,0,1-17.31-13.33c-8.89-9-18.72-18.21-25.43-29-3.78-6.06-6.91-12.91-8.1-20-.9-5.31.09-10.42.24-15.73a160.5,160.5,0,0,1,2.28-23c-.13.27-.34.82-.39.9a27.42,27.42,0,0,1,10.33-15.66c.91-.65,2-2.36,3.17-2.35-.18.31-.52.57-.64.9a2.3,2.3,0,0,1,.33-.22,5.44,5.44,0,0,0-.13.57,2.22,2.22,0,0,1,.84-.24c-.46,1.52-1.71,3.55-1.51,5.11l.12,0a1,1,0,0,0,0,.36,3.66,3.66,0,0,0,.56-.58c-.3.75-.45,2.81,1,1.92a9.18,9.18,0,0,1,.31,2,20.69,20.69,0,0,0,.63,2.15c0-.1.84-.17.53-.6.21,0,0-.15.18,0,.87-2.13,1.81-4.23,2.83-6.28s1.66-4.24,2.55-6.35c.1-.25.55-1.71.8-1.79Z" transform="translate(-317.24 -399.9)"/><path class="d" d="M537.27,399.92c10,.27,21,2.94,27.36,7.07,3.59,2.33,6.29,5.76,9.87,8,2.84,1.79,6.18,2.94,9.07,4.67,8.57,5.15,14.51,12.92,24.33,16.17,4.52,1.49,9.34,3.3,14.08,3.88,7.75,1,9.43-1,10-8.22.32-4.22.75-8.73-.88-12.74a51.27,51.27,0,0,1,6,8.6c4,7.29,10.87,20.85,4.49,28.6-4.69,5.69-19,4-25.31,3.32-3.41-.37-6.44-2-9.53-3.25,0,0,.44,0,.46.07-1.07-.77-2.18-1.58-3.28-2.27.82.6,1.79,1.42,2.71,2.07-12.22-5.61-21.74-16.48-33.74-22a28.57,28.57,0,0,1-5-2.49,15.52,15.52,0,0,1-6.26-2.11,15.82,15.82,0,0,1-1.82-.43l.34-.18c-4.83.43-9.9-1.31-14.84-1.18a93.89,93.89,0,0,0-15,1.57c-8,1.57-15.47,5.62-22.53,9.54a129.4,129.4,0,0,0-19,12.57c0,.16-.16.24-.27.34s.54,0,.54,0c-.89.6-1.63,1.45-2.56,2.13.43,0,.81-.19,1.27-.28a46.52,46.52,0,0,0-4.88,4.36c.34,0,.64-.31,1-.3a9.92,9.92,0,0,0-1.18,1.05c-5.29,2-14.31,8.83-19,13.18-.92.84-2,1.32-2.66,2.38-1.42,2.32.21,3.55-3,4.86-2.18.87-5.75-.27-7.71-1.25-4.5-2.23-7.89-7.15-9.55-11.78-2.19-6.07,1.4-6.71,6.3-9.36s9.64-5,13.57-8.87a158.84,158.84,0,0,1,39.41-27.9c5.78-3,12-4.81,18.18-6.75,1.73-.55,18.07-6,11-6.79l1.09-.35c-1.07,0-2.33-.26-3.49-.29a4.29,4.29,0,0,1,.67-.23,58.17,58.17,0,0,0-9,1c1.2-.11,2.4-.15,3.6-.25a33.1,33.1,0,0,0-7.77,1.69l.34.2c-1,.31-1.94.77-2.91,1.09L513,409c0,.11-1,.28-1,.36.26.11.65,0,.92,0-6-.84-12.78,5.89-18.89,6.47.73-.38,1.46-.86,2.17-1.23-1.5.55-3.12,1.35-4.58,1.87a31.07,31.07,0,0,1,3.88-1.89c-2.36.83-4.78,2.08-7.14,3.07a1.27,1.27,0,0,1,.41-.28c-4.06,1.29-7.94,3.87-11.79,6.31.19,0,.49-.33.7-.32-4.68,4.39-11.89,7.23-17.7,11-2,1.27-4,2.49-6,3.57a225,225,0,0,1,21.84-14.41c2.39-1.42,4.85-2.75,7.24-4.14a29.9,29.9,0,0,1,3.15-2.28c-.25.05-.31.43-.69.42-.22,0,0-.37.09-.35a10.16,10.16,0,0,0-2.1,1.16c-3,.8-6.51,3.19-9.29,5,2-.9,3.81-2.14,5.79-2.9.07.11-.92.63-1,.7s1.07-.67,1.06-.33c-7.32,4.36-14.54,8.5-21.63,13.52-1.74,1.23-3.59,2.8-5.52,3.32.6-.52,1.14-1.1,1.72-1.62a4.63,4.63,0,0,1-1.77,1.19c.27-.42.77-.62,1.1-1-1,.24-2.23,1.52-3.11,2.13a17.19,17.19,0,0,1-2.79,1.91c.28-.4.78-.56.94-1a25.81,25.81,0,0,0-6.14,5.2,74.53,74.53,0,0,0-5.85,6.61c-.91,1.24-1.63,3.71-3.15,4.29,1.48-5.71,5.84-10.08,10.53-13.45a18.75,18.75,0,0,0,3-2.56c1.34-1.5,3-1.92,4.46-3.17-.19.24-.47.4-.68.65,1.15-1,2.29-1.88,3.48-2.73-.57.44-1.14.92-1.69,1.38a39.26,39.26,0,0,0,3.26-2.58c5.21-3.16,10.73-7.12,16.18-10.42,1.64-1,3.33-1.93,4.89-3-1.23.29,2.24-1.4,2.79-1.64a21.4,21.4,0,0,1-2.32,1.41c2.2-1.14,4.43-2.36,6.56-3.63-.38.1-.66.28-1,.34,8.45-5.71,19.06-9.31,28.77-12,3.29-.93,6.61-2.23,10.08-2,4.11-1.55,9.5-2.16,15.17-2Z" transform="translate(-317.24 -399.9)"/><path class="a" d="M336.18,570.9a14.9,14.9,0,0,1,6.48,4.43,10.23,10.23,0,0,1,2.18,6.53,11.23,11.23,0,0,1-3.87,8.9q-3.87,3.37-10.25,3.38a15,15,0,0,1-8.72-2.42,11.85,11.85,0,0,1-4.75-6.87l4.75-2.12a10.44,10.44,0,0,0,3.18,5.48,8.37,8.37,0,0,0,5.56,1.86,9.56,9.56,0,0,0,6.39-2.06,6.68,6.68,0,0,0,2.44-5.36,6.9,6.9,0,0,0-1.71-4.65,13,13,0,0,0-5.14-3.34l-5.36-2.08a15.19,15.19,0,0,1-6.54-4.29,9.62,9.62,0,0,1-2.15-6.29,8.66,8.66,0,0,1,3.49-7.06,13.82,13.82,0,0,1,8.9-2.78,14.57,14.57,0,0,1,6.88,1.53,10.78,10.78,0,0,1,4.53,4.5l-4.32,2.52a10.6,10.6,0,0,0-3.32-3.46,7.74,7.74,0,0,0-4.16-1.14,7.08,7.08,0,0,0-4.84,1.65,5.53,5.53,0,0,0-.44,7.89,12.23,12.23,0,0,0,4.5,2.77l6.3,2.51Z" transform="translate(-317.24 -399.9)"/><polygon class="a" points="34.17 171.75 29.1 171.75 29.1 168.21 34.17 168.21 34.17 158.13 38.98 158.13 38.98 168.21 44.06 168.21 44.06 171.75 38.98 171.75 38.98 193.23 34.17 193.23 34.17 171.75 34.17 171.75"/><path class="a" d="M370.41,568.1v12.33q0,5.4,1.76,7.54t5.95,2.15q4.18,0,5.92-2.12t1.73-7.57V568.1h4.81v14.63q0,5.65-3.19,8.56T378,594.2q-6.14,0-9.33-2.92t-3.19-8.54V568.1Z" transform="translate(-317.24 -399.9)"/><path class="a" d="M424.69,550.75v42.39h-4.55v-4.52a11.37,11.37,0,0,1-4.21,4.15,11.69,11.69,0,0,1-5.77,1.44,12.77,12.77,0,0,1-9.54-3.7,13.41,13.41,0,0,1-3.62-9.8q0-6.15,3.54-9.81a12.55,12.55,0,0,1,9.44-3.66,12.17,12.17,0,0,1,6,1.4,10.59,10.59,0,0,1,4.09,4.17V550.75Zm-4.55,30a8.79,8.79,0,0,0-9.28-9.31,8.84,8.84,0,0,0-6.52,2.33A8.66,8.66,0,0,0,402,580.2a10.38,10.38,0,0,0,2.37,7.24,8.4,8.4,0,0,0,6.55,2.61,9.12,9.12,0,0,0,6.77-2.46,9.29,9.29,0,0,0,2.45-6.85Z" transform="translate(-317.24 -399.9)"/><path class="a" d="M458.21,581.25H436.38v.39a8.67,8.67,0,0,0,2.53,6.49,9,9,0,0,0,6.59,2.47,9.49,9.49,0,0,0,5-1.34,12.27,12.27,0,0,0,3.94-4.06l3.6,2.17a13.84,13.84,0,0,1-5.29,5.12,15.62,15.62,0,0,1-7.46,1.72,14,14,0,0,1-10.16-3.77,13.18,13.18,0,0,1-3.87-9.89,12.83,12.83,0,0,1,3.85-9.62,13.57,13.57,0,0,1,9.89-3.75q6.11,0,9.67,3.55t3.56,9.68v.85Zm-5.07-3.47a6.93,6.93,0,0,0-2.43-5.09,9.16,9.16,0,0,0-6-1.79,8.76,8.76,0,0,0-5.72,1.87,7.28,7.28,0,0,0-2.65,5Z" transform="translate(-317.24 -399.9)"/><path class="a" d="M464.68,593.13v-25h4.61V572a11.19,11.19,0,0,1,4.26-3.57,13.5,13.5,0,0,1,5.76-1.17q4.87,0,7.6,2.34a8.15,8.15,0,0,1,2.73,6.52v17h-4.81V578.4c0-2.54-.59-4.41-1.76-5.65s-3-1.84-5.41-1.84a10.14,10.14,0,0,0-3.83.7,7.62,7.62,0,0,0-2.87,2,5.94,5.94,0,0,0-1.24,2.24,17.31,17.31,0,0,0-.38,4.37v12.93Z" transform="translate(-317.24 -399.9)"/><polygon class="a" points="181.86 171.75 176.79 171.75 176.79 168.21 181.86 168.21 181.86 158.13 186.66 158.13 186.66 168.21 191.74 168.21 191.74 171.75 186.66 171.75 186.66 193.23 181.86 193.23 181.86 171.75 181.86 171.75"/><path class="a" d="M510.75,588.93l4-2.47a7.82,7.82,0,0,0,2.89,3,8.16,8.16,0,0,0,4.12,1,6.24,6.24,0,0,0,3.75-1,3.23,3.23,0,0,0,1.43-2.73,2.81,2.81,0,0,0-1-2.19,9.38,9.38,0,0,0-3.36-1.61l-.78-.25q-10-3.14-10-7.87a6.59,6.59,0,0,1,2.7-5.44,11.13,11.13,0,0,1,7-2.1,13.33,13.33,0,0,1,6.13,1.3,7.81,7.81,0,0,1,3.66,3.69l-3.8,2.14a6,6,0,0,0-2.48-2.67,7.6,7.6,0,0,0-3.81-.93,5.2,5.2,0,0,0-3.38,1,3.29,3.29,0,0,0-1.31,2.69q0,2.29,5.48,3.85l1.62.47q4.48,1.31,6.23,3a5.83,5.83,0,0,1,1.76,4.43,7,7,0,0,1-2.78,5.74,11.35,11.35,0,0,1-7.26,2.19,14.89,14.89,0,0,1-6.53-1.31,10.3,10.3,0,0,1-4.31-4Z" transform="translate(-317.24 -399.9)"/><path class="a" d="M556,553.15h5.27V578q0,6.07,2.84,8.91t8.91,2.84q6.06,0,8.9-2.84t2.84-8.91V553.15h5.34V578q0,8.11-4.26,12.13t-12.82,4q-8.54,0-12.79-4T556,578V553.15Z" transform="translate(-317.24 -399.9)"/><path class="a" d="M599.41,593.13v-25H604V572a11.24,11.24,0,0,1,4.26-3.57,13.5,13.5,0,0,1,5.77-1.17q4.86,0,7.59,2.34a8.15,8.15,0,0,1,2.73,6.52v17h-4.81V578.4c0-2.54-.59-4.41-1.76-5.65s-3-1.84-5.41-1.84a10.17,10.17,0,0,0-3.83.7,7.59,7.59,0,0,0-2.86,2,5.86,5.86,0,0,0-1.25,2.24,17.32,17.32,0,0,0-.38,4.37v12.93Z" transform="translate(-317.24 -399.9)"/><path class="a" d="M632.23,556.07a2.9,2.9,0,0,1,1-2.21,3.54,3.54,0,0,1,2.45-.92,3.43,3.43,0,0,1,2.41.93,3,3,0,0,1,1,2.25,2.87,2.87,0,0,1-1,2.2,3.46,3.46,0,0,1-2.43.9,3.54,3.54,0,0,1-2.45-.9,2.9,2.9,0,0,1-1-2.25Zm1.13,37.06v-25h4.74v25Z" transform="translate(-317.24 -399.9)"/><path class="a" d="M645.19,580.71a12.42,12.42,0,0,1,1.11-5.21,13.11,13.11,0,0,1,3.24-4.36,15,15,0,0,1,4.83-2.91,16.62,16.62,0,0,1,5.78-1,16.12,16.12,0,0,1,5.69,1,15.89,15.89,0,0,1,4.89,3,12.92,12.92,0,0,1,3.24,4.33,12.37,12.37,0,0,1,1.11,5.18,12.17,12.17,0,0,1-1.11,5.15,13,13,0,0,1-3.24,4.3,15.77,15.77,0,0,1-10.58,4,16.19,16.19,0,0,1-5.76-1,15.23,15.23,0,0,1-4.85-2.94,13.72,13.72,0,0,1-3.24-4.37,12.13,12.13,0,0,1-1.11-5.16Zm5,0a8.84,8.84,0,0,0,2.91,6.7,9.88,9.88,0,0,0,7,2.74,9.75,9.75,0,0,0,7-2.74,9.24,9.24,0,0,0,0-13.4,9.76,9.76,0,0,0-7-2.75,9.87,9.87,0,0,0-7.06,2.75,8.88,8.88,0,0,0-2.89,6.69Z" transform="translate(-317.24 -399.9)"/><path class="a" d="M681.79,593.13v-25h4.62V572a11.14,11.14,0,0,1,4.27-3.57,13.46,13.46,0,0,1,5.76-1.17q4.86,0,7.59,2.34a8.15,8.15,0,0,1,2.73,6.52v17H702V578.4c0-2.54-.58-4.41-1.76-5.65s-3-1.84-5.41-1.84a10.12,10.12,0,0,0-3.83.7,7.59,7.59,0,0,0-2.87,2,6,6,0,0,0-1.24,2.24,17.4,17.4,0,0,0-.38,4.37v12.93Z" transform="translate(-317.24 -399.9)"/></svg>