<svg xmlns="http://www.w3.org/2000/svg" width="266.82" height="87.45" viewBox="0 0 266.82 87.45"><title>University of Pennsylvania logo - Brandlogos.net</title><path d="M478.38,502.86a21.08,21.08,0,0,0,8.21,1.16c9.86,0,16.12-5.33,16.12-14.38,0-7.07-3.94-16.58-16.12-16.58h-8.21Zm0,21.57c0,8.24,2,10.55,7.54,10.55v2H462v-2c4.64,0,7.54-1.5,7.54-10.32V483c0-8.11-2-10.55-7.54-10.55v-2h24.24c18.32,0,25.74,9.74,25.74,18.9,0,11-8.35,17.16-23.42,17.16a76.69,76.69,0,0,1-10.21-.69Z" transform="translate(-378.59 -468.28)" style="fill:#011f5b"/><path d="M535.9,509.94c.35-9-5.8-12.76-11-12.76-6.84,0-10.9,5.1-11.36,12.76Zm-22.38,2C513.29,530.38,524.3,535,529.87,535s8.58-2,14.49-8.58v3c-5,6.38-9.74,8.81-16.93,8.81-12.84,0-22.14-9-22.14-21.35s9-22.14,20.64-22.14c9.51,0,18.32,7.65,17.74,17.16Z" transform="translate(-378.59 -468.28)" style="fill:#011f5b"/><path d="M588.2,528c0,5.33,1.16,7,6.95,7v2H573.24v-2c5.56,0,7.07-1.27,7.07-5.1v-21.5c0-6.61-4.75-9.39-9.16-9.39-4.06,0-7.65,2.55-11.71,8V527.1c0,6.26.81,7.88,7,7.88v2H544.71v-2c5.45,0,6.84-.46,6.84-7.88V504c0-5-1.27-6-6.84-6v-2l12.76-1.27h2V503c4.87-5.57,9.62-8.23,14.84-8.23,6.84,0,13.92,4.87,13.92,14.72V528Z" transform="translate(-378.59 -468.28)" style="fill:#011f5b"/><path d="M638.41,528c0,5.33,1.16,7,7,7v2h-22v-2c5.56,0,7.07-1.27,7.07-5.1v-21.5c0-6.61-4.75-9.39-9.16-9.39-4.06,0-7.65,2.55-11.71,8V527.1c0,6.26.81,7.88,7,7.88v2H594.92v-2c5.45,0,6.84-.46,6.84-7.88V504c0-5-1.27-6-6.84-6v-2l12.76-1.27h2V503c4.87-5.57,9.62-8.23,14.84-8.23,6.84,0,13.92,4.87,13.92,14.72V528Z" transform="translate(-378.59 -468.28)" style="fill:#011f5b"/><path d="M464.39,548.75c0,1.84.5,3.25,2.46,3.25,1.8,0,2.75-1.21,2.75-3.32V545a6.58,6.58,0,0,0-.08-.72c-.07-.47-.52-.65-1.13-.72v-.31h3.1v.34c-.63.07-1.06.25-1.13.72a4.79,4.79,0,0,0-.08.72v3.7c0,2.83-1.8,3.89-3.5,3.89-2.8,0-3.67-1.43-3.67-3.81v-3.95c0-1.22,0-1.15-1.13-1.3v-.31h3.54v.34c-1.19.15-1.13.08-1.13,1.3v3.83Z" transform="translate(-378.59 -468.28)" style="fill:#011f5b"/><path d="M478.94,552.46,474,546.6v4.49a3.86,3.86,0,0,0,.06.54c0,.37.39.51,1.06.56v.27h-2.48v-.27c.48,0,.82-.19.87-.56a3.86,3.86,0,0,0,.06-.54v-4.81a1.41,1.41,0,0,0-1.18-.69v-.27h1.85c1.51,1.84,3.09,3.71,4.6,5.54h0v-4.14a4.21,4.21,0,0,0-.06-.55c0-.36-.4-.5-1.07-.55v-.27h2.49v.27c-.48,0-.82.19-.87.55a2.94,2.94,0,0,0-.07.55v5.74Z" transform="translate(-378.59 -468.28)" style="fill:#011f5b"/><path d="M484.15,551.19c0,.94,0,.89.87,1v.27h-2.73v-.27c.91-.11.87-.06.87-1v-4.57c0-.94,0-.89-.87-1v-.27H485v.27c-.91.11-.87.06-.87,1Z" transform="translate(-378.59 -468.28)" style="fill:#011f5b"/><path d="M489.34,545.61c-.55,0-1,.16-.63,1.13.4,1.2,1,3,1.52,4.49.65-1.55,1.27-3.12,1.9-4.67.25-.64,0-1-.71-1v-.27h2.17v.27a.86.86,0,0,0-.85.61c-.85,2.08-1.71,4.15-2.56,6.23h-.52c-.62-1.76-1.31-3.72-1.93-5.44-.38-1.09-.69-1.4-1.18-1.4v-.27h2.76v.27Z" transform="translate(-378.59 -468.28)" style="fill:#011f5b"/><path d="M495.18,552.19c.91-.11.87-.06.87-1v-4.57c0-.94,0-.89-.87-1v-.27h4.54V547h-.27c-.1-.75-.3-1.31-1-1.31h-1.38v2.9h.85c.64,0,.91-.25.93-.88h.27v2.16h-.27c0-.6-.25-1-.93-1h-.85v2.3c0,.86.39.93,1.31.93,1.47,0,1.4-.41,1.87-1.5h.26l-.31,1.83h-5v-.27Z" transform="translate(-378.59 -468.28)" style="fill:#011f5b"/><path d="M503.89,549h.84c.89,0,1.29-.67,1.29-1.82s-.61-1.49-1.35-1.49h-.78ZM502,545.35h3a1.82,1.82,0,0,1,2,1.63s0,.07,0,.1a2.18,2.18,0,0,1-1.44,2.07l1,1.51a7.26,7.26,0,0,0,1.43,1.67v.13h-1c-.6,0-.93-1.11-2.16-3.15h-1v1.88c0,.94,0,.89.87,1v.27H502v-.27c.92-.11.87-.06.87-1v-4.57c0-.94,0-.89-.87-1v-.27Z" transform="translate(-378.59 -468.28)" style="fill:#011f5b"/><path d="M513.07,546.86a1.27,1.27,0,0,0-1.27-1.27h0a1,1,0,0,0-1.12,1c0,.71.71,1.14,1.73,1.9s1.42,1.32,1.42,2.16c0,1.21-1.24,1.88-2.46,1.88a4.72,4.72,0,0,1-1.77-.25.15.15,0,0,1-.08-.15v-1.48h.27a1.57,1.57,0,0,0,1.57,1.57h.06a1.28,1.28,0,0,0,1.31-1.25v0c0-.66-.35-1.2-1.88-2.21a2.07,2.07,0,0,1-1.22-1.87c0-.91,1-1.63,2.18-1.63a4.86,4.86,0,0,1,1.42.19.1.1,0,0,1,.07.11v1.33Z" transform="translate(-378.59 -468.28)" style="fill:#011f5b"/><path d="M517.5,551.19c0,.94,0,.89.87,1v.27h-2.73v-.27c.92-.11.88-.06.88-1v-4.57c0-.94,0-.89-.88-1v-.27h2.73v.27c-.91.11-.87.06-.87,1Z" transform="translate(-378.59 -468.28)" style="fill:#011f5b"/><path d="M523.39,551.19c0,.94,0,.89.87,1v.27h-2.73v-.27c.92-.11.87-.06.87-1v-5.51h-.91c-.88,0-1.09.56-1.42,1.23h-.25l.27-1.56h5.61l.28,1.56h-.26c-.33-.67-.53-1.23-1.42-1.23h-.91Z" transform="translate(-378.59 -468.28)" style="fill:#011f5b"/><path d="M528.93,552.19c.91-.11.88-.06.88-1v-1.56l-1.57-3.1c-.33-.66-.62-.91-1.08-.91v-.27h2.58v.27c-.77,0-.7.38-.44.91l1.23,2.55,1.4-2.55c.34-.62,0-.91-.58-.91v-.27h2.09v.27c-.29,0-.56.13-.83.62l-1.7,3a1.77,1.77,0,0,0-.12.74v1.14c0,.94,0,.89.87,1v.27h-2.73v-.24Z" transform="translate(-378.59 -468.28)" style="fill:#011f5b"/><path d="M542.66,547.46c0-1.37-.82-1.42-1-1.42-1.43,0-2.36,2.55-2.36,4.26,0,.68.12,1.92,1.09,1.92,1.5,0,2.3-2.47,2.3-4.76Zm-4.6,2.57c0-1.73,1.49-4.31,3.68-4.31,1.75,0,2.13,1.19,2.13,2.37,0,1.45-1.15,4.53-3.67,4.53C538.52,552.62,538.06,551.26,538.06,550Z" transform="translate(-378.59 -468.28)" style="fill:#011f5b"/><path d="M550.49,546.15l-.31.27h-1.73a77.91,77.91,0,0,1-2.44,9.3h-.6l1.89-9.3H546l.11-.55h1.24a3.77,3.77,0,0,1,3.57-3.09,2.19,2.19,0,0,1,1.13.24l-.16.86-.33.16a1.37,1.37,0,0,0-1.16-.76c-.79,0-1.38.54-1.7,2l-.14.63h2l-.06.28Z" transform="translate(-378.59 -468.28)" style="fill:#011f5b"/><path d="M558.52,550.81c0,1.23-.06,1.16,1.13,1.31v.34h-3.54v-.34c1.18-.15,1.13-.08,1.13-1.31v-5.92c0-1.22,0-1.15-1.13-1.3v-.31h3.48c2.18,0,3.26.87,3.26,2.45,0,1.89-1.71,2.92-3.72,2.8v-.25a2.16,2.16,0,0,0,2.4-2.41,1.9,1.9,0,0,0-2.18-2.16h-.8v7.14Z" transform="translate(-378.59 -468.28)" style="fill:#011f5b"/><path d="M564.59,552.19c.92-.11.88-.06.88-1v-4.57c0-.94,0-.89-.88-1v-.27h4.54V547h-.26c-.11-.75-.31-1.31-1-1.31h-1.38v2.9h.85c.64,0,.92-.25.94-.88h.31v2.16h-.26c0-.6-.26-1-.94-1h-.85v2.3c0,.86.4.93,1.31.93,1.47,0,1.4-.41,1.87-1.5H570l-.3,1.83h-5v-.27Z" transform="translate(-378.59 -468.28)" style="fill:#011f5b"/><path d="M578,552.46,573,546.6v4.49a3.86,3.86,0,0,0,.06.54c0,.37.39.51,1.06.56v.27h-2.48v-.27c.48,0,.82-.19.87-.56a3.86,3.86,0,0,0,.06-.54v-4.81a1.41,1.41,0,0,0-1.18-.69v-.27h1.85c1.51,1.84,3.09,3.71,4.6,5.54h0v-4.14a4.21,4.21,0,0,0-.06-.55c0-.36-.4-.5-1.07-.55v-.27h2.49v.27c-.48,0-.82.19-.87.55a4.11,4.11,0,0,0-.07.55v5.74Z" transform="translate(-378.59 -468.28)" style="fill:#011f5b"/><path d="M587.09,552.46c-1.62-1.91-3.29-3.91-4.95-5.86v4.49a3.86,3.86,0,0,0,.06.54c0,.37.4.51,1.07.56v.27h-2.49v-.27c.49,0,.82-.19.87-.56a2.73,2.73,0,0,0,.07-.54v-4.81a1.42,1.42,0,0,0-1.18-.69v-.27h1.85c1.51,1.84,3.08,3.71,4.59,5.54h0v-4.14a4.11,4.11,0,0,0-.07-.55c0-.36-.39-.5-1.06-.55v-.27h2.48v.27c-.47,0-.82.19-.87.55a4.21,4.21,0,0,0-.06.55v5.74Z" transform="translate(-378.59 -468.28)" style="fill:#011f5b"/><path d="M593.69,546.86a1.26,1.26,0,0,0-1.25-1.27h0a1,1,0,0,0-1.11,1c0,.71.71,1.14,1.72,1.9s1.43,1.32,1.43,2.16c0,1.21-1.24,1.88-2.46,1.88a4.81,4.81,0,0,1-1.74-.32.17.17,0,0,1-.07-.15v-1.41h.27a1.57,1.57,0,0,0,1.57,1.57h.06a1.28,1.28,0,0,0,1.31-1.25v0c0-.66-.35-1.2-1.88-2.21a2.06,2.06,0,0,1-1.23-1.87c0-.91,1-1.63,2.18-1.63a4.89,4.89,0,0,1,1.43.19.1.1,0,0,1,.07.11v1.33Z" transform="translate(-378.59 -468.28)" style="fill:#011f5b"/><path d="M597.78,552.19c.92-.11.88-.06.88-1v-1.56l-1.57-3.1c-.33-.66-.61-.91-1.08-.91v-.27h2.58v.27c-.77,0-.7.38-.45.91l1.23,2.55,1.4-2.55c.34-.62,0-.91-.58-.91v-.27h2.09v.27c-.28,0-.56.13-.83.62l-1.69,3a1.77,1.77,0,0,0-.12.74v1.14c0,.94,0,.89.87,1v.27h-2.73v-.24Z" transform="translate(-378.59 -468.28)" style="fill:#011f5b"/><path d="M603.95,552.19c.92-.11.88-.06.88-1v-4.57c0-.94,0-.89-.88-1v-.27h2.74v.27c-.92.11-.88.06-.88,1v4.73c0,.71.4.78,1.3.78,1.47,0,1.41-.41,1.88-1.5h.26l-.31,1.83h-5v-.27Z" transform="translate(-378.59 -468.28)" style="fill:#011f5b"/><path d="M612.79,545.61c-.56,0-1,.16-.63,1.13.39,1.2,1,3,1.51,4.49.65-1.55,1.27-3.12,1.9-4.67.25-.64,0-1-.7-1v-.27h2.19v.27a.85.85,0,0,0-.84.61c-.86,2.08-1.72,4.15-2.57,6.23h-.52c-.62-1.76-1.31-3.72-1.93-5.44-.37-1.09-.69-1.4-1.17-1.4v-.27h2.76v.32Z" transform="translate(-378.59 -468.28)" style="fill:#011f5b"/><path d="M621.2,549.72l-1.07-3.3h0l-1.21,3.3Zm-2.45.38-.47,1.36a.51.51,0,0,0,.51.73v.27h-1.85v-.27a.84.84,0,0,0,.73-.5c.44-.9,1.62-4.22,2.47-6.46h.57c.69,2,1.72,5.17,2.07,6.07.22.57.38.89.82.89v.27h-2.37v-.27c.64,0,.7-.33.54-.78l-.44-1.31Z" transform="translate(-378.59 -468.28)" style="fill:#011f5b"/><path d="M631.41,552.46l-4.94-5.86v4.49a3.86,3.86,0,0,0,.06.54c.05.37.4.51,1.07.56v.27h-2.49v-.27c.49,0,.82-.19.87-.56a3.86,3.86,0,0,0,.06-.54v-4.81a1.39,1.39,0,0,0-1.17-.69v-.27h1.84c1.52,1.84,3.09,3.71,4.6,5.54h0v-4.14a4.21,4.21,0,0,0-.06-.55c-.05-.36-.39-.5-1.06-.55v-.27h2.48v.27c-.47,0-.82.19-.87.55a4.21,4.21,0,0,0-.06.55v5.74Z" transform="translate(-378.59 -468.28)" style="fill:#011f5b"/><path d="M636.21,551.19c0,.94,0,.89.88,1v.27h-2.73v-.27c.91-.11.87-.06.87-1v-4.57c0-.94,0-.89-.87-1v-.27h2.73v.27c-.91.11-.88.06-.88,1v4.57Z" transform="translate(-378.59 -468.28)" style="fill:#011f5b"/><path d="M642.91,549.72l-1.07-3.3h0l-1.25,3.3Zm-2.45.38-.47,1.36a.51.51,0,0,0,.51.73v.27h-1.85v-.27a.84.84,0,0,0,.73-.5c.44-.9,1.63-4.22,2.47-6.46h.57c.69,2,1.72,5.17,2.07,6.07.22.57.38.89.82.89v.27H643v-.27c.63,0,.69-.33.53-.78l-.43-1.31Z" transform="translate(-378.59 -468.28)" style="fill:#011f5b"/><path d="M454,468.28H378.59v37.57c0,16.36,9,28.21,16.63,35.27,8.37,7.76,17.6,12.23,20.68,12.91l.38.08.38-.09c3.08-.67,12.31-5.14,20.68-12.9,7.61-7.06,16.68-18.91,16.63-35.27Z" transform="translate(-378.59 -468.28)" style="fill:#fff"/><path d="M449.33,484h0a1.42,1.42,0,0,1,.3.3.78.78,0,0,1,0,.86,1.42,1.42,0,0,1-.3.3c-.17.13-.33.26-.33.48v1.33H433.19v-1.33c0-.22-.16-.35-.33-.48a1.47,1.47,0,0,1-.31-.3.83.83,0,0,1,0-.89,1.47,1.47,0,0,1,.31-.3c.17-.13.33-.26.33-.48v-4.34c0-.22-.16-.34-.33-.48a1.22,1.22,0,0,1-.31-.29.75.75,0,0,1-.12-.44.74.74,0,0,1,.12-.43,1.22,1.22,0,0,1,.27-.24c.17-.13.33-.26.33-.48v-1.43h.2a6.41,6.41,0,0,0,2.3-.26,4.55,4.55,0,0,0,.67-.38,3.29,3.29,0,0,1,1.85-.64,4.93,4.93,0,0,1,1.82.46,3.28,3.28,0,0,0,1,.3h.11a3.35,3.35,0,0,0,1-.3,4.83,4.83,0,0,1,1.81-.46,3.28,3.28,0,0,1,1.86.65,4.38,4.38,0,0,0,.67.37,6.32,6.32,0,0,0,2.29.26H449v1.38c0,.22.16.35.33.48a1.37,1.37,0,0,1,.3.29.76.76,0,0,1,.13.44.75.75,0,0,1-.13.43,1.18,1.18,0,0,1-.3.29c-.17.14-.33.26-.33.48v4.37c0,.22.16.35.33.48Zm-19.38,2.27a6.08,6.08,0,0,1-3.68,2.45,8.42,8.42,0,0,1-1.42.12h0c-2.46,0-4.74-1.07-7-2.26l-.86-.47c-1.47-.8-3.53-1.93-5.27-1.93a3,3,0,0,0-1.42.32h-.07v.08a2.2,2.2,0,0,1-.12.64,5.15,5.15,0,0,1-1.63,1.85,6.53,6.53,0,0,1-3.89,1.53,1.83,1.83,0,0,1-.64-.1,1.5,1.5,0,0,1-.7-.48,2.22,2.22,0,0,1-.21-.37,1.79,1.79,0,0,1-.09-.35v-.09h-.09a1.16,1.16,0,0,1-1-1,1.65,1.65,0,0,1,.53-1c.4-.48.74-.89.18-1.42l-.18-.14a1.43,1.43,0,0,1-.23-.2c-.49-.53-.2-1.63,0-2.29V481a11.67,11.67,0,0,1,.9-2.28,9.73,9.73,0,0,1,2.16-3.14h.13l.27.43.16.27.09-.29a2.24,2.24,0,0,1,1.29-1.51,1.66,1.66,0,0,1,1.51.31l.12.09.09-.13a1.33,1.33,0,0,1,1.11-.7,2,2,0,0,1,1.42.67l.09.09.1-.08a2.57,2.57,0,0,1,1.78-.69,1.34,1.34,0,0,1,1.06,1v.16l.15-.08a1.64,1.64,0,0,1,1.6,0,1,1,0,0,1,.41,1v.19h.18a2.1,2.1,0,0,1,1.81.38A1.52,1.52,0,0,1,419,478v.18h.18a1.21,1.21,0,0,1,1.23.44,1.28,1.28,0,0,1,.06,1v.14h.14a1,1,0,0,1,.77.54,2,2,0,0,1-.08,1.14v.13l.11.05a1.46,1.46,0,0,1,.78.68,1.7,1.7,0,0,1,0,1.43v.09l.07.07c.53.46,1.06.89,1.58,1.27a3.19,3.19,0,0,0,3.8.25,1.56,1.56,0,0,0,.47-1.57,1.24,1.24,0,0,0-1-1c-.85-.19-1.51.61-2.06,1.42a.09.09,0,0,1-.08,0,.13.13,0,0,1-.07-.06,3.24,3.24,0,0,1-.15-2.94,2.81,2.81,0,0,1,2-1.24h.12v-.12a4,4,0,0,1,1-3.06,2.9,2.9,0,0,1,2.46-.62h.06a.11.11,0,0,1,0,.08,6,6,0,0,0-.19,5,2.25,2.25,0,0,0,.14.52h0A5.51,5.51,0,0,1,429.95,486.28ZM399.7,484h0a1.47,1.47,0,0,1,.31.3.83.83,0,0,1,0,.86,1.47,1.47,0,0,1-.31.3c-.17.13-.33.26-.33.48v1.33H383.59v-1.33c0-.22-.16-.35-.33-.48a1.42,1.42,0,0,1-.3-.3.78.78,0,0,1,0-.86,1.42,1.42,0,0,1,.3-.3c.17-.13.33-.26.33-.48v-4.37c0-.22-.16-.34-.33-.48a1.18,1.18,0,0,1-.3-.29.76.76,0,0,1-.13-.44.75.75,0,0,1,.13-.43,1.37,1.37,0,0,1,.27-.24c.17-.13.33-.26.33-.48v-1.43h.21a6.32,6.32,0,0,0,2.29-.26,3.72,3.72,0,0,0,.67-.38,3.35,3.35,0,0,1,1.86-.64,4.83,4.83,0,0,1,1.81.46,3.35,3.35,0,0,0,1,.3h.11a3.4,3.4,0,0,0,1-.3,4.83,4.83,0,0,1,1.81-.46,3.22,3.22,0,0,1,1.85.65,5.58,5.58,0,0,0,.67.37,6.41,6.41,0,0,0,2.3.26h.2v1.38c0,.22.16.35.33.48a1.22,1.22,0,0,1,.31.29.75.75,0,0,1,.12.44.74.74,0,0,1-.12.43,1.22,1.22,0,0,1-.31.29c-.17.14-.33.26-.33.48v4.37c0,.22.16.35.33.48Zm-19.2-13.73s.1,21.84,0,21.74h71.57V470.28Z" transform="translate(-378.59 -468.28)" style="fill:#900"/><path d="M405.15,483.07a1.13,1.13,0,0,1,.73.26l.21.19a.38.38,0,0,1,0,.54l0,0c-.18.15-.38.29-.51.38-.29.2-.79.56-1.13.28-.18-.15.17-.39,0-1s.34-.68.7-.68Z" transform="translate(-378.59 -468.28)" style="fill:#011f5b"/><path d="M405.27,476a10.16,10.16,0,0,0-1.89,2.86,11,11,0,0,0-.87,2.22v.08c-.14.51-.43,1.59,0,2l.19.16.2.16c.78.74.24,1.38-.16,1.85a1.48,1.48,0,0,0-.45.78c0,.55.67.74.87.79a.22.22,0,0,1,.18.2,1.3,1.3,0,0,0,.08.41,1.17,1.17,0,0,0,.17.29,1.21,1.21,0,0,0,.55.39,1.8,1.8,0,0,0,.45.06,6.27,6.27,0,0,0,3.63-1.42,4.63,4.63,0,0,0,1.51-1.7,1.79,1.79,0,0,0,.11-.47l-1-.17h0a.27.27,0,0,1-.25-.24c0-.21.15-.33.51-.58l.33-.23c.53-.39,1-.71,1.22-.88a8.32,8.32,0,0,1-.73-1,5.24,5.24,0,0,0-.4-.57,1.73,1.73,0,0,0-2.13-.42,6.32,6.32,0,0,0-.8.68,6.44,6.44,0,0,1-.7.57.23.23,0,0,1-.29-.35l.12-.1c.33-.32,1.1-1.05,1.1-1.56a9.84,9.84,0,0,0-1.55-3.83Zm6.42,7.86c1.78,0,3.81,1.11,5.4,2l.85.46c2.72,1.4,5.39,2.62,8.27,2.11a5.83,5.83,0,0,0,3.48-2.31,5.28,5.28,0,0,0,.39-4.23l-.15-.52a6.35,6.35,0,0,1,.1-4.89,2.51,2.51,0,0,0-1.91.57,3.74,3.74,0,0,0-.9,3,.24.24,0,0,1-.2.24,2.55,2.55,0,0,0-2,1.11,2.67,2.67,0,0,0-.06,2.27c.44-.6,1.18-1.41,2.13-1.2a1.57,1.57,0,0,1,1.19,1.23,1.9,1.9,0,0,1-.57,1.89c-1.24,1-3,.59-4.19-.25a26.17,26.17,0,0,1-4.1-3.81c-.24-.28-.49-.56-.72-.84a20.59,20.59,0,0,0-2.9-2.93,7.94,7.94,0,0,0-5.13-1.51,9.55,9.55,0,0,0-4.14,1.1,6.44,6.44,0,0,1,.75,2.48,1.33,1.33,0,0,1-.07.38,2.17,2.17,0,0,1,2.66.53,5.63,5.63,0,0,1,.45.62,6,6,0,0,0,.85,1.1.26.26,0,0,1,.07.18.23.23,0,0,1-.1.17l-1.42,1-.34.24h-.06l.73.12a3.31,3.31,0,0,1,1.64-.39ZM424.85,489c-2.47,0-4.78-1.07-7.11-2.28l-.87-.45c-1.88-1-4.71-2.58-6.55-1.61a2.49,2.49,0,0,1-.14.68,5.14,5.14,0,0,1-1.68,1.93,6.65,6.65,0,0,1-3.91,1.47,2.17,2.17,0,0,1-.69-.1,1.66,1.66,0,0,1-.76-.54,1.74,1.74,0,0,1-.23-.4,1.78,1.78,0,0,1-.1-.38,1.3,1.3,0,0,1-1.06-1.19,1.73,1.73,0,0,1,.56-1.07c.44-.53.64-.8.19-1.23l-.16-.13a1.55,1.55,0,0,1-.25-.21c-.55-.59-.25-1.74-.06-2.43V481a11.35,11.35,0,0,1,.9-2.32,10.07,10.07,0,0,1,2.2-3.18.24.24,0,0,1,.18,0,.25.25,0,0,1,.16.1c0,.05.42.64.82,1.42a10.28,10.28,0,0,1,4.33-1.12,8.29,8.29,0,0,1,5.47,1.53,20.46,20.46,0,0,1,3,3l.72.82a25.3,25.3,0,0,0,4,3.75,3,3,0,0,0,3.63.26,1.43,1.43,0,0,0,.42-1.43,1.13,1.13,0,0,0-.84-.89c-.76-.16-1.39.6-1.91,1.37a.24.24,0,0,1-.21.1.25.25,0,0,1-.19-.14,3.35,3.35,0,0,1-.06-3.07,3,3,0,0,1,2.12-1.31,4,4,0,0,1,1-3.17,3.08,3.08,0,0,1,2.58-.65.21.21,0,0,1,.24.11.24.24,0,0,1,0,.2,5.87,5.87,0,0,0-.2,4.88,2.69,2.69,0,0,0,.14.52,5.6,5.6,0,0,1-.44,4.59,6.22,6.22,0,0,1-3.78,2.52,8.75,8.75,0,0,1-1.44.12Z" transform="translate(-378.59 -468.28)" style="fill:#011f5b"/><path d="M403.73,487.44a4.82,4.82,0,0,1-.65,0,.22.22,0,0,1-.2-.24h0a.23.23,0,0,1,.25-.2,4.46,4.46,0,0,0,3.86-1.41.25.25,0,0,1,.33,0,.24.24,0,0,1,0,.33,4.92,4.92,0,0,1-3.59,1.54Z" transform="translate(-378.59 -468.28)" style="fill:#011f5b"/><path d="M422,484h-.09a.23.23,0,0,1-.11-.28,1.58,1.58,0,0,0,.1-1.34,1.25,1.25,0,0,0-.79-.6.26.26,0,0,1-.14-.11.25.25,0,0,1,0-.17,2.27,2.27,0,0,0,.15-1.15c-.1-.27-.61-.38-.77-.4a.23.23,0,0,1-.19-.26v0a1.22,1.22,0,0,0,0-.93c-.34-.53-1.22-.27-1.23-.27a.2.2,0,0,1-.21-.06.19.19,0,0,1,0-.21,1.44,1.44,0,0,0-.24-1.31,2.28,2.28,0,0,0-1.93-.26.2.2,0,0,1-.21-.06.19.19,0,0,1,0-.21s.21-.69-.23-1a1.48,1.48,0,0,0-1.56.16.22.22,0,0,1-.21,0,.19.19,0,0,1-.12-.17s-.12-.9-.89-1a2.53,2.53,0,0,0-1.7.74.19.19,0,0,1-.16.06.21.21,0,0,1-.16-.08,1.79,1.79,0,0,0-1.31-.72,1.19,1.19,0,0,0-1,.75.18.18,0,0,1-.15.13.21.21,0,0,1-.2-.05,1.53,1.53,0,0,0-1.42-.41c-.9.33-1.15,1.43-1.24,1.79h0a.21.21,0,0,1-.25.15.2.2,0,0,1-.16-.23v0h0a2.76,2.76,0,0,1,1.51-2.1,1.77,1.77,0,0,1,1.64.33,1.54,1.54,0,0,1,1.24-.78,2.11,2.11,0,0,1,1.58.75,2.7,2.7,0,0,1,1.89-.72,1.48,1.48,0,0,1,1.11,1.08,1.73,1.73,0,0,1,1.73,0,1.13,1.13,0,0,1,.48,1.12,2.2,2.2,0,0,1,1.93.42,1.67,1.67,0,0,1,.41,1.41,1.19,1.19,0,0,1,1.45,1.6,1.19,1.19,0,0,1,.87.63,2.34,2.34,0,0,1-.08,1.24,1.64,1.64,0,0,1,.85.74,2,2,0,0,1-.09,1.71.21.21,0,0,1-.19.13Z" transform="translate(-378.59 -468.28)" style="fill:#011f5b"/><path d="M420.92,487h0a.2.2,0,0,1-.18-.22h0a.88.88,0,0,0-.81-1.1,1,1,0,0,1-.28-.11c-.23-.13-.23-.4-.24-.68a1.36,1.36,0,0,0-.25-.91c-.4-.44-1.18-.15-1.19-.15a.23.23,0,0,1-.21,0,.2.2,0,0,1-.07-.2,1.61,1.61,0,0,0-.4-1.3,2,2,0,0,0-1.49-.21.2.2,0,0,1-.18,0,.22.22,0,0,1-.08-.18,1.31,1.31,0,0,0-.58-1.25,1,1,0,0,0-1.09-.08,1.61,1.61,0,0,1-2.18-.15,1,1,0,0,0-.87-.2,1.58,1.58,0,0,0-.92.89.21.21,0,0,1-.39-.18,2,2,0,0,1,1.21-1.13,1.47,1.47,0,0,1,1.22.27c.78.56,1,.54,1.73.12a1.51,1.51,0,0,1,1.52.1,1.76,1.76,0,0,1,.78,1.38,2.12,2.12,0,0,1,1.59.34,1.76,1.76,0,0,1,.54,1.28,1.4,1.4,0,0,1,1.34.35,1.68,1.68,0,0,1,.36,1.17,1,1,0,0,0,0,.34l.19.07a1.31,1.31,0,0,1,1.11,1.48v.07a.22.22,0,0,1-.21.18Z" transform="translate(-378.59 -468.28)" style="fill:#011f5b"/><path d="M399.83,484.75a.37.37,0,0,1-.07.25,1.06,1.06,0,0,1-.24.23.91.91,0,0,0-.45.72v1h-15.2v-1a.91.91,0,0,0-.45-.67.88.88,0,0,1-.24-.23.38.38,0,0,1-.08-.25h0a.42.42,0,0,1,.08-.26.86.86,0,0,1,.24-.26.91.91,0,0,0,.45-.72v-4.4a.89.89,0,0,0-.45-.71,1.06,1.06,0,0,1-.24-.23.4.4,0,0,1-.08-.26h0a.42.42,0,0,1,.08-.26.86.86,0,0,1,.24-.22.91.91,0,0,0,.45-.72v-1H385v10h5.58a.92.92,0,0,0,1.78,0h5.54v-10H399v1a.91.91,0,0,0,.45.72,1,1,0,0,1,.24.22.41.41,0,0,1,.07.26h0a.39.39,0,0,1-.07.26,1.33,1.33,0,0,1-.24.23.89.89,0,0,0-.45.71v4.37a.91.91,0,0,0,.45.72,1,1,0,0,1,.24.22.41.41,0,0,1,.07.26h0Zm-13.62-9.31a4.57,4.57,0,0,0,.72-.4,2.91,2.91,0,0,1,1.66-.59,4.49,4.49,0,0,1,1.67.44,4.66,4.66,0,0,0,1,.31V484h-.05a9.59,9.59,0,0,0-1.72.45l-.67.21a7.31,7.31,0,0,1-2,.21,8,8,0,0,0-1.23.07v-9.28a2.89,2.89,0,0,0,.67-.2Zm6.46-.55a4.54,4.54,0,0,1,1.68-.44A3,3,0,0,1,396,475a4.57,4.57,0,0,0,.72.4,2.89,2.89,0,0,0,.67.2v9.28a8,8,0,0,0-1.23-.06,7.35,7.35,0,0,1-2-.21l-.67-.21a9.59,9.59,0,0,0-1.72-.45h0v-8.8a4.14,4.14,0,0,0,.93-.3Zm7.12,9c-.17-.14-.27-.23-.27-.37v-4.36c0-.14.1-.22.27-.36a1.33,1.33,0,0,0,.34-.33,1,1,0,0,0,0-1,1.33,1.33,0,0,0-.34-.33c-.17-.13-.27-.22-.27-.36v-1.5h-.35a6.38,6.38,0,0,1-2.24-.25,5.37,5.37,0,0,1-.65-.37,3.44,3.44,0,0,0-1.93-.67,5.1,5.1,0,0,0-1.87.47,3.13,3.13,0,0,1-1,.29h-.11a3.13,3.13,0,0,1-1-.29,5,5,0,0,0-1.78-.52,3.41,3.41,0,0,0-1.93.67,5.37,5.37,0,0,1-.65.37,6.41,6.41,0,0,1-2.24.3h-.35v1.47c0,.14-.1.23-.28.36a1.47,1.47,0,0,0-.33.33.8.8,0,0,0-.15.52.79.79,0,0,0,.15.51,1.47,1.47,0,0,0,.33.33c.18.14.28.22.28.36v4.37c0,.14-.1.23-.28.37a1.66,1.66,0,0,0-.33.32.81.81,0,0,0-.15.52.79.79,0,0,0,.15.51,1.47,1.47,0,0,0,.33.33c.18.14.28.22.28.37v1.48h16.11v-1.48c0-.15.1-.23.27-.37a1.33,1.33,0,0,0,.34-.33.92.92,0,0,0,.15-.51,1,1,0,0,0-.15-.52,1.47,1.47,0,0,0-.34-.32Z" transform="translate(-378.59 -468.28)" style="fill:#011f5b"/><path d="M449.46,484.75a.38.38,0,0,1-.08.25.88.88,0,0,1-.24.23.91.91,0,0,0-.45.72v1h-15.2v-1a.91.91,0,0,0-.45-.72,1.06,1.06,0,0,1-.24-.23.37.37,0,0,1-.07-.25h0a.41.41,0,0,1,.07-.26,1,1,0,0,1,.24-.22.91.91,0,0,0,.45-.72v-4.39a.89.89,0,0,0-.45-.71,1.33,1.33,0,0,1-.24-.23.39.39,0,0,1-.07-.26h0a.41.41,0,0,1,.07-.26,1,1,0,0,1,.24-.22.91.91,0,0,0,.45-.72v-1h1.15v10h5.53a.93.93,0,0,0,1.79,0h5.53v-10h1.14v1a.91.91,0,0,0,.45.72.86.86,0,0,1,.24.22.42.42,0,0,1,.08.26h0a.4.4,0,0,1-.08.26,1.06,1.06,0,0,1-.24.23.89.89,0,0,0-.45.71v4.37a.91.91,0,0,0,.45.72.86.86,0,0,1,.24.22.42.42,0,0,1,.08.26h0Zm-13.63-9.31a4.57,4.57,0,0,0,.72-.4,3,3,0,0,1,1.66-.59,4.54,4.54,0,0,1,1.68.44,4.42,4.42,0,0,0,1,.31V484h0a9.74,9.74,0,0,0-1.71.45l-.68.21a7.27,7.27,0,0,1-2,.21,8.11,8.11,0,0,0-1.23.06v-9.27a2.89,2.89,0,0,0,.67-.2Zm6.47-.55a4.49,4.49,0,0,1,1.67-.44,2.91,2.91,0,0,1,1.62.59,5.07,5.07,0,0,0,.72.4,3,3,0,0,0,.68.2v9.28a8.11,8.11,0,0,0-1.23-.06,7.27,7.27,0,0,1-2-.21l-.68-.21a9.74,9.74,0,0,0-1.71-.45h0v-8.8a4.38,4.38,0,0,0,.94-.3Zm7.12,9c-.18-.14-.28-.23-.28-.37v-4.36c0-.14.1-.22.28-.36a1.47,1.47,0,0,0,.33-.33.79.79,0,0,0,.15-.51.8.8,0,0,0-.15-.52,1.47,1.47,0,0,0-.33-.33c-.18-.13-.28-.22-.28-.36v-1.47h-.35a6.41,6.41,0,0,1-2.2-.3,5.37,5.37,0,0,1-.65-.37,3.44,3.44,0,0,0-1.93-.67,5,5,0,0,0-1.86.47,3.13,3.13,0,0,1-1,.29H441a3.13,3.13,0,0,1-1-.29,5.1,5.1,0,0,0-1.87-.47,3.44,3.44,0,0,0-1.93.67,5.37,5.37,0,0,1-.65.37,6.38,6.38,0,0,1-2.2.3H433v1.47c0,.14-.1.23-.27.36a1.33,1.33,0,0,0-.34.33,1,1,0,0,0,0,1,1.33,1.33,0,0,0,.34.33c.17.14.27.22.27.36v4.37c0,.14-.1.23-.27.37a1.47,1.47,0,0,0-.34.32,1,1,0,0,0-.15.52.92.92,0,0,0,.15.51,1.33,1.33,0,0,0,.34.33c.17.14.27.22.27.37v1.48h16.11v-1.45c0-.15.1-.23.28-.37a1.47,1.47,0,0,0,.33-.33.79.79,0,0,0,.15-.51.81.81,0,0,0-.15-.52,1.66,1.66,0,0,0-.33-.32Z" transform="translate(-378.59 -468.28)" style="fill:#011f5b"/><path d="M447.51,523.59l-31.23-30.13L385,523.59a40.57,40.57,0,0,1-4-17.73V492.5h70.5v13.36a40.57,40.57,0,0,1-4,17.73Zm-9.92,3.14a6.21,6.21,0,1,1,0-8.78h0a6.2,6.2,0,0,1,0,8.77Zm-27.52-19.8a6.21,6.21,0,1,1,6.21,6.21h0A6.21,6.21,0,0,1,410.07,506.93Zm25.61,32.4c-8.38,7.77-17.09,11.69-19.4,12.28-2.33-.59-11-4.51-19.4-12.28l-.62-.58,20-21.25,20,21.25-.62.58ZM395,526.73a6.21,6.21,0,1,1,8.78,0h0a6.2,6.2,0,0,1-8.77,0Zm56.51-56v20.76H381V470.72Zm1-1H380v36.13c-.05,15.84,8.77,27.34,16.17,34.21,8.07,7.48,17.16,11.94,20,12.56h.14c2.86-.62,12-5.08,20-12.56,7.44-6.87,16.26-18.37,16.26-34.21V469.71Z" transform="translate(-378.59 -468.28)" style="fill:#011f5b"/></svg>