<?xml version="1.0" encoding="utf-8"?>
<!-- Generator: Adobe Illustrator 18.1.1, SVG Export Plug-In . SVG Version: 6.00 Build 0)  -->
<!DOCTYPE svg PUBLIC "-//W3C//DTD SVG 1.1//EN" "http://www.w3.org/Graphics/SVG/1.1/DTD/svg11.dtd">
<svg version="1.1" id="Layer_1" xmlns="http://www.w3.org/2000/svg" xmlns:xlink="http://www.w3.org/1999/xlink" x="0px" y="0px"
	 width="595.28px" height="168px" viewBox="0 0 595.28 168" enable-background="new 0 0 595.28 168" xml:space="preserve">
<path fill="#EF7B10" d="M59.917,133.354c7.761,9.808,16.827,18.67,27.038,26.297c10.098-7.528,19.217-16.327,27.079-26.223
	l-27.101-26.354L59.917,133.354z"/>
<path fill="#EF7B10" d="M47.311,114.508l39.65-38.093l39.729,38.192c6.596-11.727,11.606-24.563,14.689-38.278
	c0.14-0.654,0.254-1.297,0.395-1.944H32.187C35.146,88.505,40.29,102.014,47.311,114.508"/>
<path fill="#EF7B10" d="M47.285,114.508c3.696,6.587,7.923,12.888,12.634,18.851l27.017-26.284l27.101,26.354
	c4.683-5.896,8.908-12.183,12.628-18.82L86.936,76.415L47.285,114.508z"/>
<path fill="#1D1D1B" d="M113.916,131.564l-26.104-25.394l-0.876-0.842l-0.869,0.842l-26.026,25.331
	c-4.134-5.359-7.901-10.985-11.201-16.763L86.936,78.16l38.166,36.686C121.776,120.672,118.012,126.286,113.916,131.564"/>
<path fill="#1D1D1B" d="M86.936,76.422l39.729,38.192c-3.72,6.631-7.951,12.913-12.628,18.807l-27.101-26.353l-27.017,26.285
	c-4.717-5.958-8.938-12.259-12.634-18.851L86.936,76.422 M86.936,79.873l-36.532,35.084c2.922,5.049,6.203,9.977,9.777,14.676
	l25.019-24.348l1.735-1.688l1.736,1.688l25.109,24.415c3.55-4.661,6.821-9.571,9.766-14.638L86.936,79.873z"/>
<path fill="#1D1D1B" d="M144.242,33.767c-4.659,1.414-9.604,2.182-14.747,2.182c-18.128,0-33.968-9.522-42.512-23.705
	C78.427,26.427,62.596,35.949,44.46,35.949c-5.129,0-10.077-0.768-14.726-2.169c-1.215,13.84-0.327,27.493,2.418,40.629h109.587
	C144.611,60.711,145.382,47.059,144.242,33.767"/>
<g enable-background="new    ">
	<g>
		<defs>
			<rect id="SVGID_1_" x="59.976" y="38.747" width="53.996" height="31.849"/>
		</defs>
		<clipPath id="SVGID_2_">
			<use xlink:href="#SVGID_1_"  overflow="visible"/>
		</clipPath>
		<g clip-path="url(#SVGID_2_)">
			<defs>
				<rect id="SVGID_3_" x="59.976" y="38.747" width="54.002" height="31.849"/>
			</defs>
			<clipPath id="SVGID_4_">
				<use xlink:href="#SVGID_3_"  overflow="visible"/>
			</clipPath>
			<path clip-path="url(#SVGID_4_)" fill="#FFFFFF" d="M113.975,50.529v-4.661h-2.849v-3.283l-2.985-0.835h-0.217v-2.792
				c0,0-1.029,1.241-5.749,1.241c-4.48,0-7.104-1.447-10.656-1.447c-3.421,0-4.474,1.951-4.474,1.951v1.128h-0.122v-1.128
				c0,0-1.059-1.951-4.465-1.951c-3.561,0-6.185,1.454-10.659,1.454c-4.72,0-5.536-1.234-5.536-1.234v2.934H66.07l-3.234,0.68v3.283
				h-2.867v4.661h2.867v7.535h-2.867v4.668h2.867v5.794c0,0,4.786,0.742,9.219,0.742c5.241,0,8.263-0.754,11.666-0.823v1.47
				c0,0,1.371,0.673,3.197,0.673c1.851,0,3.312-0.673,3.312-0.673v-1.47c3.396,0.069,6.425,0.823,11.69,0.823
				c4.414,0,9.207-0.742,9.207-0.742v-5.794h2.849v-4.668h-2.849v-7.535H113.975z"/>
		</g>
	</g>
</g>
<path fill="#1D1D1B" d="M108.385,41.445l0.007-3.572l-0.864,0.911c-0.006,0.012-1.071,1.073-5.39,1.073l-5.852-0.779l-4.808-0.667
	c-2.639,0-3.954,1.079-4.537,1.727c-0.573-0.647-1.9-1.727-4.53-1.727l-4.804,0.679l-5.845,0.772c-4.251,0-5.138-1.015-5.144-1.022
	l-0.879-1.084l-0.012,1.378v2.449l-3.471,0.729v26.778l0.42,0.062c0.05,0.012,4.879,0.754,9.304,0.754
	c4.365,0,9.537-0.573,11.173-0.76v1.209l0.268,0.144c0.063,0.03,1.499,0.729,3.428,0.729c1.932,0,3.459-0.698,3.521-0.729
	l0.287-0.137v-1.216c1.632,0.187,6.808,0.76,11.191,0.76c4.412,0,9.248-0.742,9.291-0.754l0.421-0.062V42.335L108.385,41.445z
	 M87.441,41.103c0.037-0.063,0.987-1.702,4.038-1.702l4.596,0.648l6.063,0.797c2.941,0,4.434-0.455,5.262-0.847v25.306
	c-0.056-0.124-1.255,0.779-5.262,0.779l-5.852-0.779l-4.808-0.668c-2.084,0-3.312,0.668-4.038,1.267V41.103z M66.715,40.042
	c0.797,0.399,2.229,0.818,5.048,0.818l6.057-0.799l4.593-0.66c3.025,0,3.982,1.621,4.041,1.702v24.813
	c-0.742-0.61-1.972-1.278-4.079-1.278l-4.804,0.675l-5.808,0.773c-4.251,0-5.138-1.022-5.144-1.036
	C66.619,65.049,66.709,41.731,66.715,40.042 M110.567,68.221c-1.219,0.176-5.098,0.687-8.719,0.687
	c-5.181,0-11.563-0.811-11.624-0.816l-0.561-0.088v1.707c-0.486,0.182-1.564,0.518-2.813,0.518c-1.234,0-2.24-0.335-2.707-0.504
	v-1.72l-0.555,0.088c-0.072,0.005-6.459,0.816-11.606,0.816c-3.627,0-7.512-0.511-8.73-0.687v-25.1
	c0.452-0.094,1.814-0.386,2.478-0.518v22.732c0.24,0.53,1.281,1.739,6.035,1.739l6.016-0.784l4.596-0.668
	c3.075,0,4.038,1.633,4.085,1.708l0.14-0.088h0.707l0.134,0.088c0.037-0.076,0.987-1.708,4.038-1.708l4.596,0.654l6.063,0.798
	c4.816,0,6.022-1.265,6.144-1.415l0.095-23.174c0.632,0.174,1.787,0.493,2.19,0.617V68.221z"/>
<path fill="#1D1D1B" d="M73.766,44.499c-0.39,0.03-0.645,0.236-0.76,0.498l-1.596,3.551c0,0-0.077,0.057-0.121,0.057
	c-0.053,0-0.116-0.057-0.147-0.168c-0.037-0.125-0.236-0.624-0.651-1.595l-0.517-1.153c-0.184-0.43-0.334-0.71-0.384-0.798
	c-0.184-0.317-0.414-0.354-0.669-0.391c-0.031-0.039-0.031-0.076-0.031-0.102c0-0.042,0-0.062,0.024-0.118h0.262
	c0.298,0,0.548,0.032,0.779,0.032c0.261,0,0.695-0.039,0.993-0.039h0.174c0.025,0.007,0.038,0.076,0.038,0.101
	c0,0.023,0,0.086-0.02,0.111c-0.193,0.025-0.632,0.014-0.632,0.287c0,0.056,0.007,0.169,0.038,0.236l1.046,2.494l0.876-2.063
	c0.109-0.238,0.122-0.443,0.122-0.55c0-0.236-0.175-0.335-0.602-0.391c-0.012-0.032-0.03-0.069-0.03-0.102
	c0-0.03,0.018-0.086,0.03-0.125h0.122c0.193,0,0.389,0.039,0.829,0.039c0.077,0,0.377-0.032,0.517-0.032h0.309
	c0.019,0.05,0.037,0.069,0.037,0.106C73.803,44.411,73.785,44.467,73.766,44.499"/>
<path fill="#1D1D1B" d="M78.206,48.474c-1.274,0-1.963-0.03-2.137-0.03c-0.134,0-0.452-0.007-0.604-0.007
	c-0.174,0-0.583,0.025-1.029,0.025l-0.255-0.007c-0.019-0.037-0.019-0.056-0.019-0.093c0-0.032,0-0.076,0.006-0.125
	c0.347-0.025,0.586-0.081,0.645-0.131c0.069-0.087,0.122-0.261,0.141-0.643c0-0.192,0.006-0.405,0.006-0.629
	c0-0.324-0.006-0.717-0.006-1.172v-0.666c-0.013-0.461-0.237-0.461-0.717-0.518c-0.007-0.042-0.019-0.074-0.019-0.104
	c0-0.025,0.012-0.101,0.04-0.113h0.233c0.155,0,0.576,0.012,1.373,0.012c0.726,0,1.434,0.007,1.595,0.007
	c0.094,0,0.377,0.019,0.434,0.019c0.097,0,0.14,0.007,0.14,0.094l0.057,0.946c-0.057,0.038-0.069,0.05-0.119,0.05
	c-0.041,0-0.072,0-0.09-0.012c-0.287-0.48-0.421-0.58-0.638-0.737c-0.075-0.049-0.191-0.086-0.371-0.104
	c-0.057,0-0.203-0.014-0.561-0.014c-0.287,0-0.439,0.014-0.479,0.014c-0.044,0-0.038,0-0.057,0.167
	c-0.006,0.094-0.019,0.294-0.019,0.841v0.543h0.147c0.184,0,0.37-0.013,0.479-0.044c0.159-0.043,0.336-0.155,0.427-0.298
	c0.037-0.051,0.075-0.282,0.097-0.349c0.024-0.019,0.074-0.025,0.133-0.025c0.038,0,0.075,0.007,0.106,0.025
	c-0.013,0.167-0.037,0.493-0.037,0.897c0,0.211,0.019,0.66,0.019,0.835c-0.044,0.03-0.063,0.03-0.115,0.03
	c-0.031,0-0.087,0-0.122-0.005c-0.031-0.363-0.094-0.605-0.396-0.724c-0.165-0.074-0.299-0.093-0.471-0.093
	c-0.084,0-0.193,0.005-0.274,0.019v1.096c0,0.256,0.019,0.412,0.056,0.499c0.025,0.068,0.128,0.211,0.25,0.229
	c0.059,0.014,0.171,0.032,0.39,0.032h0.607c0.153,0,0.375-0.019,0.452-0.063c0.146-0.1,0.536-0.524,0.67-0.904
	c0.065-0.025,0.09-0.025,0.133-0.025c0.031,0,0.071,0.014,0.121,0.032v1.109C78.43,48.462,78.359,48.474,78.206,48.474"/>
<path fill="#1D1D1B" d="M83.263,45.602c-0.031,0-0.072-0.013-0.116-0.013c-0.103-0.261-0.212-0.498-0.311-0.623
	c-0.175-0.219-0.34-0.355-0.779-0.406c-0.097-0.012-0.334-0.012-0.408-0.012l-0.006,1.856c0,0.293,0,0.629,0.006,1.271
	c0.012,0.486,0.221,0.486,0.726,0.555c0.031,0.049,0.037,0.093,0.037,0.118c0,0.044-0.006,0.063-0.025,0.107h-0.184
	c-0.286,0-0.876-0.019-1.059-0.019c-0.127,0-0.767,0.025-1.072,0.025c-0.025-0.051-0.031-0.051-0.031-0.113
	c0-0.025,0.006-0.069,0.019-0.111c0.676-0.05,0.745-0.168,0.763-0.386c0.022-0.132,0.022-0.693,0.022-1.253v-1.528
	c0-0.199-0.015-0.398-0.041-0.523c-0.134,0-0.542,0-0.651,0.051c-0.342,0.125-0.586,0.404-0.848,0.922
	c-0.031,0.005-0.084,0.005-0.103,0.005c-0.044,0-0.081-0.005-0.103-0.03v-1.085c0-0.094,0.009-0.125,0.122-0.125
	c0.103,0,0.255,0.012,0.461,0.012c0.153,0,0.767,0.007,1.53,0.007c1.01,0,1.757-0.025,1.948-0.025c0.103,0,0.171,0,0.205,0.037
	c0.013,0.019,0,0.094,0,0.15v1.078C83.35,45.588,83.3,45.602,83.263,45.602"/>
<path fill="#1D1D1B" d="M73.561,52.182c-0.037,0-0.072-0.014-0.128-0.014c-0.09-0.261-0.195-0.498-0.311-0.622
	c-0.162-0.219-0.34-0.356-0.773-0.405c-0.102-0.014-0.339-0.014-0.408-0.014l-0.012,1.857c0,0.293,0,0.63,0.012,1.271
	c0.007,0.485,0.231,0.485,0.732,0.562c0.034,0.044,0.034,0.087,0.034,0.111c0,0.043,0,0.062-0.022,0.106h-0.184
	c-0.298,0-0.888-0.019-1.059-0.019c-0.127,0-0.766,0.025-1.084,0.025c-0.013-0.051-0.019-0.051-0.019-0.113
	c0-0.024,0.006-0.067,0.013-0.106c0.669-0.056,0.738-0.174,0.772-0.391c0.007-0.132,0.007-0.691,0.007-1.253v-1.526
	c0-0.201,0-0.399-0.025-0.524c-0.137,0-0.551,0-0.667,0.051c-0.336,0.125-0.573,0.405-0.835,0.922
	c-0.037,0.005-0.088,0.005-0.116,0.005c-0.037,0-0.068-0.005-0.1-0.03v-1.084c0-0.094,0.019-0.125,0.127-0.125
	c0.106,0,0.253,0.012,0.459,0.012c0.158,0,0.772,0.007,1.539,0.007c0.994,0,1.755-0.025,1.944-0.025c0.103,0,0.171,0,0.206,0.037
	c0.012,0.02,0,0.094,0,0.15v1.078C73.638,52.168,73.598,52.182,73.561,52.182"/>
<path fill="#1D1D1B" d="M78.361,55.054c-1.261,0-1.965-0.03-2.13-0.03c-0.134,0-0.446-0.007-0.611-0.007
	c-0.168,0-0.582,0.025-1.022,0.025l-0.249-0.007c-0.025-0.037-0.031-0.056-0.031-0.093c0-0.032,0-0.076,0.019-0.12
	c0.346-0.03,0.586-0.086,0.632-0.137c0.08-0.087,0.121-0.261,0.14-0.636c0.007-0.199,0.02-0.411,0.02-0.636
	c0-0.324-0.013-0.71-0.013-1.171c0-0.337-0.007-0.529-0.007-0.667c-0.012-0.454-0.224-0.454-0.701-0.516
	c-0.022-0.044-0.034-0.076-0.034-0.106c0-0.025,0.019-0.094,0.053-0.106h0.221c0.168,0,0.577,0.012,1.374,0.012
	c0.739,0,1.434,0.007,1.608,0.007c0.081,0,0.376,0.012,0.42,0.012c0.109,0,0.146,0.007,0.146,0.094l0.05,0.953
	c-0.05,0.032-0.068,0.044-0.118,0.044c-0.028,0-0.059,0-0.09-0.012c-0.274-0.48-0.408-0.573-0.639-0.735
	c-0.077-0.051-0.177-0.088-0.358-0.1c-0.055,0-0.202-0.014-0.573-0.014c-0.286,0-0.438,0.014-0.47,0.014
	c-0.053,0-0.047,0-0.065,0.162c0,0.1-0.006,0.292-0.006,0.84v0.543h0.133c0.191,0,0.378-0.012,0.481-0.043
	c0.171-0.044,0.336-0.155,0.433-0.299c0.031-0.05,0.075-0.282,0.09-0.349c0.038-0.019,0.088-0.032,0.132-0.032
	c0.046,0,0.09,0.013,0.115,0.032c-0.006,0.169-0.044,0.493-0.044,0.897c0,0.212,0.025,0.661,0.025,0.834
	c-0.05,0.032-0.056,0.032-0.116,0.032c-0.037,0-0.087,0-0.127-0.007c-0.031-0.361-0.081-0.605-0.396-0.724
	c-0.165-0.074-0.299-0.093-0.458-0.093c-0.084,0-0.196,0.005-0.28,0.019v1.103c0,0.255,0.019,0.405,0.05,0.493
	c0.034,0.067,0.134,0.21,0.25,0.231c0.059,0.012,0.177,0.03,0.389,0.03h0.621c0.152,0,0.361-0.019,0.439-0.063
	c0.159-0.1,0.548-0.523,0.682-0.904c0.053-0.025,0.09-0.025,0.122-0.025c0.031,0,0.084,0.014,0.121,0.032v1.109
	C78.586,55.042,78.514,55.054,78.361,55.054"/>
<path fill="#1D1D1B" d="M81.318,55.153c-0.352,0-0.735-0.137-0.972-0.255c-0.037-0.018-0.118-0.037-0.158-0.037
	c-0.044,0-0.172,0.067-0.306,0.167c-0.102,0-0.218-0.049-0.249-0.13c0-0.08,0.085-0.342,0.085-0.511c0-0.1-0.035-0.58-0.04-0.68
	c0.04-0.063,0.115-0.093,0.181-0.093h0.068c0.09,0.181,0.262,0.636,0.39,0.816c0.268,0.298,0.651,0.442,0.932,0.442
	c0.314,0,0.548-0.056,0.682-0.206c0.193-0.187,0.237-0.298,0.237-0.504c0-0.15-0.031-0.287-0.122-0.381
	c-0.109-0.137-0.196-0.192-0.433-0.31c-0.193-0.088-0.835-0.25-1.072-0.381c-0.292-0.13-0.433-0.254-0.579-0.405
	c-0.181-0.224-0.243-0.529-0.243-0.766c0-0.674,0.53-1.185,1.287-1.185c0.284,0,0.669,0.039,1.003,0.293
	c0.068-0.074,0.159-0.162,0.249-0.236c0.121,0,0.202,0.067,0.215,0.111c-0.013,0.094-0.063,0.362-0.063,0.573
	c0,0.113,0.063,0.555,0.063,0.629c-0.043,0.019-0.094,0.051-0.165,0.051c-0.019,0-0.05-0.007-0.068-0.012
	c-0.122-0.206-0.23-0.55-0.358-0.735c-0.19-0.263-0.461-0.356-0.835-0.356c-0.415,0-0.754,0.268-0.754,0.623
	c0,0.344,0.28,0.511,0.511,0.617c0.177,0.062,0.389,0.15,0.632,0.224c0.311,0.106,0.548,0.187,0.669,0.25
	c0.489,0.256,0.695,0.617,0.695,1.11C82.798,54.656,82.098,55.153,81.318,55.153"/>
<path fill="#1D1D1B" d="M75.252,61.647c-1.277,0-1.965-0.032-2.138-0.032c-0.133,0-0.454-0.005-0.607-0.005
	c-0.171,0-0.579,0.023-1.025,0.023l-0.255-0.005c-0.022-0.037-0.022-0.057-0.022-0.094c0-0.03,0-0.081,0.009-0.125
	c0.343-0.023,0.586-0.081,0.643-0.13c0.072-0.094,0.122-0.261,0.14-0.643c0-0.192,0.006-0.405,0.006-0.629
	c0-0.324-0.006-0.717-0.006-1.172V58.17c-0.013-0.462-0.234-0.462-0.713-0.518c-0.007-0.043-0.019-0.074-0.019-0.106
	c0-0.024,0.012-0.1,0.037-0.111h0.237c0.152,0,0.573,0.012,1.371,0.012c0.729,0,1.436,0.007,1.595,0.007
	c0.096,0,0.377,0.012,0.436,0.012c0.093,0,0.14,0.007,0.14,0.1l0.057,0.948c-0.057,0.032-0.069,0.05-0.122,0.05
	c-0.038,0-0.069,0-0.091-0.019c-0.287-0.474-0.42-0.573-0.635-0.73c-0.079-0.049-0.194-0.093-0.371-0.106
	c-0.059,0-0.206-0.012-0.561-0.012c-0.29,0-0.442,0.012-0.479,0.012c-0.044,0-0.038,0-0.057,0.169
	c-0.006,0.094-0.022,0.293-0.022,0.841v0.543h0.15c0.184,0,0.368-0.013,0.476-0.044c0.159-0.043,0.34-0.162,0.427-0.3
	c0.041-0.049,0.079-0.28,0.097-0.349c0.024-0.024,0.078-0.037,0.134-0.037c0.037,0,0.078,0.013,0.109,0.037
	c-0.013,0.168-0.037,0.487-0.037,0.897c0,0.212,0.019,0.654,0.019,0.836c-0.047,0.03-0.066,0.03-0.116,0.03
	c-0.031,0-0.09,0-0.121-0.007c-0.031-0.361-0.097-0.604-0.396-0.729c-0.165-0.069-0.299-0.087-0.474-0.087
	c-0.081,0-0.189,0.007-0.274,0.019v1.098c0,0.255,0.022,0.412,0.059,0.498c0.025,0.063,0.128,0.212,0.25,0.231
	c0.056,0.012,0.171,0.032,0.39,0.032h0.604c0.154,0,0.378-0.021,0.456-0.063c0.146-0.1,0.536-0.524,0.669-0.911
	c0.063-0.025,0.088-0.025,0.134-0.025c0.031,0,0.069,0.014,0.121,0.037v1.11C75.476,61.634,75.404,61.647,75.252,61.647"/>
<path fill="#1D1D1B" d="M81.377,57.652c-0.43,0.019-0.797,0.256-0.797,0.935l-0.006,2.157c0,0.087,0.037,0.698,0.037,0.934
	c-0.072,0.032-0.14,0.063-0.171,0.063c-0.028,0-0.066-0.03-0.116-0.063l-2.963-3.19l0.028,0.649l0.013,1.177
	c0,0.088,0.019,0.312,0.037,0.481c0.02,0.266,0.103,0.347,0.219,0.441c0.14,0.13,0.38,0.169,0.561,0.188
	c0.019,0.03,0.025,0.063,0.025,0.093c0,0.013-0.007,0.076-0.038,0.113h-0.32c-0.274,0-0.483-0.007-0.764-0.007
	c-0.193,0-0.448,0.018-0.632,0.018h-0.14c-0.006-0.03-0.006-0.081-0.006-0.1c0-0.025,0-0.055,0.019-0.106
	c0.209-0.019,0.548-0.118,0.67-0.293c0.049-0.104,0.069-0.298,0.069-0.504V59.13c0-0.243-0.013-0.368-0.02-0.606
	c-0.012-0.192-0.049-0.342-0.152-0.454c-0.006-0.032-0.102-0.125-0.203-0.224c-0.09-0.081-0.327-0.144-0.473-0.206
	c-0.02-0.037-0.025-0.087-0.025-0.087c0-0.037,0.006-0.088,0.025-0.118h0.108c0.09,0,0.548,0.025,0.894,0.025h0.203
	c0.037,0.019,0.109,0.056,0.127,0.093l2.196,2.399c0.166,0.174,0.38,0.423,0.496,0.579v-1.739c0-0.224-0.013-0.391-0.025-0.479
	c-0.019-0.175-0.05-0.337-0.122-0.443c-0.068-0.118-0.477-0.167-0.688-0.218c-0.025-0.037-0.025-0.087-0.025-0.13
	c0-0.02,0-0.043,0.013-0.087h0.127c0.202,0,0.536,0.03,0.739,0.03c0.505,0,0.657-0.019,0.913-0.019h0.167
	c0.019,0.037,0.019,0.076,0.019,0.106C81.396,57.578,81.396,57.622,81.377,57.652"/>
<path fill="#1D1D1B" d="M95.23,44.479c-0.423,0.021-0.797,0.256-0.797,0.941v2.15c0,0.087,0.031,0.698,0.031,0.936
	c-0.059,0.03-0.14,0.067-0.171,0.067c-0.028,0-0.053-0.037-0.115-0.067l-2.963-3.191l0.04,0.654l0.006,1.17
	c0,0.095,0.019,0.312,0.031,0.48c0.031,0.269,0.103,0.349,0.219,0.449c0.152,0.125,0.396,0.162,0.561,0.181
	c0.019,0.03,0.025,0.069,0.025,0.099c0,0.014-0.007,0.069-0.025,0.107h-0.333c-0.262,0-0.477-0.007-0.763-0.007
	c-0.194,0-0.442,0.019-0.621,0.019h-0.14c-0.013-0.03-0.019-0.081-0.019-0.1c0-0.019,0-0.049,0.024-0.106
	c0.202-0.019,0.542-0.118,0.664-0.292c0.056-0.106,0.069-0.3,0.069-0.506v-1.501c0-0.25,0-0.374-0.013-0.611
	c-0.006-0.187-0.056-0.344-0.146-0.448c-0.019-0.032-0.103-0.132-0.215-0.231c-0.084-0.074-0.327-0.144-0.473-0.206
	c-0.007-0.037-0.02-0.087-0.02-0.087c0-0.031,0.013-0.086,0.02-0.118h0.115c0.084,0,0.542,0.025,0.888,0.025h0.203
	c0.037,0.019,0.109,0.062,0.134,0.093l2.202,2.399c0.166,0.174,0.377,0.423,0.489,0.58V45.62c0-0.219-0.019-0.393-0.031-0.474
	c-0.006-0.181-0.05-0.342-0.122-0.449c-0.068-0.113-0.476-0.168-0.682-0.219c-0.019-0.037-0.031-0.086-0.031-0.123
	c0-0.02,0-0.05,0.024-0.094h0.128c0.206,0,0.529,0.032,0.732,0.032c0.499,0,0.667-0.02,0.919-0.02h0.156
	c0.018,0.044,0.031,0.083,0.031,0.106C95.261,44.404,95.248,44.448,95.23,44.479"/>
<path fill="#1D1D1B" d="M99.595,47.951c-0.408,0.398-0.975,0.629-1.498,0.629c-0.499,0-1.072-0.213-1.468-0.599
	c-0.442-0.423-0.632-0.985-0.632-1.602c0-0.597,0.19-1.165,0.632-1.589c0.465-0.442,0.97-0.636,1.481-0.636
	c0.364,0,0.701,0.106,1.108,0.319c0.645,0.417,1.028,1.108,1.028,1.869C100.246,46.929,100.01,47.521,99.595,47.951 M98.913,44.878
	c-0.206-0.275-0.461-0.442-0.835-0.442c-0.353,0-0.577,0.162-0.779,0.442c-0.25,0.317-0.39,0.834-0.39,1.489
	c0,0.643,0.14,1.147,0.371,1.464c0.215,0.312,0.458,0.474,0.829,0.474c0.445,0,0.701-0.218,0.906-0.579
	c0.19-0.319,0.274-0.767,0.274-1.347C99.29,45.683,99.156,45.195,98.913,44.878"/>
<path fill="#1D1D1B" d="M105.562,44.499c-0.376,0.03-0.632,0.236-0.744,0.498l-1.595,3.551c0,0-0.078,0.057-0.128,0.057
	c-0.052,0-0.122-0.057-0.15-0.168c-0.037-0.125-0.227-0.624-0.657-1.595l-0.507-1.153c-0.188-0.43-0.327-0.71-0.378-0.798
	c-0.199-0.317-0.42-0.354-0.669-0.391c-0.046-0.039-0.046-0.076-0.046-0.102c0-0.042,0-0.062,0.034-0.118h0.262
	c0.292,0,0.542,0.032,0.769,0.032c0.262,0,0.698-0.039,1.003-0.039h0.164c0.042,0.007,0.054,0.076,0.054,0.101
	c0,0.023,0,0.086-0.029,0.111c-0.195,0.025-0.629,0.014-0.629,0.287c0,0.056,0,0.169,0.037,0.236l1.041,2.494l0.885-2.063
	c0.096-0.238,0.11-0.443,0.11-0.55c0-0.236-0.172-0.335-0.599-0.391c-0.012-0.032-0.025-0.069-0.025-0.102
	c0-0.03,0.013-0.086,0.025-0.125h0.121c0.191,0,0.39,0.039,0.835,0.039c0.072,0,0.377-0.032,0.524-0.032h0.305
	c0.019,0.05,0.023,0.069,0.023,0.106C105.599,44.411,105.594,44.467,105.562,44.499"/>
<path fill="#1D1D1B" d="M93.856,52.182c-0.038,0-0.069-0.014-0.124-0.014c-0.09-0.261-0.2-0.498-0.314-0.622
	c-0.16-0.219-0.336-0.356-0.774-0.405c-0.099-0.014-0.336-0.014-0.408-0.014l-0.012,1.857c0,0.293,0,0.63,0.012,1.271
	c0.006,0.485,0.231,0.485,0.735,0.562c0.031,0.044,0.031,0.087,0.031,0.111c0,0.043,0,0.062-0.019,0.106h-0.187
	c-0.299,0-0.885-0.019-1.057-0.019c-0.127,0-0.766,0.025-1.087,0.025c-0.013-0.051-0.018-0.051-0.018-0.113
	c0-0.024,0.006-0.067,0.013-0.106c0.669-0.056,0.741-0.174,0.772-0.391c0.006-0.132,0.006-0.691,0.006-1.253v-1.526
	c0-0.201,0-0.399-0.024-0.524c-0.134,0-0.549,0-0.664,0.051c-0.34,0.125-0.573,0.405-0.836,0.922
	c-0.04,0.005-0.09,0.005-0.115,0.005c-0.038,0-0.072-0.005-0.103-0.03v-1.084c0-0.094,0.019-0.125,0.127-0.125
	c0.109,0,0.255,0.012,0.458,0.012c0.163,0,0.773,0.007,1.54,0.007c0.997,0,1.754-0.025,1.947-0.025c0.1,0,0.172,0,0.203,0.037
	c0.012,0.02,0,0.094,0,0.15v1.078C93.934,52.168,93.897,52.182,93.856,52.182"/>
<path fill="#1D1D1B" d="M98.895,55.061h-0.334c-0.208,0-0.458-0.032-0.707-0.032c-0.402,0-0.9,0.032-1.097,0.032
	c-0.019-0.025-0.031-0.063-0.031-0.118c0-0.019,0.013-0.063,0.024-0.087c0.408-0.019,0.567-0.088,0.567-0.256
	c0-0.067,0-0.204-0.128-0.542c-0.128-0.312-0.19-0.449-0.225-0.529c-0.012-0.032-0.024-0.044-0.112-0.044h-1.327
	c-0.084,0.1-0.193,0.399-0.309,0.804c-0.031,0.106-0.031,0.206-0.031,0.243c0,0.136,0.128,0.292,0.595,0.305
	c0.031,0.044,0.031,0.087,0.031,0.106c0,0.037,0,0.067-0.013,0.106h-0.115c-0.315,0-0.396-0.021-0.729-0.021
	c-0.215,0-0.726,0.021-0.897,0.021c-0.016-0.039-0.029-0.051-0.029-0.095c0-0.025,0-0.056,0.029-0.099
	c0.246-0.063,0.477-0.125,0.598-0.319c0.066-0.086,0.287-0.479,0.53-1.082c0.237-0.562,0.523-1.272,0.645-1.565
	c0.172-0.368,0.237-0.486,0.294-0.61c0.084-0.188,0.186-0.375,0.217-0.442c0.044-0.051,0.134-0.076,0.172-0.076
	c0.065,0,0.153,0.037,0.184,0.088c0.041,0.074,0.084,0.155,0.096,0.206c0.243,0.58,0.433,1.096,0.742,1.813
	c0.153,0.362,0.227,0.599,0.396,0.973c0.116,0.236,0.184,0.423,0.299,0.636c0.159,0.317,0.408,0.317,0.663,0.386
	c0.006,0.03,0.037,0.062,0.037,0.092C98.932,54.998,98.913,55.017,98.895,55.061 M96.239,51.72h-0.012
	c-0.091,0.169-0.244,0.524-0.299,0.687c-0.218,0.542-0.303,0.729-0.34,0.803h1.253C96.751,52.954,96.423,52.187,96.239,51.72"/>
<path fill="#1D1D1B" d="M105.388,55.054l-1.705-0.019h-0.467c-0.012-0.037-0.025-0.081-0.025-0.106c0-0.056,0.013-0.063,0.035-0.106
	c0.093-0.005,0.317,0,0.42-0.042c0.177-0.076,0.243-0.25,0.243-0.506v-2.442v-0.58h-0.008l-0.892,1.97
	c-0.103,0.21-0.217,0.441-0.314,0.679c-0.202,0.454-0.305,0.766-0.368,0.953c-0.035,0.074-0.097,0.074-0.134,0.074
	c-0.059,0-0.096-0.019-0.127-0.111c-0.116-0.256-0.2-0.423-0.237-0.524l-1.398-3.084h-0.031v0.786l0.031,1.963
	c0,0.604,0.308,0.886,0.785,0.886c0.019,0.03,0.041,0.086,0.041,0.099c0,0.025-0.007,0.063-0.028,0.1
	c-0.031,0-0.128,0.012-0.215,0.012c-0.06,0-0.365-0.03-0.816-0.03c-0.122,0-0.389,0.012-0.589,0.012h-0.287
	c-0.013-0.037-0.019-0.067-0.019-0.106c0-0.005,0.006-0.056,0.019-0.086c0.122-0.025,0.53-0.125,0.614-0.213
	c0.088-0.094,0.171-0.261,0.171-0.686v-0.983v-1.172c-0.012-0.342-0.05-0.48-0.218-0.592c-0.069-0.044-0.331-0.074-0.555-0.113
	c-0.025-0.037-0.031-0.081-0.031-0.111c0-0.025,0.006-0.069,0.031-0.113c0.159,0,0.452,0.018,0.748,0.018h1.019
	c0.047,0.025,0.059,0.051,0.09,0.107l1.25,2.841l0.224-0.566c0.2-0.456,0.48-1.154,0.875-1.882c0.094-0.168,0.197-0.379,0.256-0.492
	l1.596-0.025c0.019,0.037,0.037,0.069,0.037,0.106c0,0.037-0.007,0.062-0.032,0.099c-0.174,0.037-0.472,0.037-0.619,0.275
	c-0.051,0.088-0.085,0.155-0.085,0.498v2.032c0,0.779,0.199,0.86,0.29,0.911c0.049,0.037,0.292,0.063,0.427,0.063
	c0.019,0.042,0.03,0.067,0.03,0.111C105.418,55.005,105.4,55.017,105.388,55.054"/>
<path fill="#1D1D1B" d="M93.76,58.769c-0.037,0-0.068-0.014-0.128-0.014c-0.087-0.261-0.196-0.498-0.312-0.617
	c-0.158-0.217-0.34-0.354-0.772-0.412c-0.103-0.012-0.337-0.012-0.408-0.012l-0.013,1.857c0,0.3,0,0.636,0.013,1.278
	c0.006,0.486,0.23,0.486,0.735,0.555c0.031,0.044,0.031,0.093,0.031,0.118c0,0.044,0,0.063-0.019,0.106h-0.187
	c-0.299,0-0.885-0.018-1.06-0.018c-0.127,0-0.763,0.023-1.084,0.023c-0.012-0.049-0.019-0.049-0.019-0.111
	c0-0.025,0.006-0.074,0.013-0.113c0.669-0.049,0.741-0.167,0.772-0.386c0.007-0.137,0.007-0.691,0.007-1.253v-1.533
	c0-0.192,0-0.391-0.025-0.523c-0.134,0-0.548,0-0.664,0.056c-0.34,0.125-0.573,0.406-0.834,0.922
	C89.766,58.7,89.716,58.7,89.69,58.7c-0.04,0-0.072-0.007-0.103-0.032v-1.084c0-0.093,0.018-0.13,0.128-0.13
	c0.109,0,0.255,0.012,0.458,0.012c0.162,0,0.772,0.014,1.539,0.014c0.994,0,1.755-0.032,1.948-0.032c0.1,0,0.171,0,0.203,0.044
	c0.012,0.019,0,0.093,0,0.15v1.078C93.837,58.755,93.8,58.769,93.76,58.769"/>
<path fill="#1D1D1B" d="M98.981,57.671c-0.377,0.032-0.632,0.238-0.748,0.5l-1.595,3.544c0,0-0.074,0.063-0.127,0.063
	c-0.05,0-0.122-0.063-0.147-0.167c-0.037-0.131-0.23-0.624-0.657-1.595l-0.511-1.153c-0.185-0.43-0.324-0.71-0.374-0.798
	c-0.199-0.324-0.423-0.356-0.673-0.393c-0.044-0.037-0.044-0.074-0.044-0.099c0-0.044,0-0.069,0.031-0.118h0.262
	c0.296,0,0.542,0.025,0.772,0.025c0.261,0,0.695-0.032,1.003-0.032h0.165c0.037,0.007,0.05,0.069,0.05,0.1
	c0,0.025,0,0.087-0.025,0.113c-0.196,0.025-0.632,0.012-0.632,0.287c0,0.049,0,0.169,0.041,0.236l1.038,2.487l0.888-2.057
	c0.096-0.236,0.109-0.442,0.109-0.548c0-0.236-0.171-0.342-0.602-0.393c-0.012-0.03-0.025-0.067-0.025-0.099
	c0-0.031,0.013-0.093,0.025-0.125h0.122c0.193,0,0.39,0.032,0.838,0.032c0.068,0,0.377-0.025,0.524-0.025h0.305
	c0.019,0.044,0.025,0.063,0.025,0.106C99.02,57.583,99.013,57.641,98.981,57.671"/>
<path fill="#1D1D1B" d="M105.476,61.647l-1.693-0.019h-0.476c-0.017-0.037-0.017-0.081-0.017-0.106c0-0.062,0-0.069,0.022-0.113
	c0.1-0.005,0.319,0,0.434-0.037c0.165-0.074,0.231-0.25,0.231-0.504v-2.443c0,0,0.012-0.454,0.012-0.578h-0.019l-0.882,1.963
	c-0.115,0.217-0.218,0.448-0.326,0.684c-0.197,0.448-0.306,0.767-0.369,0.948c-0.019,0.081-0.09,0.081-0.133,0.081
	c-0.053,0-0.091-0.018-0.128-0.118c-0.109-0.256-0.188-0.418-0.225-0.524l-1.411-3.078h-0.031v0.784l0.031,1.963
	c0.016,0.599,0.309,0.878,0.797,0.878c0.022,0.032,0.028,0.094,0.028,0.106c0,0.025,0,0.062-0.021,0.099
	c-0.038,0-0.119,0.014-0.222,0.014c-0.059,0-0.358-0.032-0.804-0.032c-0.134,0-0.402,0.014-0.595,0.014h-0.281
	c-0.019-0.037-0.031-0.069-0.031-0.106c0-0.006,0.013-0.062,0.031-0.094c0.109-0.023,0.523-0.118,0.614-0.204
	c0.075-0.094,0.159-0.263,0.159-0.686l0.006-0.992l-0.006-1.165c-0.012-0.342-0.044-0.479-0.218-0.592
	c-0.068-0.049-0.331-0.081-0.548-0.111c-0.025-0.037-0.038-0.081-0.038-0.113c0-0.024,0.013-0.074,0.038-0.118
	c0.152,0,0.461,0.019,0.741,0.019h1.034c0.031,0.025,0.05,0.057,0.075,0.113l1.253,2.835l0.233-0.566
	c0.187-0.449,0.48-1.147,0.875-1.882c0.085-0.162,0.191-0.374,0.256-0.492l1.582-0.025c0.02,0.037,0.05,0.076,0.05,0.113
	c0,0.037-0.019,0.063-0.044,0.1c-0.159,0.03-0.467,0.03-0.607,0.273c-0.05,0.081-0.096,0.157-0.096,0.499v2.032
	c0,0.779,0.199,0.86,0.295,0.909c0.044,0.032,0.287,0.056,0.421,0.056c0.03,0.044,0.037,0.076,0.037,0.12
	C105.513,61.597,105.494,61.61,105.476,61.647"/>
<path fill="#1D1D1B" d="M567.979,36.409c0-0.212-0.049-0.592-0.162-0.753h-1.246c-2.717,0-4.443,0.106-9.335,0.106
	c-1.682,0-4.188-0.106-4.773-0.106h-1.408c-0.176,0.106-0.225,0.705-0.225,0.922c0,0.273,0.049,0.703,0.273,0.927
	c0.873,0.275,4.176,0.636,5.583,1.565c0.985,1.147,1.422,3.415,1.584,5.54c0.049,0.804,0.1,1.621,0.1,3.845v11.341
	c0,1.304-0.051,1.739-0.1,2.337c-0.93-1.034-2.225-2.985-4.399-5.422l-18.122-20.089c-0.162-0.213-0.485-0.487-0.821-0.698
	c-0.43,0-1.19-0.056-1.62-0.056c-3.477,0-9.771-0.157-10.682-0.157c-0.118,0.212-0.225,0.536-0.225,0.753
	c0,0.113,0.106,0.874,0.157,1.041c0.816,0.206,2.604,0.481,4.069,2.058c0.871,0.971,2.391,2.331,2.871,3.415
	c0.174,0.393,0.225,0.978,0.225,1.738c0,2.81-0.169,6.779-0.169,10.568v11.029c0,1.789-0.148,3.204-0.316,4.12
	c-1.141,1.197-2.874,2.063-5.702,2.767c-0.1,0.28-0.212,0.703-0.212,0.971c0,0.169,0.051,0.717,0.162,0.761h1.035
	c1.084,0,3.576-0.162,5.202-0.162c2.393,0,4.014,0.162,6.238,0.162h3.265c0.212-0.044,0.261-0.705,0.261-0.916
	c0-0.219-0.049-0.654-0.161-0.867c-1.895-0.486-4.661-0.928-6.505-3.364c-0.386-0.816-0.705-4.837-0.705-6.737
	c0-1.732-0.056-4.113-0.056-7.322c0-4.287,0.056-8.025,0.107-9.919c0.329,0.373,0.703,0.858,0.979,1.177l25.069,28.172
	c0.268,0.269,1.246,0.324,1.52,0.324c0.263,0,0.43,0,0.654-0.106c0.1-0.268,0.48-1.147,0.48-2.435c0-1.577-0.056-3.216-0.056-4.021
	V46.287c0-6.786,3.209-8.68,6.948-8.849C567.93,37.163,567.979,36.684,567.979,36.409 M505.794,53.664
	c0,8.194-2.272,15.424-5.364,17.967c-1.583,1.309-3.527,1.956-5.764,1.956c-3.035,0-5.689-1.197-7.211-3.634
	c-2.056-3.146-3.202-9.01-3.202-14.113c0-7.547,1.944-13.461,5.434-16.339c1.845-1.514,3.727-2.106,5.634-2.106
	c2.941,0,5.757,1.408,7.39,3.739C504.768,43.956,505.794,48.025,505.794,53.664 M515.608,54.7c0-7.59-3.353-13.392-9.657-16.875
	c-3.359-1.852-6.719-2.772-10.301-2.772c-7.921,0-15.088,4.724-18.297,10.102c-2.063,3.364-3.14,7.047-3.14,10.948
	c0,6.245,3.035,12.376,7.759,15.902c3.582,2.612,7.651,3.907,12.375,3.907c2.878,0,5.59-0.536,8.244-1.57
	c2.991-1.14,5.54-2.934,7.547-5.16C513.666,65.331,515.608,60.395,515.608,54.7 M467.913,47.863V36.789
	c0-0.816-0.311-1.027-1.133-1.027c-1.627,0-10.195,0.211-18.882,0.211c-6.73,0-12.319-0.104-15.354-0.104h-4.025
	c-0.698,0-0.916,0.167-0.916,0.921v10.364c0.218,0.167,0.592,0.224,0.872,0.224c0.218,0,0.979,0,1.19-0.12
	c2.442-4.922,4.724-7.589,7.596-9.059c1.627-0.15,4.829-0.212,5.701-0.212c0.051,0.599,0.107,2.499,0.164,4.767
	c0.049,3.913,0.049,5.595,0.049,14.818c0,7.988-0.049,11.56-0.162,12.425c-0.213,1.515,0.056,2.668-6.455,2.943
	c-0.169,0.372-0.169,0.803-0.169,1.232c0,0.219,0,0.661,0.063,0.874h2.106c2.012,0,6.735-0.213,8.693-0.213
	c1.569,0,6.617,0.162,9.921,0.162h1.519c0.162-0.268,0.162-0.867,0.162-1.135c0-0.336-0.049-0.71-0.211-0.983
	c-0.599,0-4.075,0.104-5.583-1.029c-0.169-0.599-0.499-2.168-0.499-4.076c-0.049-5.857-0.111-8.076-0.111-11.988
	c0-5.049,0.063-8.464,0.063-17.854c0.759,0,2.497-0.051,4.117,0c3.371,0.922,5.004,2.174,6.463,4.125
	c0.915,1.247,1.907,3.359,2.873,5.914c0.329,0.106,0.603,0.106,0.916,0.106C467.104,48.076,467.808,47.969,467.913,47.863
	 M421.152,65.498c0-0.754,0-1.089-0.063-1.575c-0.273-0.169-0.379-0.169-0.809-0.169c-0.386,0-0.811,0-1.202,0.111
	c-1.838,4.182-4.499,7.44-5.965,8.3c-0.81,0.499-2.056,0.605-4.074,0.605h-4.437c-1.738,0-3.104-0.162-3.584-0.274
	c-0.815-0.162-1.689-1.464-2.063-2.337c-0.386-0.916-0.604-0.916-0.604-3.42V54.862h2.013c0.549,0,1.846,0.106,3.302,0.76
	c1.366,0.604,1.908,1.408,2.444,2.28c0.499,0.753,0.815,3.738,0.922,4.506c0.273,0.155,0.978,0.21,1.42,0.21
	c0.425,0,0.698-0.056,1.079-0.273c0-1.471-0.318-5.422-0.318-7.604c0-2.71,0.374-6.449,0.536-8.393
	c-0.218-0.118-0.536-0.224-1.084-0.224c-0.38,0-1.085,0-1.408,0.162c-0.162,0.76-0.761,3.035-0.874,3.202
	c-0.809,1.366-2.228,2.393-3.688,2.823c-0.974,0.263-2.393,0.43-3.142,0.43h-1.141v-5.041c0-5.216,0.106-6.892,0.157-7.877
	c0.056-0.643,0.162-1.353,0.225-1.838c0.485-0.056,0.759-0.106,3.253-0.106c3.14,0,4.61,0.051,5.096,0.051
	c1.521,0.118,2.661,0.435,3.478,1.089c2.063,1.572,3.627,4.057,5.209,6.718c0.325,0.118,0.867,0.118,1.142,0.118
	c0.324,0,0.38-0.118,0.816-0.324c0-3.322-0.232-7.602-0.337-8.955c-0.049-0.543-0.155-0.71-1.24-0.71
	c-0.443,0-2.499-0.106-4.667-0.106c-3.092,0-4.35,0.056-9.073,0.056c-2.543,0-7.808,0.051-10.032,0.051
	c-3.253,0-6.026-0.106-7.441-0.106h-1.844c-0.161,0.211-0.263,0.647-0.263,0.86c0,0.273,0.102,0.883,0.263,1.089
	c0.654,0.219,3.209,0.169,3.975,0.599c0.749,0.647,1.452,0.922,1.944,3.528c0.113,1.14,0.162,4.287,0.162,6.779v11.179
	c0,2.282-0.049,5.59-0.111,6.943c-0.1,2.118-0.859,4.668-1.184,5.165c-0.492,0.374-2.719,0.705-4.886,0.805
	c-0.163,0.331-0.274,0.878-0.274,1.195c0,0.324,0.111,0.712,0.274,0.985h1.788c1.738,0,8.145-0.162,9.608-0.162
	c1.353,0,3.963,0.106,7.104,0.106c1.739,0,6.835,0.324,17.804,0.324c0.436,0,0.922,0.051,1.458-0.111
	c0.167-0.275,0.167-0.381,0.225-0.874C421.152,73.088,421.152,69.892,421.152,65.498 M375.244,67.393
	c-0.166-0.486-0.603-1.304-1.85-1.304c-0.113,0-0.267,0.057-0.374,0.057c-3.265,4.618-6.842,6.35-10.918,6.35
	c-5.632,0-9.657-3.801-10.954-7.166c-0.71-1.789-1.684-5.697-1.684-9.877c0-3.958,0.599-7.161,1.628-9.498
	c2.386-6.287,5.856-8.245,10.095-8.245c3.532,0,6.462,2.013,8.68,4.885c0.929,1.248,1.9,3.69,2.76,6.568
	c0.225,0.051,0.712,0.157,1.204,0.157c0.324,0,1.085-0.263,1.296-0.487c-0.049-0.592-0.586-4.772-0.586-6.081
	c0-1.621,0.431-4.282,0.431-5.315c-0.331-0.324-1.415-0.543-2.12-0.587c-0.81,0.587-1.084,1.29-1.843,2.219
	c-3.048-2.175-5.865-3.852-12.046-3.852c-5.696,0-10.208,1.944-13.623,5.373c-3.738,3.681-5.808,8.792-5.808,15.304
	c0,6.942,2.93,12.644,7.653,16.226c2.991,2.164,7.384,3.627,12.643,3.627c6.624,0,11.448-2.5,13.891-5.796
	C374.691,68.639,374.803,68.315,375.244,67.393 M333.001,36.409c0-0.212-0.056-0.592-0.161-0.753h-1.252
	c-2.712,0-4.45,0.106-9.341,0.106c-1.671,0-4.175-0.106-4.773-0.106h-1.408c-0.162,0.106-0.225,0.705-0.225,0.922
	c0,0.273,0.063,0.703,0.287,0.927c0.864,0.275,4.175,0.636,5.583,1.565c0.985,1.147,1.408,3.415,1.57,5.54
	c0.063,0.804,0.118,1.621,0.118,3.845v11.341c0,1.304-0.056,1.739-0.118,2.337c-0.916-1.034-2.225-2.985-4.394-5.422l-18.103-20.089
	c-0.165-0.213-0.486-0.487-0.816-0.698c-0.437,0-1.194-0.056-1.621-0.056c-3.479,0-9.77-0.157-10.697-0.157
	c-0.108,0.212-0.211,0.536-0.211,0.753c0,0.113,0.103,0.874,0.155,1.041c0.816,0.206,2.609,0.481,4.069,2.058
	c0.875,0.971,2.393,2.331,2.879,3.415c0.165,0.393,0.219,0.978,0.219,1.738c0,2.81-0.162,6.779-0.162,10.568v11.029
	c0,1.789-0.16,3.204-0.324,4.12c-1.145,1.197-2.874,2.063-5.7,2.767c-0.108,0.28-0.218,0.703-0.218,0.971
	c0,0.169,0.052,0.717,0.162,0.761h1.032c1.086,0,3.579-0.162,5.21-0.162c2.393,0,4.012,0.162,6.238,0.162h3.236
	c0.212-0.044,0.268-0.705,0.268-0.916c0-0.219-0.056-0.654-0.155-0.867c-1.889-0.486-4.643-0.928-6.494-3.364
	c-0.376-0.816-0.7-4.837-0.7-6.737c0-1.732-0.065-4.113-0.065-7.322c0-4.287,0.065-8.025,0.115-9.919
	c0.324,0.373,0.701,0.858,0.976,1.177l25.049,28.172c0.274,0.269,1.246,0.324,1.522,0.324c0.267,0,0.436,0,0.647-0.106
	c0.107-0.268,0.487-1.147,0.487-2.435c0-1.577-0.058-3.216-0.058-4.021V46.287c0-6.786,3.204-8.68,6.948-8.849
	C332.945,37.163,333.001,36.684,333.001,36.409 M279.352,74.017c0-0.275-0.059-0.867-0.162-1.078
	c-0.816-0.063-3.034-0.275-4.012-0.493c-0.874-1.04-1.474-2.226-1.845-4.175c-0.056-2.612-0.116-7.983-0.116-13.03V41.894
	c0-1.464,0.595-2.605,0.985-2.936c1.036-0.971,3.088-1.177,4.83-1.408c0.11-0.21,0.159-0.803,0.159-1.027
	c0-0.326-0.159-0.761-0.268-0.867h-1.579c-2.282,0-7.597,0.268-9.442,0.268c-1.14,0-6.456-0.162-8.841-0.212h-1.194
	c-0.165,0.212-0.268,0.423-0.268,0.911c0,0.229,0.044,0.772,0.103,1.034c2.668,0.224,3.855,0.485,4.238,0.767
	c0.647,0.486,1.566,1.682,1.793,4.604c0.052,1.035,0.101,3.26,0.152,8.251c0.059,2.723,0.115,6.511,0.115,9.664
	c0,1.57-0.115,5.098-0.166,6.992c-0.101,1.309-0.383,2.555-0.753,3.26c-0.651,0.542-1.309,1.515-5.262,1.788
	c-0.116,0.219-0.175,0.922-0.175,1.147c0,0.43,0.116,0.643,0.116,0.917h0.919c2.173,0,7.599-0.275,10.418-0.275
	c0.82,0,6.454,0.162,8.248,0.162h1.798C279.292,74.665,279.352,74.228,279.352,74.017 M235.838,45.694
	c0,3.364-2.278,7.216-4.939,7.864c-1.084,0.275-2.449,0.443-4.445,0.443c-0.55,0-1.368,0-2.01-0.118l-0.059-4.612v-9.983
	c0-0.648,0.159-1.034,0.327-1.196c0.159-0.162,1.14-0.312,2.284-0.312c4.231,0,6.072,0.361,7.593,2.916
	C235.449,42.168,235.838,43.845,235.838,45.694 M251.568,74.073c0-0.275-0.108-0.922-0.268-1.133c-0.541,0-2.762-0.113-3.58-0.717
	c-0.267-0.319-0.703-0.973-0.924-1.359c-0.711-2.485-1.514-4.175-2.33-6.231c-1.147-2.717-2.717-5.271-4.02-6.469
	c-0.486-0.423-2.168-1.133-4.073-1.783c-0.865-0.324-1.566-0.597-2.217-0.865c0.81-0.162,1.194-0.231,2.217-0.319
	c4.024-0.498,4.939-1.196,5.968-2.019c2.177-1.632,3.371-4.12,3.371-7.054c0-4.4-2.823-8.619-6.784-9.877
	c-1.309-0.379-3.633-0.592-6.508-0.592c-4.073,0-9.771,0.379-12.482,0.379c-0.816,0-5.54-0.111-7.44-0.111
	c-0.809,0-2.872-0.106-3.195-0.106c-0.169,0.379-0.269,0.805-0.269,1.034c0,0.212,0.049,0.756,0.1,0.973
	c0.926,0.106,2.611,0.317,3.481,0.486c1.291,0.978,1.735,1.739,2.276,2.936c0.275,1.732,0.324,6.18,0.324,13.833
	c0,5.533,0.059,11.939-0.214,14.009c-0.162,1.346-0.651,2.966-2.228,3.621c-0.705,0.118-2.01,0.331-3.087,0.379
	c-0.176,0.275-0.278,0.816-0.278,1.084c0,0.169,0.102,0.599,0.219,0.874c0.766,0,9.066-0.157,10.796-0.157
	c3.471,0,6.408,0.157,9.496,0.157c0.116-0.213,0.216-0.599,0.216-0.818c0-0.367-0.1-0.916-0.216-1.14
	c-1.085-0.106-2.438-0.423-3.032-0.541c-1.357-0.643-2.342-1.944-2.342-3.852l-0.051-12.524c0.429-0.069,0.977-0.069,1.412-0.069
	c0.702,0,1.518,0.125,2.877,0.872c2.003,1.142,2.988,1.963,4.287,3.97c1.739,2.712,2.879,7.697,3.415,11.667
	c0.165,1.133,0.602,2.118,1.632,2.224c0.43,0.056,3.312,0.162,5.375,0.162h7.759C251.46,74.771,251.568,74.341,251.568,74.073
	 M192.644,45.956c0,2.774-0.982,5.216-2.766,6.786c-1.138,0.922-2.939,1.465-5.649,1.465c-1.135,0-2.01-0.043-2.327-0.099
	c-0.437-0.063-0.716-0.106-0.716-0.393l0.065-15.891c0.651-0.044,1.567-0.275,3.148-0.275c3.69,0,5.968,0.922,7.053,3.209
	C192.205,42.21,192.644,44.062,192.644,45.956 M202.351,46.18c0-4.069-2.334-7.87-5.8-9.434c-1.787-0.774-4.938-1.253-9.711-1.253
	c-4.181,0-10.697,0.324-13.565,0.324c-2.01,0-5.049-0.224-6.727-0.224c-0.172,0.275-0.282,0.654-0.282,0.872
	c0,0.219,0,0.816,0.165,1.084c1.029,0.331,2.715,0.592,3.805,0.874c0.914,0.809,1.135,1.52,1.462,3.091
	c0.159,1.9,0.273,4.293,0.273,8.412c0,11.447-0.059,17.467-0.218,18.769c-0.216,1.639-1.302,3.309-3.1,3.852
	c-0.816,0.162-2.01,0.435-3.142,0.541c-0.049,0.275-0.115,0.654-0.115,1.14c0,0.437,0.066,0.5,0.162,0.768
	c1.735,0,6.838-0.224,8.799-0.224c4.828,0,9.768,0.224,11.764,0.224h1.368c0.165-0.224,0.165-0.604,0.165-0.867
	c0-0.331,0-0.766-0.114-0.978c-1.627-0.211-4.073-0.541-5.098-1.744c-0.542-0.642-1.093-1.571-1.093-3.197l-0.165-11.939
	c3.261,0.218,6.739,0.324,8.632,0.324c2.496,0,4.609-0.423,6.292-0.971C199.962,54.164,202.351,50.355,202.351,46.18"/>
<path fill="#1D1D1B" d="M568.851,96.943c0-0.331-0.225-0.443-0.329-0.649c-2.226,0-5.148,0.162-6.3,0.162
	c-2.761,0-6.12-0.225-7.591-0.225c-0.161,0.33-0.217,0.381-0.217,0.654c0,0.275,0.056,0.481,0.105,0.65
	c1.583,0.316,3.851,0.71,4.288,1.471c0.38,0.691,0.497,1.239,0.497,2.105c0,0.649-0.049,1.303-0.335,2.013
	c-0.486,1.346-1.522,3.47-2.981,6.462c-2.504,5.035-4.068,8.182-4.947,9.428c-1.401-2.374-4.548-8.667-5.309-10.3l-3.041-6.624
	c-0.112-0.206-0.219-0.979-0.219-1.466c0-0.703,0.106-1.195,0.219-1.401c0.493-0.978,2.174-1.091,4.456-1.371
	c0.1-0.268,0.155-0.592,0.155-0.809c0-0.375-0.155-0.269-0.324-0.543h-0.972c-3.639,0-2.555,0.168-8.799,0.168
	c-2.654,0-5.858-0.168-6.287-0.168c-0.219,0.386-0.33,0.443-0.33,0.815c0,0.22,0.063,0.387,0.224,0.661
	c3.626,0.854,4.71,1.515,5.097,2.218l9.497,18.608c0.923,1.745,1.464,3.091,1.739,4.069c0.374,1.521,0.43,3.745,0.43,6.506
	c0,2.349-0.812,3.59-1.738,4.193c-0.382,0.218-3.099,0.593-4.345,0.698c-0.211,0.38-0.272,0.486-0.272,0.761
	c0,0.273,0.118,0.436,0.168,0.654c2.773,0,5.651-0.069,7.271-0.069c1.141,0,2.879,0.069,6.081,0.118
	c1.846,0.051,3.253,0.113,4.227,0.113c0.111-0.231,0.286-0.437,0.286-0.71c0-0.263-0.068-0.43-0.224-0.698
	c-1.746-0.219-4.176-0.548-4.724-1.091c-0.874-0.93-1.297-1.346-1.408-3.471l-0.437-8.151c-0.063-0.586,0.161-1.127,0.212-1.289
	c0.167-0.605,0.38-1.084,0.592-1.521l8.368-16.552c0.749-1.408,2.393-2.985,3.466-3.633c0.766-0.485,2.455-0.816,3.525-1.091
	C568.746,97.366,568.851,97.16,568.851,96.943 M525.007,108.122V97.584c0-0.81-0.323-1.022-1.135-1.022
	c-1.633,0-9.123,0.213-17.81,0.213c-6.724,0-11.229-0.106-14.271-0.106h-4.012c-0.698,0-0.922,0.155-0.922,0.916v9.821
	c0.224,0.169,0.386,0.218,0.647,0.218c0.224,0,0.436,0,0.654-0.1c2.113-4.73,3.202-7.216,6.836-9.067
	c1.633-0.167,7.321-0.211,8.201-0.211c0.049,0.585,0.104,2.485,0.155,4.772c0.056,3.902,0.056,6.014,0.056,15.25
	c0,7.969-0.056,12.094-0.162,12.961c-0.213,1.526,0.056,2.661-6.455,2.935c-0.162,0.374-0.162,0.485-0.162,0.922
	c0,0.218,0,0.431,0.049,0.647h2.12c2.005,0,4.661-0.217,6.617-0.217c1.576,0,4.562,0.168,7.863,0.168h1.522
	c0.168-0.274,0.168-0.548,0.168-0.811c0-0.336-0.057-0.498-0.219-0.766c-0.597,0-4.074,0.111-5.589-1.036
	c-0.169-0.592-0.492-2.161-0.492-4.056c-0.044-5.863-0.113-8.637-0.113-12.55c0-5.042,0.069-8.892,0.069-18.276
	c0.754,0,4.774-0.058,6.399,0c3.353,0.915,4.661,2.162,6.125,4.118c1.304,1.738,1.634,3.315,2.443,5.914
	c0.331,0.118,0.486,0.118,0.816,0.118C524.621,108.34,524.894,108.222,525.007,108.122 M479.915,134.917
	c0-0.269-0.063-0.542-0.161-0.754c-0.81-0.056-3.036-0.273-4.025-0.493c-0.86-1.028-1.459-2.217-1.832-4.175
	c-0.062-2.604-0.112-8.519-0.112-13.572v-13.771c0-1.466,0.599-2.617,0.971-2.93c1.035-0.978,3.098-1.202,4.825-1.421
	c0.111-0.218,0.174-0.486,0.174-0.691c0-0.336-0.174-0.549-0.275-0.654h-1.57c-2.279,0-5.532,0.263-7.39,0.263
	c-1.135,0-4.388-0.157-6.78-0.219h-1.196c-0.156,0.219-0.261,0.219-0.261,0.704c0,0.225,0.056,0.436,0.104,0.71
	c2.661,0.218,3.858,0.486,4.232,0.754c0.648,0.499,1.576,1.684,1.796,4.624c0.056,1.029,0.099,3.802,0.161,8.786
	c0.049,2.705,0.1,6.406,0.1,9.547c0,1.583-0.1,5.646-0.162,7.541c-0.099,1.302-0.374,2.56-0.748,3.251
	c-0.654,0.55-1.309,1.521-5.272,1.802c-0.107,0.219-0.155,0.592-0.155,0.811c0,0.436,0.093,0.436,0.093,0.703h0.935
	c2.174,0,5.533-0.268,8.357-0.268c0.815,0,4.393,0.15,6.187,0.15h1.783C479.852,135.354,479.915,135.136,479.915,134.917
	 M453.102,124.94c0-4.343-1.944-7.322-6.134-9.547c-1.133-0.654-3.14-1.364-6.012-2.181c-3.315-0.916-6.083-2-7.872-2.984
	c-1.189-0.643-3.209-2.438-3.209-5.907c0-3.473,3.534-6.345,7.652-6.345c3.26,0,5.87,1.621,7.44,3.783
	c1.359,1.907,1.845,2.778,3.359,6.186c0.169,0.058,0.379,0.118,0.541,0.118c0.493,0,0.923-0.273,1.197-0.541
	c-0.161-1.364-0.43-3.265-0.43-4.893c0-1.401,0.33-3.253,0.492-4.23c-0.436-0.654-0.934-0.761-1.632-0.761
	c-0.761,0.492-1.471,1.241-2.12,1.958c-3.577-2.879-6.504-3.366-9.221-3.366c-6.675,0-11.449,4.455-11.449,10.362
	c0,2.014,0.705,3.965,2.002,5.97c1.195,1.677,2.941,2.985,5.271,3.965c1.57,0.641,8.624,2.772,9.596,3.146
	c4.344,1.688,5.977,3.141,5.977,6.992c0,1.907-0.816,3.589-2.394,5.483c-1.401,1.739-3.632,2.556-6.014,2.556
	c-2.561,0-6.954-1.085-9.123-4.014c-1.309-1.677-3.146-5.209-3.688-7.334c-0.382-0.102-0.382-0.102-0.761-0.102
	c-0.324,0-0.71,0.102-1.034,0.319c0,0.71,0.225,4.281,0.225,5.371c0,2.654-0.487,3.957-0.599,4.841
	c0.15,0.543,1.084,1.085,1.745,1.085c1.127-0.983,2.317-1.744,2.71-1.744c0.317,0,0.805,0.162,1.29,0.492
	c3.526,2.287,6.462,2.71,9.073,2.71C447.623,136.331,453.102,132.48,453.102,124.94 M405.088,106.215
	c0,3.471-2.773,7.378-5.963,8.088c-1.315,0.274-3.216,0.437-5.652,0.437c-0.647,0-2.492,0-3.304-0.118l-0.06-4.768V99.598
	c0-0.717,0.167-1.092,0.372-1.246c0.225-0.162,2.449-0.331,3.802-0.331c5.098,0,7.439,0.485,9.285,3.146
	C404.602,102.631,405.088,104.321,405.088,106.215 M416.479,134.967c0-0.261-0.1-0.592-0.274-0.804c-0.537,0-2.761-0.1-3.577-0.717
	c-0.269-0.317-0.703-0.967-0.923-1.346c-0.703-2.499-1.464-4.724-2.279-6.779c-1.136-2.719-2.717-5.273-4.014-6.462
	c-0.486-0.431-2.014-1.147-3.914-1.79c-0.86-0.33-1.57-0.604-2.218-0.871c0.816-0.157,1.19-0.213,2.218-0.324
	c3.527-0.43,4.73-1.19,5.759-2.007c2.169-1.62,3.577-4.065,3.577-7.005c0-4.387-2.816-8.573-6.781-9.819
	c-1.309-0.375-3.64-0.587-6.511-0.587c-4.069,0-7.11,0.367-9.821,0.367c-0.81,0-3.478-0.104-5.365-0.104
	c-0.815,0-2.885-0.107-3.209-0.107c-0.156,0.373-0.268,0.498-0.268,0.703c0,0.22,0.049,0.536,0.111,0.761
	c0.915,0.113,2.599,0.324,3.465,0.485c1.309,0.974,1.744,1.746,2.28,2.941c0.268,1.727,0.331,6.619,0.331,14.271
	c0,5.526,0.055,12.482-0.218,14.537c-0.162,1.352-0.649,2.98-2.231,3.627c-0.698,0.125-2.007,0.33-3.091,0.393
	c-0.162,0.262-0.275,0.479-0.275,0.754c0,0.169,0.113,0.38,0.22,0.647c0.761,0,7.01-0.161,8.737-0.161
	c3.476,0,4.342,0.161,7.433,0.161c0.111-0.217,0.225-0.379,0.225-0.597c0-0.381-0.113-0.599-0.225-0.805
	c-1.077-0.112-2.443-0.441-3.04-0.543c-1.348-0.659-2.325-1.963-2.325-3.863l-0.056-13.559c0.437-0.063,2-0.063,2.437-0.063
	c1.464,0,2.941,0.118,4.343,0.766c2.064,0.916,4.02,2.387,5.315,4.394c1.738,2.712,2.88,7.87,3.428,11.828
	c0.155,1.146,0.592,2.118,1.621,2.225c0.43,0.056,1.089,0.168,3.151,0.168h5.641C416.38,135.465,416.479,135.254,416.479,134.967
	 M370.951,126.729c0-0.761,0-1.092-0.049-1.577c-0.275-0.169-0.375-0.169-0.816-0.169c-0.381,0-0.33,0-0.712,0.118
	c-1.189,3.958-3.246,6.899-5.588,8.301c-0.81,0.487-2.282,0.592-4.605,0.592h-6.076c-1.894-0.056-3.091-0.162-3.589-0.273
	c-0.811-0.15-1.683-1.465-2.051-2.33c-0.392-0.923-0.603-1.246-0.603-3.746v-12.369h1.738c1.739,0,3.148,0.118,4.605,0.766
	c1.371,0.599,2.393,1.452,2.929,2.325c0.499,0.766,0.661,3.751,0.773,4.505c0.264,0.168,0.43,0.212,0.86,0.212
	c0.43,0,0.487-0.044,0.873-0.268c0-1.452-0.323-5.422-0.323-7.591c0-2.71,0.379-6.032,0.534-7.977
	c-0.211-0.111-0.323-0.217-0.859-0.217c-0.387,0-0.535,0-0.879,0.149c-0.155,0.766-0.592,3.048-0.691,3.216
	c-0.823,1.352-2.724,2.442-4.181,2.872c-0.985,0.269-2.393,0.442-4.455,0.442h-0.874v-5.327c0-5.21,0.113-7.322,0.162-8.308
	c0.063-0.647,0.169-1.346,0.225-1.831c0.487-0.056,2.063-0.113,4.561-0.113c3.142,0,5.477,0.058,5.97,0.058
	c1.521,0.1,2.654,0.43,3.472,1.084c2.654,2.056,3.357,3.427,4.828,6.729c0.324,0.1,0.375,0.1,0.649,0.1c0.324,0,0.38-0.1,0.81-0.317
	c0-3.309-0.213-7.054-0.324-8.418c-0.056-0.543-0.161-0.698-1.246-0.698c-0.437,0-2.499-0.106-4.661-0.106
	c-3.103,0-4.349,0.051-9.067,0.051c-2.548,0-7.047,0.056-9.278,0.056c-3.253,0-3.97-0.106-5.378-0.106h-1.856
	c-0.169,0.213-0.275,0.424-0.275,0.643c0,0.28,0.106,0.542,0.275,0.772c0.654,0.213,3.221,0.155,3.981,0.585
	c0.749,0.661,1.459,0.816,1.951,3.422c0.106,1.141,0.167,4.835,0.167,7.329v11.165c0,2.282-0.061,6.032-0.111,7.38
	c-0.113,2.125-0.872,4.784-1.197,5.272c-0.491,0.387-2.717,0.703-4.898,0.81c-0.169,0.33-0.286,0.548-0.286,0.872
	c0,0.325,0.117,0.492,0.286,0.761h1.794c1.753,0,6.095-0.162,7.554-0.162c1.357,0,3.202,0.106,6.344,0.106
	c1.744,0,6.835,0.33,17.81,0.33c0.431,0,0.916,0.063,1.457-0.113c0.162-0.268,0.162-0.379,0.213-0.859
	C370.951,133.788,370.951,131.122,370.951,126.729 M330.777,97.11c0-0.225-0.056-0.549-0.273-0.61h-1.845
	c-1.302,0-3.359,0.112-4.287,0.112c-4.395,0-5.965-0.274-6.624-0.274h-0.973c-0.111,0.274-0.273,0.437-0.273,0.705
	c0,0.217,0.111,0.386,0.111,0.597c1.353,0.162,2.543,0.437,3.745,0.816c0.641,0.648,1.357,1.958,1.357,3.428
	c0,0.53-0.541,3.085-1.314,4.935l-8.73,21.48l-10.719-27.188c0.159-1.29,0.867-2.55,1.779-3.035c0.919-0.1,2.048-0.437,3.524-0.437
	c0.1-0.211,0.211-0.529,0.211-0.754c0-0.218-0.049-0.548-0.273-0.592h-1.371c-1.658,0-4.204,0.206-7.073,0.206
	c-1.246,0-3.69-0.106-6.083-0.106h-2.113c-0.115,0.219-0.218,0.325-0.218,0.649c0,0.323,0.059,0.441,0.162,0.659
	c1.518,0.374,2.985,0.966,4.561,1.833c1.029,1.526,3.253,7.01,4.452,9.877l4.487,10.86c3.728,9.017,5.966,15.03,6.234,16.059
	c0.273,0.169,0,0.317,0.485,0.317c0.486,0,0.438-0.093,0.543-0.367l14.002-33.65c0.486-1.19,1.24-2.323,1.949-3.096
	c0.867-0.974,2.661-1.346,4.338-1.733C330.608,97.584,330.777,97.366,330.777,97.11 M283.259,134.917
	c0-0.269-0.046-0.542-0.162-0.754c-0.816-0.056-3.034-0.273-4.012-0.493c-0.867-1.028-1.462-2.217-1.852-4.175
	c-0.049-2.604-0.1-8.519-0.1-13.572v-13.771c0-1.466,0.592-2.617,0.975-2.93c1.029-0.978,3.088-1.202,4.823-1.421
	c0.109-0.218,0.165-0.486,0.165-0.691c0-0.336-0.165-0.549-0.273-0.654h-1.568c-2.287,0-5.54,0.263-7.385,0.263
	c-1.137,0-4.397-0.157-6.776-0.219h-1.199c-0.16,0.219-0.275,0.219-0.275,0.704c0,0.225,0.056,0.436,0.115,0.71
	c2.656,0.218,3.848,0.486,4.231,0.754c0.652,0.499,1.573,1.684,1.793,4.624c0.049,1.029,0.108,3.802,0.159,8.786
	c0.059,2.705,0.115,6.406,0.115,9.547c0,1.583-0.115,5.646-0.165,7.541c-0.108,1.302-0.383,2.56-0.766,3.251
	c-0.646,0.55-1.297,1.521-5.256,1.802c-0.109,0.219-0.168,0.592-0.168,0.811c0,0.436,0.116,0.436,0.116,0.703h0.912
	c2.176,0,5.547-0.268,8.359-0.268c0.816,0,4.396,0.15,6.191,0.15h1.786C283.213,135.354,283.259,135.136,283.259,134.917
	 M258.735,96.985c0-0.211-0.056-0.373-0.165-0.529h-1.243c-2.715,0-3.914,0.105-8.79,0.105c-1.69,0-4.186-0.105-4.771-0.105h-1.423
	c-0.16,0.105-0.212,0.487-0.212,0.704c0,0.269,0.052,0.375,0.268,0.586c0.868,0.274,4.18,0.654,5.595,1.576
	c0.973,1.146,1.405,3.427,1.57,5.54c0.054,0.805,0.103,1.627,0.103,3.852v16.115c0,1.309-0.049,1.738-0.103,2.335
	c-0.924-1.026-2.496-3.047-4.614-5.539l-20.732-24.196c-0.159-0.225-0.482-0.485-0.816-0.71c-0.427,0-0.97-0.051-1.403-0.051
	c-3.471,0-6.515-0.168-7.44-0.168c-0.103,0.219-0.158,0.323-0.158,0.543c0,0.117,0.056,0.541,0.106,0.703
	c0.82,0.23,3.206,0.499,4.188,1.527c0.867,0.972,2.162,2.111,2.654,3.202c0.158,0.375,0.224,0.967,0.224,1.732
	c0,2.823-0.167,7.97-0.167,11.777v11.561c0,1.787-0.165,3.195-0.331,4.117c-1.138,1.198-2.874,2.058-5.7,2.774
	c-0.108,0.269-0.211,0.373-0.211,0.648c0,0.169,0.052,0.486,0.162,0.529h1.025c1.088,0,3.585-0.15,5.221-0.15
	c2.371,0,3.465,0.15,5.678,0.15h3.275c0.21-0.043,0.254-0.479,0.254-0.697c0-0.211-0.044-0.324-0.159-0.542
	c-1.897-0.485-4.658-0.929-6.503-3.366c-0.383-0.815-0.717-4.934-0.717-6.834c0-1.734-0.05-4.557-0.05-7.753
	c0-4.286,0.05-10.207,0.116-12.101c0.317,0.372,0.816,0.964,1.187,1.407l25.721,30.117c0.268,0.269,0.383,0.311,0.656,0.311
	c0.268,0,0.103,0,0.322-0.101c0.106-0.273,0.273-1.14,0.273-2.436c0-1.576-0.059-3.204-0.059-4.02v-23.057
	c0-6.78,3.209-8.693,6.948-8.843C258.68,97.429,258.735,97.26,258.735,96.985 M208.484,97.26c0-0.217-0.103-0.541-0.267-0.698
	h-1.572c-1.681,0-3.963,0.106-5.919,0.106c-2.162,0-4.609-0.106-6.191-0.106h-1.944c-0.168,0.324-0.224,0.424-0.224,0.698
	c0,0.225,0.056,0.442,0.165,0.717c0.225,0,4.181,0.044,4.882,1.029c0.599,0.815,1.9,2.809,2.118,4.012
	c0.109,0.543,0.433,2.767,0.433,5.965c0,4.61,0,7.701-0.049,9.327c-0.109,3.054-0.443,5.435-0.985,7.218
	c-1.518,4.729-5.042,7.059-10.631,7.059c-2.388,0-4.447-0.485-6.347-1.357c-3.53-1.733-5.216-5.042-5.265-6.837l-0.275-16.27
	l-0.044-6.619c0-1.258,1.561-2.398,2.103-3.047c0.443-0.211,2.83-0.436,4.188-0.542c0.16-0.33,0.268-0.485,0.268-0.754
	c0-0.275-0.159-0.548-0.383-0.704l-2.052,0.044c-2.021,0.062-4.675,0.112-6.351,0.112c-2.61,0-4.621-0.051-6.241-0.051h-2.276
	c-0.225,0.157-0.275,0.481-0.275,0.754c0,0.269,0.05,0.486,0.216,0.661c1.735,0.213,2.872,0.375,3.632,0.529
	c0.926,0.543,1.58,1.464,1.9,2.387c0.056,0.717,0.159,2.443,0.159,5.863v13.03c0,3.366,0.172,5.741,0.548,7.267
	c0.695,2.823,2.223,5.048,4.724,6.668c2.656,1.744,5.968,2.61,9.928,2.61c3.639,0,6.727-0.76,9.331-2.224
	c2.711-1.466,4.396-3.852,5.373-7.216c0.542-2.001,0.869-4.183,0.869-6.456v-10.42c0-1.951,0.113-4.393,0.113-5.378
	c0.052-2.922,0.813-4.668,1.629-5.97c0.867-0.268,1.626-0.423,4.496-0.754C208.381,97.702,208.484,97.535,208.484,97.26"/>
</svg>
