<svg xmlns="http://www.w3.org/2000/svg" viewBox="0 0 297.9 54.35"><title>Purdue University logo</title><path d="M481.77,489l-3.42-1v-2.44h13.31c8.67,0,11.85,2.81,11.85,9.28,0,6.11-3.54,9.28-10.38,9.28h-5.37v9.77l3.42,1v2.44H478.23V515l3.54-1Zm6,0v12.34l6.35-.49c1.59-.73,3.18-1.71,3.18-5.62,0-3.05-.12-6.23-6-6.23Z" transform="translate(-363.05 -484.82)" style="fill:#141414"/><path d="M553.1,503.88h-4.27v10.26l3.42,1v2.2H539.18V515l3.54-1V489l-3.42-1v-2.44h13.92c8.31,0,11.24,2.93,11.24,8.55,0,4.4-1.71,6.6-5.62,8.18l5.86,11.48,3.79,1.22v2.32H559.7ZM548.83,489v12.09l6.47-.49c2.08-1,3.05-2.69,3.05-6,0-3.54-1.1-5.74-4.76-5.74Z" transform="translate(-363.05 -484.82)" style="fill:#141414"/><path d="M571.18,515.11l3.42-1V489l-3.42-1v-2.44h15.39c8.67,0,13.8,5.25,13.8,15.51,0,11.6-5.25,16.24-14.41,16.24H571.18ZM580.7,489v25.16h4.52c3.18,0,8.55-.49,8.55-12,0-9-1.59-13.19-8.55-13.19Z" transform="translate(-363.05 -484.82)" style="fill:#141414"/><path d="M491.66,533.92c0,3.91-2.2,5.25-5.86,5.25s-5.86-2.2-5.86-5.25v-7.69l-1.71-.49v-1.47h6.72v1.47l-1.59.49v7.69c0,2,.73,3.05,2.93,3.05,1.1,0,2.93-.37,2.93-3.18v-7.69l-1.71-.49v-1.47h5.86v1.47l-1.71.49Z" transform="translate(-363.05 -484.82)" style="fill:#141414"/><path d="M503.39,529.89V537l1.59.49v1.47h-5.74v-1.47l1.71-.49V526.84l-.73-.85-1-.37V524H503l7.21,9V526l-1.71-.49V524h5.74v1.47l-1.71.49v12.82h-2Z" transform="translate(-363.05 -484.82)" style="fill:#141414"/><path d="M526.6,537.1l1.71.49v1.47h-6.84v-1.47l1.71-.49V526.23l-1.71-.49v-1.47h6.84v1.47l-1.71.49Z" transform="translate(-363.05 -484.82)" style="fill:#141414"/><path d="M618.08,537.1l1.71.49v1.47h-6.84v-1.47l1.71-.49V526.23l-1.71-.49v-1.47h6.84v1.47l-1.71.49Z" transform="translate(-363.05 -484.82)" style="fill:#141414"/><path d="M543.82,538.93h-3.18L536,526.11l-1.71-.49v-1.47h7.21v1.47l-1.71.49,3.18,9.16,3.18-9.16-1.71-.49v-1.47h5.86v1.47l-1.71.49Z" transform="translate(-363.05 -484.82)" style="fill:#141414"/><path d="M557.25,526.23l-1.71-.49v-1.47h11.6l.12,4.52h-1.71l-.85-2.56H560.8v4.15h3.79v2.08H560.8v4.64h3.91l1.22-2.56h1.83l-.24,4.52H555.67v-1.47l1.71-.37v-11Z" transform="translate(-363.05 -484.82)" style="fill:#141414"/><path d="M581.56,532.95h-1.22v4.15l1.71.49v1.47h-6.84v-1.47l1.71-.49V526.23l-1.71-.49v-1.47h6.72c4.15,0,5.37,1.59,5.37,4.15,0,1.59-.37,3.18-2.44,3.91l2.44,4.76,2.08.61v1.34h-5Zm-1.22-6.72v5.13l2.32-.24a3.44,3.44,0,0,0,1.22-2.56c0-1.47-.37-2.44-2-2.44h-1.59Z" transform="translate(-363.05 -484.82)" style="fill:#141414"/><path d="M595.36,534.41h2.08l.49,2.08a5.92,5.92,0,0,0,3.18.85h.49a2.49,2.49,0,0,0,1-1.83c0-3.42-7.08-2-7.08-7,0-2.32,2.08-4.52,5.62-4.52a9.33,9.33,0,0,1,4,1v3.91h-2l-.73-2.44A7.9,7.9,0,0,0,600,526h-.37a2,2,0,0,0-1,1.71c0,2.93,7,2,7,6.84,0,2.69-2.44,4.64-5.62,4.64a8.5,8.5,0,0,1-4.52-1.34Z" transform="translate(-363.05 -484.82)" style="fill:#141414"/><path d="M631.51,526.23h-2l-.85,2.56h-1.83v-4.64h12.95v4.64H638l-.85-2.56h-2.08V537.1l1.71.49v1.47h-6.84v-1.47l1.71-.49V526.23Z" transform="translate(-363.05 -484.82)" style="fill:#141414"/><path d="M651.3,533.31l-3.91-7.08-1.71-.49v-1.47h7.21v1.47l-1.71.49,2.44,4.76,2.44-4.76-1.71-.49v-1.47h5.86v1.47l-1.71.49-3.91,7.08v3.79l1.71.49v1.47h-6.84v-1.47l1.71-.49v-3.79Z" transform="translate(-363.05 -484.82)" style="fill:#141414"/><polygon points="294.6 23.33 292.28 29.19 282.39 29.19 282.39 17.83 288.01 17.83 288.74 21.01 291.18 21.01 291.18 11.36 288.74 11.36 288.01 14.54 282.39 14.54 282.39 4.15 291.92 4.15 293.63 10.26 297.17 10.26 296.92 0.73 272.86 0.73 272.86 3.18 276.28 4.15 276.28 29.31 272.74 30.29 272.74 32.49 297.41 32.49 297.9 23.33 294.6 23.33" style="fill:#141414"/><path d="M533.19,506.44c0,8.06-3.91,11.36-11.73,11.36-7.21,0-12.46-2.93-12.46-10.63V489l-3.54-1v-2.44h12.95V488L515,489v18.2c0,4.64,2.08,6.6,7.21,6.6,3.54,0,6.72-2.08,6.72-7V489l-3.54-1v-2.44h11.24V488l-3.42,1Z" transform="translate(-363.05 -484.82)" style="fill:#141414"/><path d="M629.68,506.44c0,8.06-3.91,11.36-11.73,11.36-7.21,0-12.58-2.93-12.58-10.63V489L602,488v-2.44H614.9V488l-3.42,1v18.2c0,4.64,2.08,6.6,7.21,6.6,3.54,0,6.72-2.08,6.72-7V489L622,488v-2.44h11.24V488l-3.42,1v17.47Z" transform="translate(-363.05 -484.82)" style="fill:#141414"/><path d="M417,539.05l6.84-16.12h11.36c16.37,0,22.6-6.72,27-16.86,1.59-3.79,4.27-10,.73-15.39s-11-5.86-16.24-5.86H386.38l-8.55,19.91H388.7L382.59,519h-11l-8.55,20Z" transform="translate(-363.05 -484.82)" style="fill:#cfb991"/><path d="M459.79,492.76c-2-2.93-6.11-4.27-13.19-4.27H388.82l-5.25,12.58h10.87l-9.16,21.62h-11l-5.37,12.58h45.68L420,522.69H408.85l1.47-3.54h24.92c16,0,20.28-6.84,23.57-14.66,1.71-4,3.3-8.31,1-11.73m-41.65,8.31h18.32c2.56,0,2.2,1.22,1.83,2.08a6.17,6.17,0,0,1-5.86,3.54H415.69Z" transform="translate(-363.05 -484.82)" style="fill:#9d9795"/><path d="M446.72,490.44H390.17l-3.66,8.67h10.87L386.5,524.64h-11l-3.66,8.67h41.53l3.66-8.67H405.92l3.18-7.33h26.14c15,0,18.81-6.35,21.74-13.44s4.76-13.44-10.26-13.44m-14.29,18.2H412.88l4-9.4h19.54c3.42,0,4.89,1.83,3.54,4.76a8.08,8.08,0,0,1-7.57,4.64" transform="translate(-363.05 -484.82)"/></svg>