<svg id="Layer_1" data-name="Layer 1" xmlns="http://www.w3.org/2000/svg" viewBox="0 0 231.65 248.02"><title>UC Irvine Anteaters logo - Brandlogos.net</title><path d="M302,260v25.3h13.2v47.32a121.74,121.74,0,0,0-13.59,5.85c-21.23,11-33.43,26.89-33.43,43.75S280.38,415,301.61,426a100.07,100.07,0,0,0,13.59,5.85v18.65c0,33.93,26.49,57.54,64.48,57.54H390c38,0,64.48-23.71,64.48-57.54V435.89q25.89-5.8,44-16.37L481.27,396.2c-.2.1-.3.2-.5.3a119.67,119.67,0,0,1-26.19,9.72V358.31A119.67,119.67,0,0,1,480.78,368c.6.3,1.09.6,1.69.89l17.36-23.21c-12.3-7.44-27.48-13.1-45.24-17.06V285.29h13.19V260H412.52v25.3h13.2v38.79q-12.65-1.34-26.49-1.78v-5.75h13.29v-25.2H357.26v25.2h13.29v5.75a238.5,238.5,0,0,0-26.49,2.78V285.29h13.2V260H302Zm97.22,91.07c9.72.4,18.55,1.09,26.49,2v58.33c-7.94,1-16.77,1.69-26.49,2Zm-28.67.2v62A196.73,196.73,0,0,1,344.07,410V354.44A181.12,181.12,0,0,1,370.56,351.26Zm-55.36,12.8v36.61c-.1-.2-.2-.3-.4-.3-12.3-6.35-17.86-13.69-17.86-18.06s5.56-11.81,17.86-18.06c.1-.1.3-.1.4-.2ZM344,439.26A217,217,0,0,0,370.46,442v5.85H357.27v25.3h55.26v-25.3H399.23v-5.66q14-.45,26.49-1.78v10c0,13.89-9.42,28.77-35.71,28.77H379.69c-26.29,0-35.71-14.88-35.71-28.77V439.26Z" transform="translate(-268.18 -259.99)" style="fill:#ffc72c"/><path d="M307.17,264.55v16.07h13.19v50.2a139.24,139.24,0,0,1,18.45-4.66V280.73H352V264.55H307.17Zm110.52,0v16.07H431v43.95q9.67,1.19,18.45,3V280.73h13.2V264.55ZM362.42,295.9V312h13.29V452.55H362.42v16.07h44.94V452.55H394.07V312h13.29V295.9Zm36.81,31.55V345.9c41,1.39,66.47,8.83,82.24,16.67l11.21-15c-22.52-12.1-53.87-18.85-93.45-20.14Zm-28.67.1c-26.49,1.39-49.31,6.65-66.47,15.58-19.54,10-30.75,24.3-30.75,39.09S284.55,411.28,304,421.3c17.16,8.83,40,14.19,66.47,15.58V418.42h.1c-53.57-3-78.67-22.62-78.67-36.21S317,349.08,370.56,346V327.55ZM431,353.64v57c6.85-1,12.9-2.08,18.45-3.37V357c-5.56-1.29-11.61-2.38-18.45-3.37Zm-92.16,2a119.23,119.23,0,0,0-18.45,6v41.37a115.78,115.78,0,0,0,18.45,6Zm141.47,46.82c-15.87,7.74-41.17,14.78-81.05,16.17v18.45c38.89-1.29,69.84-7.84,92.26-19.54l-11.21-15.08ZM320.46,433.7v16.87c0,30.85,24.41,52.38,59.33,52.38H390.1c34.92,0,59.32-21.53,59.32-52.38V437c-6,1.09-12,2.08-18.45,2.88v10.61c0,25-22,33.93-40.87,33.93H379.79c-30.16,0-40.87-18.25-40.87-33.93v-12.1a178.83,178.83,0,0,1-18.45-4.66Z" transform="translate(-268.18 -259.99)" style="fill:#0c2340"/></svg>